<svg width="24" height="24" viewBox="0 0 24 24" fill="none" xmlns="http://www.w3.org/2000/svg">
<rect width="24" height="24" rx="12" fill="#C9F2E9"/>
<path d="M10.7544 5.81498C9.8784 5.53141 8.92613 5.92585 8.50722 6.74578L8.00361 7.73151C7.94377 7.84864 7.84852 7.9439 7.73139 8.00373L6.74566 8.50735C5.92572 8.92625 5.53129 9.87852 5.81485 10.7545L6.15577 11.8076C6.19627 11.9327 6.19627 12.0675 6.15577 12.1926L5.81485 13.2457C5.53129 14.1217 5.92572 15.074 6.74566 15.4929L7.73139 15.9965C7.84852 16.0564 7.94377 16.1516 8.00361 16.2687L8.50722 17.2545C8.92613 18.0744 9.8784 18.4689 10.7544 18.1853L11.8075 17.8444C11.9326 17.8039 12.0674 17.8039 12.1925 17.8444L13.2456 18.1853C14.1216 18.4689 15.0739 18.0744 15.4928 17.2545L15.9964 16.2687C16.0562 16.1516 16.1515 16.0564 16.2686 15.9965L17.2544 15.4929C18.0743 15.074 18.4687 14.1217 18.1852 13.2457L17.8442 12.1926C17.8037 12.0675 17.8037 11.9327 17.8442 11.8076L18.1852 10.7545C18.4687 9.87852 18.0743 8.92625 17.2544 8.50735L16.2686 8.00373C16.1515 7.9439 16.0562 7.84864 15.9964 7.73151L15.4928 6.74578C15.0739 5.92585 14.1216 5.53141 13.2456 5.81498L12.1925 6.15589C12.0674 6.19639 11.9326 6.1964 11.8075 6.15589L10.7544 5.81498ZM8.72485 11.8484L9.60874 10.9645L11.3765 12.7323L14.9121 9.19678L15.7959 10.0807L11.3765 14.5001L8.72485 11.8484Z" fill="#33C083"/>
</svg>
