<svg width="24" height="24" viewBox="0 0 24 24" fill="none" xmlns="http://www.w3.org/2000/svg">
<circle cx="12" cy="12" r="12" fill="#C9F2E9"/>
<path fill-rule="evenodd" clip-rule="evenodd" d="M12.1663 5.33331C15.1989 5.33331 17.6663 7.81931 17.6663 10.8753C17.6663 14.632 13.3623 18.3333 12.1663 18.3333C10.9703 18.3333 6.66626 14.632 6.66626 10.8753C6.66626 7.81931 9.13359 5.33331 12.1663 5.33331ZM12.1663 6.33331C9.68493 6.33331 7.66626 8.37131 7.66626 10.8753C7.66626 14.0613 11.4156 17.1653 12.1663 17.3306C12.9169 17.1646 16.6663 14.0606 16.6663 10.8753C16.6663 8.37131 14.6476 6.33331 12.1663 6.33331ZM12.1669 8.66665C13.3616 8.66665 14.3336 9.63865 14.3336 10.834C14.3336 12.0286 13.3616 13 12.1669 13C10.9723 13 10.0003 12.0286 10.0003 10.834C10.0003 9.63865 10.9723 8.66665 12.1669 8.66665ZM12.1669 9.66665C11.5236 9.66665 11.0003 10.19 11.0003 10.834C11.0003 11.4773 11.5236 12 12.1669 12C12.8103 12 13.3336 11.4773 13.3336 10.834C13.3336 10.19 12.8103 9.66665 12.1669 9.66665Z" fill="#33C083"/>
</svg>
