<svg width="20" height="20" viewBox="0 0 20 20" fill="none" xmlns="http://www.w3.org/2000/svg">
<path d="M13.3333 13.75L16.6666 17.0833" stroke="#99A0AE" stroke-width="1.25" stroke-linecap="round" stroke-linejoin="round"/>
<path d="M15 9.58331C15 12.805 12.3883 15.4166 9.16665 15.4166C5.94499 15.4166 3.33331 12.805 3.33331 9.58331C3.33331 6.36168 5.94499 3.75 9.16665 3.75" stroke="#99A0AE" stroke-width="1.25" stroke-linecap="round" stroke-linejoin="round"/>
<path d="M12.9167 2.91669L13.1316 3.49755C13.4134 4.2592 13.5543 4.64004 13.8322 4.91785C14.11 5.19566 14.4908 5.33658 15.2525 5.61842L15.8333 5.83335L15.2525 6.04829C14.4908 6.33013 14.11 6.47105 13.8322 6.74886C13.5543 7.02667 13.4134 7.4075 13.1316 8.16916L12.9167 8.75L12.7017 8.16916C12.4199 7.4075 12.279 7.02667 12.0012 6.74886C11.7233 6.47105 11.3425 6.33013 10.5808 6.04829L10 5.83335L10.5808 5.61842C11.3425 5.33658 11.7233 5.19566 12.0012 4.91785C12.279 4.64004 12.4199 4.2592 12.7017 3.49755L12.9167 2.91669Z" stroke="#99A0AE" stroke-width="1.25" stroke-linecap="round" stroke-linejoin="round"/>
</svg>
