<svg width="20" height="20" viewBox="0 0 20 20" fill="none" xmlns="http://www.w3.org/2000/svg">
<path d="M2.08337 9.99998C2.08337 6.26803 2.08337 4.40205 3.24274 3.24268C4.40212 2.08331 6.26809 2.08331 10 2.08331C13.732 2.08331 15.598 2.08331 16.7574 3.24268C17.9167 4.40205 17.9167 6.26803 17.9167 9.99998C17.9167 13.7319 17.9167 15.5979 16.7574 16.7573C15.598 17.9166 13.732 17.9166 10 17.9166C6.26809 17.9166 4.40212 17.9166 3.24274 16.7573C2.08337 15.5979 2.08337 13.7319 2.08337 9.99998Z" stroke="#99A0AE" stroke-width="1.25"/>
<path d="M13.75 7.5C14.4404 7.5 15 6.94036 15 6.25C15 5.55964 14.4404 5 13.75 5C13.0596 5 12.5 5.55964 12.5 6.25C12.5 6.94036 13.0596 7.5 13.75 7.5Z" stroke="#99A0AE" stroke-width="1.25"/>
<path d="M13.3333 18.3333C12.8171 16.4791 11.6121 14.8184 9.89708 13.6118C8.04801 12.3108 5.72636 11.6222 3.34641 11.6689C3.06382 11.6683 2.78147 11.6773 2.5 11.6959" stroke="#99A0AE" stroke-width="1.25" stroke-linejoin="round"/>
<path d="M10.8334 15C12.2513 13.8944 13.7788 13.3273 15.3219 13.3334C16.1969 13.3325 17.0677 13.518 17.9167 13.8848" stroke="#99A0AE" stroke-width="1.25" stroke-linejoin="round"/>
</svg>
