<svg width="20" height="20" viewBox="0 0 20 20" fill="none" xmlns="http://www.w3.org/2000/svg">
<path d="M7.61951 8.90915L7.79194 8.73674C9.44085 7.08775 12.1144 7.08775 13.7633 8.73674C15.4123 10.3857 15.4123 13.0592 13.7633 14.7081L11.3748 17.0966C9.72585 18.7456 7.05234 18.7456 5.40339 17.0966C3.75445 15.4477 3.75445 12.7742 5.40339 11.1252L5.79035 10.7383" stroke="#99A0AE" stroke-width="1.25" stroke-linecap="round"/>
<path d="M14.2097 9.26169L14.5966 8.87477C16.2456 7.22581 16.2456 4.55234 14.5966 2.90339C12.9477 1.25445 10.2742 1.25445 8.62525 2.90339L6.23671 5.29194C4.58776 6.94089 4.58776 9.61435 6.23671 11.2633C7.88566 12.9123 10.5592 12.9123 12.2081 11.2633L12.3805 11.0909" stroke="#99A0AE" stroke-width="1.25" stroke-linecap="round"/>
</svg>
