<svg width="18" height="18" viewBox="0 0 18 18" fill="none" xmlns="http://www.w3.org/2000/svg">
<path d="M16.9978 1.11879C16.6083 0.699297 15.9975 0.542172 15.414 0.485931C14.801 0.426839 14.0667 0.466139 13.2761 0.569831C11.6907 0.777789 9.77521 1.25916 7.93521 1.85145C6.09405 2.44411 4.29933 3.15719 2.95526 3.84037C2.28634 4.18038 1.70616 4.52441 1.28439 4.85486C1.07437 5.01941 0.882728 5.19665 0.738569 5.38529C0.601069 5.56522 0.456411 5.82122 0.458394 6.12983C0.463619 6.9399 1.01529 7.5124 1.60277 7.89665C2.20241 8.2889 2.98336 8.58448 3.75972 8.81598C4.54441 9.04998 5.36959 9.23131 6.07899 9.37831C6.12548 9.3879 6.2184 9.40715 6.33227 9.43065C6.76107 9.51923 6.97547 9.56356 7.17702 9.50323C7.37854 9.4429 7.53354 9.28798 7.84338 8.97806L10.9108 5.91072C11.2362 5.58529 11.7639 5.58529 12.0893 5.91072C12.4147 6.23616 12.4147 6.76381 12.0893 7.08924L9.22879 9.94973C8.91288 10.2656 8.75496 10.4236 8.69521 10.6286C8.63538 10.8336 8.68363 11.0511 8.78004 11.4864C9.15371 13.1736 9.47821 14.5679 9.80196 15.5059C9.99104 16.0537 10.2038 16.528 10.4732 16.8777C10.7544 17.2427 11.1369 17.5185 11.6403 17.5407C11.9537 17.5546 12.2143 17.4115 12.393 17.2786C12.5813 17.1388 12.7584 16.9511 12.9226 16.7461C13.2526 16.3337 13.5994 15.7632 13.9444 15.1039C14.6377 13.7789 15.3719 12.0023 15.9931 10.1746C16.614 8.34773 17.1315 6.44215 17.3807 4.8584C17.505 4.06856 17.5665 3.33504 17.5324 2.72062C17.5 2.13795 17.3758 1.52586 16.9978 1.11879Z" fill="url(#paint0_linear_1338_1774)"/>
<defs>
<linearGradient id="paint0_linear_1338_1774" x1="17.257" y1="1.15559" x2="-2.40057" y2="10.8083" gradientUnits="userSpaceOnUse">
<stop stop-color="#6895FF"/>
<stop offset="1" stop-color="#A897FF"/>
</linearGradient>
</defs>
</svg>
