<svg width="20" height="20" viewBox="0 0 20 20" fill="none" xmlns="http://www.w3.org/2000/svg">
<path d="M10 17.5C13.1247 17.5 14.6872 17.5 15.7824 16.7042C16.1362 16.4472 16.4472 16.1362 16.7042 15.7824C17.5 14.6872 17.5 13.1247 17.5 10C17.5 6.87522 17.5 5.31283 16.7042 4.21756C16.4472 3.86383 16.1362 3.55276 15.7824 3.29576C14.6872 2.5 13.1247 2.5 10 2.5C6.87522 2.5 5.31283 2.5 4.21756 3.29576C3.86383 3.55276 3.55276 3.86383 3.29576 4.21756C2.5 5.31283 2.5 6.87522 2.5 10C2.5 13.1247 2.5 14.6872 3.29576 15.7824C3.55276 16.1362 3.86383 16.4472 4.21756 16.7042C5.31283 17.5 6.87522 17.5 10 17.5Z" stroke="#99A0AE" stroke-width="1.25" stroke-linecap="round" stroke-linejoin="round"/>
<path d="M13.3334 5.83331L6.66669 14.1666" stroke="#99A0AE" stroke-width="1.25" stroke-linecap="round" stroke-linejoin="round"/>
</svg>
