<svg width="24" height="24" viewBox="0 0 24 24" fill="none" xmlns="http://www.w3.org/2000/svg">
<path d="M11.9975 13.975C11.7175 13.975 11.4975 13.755 11.4975 13.475V6.475C11.4975 6.195 11.7175 5.975 11.9975 5.975C12.2775 5.975 12.4975 6.195 12.4975 6.475V13.475C12.4975 13.755 12.2775 13.975 11.9975 13.975ZM11.9975 15.975C11.4475 15.975 10.9975 16.425 10.9975 16.975C10.9975 17.525 11.4475 17.975 11.9975 17.975C12.5475 17.975 12.9975 17.525 12.9975 16.975C12.9975 16.425 12.5475 15.975 11.9975 15.975ZM13.8275 23.215L16.0675 20.975H18.4975C19.8775 20.975 20.9975 19.855 20.9975 18.475V16.045L23.2375 13.805C24.2475 12.795 24.2475 11.155 23.2375 10.155L20.9975 7.915V5.485C20.9975 4.105 19.8775 2.985 18.4975 2.985H16.0675L13.8275 0.735C12.8575 -0.245 11.1475 -0.245 10.1775 0.735L7.9375 2.975H5.5075C4.1275 2.975 3.0075 4.095 3.0075 5.475V7.905L0.7575 10.145C-0.2525 11.155 -0.2525 12.795 0.7575 13.795L2.9975 16.035V18.465C2.9975 19.845 4.1175 20.965 5.4975 20.965H7.9275L10.1675 23.205C10.6575 23.695 11.3075 23.965 11.9975 23.965C12.6875 23.965 13.3375 23.695 13.8275 23.205V23.215ZM8.1375 3.975C8.2675 3.975 8.3975 3.925 8.4875 3.825L10.8775 1.435C11.4775 0.835 12.5175 0.835 13.1175 1.435L15.5075 3.825C15.5975 3.915 15.7275 3.975 15.8575 3.975H18.4975C19.3275 3.975 19.9975 4.645 19.9975 5.475V8.115C19.9975 8.245 20.0475 8.375 20.1475 8.465L22.5375 10.855C23.1575 11.475 23.1575 12.475 22.5375 13.095L20.1475 15.485C20.0575 15.575 19.9975 15.705 19.9975 15.835V18.475C19.9975 19.305 19.3275 19.975 18.4975 19.975H15.8575C15.7275 19.975 15.5975 20.025 15.5075 20.125L13.1175 22.515C12.5175 23.115 11.4775 23.115 10.8775 22.515L8.4875 20.125C8.3975 20.035 8.2675 19.975 8.1375 19.975H5.4975C4.6675 19.975 3.9975 19.305 3.9975 18.475V15.835C3.9975 15.705 3.9475 15.575 3.8475 15.485L1.4575 13.095C0.8375 12.475 0.8375 11.475 1.4575 10.855L3.8475 8.465C3.9375 8.375 3.9975 8.245 3.9975 8.115V5.475C3.9975 4.645 4.6675 3.975 5.4975 3.975H8.1375Z" fill="#787891"/>
</svg>
