<svg width="24" height="24" viewBox="0 0 24 24" fill="none" xmlns="http://www.w3.org/2000/svg">
<path d="M22.69 8.831L15.165 1.306C14.32 0.459995 13.196 -0.00500488 12.001 -0.00500488C10.806 -0.00500488 9.682 0.459995 8.836 1.306L1.311 8.831C0.466 9.676 0 10.8 0 11.995C0 13.19 0.465 14.313 1.31 15.158L8.835 22.683C9.68 23.529 10.804 23.995 12 23.995C13.196 23.995 14.319 23.529 15.164 22.683L22.689 15.158C23.534 14.313 24 13.189 24 11.995C24 10.801 23.535 9.676 22.689 8.831H22.69ZM21.983 14.451L14.458 21.976C13.145 23.288 10.855 23.288 9.543 21.976L2.018 14.451C0.664 13.097 0.664 10.892 2.018 9.538L9.543 2.013C10.199 1.357 11.072 0.994995 12.001 0.994995C12.93 0.994995 13.802 1.356 14.458 2.013L21.983 9.538C23.337 10.892 23.337 13.097 21.983 14.451ZM13 17C13 17.552 12.552 18 12 18C11.448 18 11 17.552 11 17C11 16.448 11.448 16 12 16C12.552 16 13 16.448 13 17ZM11.5 13.5V6.5C11.5 6.224 11.724 6 12 6C12.276 6 12.5 6.224 12.5 6.5V13.5C12.5 13.776 12.276 14 12 14C11.724 14 11.5 13.776 11.5 13.5Z" fill="#787891"/>
</svg>
