<?xml version="1.0" encoding="UTF-8"?>
<svg xmlns="http://www.w3.org/2000/svg" id="Layer_1" data-name="Layer 1" viewBox="0 0 24 24">
  <path d="m11,23.5c0,.276-.224.5-.5.5h-6c-2.481,0-4.5-2.019-4.5-4.5V4.501C0,2.02,2.018,0,4.5,0h11c2.481,0,4.5,2.018,4.5,4.499v3c0,.276-.223.5-.5.5s-.5-.224-.5-.5v-3c0-1.93-1.571-3.5-3.5-3.5H4.5c-1.93,0-3.5,1.571-3.5,3.501v14.999c0,1.93,1.571,3.5,3.5,3.5h6c.276,0,.5.224.5.5Zm12.854.354c-.098.098-.226.146-.354.146s-.256-.049-.354-.146l-3.423-3.423c-1.137.976-2.611,1.569-4.224,1.569-3.584,0-6.5-2.916-6.5-6.5s2.916-6.5,6.5-6.5,6.5,2.916,6.5,6.5c0,1.612-.594,3.086-1.569,4.224l3.423,3.423c.195.195.195.512,0,.707Zm-2.854-8.354c0-3.032-2.467-5.5-5.5-5.5s-5.5,2.468-5.5,5.5,2.467,5.5,5.5,5.5,5.5-2.468,5.5-5.5ZM6.5,5h-2c-.276,0-.5.224-.5.5s.224.5.5.5h2c.276,0,.5-.224.5-.5s-.224-.5-.5-.5Zm0,10h-2c-.276,0-.5.224-.5.5s.224.5.5.5h2c.276,0,.5-.224.5-.5s-.224-.5-.5-.5Zm3-10c-.276,0-.5.224-.5.5s.224.5.5.5h6c.276,0,.5-.224.5-.5s-.224-.5-.5-.5h-6Zm-3,5h-2c-.276,0-.5.224-.5.5s.224.5.5.5h2c.276,0,.5-.224.5-.5s-.224-.5-.5-.5Zm11.643,4.131l-2.706,2.618c-.337.33-.886.334-1.223.004l-1.363-1.345c-.196-.194-.513-.192-.707.004-.194.197-.192.514.005.707l1.364,1.347c.362.354.837.531,1.312.531s.951-.178,1.311-.533l2.703-2.614c.198-.192.204-.509.012-.707-.191-.198-.508-.202-.707-.012Z"/>
</svg>
