<?xml version="1.0" encoding="UTF-8"?>
<svg xmlns="http://www.w3.org/2000/svg" id="Layer_1" data-name="Layer 1" viewBox="0 0 24 24">
  <path d="M20.033,13.372c-.209-.445-.449-.905-.71-1.38-.283-.512-.43-1.123-.426-1.767,.006-1.161-.069-2.339-.224-3.501-.419-3.156-3.391-5.724-6.623-5.724h-.103c-3.232,0-6.204,2.567-6.623,5.724-.155,1.163-.23,2.34-.224,3.501,.003,.645-.144,1.256-.426,1.767-.26,.473-.498,.932-.708,1.375-.46,.974-.498,2.062-.105,3.064,.393,1.003,1.16,1.778,2.16,2.181,.806,.325,1.641,.579,2.793,.736-.019,.143-.029,.288-.029,.433,0,1.775,1.442,3.22,3.214,3.22s3.214-1.444,3.214-3.22c0-.145-.01-.289-.029-.43,1.164-.157,2-.411,2.802-.737,.997-.405,1.761-1.179,2.152-2.181,.391-1.001,.353-2.087-.106-3.06Zm-5.819,6.408c0,1.224-.993,2.22-2.214,2.22s-2.214-.996-2.214-2.22c0-.111,.009-.22,.025-.328,.632,.049,1.351,.074,2.188,.074s1.559-.025,2.191-.073c.016,.107,.024,.217,.024,.327Zm4.994-3.711c-.29,.743-.857,1.317-1.596,1.617-1.277,.519-2.661,.84-5.613,.84-2.927,0-4.314-.322-5.603-.842-.743-.299-1.312-.874-1.603-1.618-.291-.743-.263-1.55,.079-2.272,.201-.425,.429-.865,.679-1.319,.364-.661,.554-1.44,.55-2.255-.006-1.115,.066-2.247,.215-3.364,.35-2.632,2.929-4.855,5.632-4.855h.103c2.703,0,5.282,2.224,5.632,4.855,.149,1.117,.221,2.249,.215,3.364-.004,.815,.186,1.595,.55,2.255,.25,.455,.48,.897,.682,1.324,.341,.722,.369,1.528,.079,2.27Z"/>
</svg>
