<svg width="25" height="24" viewBox="0 0 25 24" fill="none" xmlns="http://www.w3.org/2000/svg">
<path d="M22.751 22.229C23.831 21.143 24.5 19.648 24.5 18C24.5 14.691 21.809 12 18.5 12C15.192 12 12.501 14.692 12.5 18C12.5 21.309 15.191 24 18.5 24C20.16 24 21.665 23.321 22.751 22.229ZM23.5 18C23.5 19.198 23.059 20.285 22.353 21.147L15.353 14.147C16.215 13.442 17.301 13.001 18.499 13.001C21.256 13.001 23.499 15.244 23.499 18.001L23.5 18ZM13.5 18C13.5 16.802 13.941 15.715 14.647 14.853L21.647 21.853C20.785 22.558 19.699 22.999 18.501 22.999C15.744 22.999 13.501 20.756 13.501 17.999L13.5 18ZM9.5 12C12.809 12 15.5 9.309 15.5 6C15.5 2.691 12.809 0 9.5 0C6.191 0 3.5 2.691 3.5 6C3.5 9.309 6.191 12 9.5 12ZM9.5 1C12.257 1 14.5 3.243 14.5 6C14.5 8.757 12.257 11 9.5 11C6.743 11 4.5 8.757 4.5 6C4.5 3.243 6.743 1 9.5 1ZM11.492 14.719C11.443 14.991 11.181 15.172 10.913 15.124C10.448 15.042 9.973 15 9.5 15C5.089 15 1.5 18.589 1.5 23V23.5C1.5 23.776 1.276 24 1 24C0.724 24 0.5 23.776 0.5 23.5V23C0.5 18.038 4.537 14 9.5 14C10.031 14 10.565 14.047 11.087 14.14C11.359 14.188 11.541 14.448 11.492 14.72V14.719Z" fill="black"/>
</svg>
