<svg width="96" height="96" viewBox="0 0 96 96" fill="none" xmlns="http://www.w3.org/2000/svg">
<path d="M73.172 76L68.588 80.584C67.808 81.364 67.808 82.632 68.588 83.412C68.98 83.804 69.492 83.996 70.004 83.996C70.516 83.996 71.028 83.8 71.42 83.412L76.004 78.828L80.592 83.412C81.372 84.192 82.64 84.192 83.42 83.412C84.2 82.632 84.2 81.364 83.42 80.584L78.832 76L83.42 71.412C84.2 70.632 84.2 69.364 83.42 68.584C82.64 67.804 81.372 67.804 80.592 68.584L76.004 73.172L66.488 63.656C62.308 59.476 60.004 53.912 60.004 47.996C60.004 42.08 62.308 36.52 66.488 32.34L76.004 22.824L80.588 27.408C80.98 27.8 81.492 27.992 82.004 27.992C82.516 27.992 83.028 27.796 83.42 27.408C84.2 26.628 84.2 25.36 83.42 24.58L78.836 19.996L83.42 15.412C84.2 14.632 84.2 13.364 83.42 12.584C82.64 11.804 81.372 11.804 80.592 12.584L76.008 17.168L71.424 12.584C70.644 11.804 69.376 11.804 68.596 12.584C67.816 13.364 67.816 14.632 68.596 15.412L73.18 19.996L63.664 29.512C59.484 33.692 53.92 35.996 48.008 35.996C42.096 35.996 36.532 33.692 32.348 29.512L22.836 19.996L27.644 15.188C28.424 14.408 28.424 13.14 27.644 12.36C26.864 11.58 25.596 11.58 24.816 12.36L20.008 17.168L15.42 12.58C14.64 11.8 13.372 11.8 12.592 12.58C11.812 13.36 11.812 14.628 12.592 15.408L17.176 19.996L12.592 24.58C11.812 25.36 11.812 26.628 12.592 27.408C12.984 27.8 13.496 27.992 14.008 27.992C14.52 27.992 15.032 27.796 15.424 27.408L20.008 22.824L29.52 32.34C33.704 36.52 36.008 42.084 36.008 47.996C36.008 53.908 33.704 59.472 29.52 63.656L20.008 73.168L15.424 68.584C14.644 67.804 13.376 67.804 12.596 68.584C11.816 69.364 11.816 70.632 12.596 71.412L17.18 75.996L12.596 80.58C11.816 81.36 11.816 82.628 12.596 83.408C12.988 83.8 13.5 83.992 14.012 83.992C14.524 83.992 15.036 83.796 15.428 83.408L20.012 78.824L24.596 83.408C24.988 83.8 25.5 83.992 26.012 83.992C26.524 83.992 27.036 83.796 27.428 83.408C28.208 82.628 28.208 81.36 27.428 80.58L22.844 75.996L32.356 66.484C36.54 62.304 42.104 59.996 48.016 59.996C53.928 59.996 59.488 62.3 63.672 66.484L73.188 76H73.172ZM48 56C44.528 56 41.16 56.676 38.04 57.96C39.324 54.844 40 51.472 40 48C40 44.528 39.324 41.16 38.04 38.04C41.156 39.324 44.528 40 48 40C51.472 40 54.84 39.324 57.96 38.04C56.676 41.156 56 44.524 56 48C56 51.476 56.676 54.84 57.96 57.96C54.844 56.676 51.476 56 48 56ZM56.12 22.22C56.04 21.488 56 20.752 56 20C56 8.972 64.972 0 76 0C87.028 0 96 8.972 96 20C96 31.028 87.028 40 76 40C75.248 40 74.508 39.96 73.78 39.88C72.684 39.76 71.888 38.772 72.012 37.672C72.132 36.576 73.1 35.772 74.22 35.904C74.804 35.968 75.4 36 76 36C84.824 36 92 28.824 92 20C92 11.176 84.824 4 76 4C67.176 4 60 11.176 60 20C60 20.604 60.032 21.196 60.096 21.784C60.216 22.88 59.424 23.868 58.328 23.992C57.224 24.1 56.244 23.32 56.12 22.224V22.22ZM96 76C96 87.028 87.028 96 76 96C64.972 96 56 87.028 56 76C56 75.248 56.04 74.512 56.12 73.78C56.24 72.684 57.22 71.88 58.328 72.012C59.424 72.132 60.22 73.12 60.096 74.22C60.032 74.804 60 75.4 60 76C60 84.824 67.176 92 76 92C84.824 92 92 84.824 92 76C92 67.176 84.824 60 76 60C75.4 60 74.804 60.036 74.22 60.1C73.108 60.208 72.136 59.428 72.012 58.332C71.892 57.236 72.684 56.248 73.78 56.124C74.508 56.044 75.248 56 76 56C87.028 56 96 64.972 96 76ZM0 20C0 8.972 8.972 0 20 0C31.028 0 40 8.972 40 20C40 20.752 39.96 21.492 39.88 22.22C39.756 23.316 38.772 24.092 37.672 23.988C36.576 23.868 35.78 22.88 35.904 21.78C35.968 21.196 36 20.6 36 19.996C36 11.172 28.824 3.996 20 3.996C11.176 3.996 4 11.176 4 20C4 28.824 11.176 36 20 36C20.6 36 21.196 35.968 21.78 35.904C22.896 35.776 23.864 36.576 23.988 37.672C24.112 38.768 23.316 39.756 22.22 39.88C21.492 39.96 20.752 40 20 40C8.972 40 0 31.028 0 20ZM39.88 73.78C39.96 74.512 40 75.248 40 76C40 87.028 31.028 96 20 96C8.972 96 0 87.028 0 76C0 64.972 8.972 56 20 56C20.752 56 21.492 56.044 22.22 56.124C23.316 56.244 24.112 57.232 23.988 58.332C23.864 59.428 22.892 60.204 21.78 60.1C21.196 60.036 20.6 60 20 60C11.176 60 4 67.176 4 76C4 84.824 11.176 92 20 92C28.824 92 36 84.824 36 76C36 75.4 35.968 74.804 35.904 74.22C35.784 73.124 36.576 72.136 37.672 72.012C38.776 71.884 39.756 72.684 39.88 73.78Z" fill="#787891"/>
</svg>
