<svg width="96" height="96" viewBox="0 0 96 96" fill="none" xmlns="http://www.w3.org/2000/svg">
<path d="M76 47.9721L90.14 34.1401C93.92 30.3641 96 25.3401 96 19.9961C96 14.6521 93.92 9.63209 90.14 5.85209C86.364 2.07609 81.34 -0.00390625 76 -0.00390625C70.66 -0.00390625 65.636 2.07609 61.856 5.85209C54.056 13.6521 54.056 26.3401 61.872 34.1521L76 47.9681V47.9721ZM64.684 8.68409C67.708 5.66409 71.724 4.00009 76 4.00009C80.276 4.00009 84.292 5.66409 87.312 8.68409C90.336 11.7041 92 15.7241 92 20.0001C92 24.2761 90.336 28.2921 87.328 31.3001L76 42.3801L64.684 31.3161C58.444 25.0761 58.444 14.9201 64.684 8.68409ZM8 80.0001C3.588 80.0001 0 83.5881 0 88.0001C0 92.4121 3.588 96.0001 8 96.0001C12.412 96.0001 16 92.4121 16 88.0001C16 83.5881 12.412 80.0001 8 80.0001ZM8 92.0001C5.796 92.0001 4 90.2041 4 88.0001C4 85.7961 5.796 84.0001 8 84.0001C10.204 84.0001 12 85.7961 12 88.0001C12 90.2041 10.204 92.0001 8 92.0001ZM42 64.0001C42 68.4121 45.588 72.0001 50 72.0001C54.412 72.0001 58 68.4121 58 64.0001C58 59.5881 54.412 56.0001 50 56.0001C45.588 56.0001 42 59.5881 42 64.0001ZM54 64.0001C54 66.2041 52.204 68.0001 50 68.0001C47.796 68.0001 46 66.2041 46 64.0001C46 61.7961 47.796 60.0001 50 60.0001C52.204 60.0001 54 61.7961 54 64.0001ZM96 78.0001C96 85.7201 89.72 92.0001 82 92.0001H23.496C23.824 90.7201 24 89.3801 24 88.0001H82C87.512 88.0001 92 83.5121 92 78.0001C92 72.4881 87.512 68.0001 82 68.0001H65.496C65.824 66.7201 66 65.3801 66 64.0001H82C89.72 64.0001 96 70.2801 96 78.0001ZM34.504 68.0001H22C14.28 68.0001 8 61.7201 8 54.0001C8 46.2801 14.28 40.0001 22 40.0001H56.404L60.496 44.0001H22C16.488 44.0001 12 48.4881 12 54.0001C12 59.5121 16.488 64.0001 22 64.0001H34C34 65.3801 34.176 66.7201 34.504 68.0001Z" fill="#787891"/>
</svg>
