<svg width="20" height="28" viewBox="0 0 20 28" fill="none" xmlns="http://www.w3.org/2000/svg">
<path d="M14.0833 0H5.91663C3.02213 0 0.666626 2.3555 0.666626 5.25V22.75C0.666626 25.6445 3.02213 28 5.91663 28H14.0833C16.9778 28 19.3333 25.6445 19.3333 22.75V5.25C19.3333 2.3555 16.9778 0 14.0833 0ZM5.91663 26.8333C3.66496 26.8333 1.83329 25.0017 1.83329 22.75V5.25C1.83329 2.99833 3.66496 1.16667 5.91663 1.16667H14.0833C16.335 1.16667 18.1666 2.99833 18.1666 5.25V22.75C18.1666 25.0017 16.335 26.8333 14.0833 26.8333H5.91663ZM12.3333 4.08333C12.3333 4.40533 12.072 4.66667 11.75 4.66667H8.24996C7.92796 4.66667 7.66663 4.40533 7.66663 4.08333C7.66663 3.76133 7.92796 3.5 8.24996 3.5H11.75C12.072 3.5 12.3333 3.76133 12.3333 4.08333Z" fill="black"/>
</svg>
