<svg width="16" height="16" viewBox="0 0 16 16" fill="none" xmlns="http://www.w3.org/2000/svg">
<path d="M10.1624 5.83667C10.6464 6.32 10.9992 6.922 11.1832 7.57667C11.2325 7.754 11.1299 7.938 10.9518 7.988C10.7745 8.03867 10.5911 7.93467 10.5411 7.75733C10.3884 7.21267 10.0937 6.71133 9.69095 6.30867C9.06284 5.68 8.2267 5.334 7.33789 5.334C6.44907 5.334 5.6136 5.68 4.98483 6.30867L1.64161 9.65333C1.01284 10.2813 0.666778 11.1173 0.666778 12.006C0.666778 12.8947 1.01284 13.7307 1.64161 14.3587C2.26971 14.9873 3.10585 15.3333 3.99467 15.3333C4.88348 15.3333 5.71895 14.9873 6.34772 14.3587L8.01934 12.6873C8.14936 12.5573 8.36073 12.5573 8.49075 12.6873C8.62077 12.8173 8.62077 13.0287 8.49075 13.1587L6.81914 14.83C6.06501 15.5847 5.06151 16 3.99467 16C2.92782 16 1.92432 15.5847 1.17019 14.83C0.415403 14.076 0 13.0727 0 12.006C0 10.9393 0.415403 9.93667 1.17019 9.182L4.51342 5.83667C5.26754 5.082 6.27105 4.66667 7.33789 4.66667C8.40473 4.66667 9.40823 5.082 10.1624 5.83667ZM12.006 0C10.9385 0 9.93632 0.415333 9.18153 1.17L7.50992 2.84133C7.3799 2.97133 7.3799 3.18267 7.50992 3.31267C7.63994 3.44267 7.85131 3.44267 7.98133 3.31267L9.65294 1.64133C10.281 1.01267 11.1172 0.666667 12.006 0.666667C12.8948 0.666667 13.7303 1.01267 14.3584 1.64133C14.9865 2.26933 15.3332 3.10533 15.3332 3.994C15.3332 4.88267 14.9865 5.718 14.3584 6.34667L11.0152 9.692C10.3871 10.3207 9.55093 10.6667 8.66211 10.6667C7.7733 10.6667 6.93716 10.3207 6.30905 9.692C5.90632 9.28933 5.61227 8.78867 5.45891 8.24333C5.4089 8.06533 5.2242 7.96133 5.04751 8.01267C4.87015 8.06267 4.76679 8.24667 4.8168 8.424C5.0015 9.07933 5.35423 9.68067 5.83764 10.164C6.59177 10.9187 7.59527 11.334 8.66211 11.334C9.72896 11.334 10.7318 10.9187 11.4866 10.164L14.8298 6.81867C15.5846 6.06467 16 5.06133 16 3.99467C16 2.928 15.5846 1.92467 14.8298 1.17067C14.0757 0.416 13.0722 0.000666667 12.006 0.000666667V0Z" fill="black"/>
</svg>
