<?xml version="1.0" encoding="UTF-8"?>
<svg xmlns="http://www.w3.org/2000/svg" id="Layer_1" data-name="Layer 1" viewBox="0 0 24 24">
  <path d="m21.5,18c-.796,0-1.498.381-1.956.963l-3.638-1.819c.055-.207.095-.42.095-.644s-.039-.437-.095-.644l3.638-1.819c.458.582,1.16.963,1.956.963,1.378,0,2.5-1.122,2.5-2.5s-1.122-2.5-2.5-2.5-2.5,1.122-2.5,2.5c0,.224.039.437.095.644l-3.638,1.819c-.458-.582-1.16-.963-1.956-.963-1.378,0-2.5,1.122-2.5,2.5s1.122,2.5,2.5,2.5c.796,0,1.498-.381,1.956-.963l3.638,1.819c-.055.207-.095.42-.095.644,0,1.378,1.122,2.5,2.5,2.5s2.5-1.122,2.5-2.5-1.122-2.5-2.5-2.5Zm0-7c.827,0,1.5.673,1.5,1.5s-.673,1.5-1.5,1.5-1.5-.673-1.5-1.5.673-1.5,1.5-1.5Zm-8,7c-.827,0-1.5-.673-1.5-1.5s.673-1.5,1.5-1.5,1.5.673,1.5,1.5-.673,1.5-1.5,1.5Zm8,4c-.827,0-1.5-.673-1.5-1.5s.673-1.5,1.5-1.5,1.5.673,1.5,1.5-.673,1.5-1.5,1.5Zm-4.5-.5c0,.276-.224.5-.5.5H5.5c-3.033,0-5.5-2.467-5.5-5.5,0-1.506.603-2.912,1.698-3.958.328-.314.469-.819.386-1.387-.135-.923-.107-1.863.083-2.796.637-3.137,3.171-5.636,6.306-6.218,3.573-.665,7.06,1.056,8.675,4.279.195.389.559.668,1,.767.541.122,1.068.303,1.566.54.25.119.356.417.237.666-.118.249-.418.356-.666.237-.432-.205-.888-.362-1.356-.468-.735-.165-1.346-.636-1.676-1.295-1.413-2.82-4.47-4.326-7.598-3.743-2.738.508-4.952,2.691-5.508,5.434-.167.819-.191,1.644-.074,2.452.13.892-.119,1.714-.685,2.254-.895.856-1.388,2.004-1.388,3.235,0,2.481,2.019,4.5,4.5,4.5h11c.276,0,.5.224.5.5Z"/>
</svg>
