<svg width="20" height="24" viewBox="0 0 20 24" fill="none" xmlns="http://www.w3.org/2000/svg">
<path d="M12.5 21C14.981 21 17 18.981 17 16.5V7.157C17 5.955 16.532 4.825 15.682 3.975L13.025 1.318C12.175 0.468 11.046 0 9.843 0H4.5C2.019 0 0 2.019 0 4.5V16.5C0 18.981 2.019 21 4.5 21H12.5ZM14.975 4.682C15.352 5.059 15.62 5.511 15.791 6H12C11.449 6 11 5.551 11 5V1.209C11.489 1.38 11.941 1.648 12.318 2.025L14.975 4.682ZM1 16.5V4.5C1 2.57 2.57 1 4.5 1H9.843C9.896 1 9.947 1.013 10 1.015V5C10 6.103 10.897 7 12 7H15.985C15.987 7.053 16 7.104 16 7.157V16.5C16 18.43 14.43 20 12.5 20H4.5C2.57 20 1 18.43 1 16.5ZM20 8.5V19.5C20 21.981 17.981 24 15.5 24H3.5C3.224 24 3 23.776 3 23.5C3 23.224 3.224 23 3.5 23H15.5C17.43 23 19 21.43 19 19.5V8.5C19 8.224 19.224 8 19.5 8C19.776 8 20 8.224 20 8.5Z" fill="black"/>
</svg>
