<svg width="24" height="24" viewBox="0 0 24 24" fill="none" xmlns="http://www.w3.org/2000/svg">
<path d="M18.293 19L17.147 20.146C16.952 20.341 16.952 20.658 17.147 20.853C17.245 20.951 17.373 20.999 17.501 20.999C17.629 20.999 17.757 20.95 17.855 20.853L19.001 19.707L20.148 20.853C20.343 21.048 20.66 21.048 20.855 20.853C21.05 20.658 21.05 20.341 20.855 20.146L19.708 19L20.855 17.853C21.05 17.658 21.05 17.341 20.855 17.146C20.66 16.951 20.343 16.951 20.148 17.146L19.001 18.293L16.622 15.914C15.577 14.869 15.001 13.478 15.001 11.999C15.001 10.52 15.577 9.13 16.622 8.085L19.001 5.706L20.147 6.852C20.245 6.95 20.373 6.998 20.501 6.998C20.629 6.998 20.757 6.949 20.855 6.852C21.05 6.657 21.05 6.34 20.855 6.145L19.709 4.999L20.855 3.853C21.05 3.658 21.05 3.341 20.855 3.146C20.66 2.951 20.343 2.951 20.148 3.146L19.002 4.292L17.856 3.146C17.661 2.951 17.344 2.951 17.149 3.146C16.954 3.341 16.954 3.658 17.149 3.853L18.295 4.999L15.916 7.378C14.871 8.423 13.48 8.999 12.002 8.999C10.524 8.999 9.133 8.423 8.087 7.378L5.709 4.999L6.911 3.797C7.106 3.602 7.106 3.285 6.911 3.09C6.716 2.895 6.399 2.895 6.204 3.09L5.002 4.292L3.855 3.145C3.66 2.95 3.343 2.95 3.148 3.145C2.953 3.34 2.953 3.657 3.148 3.852L4.294 4.999L3.148 6.145C2.953 6.34 2.953 6.657 3.148 6.852C3.246 6.95 3.374 6.998 3.502 6.998C3.63 6.998 3.758 6.949 3.856 6.852L5.002 5.706L7.38 8.085C8.426 9.13 9.002 10.521 9.002 11.999C9.002 13.477 8.426 14.868 7.38 15.914L5.002 18.292L3.856 17.146C3.661 16.951 3.344 16.951 3.149 17.146C2.954 17.341 2.954 17.658 3.149 17.853L4.295 18.999L3.149 20.145C2.954 20.34 2.954 20.657 3.149 20.852C3.247 20.95 3.375 20.998 3.503 20.998C3.631 20.998 3.759 20.949 3.857 20.852L5.003 19.706L6.149 20.852C6.247 20.95 6.375 20.998 6.503 20.998C6.631 20.998 6.759 20.949 6.857 20.852C7.052 20.657 7.052 20.34 6.857 20.145L5.711 18.999L8.089 16.621C9.135 15.576 10.526 14.999 12.004 14.999C13.482 14.999 14.872 15.575 15.918 16.621L18.297 19H18.293ZM12 14C11.132 14 10.29 14.169 9.51 14.49C9.831 13.711 10 12.868 10 12C10 11.132 9.831 10.29 9.51 9.51C10.289 9.831 11.132 10 12 10C12.868 10 13.71 9.831 14.49 9.51C14.169 10.289 14 11.131 14 12C14 12.869 14.169 13.71 14.49 14.49C13.711 14.169 12.869 14 12 14ZM14.03 5.555C14.01 5.372 14 5.188 14 5C14 2.243 16.243 0 19 0C21.757 0 24 2.243 24 5C24 7.757 21.757 10 19 10C18.812 10 18.627 9.99 18.445 9.97C18.171 9.94 17.972 9.693 18.003 9.418C18.033 9.144 18.275 8.943 18.555 8.976C18.701 8.992 18.85 9 19 9C21.206 9 23 7.206 23 5C23 2.794 21.206 1 19 1C16.794 1 15 2.794 15 5C15 5.151 15.008 5.299 15.024 5.446C15.054 5.72 14.856 5.967 14.582 5.998C14.306 6.025 14.061 5.83 14.03 5.556V5.555ZM24 19C24 21.757 21.757 24 19 24C16.243 24 14 21.757 14 19C14 18.812 14.01 18.628 14.03 18.445C14.06 18.171 14.305 17.97 14.582 18.003C14.856 18.033 15.055 18.28 15.024 18.555C15.008 18.701 15 18.85 15 19C15 21.206 16.794 23 19 23C21.206 23 23 21.206 23 19C23 16.794 21.206 15 19 15C18.85 15 18.701 15.009 18.555 15.025C18.277 15.052 18.034 14.857 18.003 14.583C17.973 14.309 18.171 14.062 18.445 14.031C18.627 14.011 18.812 14 19 14C21.757 14 24 16.243 24 19ZM0 5C0 2.243 2.243 0 5 0C7.757 0 10 2.243 10 5C10 5.188 9.99 5.373 9.97 5.555C9.939 5.829 9.693 6.023 9.418 5.997C9.144 5.967 8.945 5.72 8.976 5.445C8.992 5.299 9 5.15 9 4.999C9 2.793 7.206 0.999 5 0.999C2.794 0.999 1 2.794 1 5C1 7.206 2.794 9 5 9C5.15 9 5.299 8.992 5.445 8.976C5.724 8.944 5.966 9.144 5.997 9.418C6.028 9.692 5.829 9.939 5.555 9.97C5.373 9.99 5.188 10 5 10C2.243 10 0 7.757 0 5ZM9.97 18.445C9.99 18.628 10 18.812 10 19C10 21.757 7.757 24 5 24C2.243 24 0 21.757 0 19C0 16.243 2.243 14 5 14C5.188 14 5.373 14.011 5.555 14.031C5.829 14.061 6.028 14.308 5.997 14.583C5.966 14.857 5.723 15.051 5.445 15.025C5.299 15.009 5.15 15 5 15C2.794 15 1 16.794 1 19C1 21.206 2.794 23 5 23C7.206 23 9 21.206 9 19C9 18.85 8.992 18.701 8.976 18.555C8.946 18.281 9.144 18.034 9.418 18.003C9.694 17.971 9.939 18.171 9.97 18.445Z" fill="#787891"/>
</svg>
