<svg width="21" height="24" viewBox="0 0 21 24" fill="none" xmlns="http://www.w3.org/2000/svg">
<path d="M14.574 3.78105C13.184 2.67505 11.871 1.62905 10.883 0.448047L10.506 -0.00195312L10.122 0.442047C8.631 2.16405 8.217 4.26305 7.884 5.95005C7.479 8.00105 7.23 8.98705 6 8.98705C5.802 8.98705 5.65 8.91805 5.508 8.76305C4.901 8.10005 4.821 6.17705 4.914 5.12005L5.037 3.71705L4.057 4.72805C2.639 6.19105 0 8.91405 0 13.499C0 19.289 4.71 23.999 10.5 23.999C16.29 23.999 21 19.289 21 13.499C21 8.89605 17.733 6.29605 14.574 3.78105ZM7.672 21.829C6.112 20.267 6.112 17.728 7.65 16.19L10.501 13.668L13.329 16.17C14.888 17.731 14.888 20.27 13.329 21.829C11.77 23.388 9.232 23.39 7.672 21.829ZM14.315 22.194C15.957 20.232 15.878 17.306 14.014 15.442L10.501 12.332L6.965 15.462C5.122 17.304 5.044 20.228 6.686 22.193C3.343 20.72 1.001 17.38 1.001 13.499C1.001 10.266 2.371 8.10305 3.889 6.37705C3.925 7.39205 4.11 8.71505 4.771 9.43705C5.1 9.79605 5.524 9.98605 6 9.98605C8.107 9.98605 8.476 8.11905 8.865 6.14205C9.159 4.65005 9.489 2.97805 10.52 1.54705C11.504 2.61305 12.697 3.56305 13.951 4.56105C16.925 6.92905 20 9.37705 20 13.498C20 17.38 17.657 20.72 14.314 22.193L14.315 22.194Z" fill="white"/>
</svg>
