<svg width="24" height="23" viewBox="0 0 24 23" fill="none" xmlns="http://www.w3.org/2000/svg">
<path d="M19.5 2.5H12.472C12.241 2.5 12.008 2.445 11.801 2.342L8.645 0.764C8.3 0.591 7.913 0.5 7.527 0.5H4.499C2.019 0.5 0 2.519 0 5V18C0 20.481 2.019 22.5 4.5 22.5H7.5C7.776 22.5 8 22.276 8 22C8 21.724 7.776 21.5 7.5 21.5H4.5C2.57 21.5 1 19.93 1 18V7.5H23V18C23 19.93 21.43 21.5 19.5 21.5H16.5C16.224 21.5 16 21.724 16 22C16 22.276 16.224 22.5 16.5 22.5H19.5C21.981 22.5 24 20.481 24 18V7C24 4.519 21.981 2.5 19.5 2.5ZM1 5C1 3.07 2.57 1.5 4.5 1.5H7.528C7.759 1.5 7.992 1.555 8.199 1.658L11.355 3.236C11.7 3.409 12.087 3.5 12.473 3.5H19.501C21.261 3.5 22.722 4.806 22.965 6.5H1V5ZM15.912 19.35L13.397 21.92C13.011 22.306 12.506 22.499 12.001 22.5H11.998C11.494 22.5 10.99 22.308 10.606 21.924L8.087 19.35C7.894 19.153 7.898 18.836 8.095 18.643C8.293 18.452 8.61 18.454 8.802 18.651L11.317 21.221C11.373 21.277 11.434 21.324 11.5 21.363V12C11.5 11.724 11.724 11.5 12 11.5C12.276 11.5 12.5 11.724 12.5 12V21.362C12.566 21.322 12.629 21.274 12.687 21.217L15.198 18.651C15.391 18.454 15.708 18.452 15.905 18.643C16.102 18.836 16.106 19.153 15.913 19.35H15.912Z" fill="#5F5F5F"/>
</svg>
