<svg width="20" height="24" viewBox="0 0 20 24" fill="none" xmlns="http://www.w3.org/2000/svg">
<path d="M16.7499 10.21V9.505C16.7499 5.636 13.7259 2.5 9.99994 2.5C6.27394 2.5 3.24994 5.636 3.24994 9.505V10.21C3.25114 11.0516 3.01098 11.8758 2.55794 12.585L1.44994 14.31C0.43894 15.885 1.21094 18.026 2.96994 18.524C7.56605 19.827 12.4338 19.827 17.0299 18.524C18.7889 18.026 19.5609 15.885 18.5499 14.311L17.4419 12.586C16.9885 11.8769 16.748 11.0527 16.7489 10.211L16.7499 10.21Z" stroke="#262626" stroke-width="1.5"/>
<circle cx="15.4999" cy="4" r="3.5" fill="#F42222"/>
<path d="M5.5 19.5C6.155 21.248 7.922 22.5 10 22.5C12.078 22.5 13.845 21.248 14.5 19.5" stroke="#262626" stroke-width="1.5" stroke-linecap="round"/>
</svg>
