<?xml version="1.0" encoding="UTF-8"?>
<svg xmlns="http://www.w3.org/2000/svg" id="Layer_1" data-name="Layer 1" viewBox="0 0 24 24">
  <path d="m24,9.561v1.939c0,.276-.224.5-.5.5s-.5-.224-.5-.5v-1.939c0-1.164-.577-2.249-1.542-2.901L13.958,1.599c-1.189-.803-2.726-.803-3.915,0L2.542,6.659c-.966.652-1.542,1.737-1.542,2.901v9.939c0,1.93,1.57,3.5,3.5,3.5h7c.276,0,.5.224.5.5s-.224.5-.5.5h-7c-2.481,0-4.5-2.019-4.5-4.5v-9.939c0-1.497.741-2.892,1.983-3.729L9.483.771c1.53-1.032,3.505-1.032,5.034,0l7.5,5.061c1.242.838,1.983,2.232,1.983,3.729Zm0,7.939c0,3.584-2.916,6.5-6.5,6.5s-6.5-2.916-6.5-6.5,2.916-6.5,6.5-6.5,6.5,2.916,6.5,6.5Zm-1,0c0-3.032-2.467-5.5-5.5-5.5s-5.5,2.468-5.5,5.5,2.467,5.5,5.5,5.5,5.5-2.468,5.5-5.5Zm-2.857-1.369l-2.706,2.618c-.336.331-.885.333-1.223.004l-1.363-1.345c-.196-.194-.513-.192-.707.004-.194.197-.192.514.005.707l1.364,1.347c.362.354.837.531,1.312.531s.951-.178,1.311-.533l2.703-2.614c.198-.192.204-.509.012-.707-.191-.198-.507-.203-.707-.012Z"/>
</svg>
