<svg width="24" height="24" viewBox="0 0 24 24" fill="none" xmlns="http://www.w3.org/2000/svg">
<path d="M5 21H7.065C6.883 21.31 6.735 21.642 6.642 22H5C3.343 22 2 20.657 2 19V17H3V19C3 20.105 3.895 21 5 21ZM5 2C3.343 2 2 3.343 2 5V6.297C2.314 6.17 2.653 6.096 3 6.051V5.001C3 3.896 3.895 3.001 5 3.001H8.145C8.059 2.68 8 2.349 8 2.001L5 2ZM21 5V6.05C21.347 6.095 21.686 6.169 22 6.296V4.999C22 3.342 20.657 1.999 19 1.999H16C16 2.347 15.941 2.678 15.855 2.999H19C20.105 2.999 21 3.895 21 5ZM21 19C21 20.105 20.105 21 19 21H16.935C17.117 21.31 17.265 21.642 17.358 22H19C20.657 22 22 20.657 22 19V17H21V19ZM10 2C10 0.897 10.897 0 12 0C13.103 0 14 0.897 14 2C14 3.103 13.103 4 12 4C10.897 4 10 3.103 10 2ZM11 2C11 2.552 11.449 3 12 3C12.551 3 13 2.552 13 2C13 1.448 12.551 1 12 1C11.449 1 11 1.448 11 2ZM13.5 5H10.5C9.397 5 8.5 5.897 8.5 7V8H9.5V7C9.5 6.448 9.949 6 10.5 6H13.5C14.051 6 14.5 6.448 14.5 7V8H15.5V7C15.5 5.897 14.603 5 13.5 5ZM10 18C10 16.897 10.897 16 12 16C13.103 16 14 16.897 14 18C14 19.103 13.103 20 12 20C10.897 20 10 19.103 10 18ZM11 18C11 18.552 11.449 19 12 19C12.551 19 13 18.552 13 18C13 17.448 12.551 17 12 17C11.449 17 11 17.448 11 18ZM13.5 21H10.5C9.397 21 8.5 21.897 8.5 23V24H9.5V23C9.5 22.448 9.949 22 10.5 22H13.5C14.051 22 14.5 22.448 14.5 23V24H15.5V23C15.5 21.897 14.603 21 13.5 21ZM22 13H19C17.897 13 17 13.897 17 15V16H18V15C18 14.448 18.449 14 19 14H22C22.551 14 23 14.448 23 15V16H24V15C24 13.897 23.103 13 22 13ZM5 14C5.551 14 6 14.448 6 15V16H7V15C7 13.897 6.103 13 5 13H2C0.897 13 0 13.897 0 15V16H1V15C1 14.448 1.449 14 2 14H5ZM22.5 10C22.5 11.103 21.603 12 20.5 12C19.397 12 18.5 11.103 18.5 10C18.5 8.897 19.397 8 20.5 8C21.603 8 22.5 8.897 22.5 10ZM21.5 10C21.5 9.448 21.051 9 20.5 9C19.949 9 19.5 9.448 19.5 10C19.5 10.552 19.949 11 20.5 11C21.051 11 21.5 10.552 21.5 10ZM1.5 10C1.5 8.897 2.397 8 3.5 8C4.603 8 5.5 8.897 5.5 10C5.5 11.103 4.603 12 3.5 12C2.397 12 1.5 11.103 1.5 10ZM2.5 10C2.5 10.552 2.949 11 3.5 11C4.051 11 4.5 10.552 4.5 10C4.5 9.448 4.051 9 3.5 9C2.949 9 2.5 9.448 2.5 10Z" fill="#787891"/>
</svg>
