<svg width="24" height="24" viewBox="0 0 24 24" fill="none" xmlns="http://www.w3.org/2000/svg">
<path d="M19.5 3.99799H17.972C17.723 1.75099 15.812 -0.00201416 13.5 -0.00201416H4.5C2.019 -0.00201416 0 2.01699 0 4.49799V18.352C0 18.961 0.333 19.518 0.871 19.805C1.115 19.936 1.382 20 1.648 20C1.967 20 2.286 19.907 2.562 19.723L6.086 17.374C6.495 19.437 8.319 20.997 10.5 20.997H17.349L21.438 23.723C21.714 23.908 22.032 24 22.352 24C22.618 24 22.885 23.936 23.129 23.805C23.666 23.518 24 22.961 24 22.352V8.49799C24 6.01699 21.981 3.99799 19.5 3.99799ZM2.007 18.892C1.804 19.027 1.557 19.04 1.342 18.924C1.128 18.81 1 18.596 1 18.353V4.49799C1 2.56799 2.57 0.997986 4.5 0.997986H13.5C15.43 0.997986 17 2.56799 17 4.49799V12.498C17 14.428 15.43 15.998 13.5 15.998H6.563C6.409 15.998 6.278 16.052 6.218 16.085L2.007 18.892ZM23 22.353C23 22.596 22.872 22.81 22.658 22.924C22.444 23.039 22.195 23.026 21.993 22.892L17.778 20.082C17.696 20.027 17.599 19.998 17.501 19.998H10.501C8.741 19.998 7.28 18.692 7.037 16.998H13.501C15.982 16.998 18.001 14.979 18.001 12.498V4.99799H19.501C21.431 4.99799 23.001 6.56799 23.001 8.49799V22.352L23 22.353Z" fill="#787891"/>
</svg>
