<svg width="24" height="24" viewBox="0 0 24 24" fill="none" xmlns="http://www.w3.org/2000/svg">
<path d="M20.5 0H11.5C9.57 0 8 1.57 8 3.5V5H7.5C5.57 5 4 6.57 4 8.5V10H3.5C1.57 10 0 11.57 0 13.5V20.5C0 22.43 1.57 24 3.5 24H12.5C14.43 24 16 22.43 16 20.5V19H16.5C18.43 19 20 17.43 20 15.5V14H20.5C22.43 14 24 12.43 24 10.5V3.5C24 1.57 22.43 0 20.5 0ZM1 13.5C1 12.122 2.122 11 3.5 11H12.5C13.879 11 15 12.122 15 13.5V13.771L10.886 17.885C10.667 18.103 10.312 18.104 10.093 17.885L8.665 16.457C8.089 15.881 7.156 15.848 6.527 16.393L1.168 21.379C1.064 21.104 1 20.81 1 20.499V13.499V13.5ZM15 20.5C15 21.878 13.879 23 12.5 23H3.5C2.798 23 2.165 22.707 1.711 22.24L7.195 17.138C7.417 16.947 7.752 16.958 7.958 17.165L9.386 18.593C9.995 19.202 10.986 19.202 11.593 18.593L15 15.186V20.5ZM19 15.5C19 16.878 17.879 18 16.5 18H16V13.5C16 11.57 14.43 10 12.5 10H5V8.5C5 7.122 6.122 6 7.5 6H16.5C17.879 6 19 7.122 19 8.5V15.5ZM23 10.5C23 11.878 21.879 13 20.5 13H20V8.5C20 6.57 18.43 5 16.5 5H9V3.5C9 2.122 10.122 1 11.5 1H20.5C21.879 1 23 2.122 23 3.5V10.5ZM3 14C3 13.448 3.448 13 4 13C4.552 13 5 13.448 5 14C5 14.552 4.552 15 4 15C3.448 15 3 14.552 3 14Z" fill="black"/>
</svg>
