<svg width="579" height="112" viewBox="0 0 579 112" fill="none" xmlns="http://www.w3.org/2000/svg">
<rect width="579" height="112" rx="12" fill="#E5E5EC"/>
<g clip-path="url(#clip0_575_1387)">
<mask id="mask0_575_1387" style="mask-type:luminance" maskUnits="userSpaceOnUse" x="476" y="12" width="37" height="26">
<path d="M512.67 12.08H476.31V37.53H512.67V12.08Z" fill="white"/>
</mask>
<g mask="url(#mask0_575_1387)">
<path d="M485.54 12.4H503.44C508.36 12.4 512.35 16.38 512.35 21.3C512.35 26.22 508.36 30.2 503.44 30.2H494.6L485.54 37.2V30.2C480.62 30.2 476.63 26.22 476.63 21.3C476.63 16.38 480.62 12.4 485.54 12.4Z" fill="white" stroke="#231F20" stroke-width="0.2" stroke-miterlimit="10"/>
<path d="M500.77 22.24V20.1L499.38 19.75C499.29 19.42 499.16 19.12 498.99 18.82L499.73 17.59L498.21 16.07L496.97 16.85C496.69 16.7 496.36 16.57 496.04 16.46L495.69 15.08H493.54L493.19 16.46C492.87 16.55 492.56 16.68 492.26 16.85L491.02 16.11L489.5 17.63L490.24 18.87C490.09 19.15 489.96 19.48 489.85 19.8L488.46 20.15V22.29L489.85 22.64C489.94 22.96 490.07 23.27 490.24 23.57L489.5 24.8L491.02 26.32L492.26 25.58C492.54 25.73 492.87 25.86 493.19 25.97L493.54 27.35H495.69L496.04 25.97C496.36 25.88 496.67 25.75 496.97 25.58L498.21 26.32L499.73 24.8L498.99 23.57C499.14 23.29 499.27 22.96 499.38 22.64L500.77 22.25V22.24ZM494.64 23.41C493.41 23.41 492.39 22.41 492.39 21.16C492.39 19.91 493.39 18.91 494.64 18.91C495.9 18.93 496.89 19.95 496.89 21.18C496.89 22.41 495.89 23.41 494.64 23.41Z" fill="#3564FF"/>
</g>
<path d="M524.07 67.5L521.55 66.05C523.16 63.29 523.59 59.93 522.78 56.85C522.32 55.16 521.52 53.6 520.42 52.26V52.29C518.33 54.68 514.81 55.43 512.13 54.03C510.68 53.28 509.72 52.07 509.48 50.7C509.08 48.29 511.06 46.19 513.21 45.74C514.87 45.39 516.7 45.79 518.63 46.92C519.14 47.22 519.62 47.54 520.08 47.89C520.62 47.06 521.05 46.2 521.23 45.39C521.74 43.06 521.34 40.99 520.02 39.03C519.38 38.09 518.52 37.21 517.55 36.43C517.01 36.91 516.48 37.32 515.97 37.72C514.23 39.01 511.62 40.43 509.05 39.81C507.31 39.38 504.87 37.66 504.92 35.14C504.95 33.85 505.46 32.75 506.45 31.92C507.74 30.82 509.75 30.36 511.82 30.69C513.62 30.96 515.47 31.68 517.18 32.68C517.77 31.93 518.23 31.15 518.58 30.29C519.73 27.55 519.11 23.85 517.16 21.87L519.22 19.83C521.98 22.62 522.84 27.61 521.26 31.42C520.8 32.55 520.21 33.51 519.57 34.34C520.7 35.28 521.69 36.33 522.44 37.45C524.21 40.08 524.77 42.98 524.08 46.09C523.78 47.4 523.09 48.72 522.25 49.93C523.83 51.7 524.99 53.82 525.6 56.13C526.59 59.91 526.06 64.07 524.07 67.5ZM512.69 49.26C512.42 49.56 512.29 49.9 512.34 50.23C512.42 50.66 512.85 51.14 513.44 51.46C514.97 52.24 517.12 51.73 518.3 50.28C517.93 49.98 517.52 49.74 517.12 49.5C515.83 48.75 514.68 48.45 513.77 48.64C513.37 48.69 512.97 48.94 512.7 49.26H512.69ZM508.11 34.29C507.9 34.53 507.79 34.83 507.79 35.18C507.76 35.98 508.94 36.79 509.69 36.98C510.82 37.25 512.45 36.68 514.17 35.4C514.44 35.19 514.7 35 514.95 34.78C513.74 34.16 512.51 33.73 511.3 33.55C510.12 33.36 508.89 33.6 508.24 34.14C508.21 34.19 508.16 34.25 508.11 34.3V34.29Z" fill="#3564FF" stroke="#231F20" stroke-width="0.2" stroke-miterlimit="10"/>
<path d="M462.18 95.16H374.77C373.35 95.16 372.22 94.01 372.22 92.61V19.45C372.22 18.03 373.37 16.9 374.77 16.9H462.18C463.6 16.9 464.73 18.05 464.73 19.45V92.61C464.73 94.03 463.58 95.16 462.18 95.16Z" fill="black" stroke="#231F20" stroke-width="0.2" stroke-miterlimit="10"/>
<path d="M466.17 90.39H380.56C378.66 90.39 377.1 88.83 377.1 86.93V15.56C377.1 13.66 378.66 12.1 380.56 12.1H466.17C468.07 12.1 469.63 13.66 469.63 15.56V86.92C469.63 88.85 468.07 90.38 466.17 90.38V90.39Z" fill="white" stroke="#231F20" stroke-width="0.2" stroke-miterlimit="10"/>
<path d="M381.29 16.98C381.78 16.98 382.18 16.58 382.18 16.09C382.18 15.6 381.78 15.2 381.29 15.2C380.8 15.2 380.4 15.6 380.4 16.09C380.4 16.58 380.8 16.98 381.29 16.98Z" stroke="#231F20" stroke-width="0.2" stroke-miterlimit="10"/>
<path d="M384.11 16.98C384.6 16.98 385 16.58 385 16.09C385 15.6 384.6 15.2 384.11 15.2C383.62 15.2 383.22 15.6 383.22 16.09C383.22 16.58 383.62 16.98 384.11 16.98Z" stroke="#231F20" stroke-width="0.2" stroke-miterlimit="10"/>
<path d="M386.95 16.98C387.44 16.98 387.84 16.58 387.84 16.09C387.84 15.6 387.44 15.2 386.95 15.2C386.46 15.2 386.06 15.6 386.06 16.09C386.06 16.58 386.46 16.98 386.95 16.98Z" stroke="#231F20" stroke-width="0.2" stroke-miterlimit="10"/>
<path d="M380.27 20.26H466.12" stroke="#231F20" stroke-width="0.2" stroke-miterlimit="10"/>
<path d="M462.04 60.14H446.86V62.9H462.04V60.14Z" stroke="#231F20" stroke-width="0.2" stroke-miterlimit="10"/>
<path d="M388.88 29.78H386.12V32.54H388.88V29.78Z" fill="white" stroke="#231F20" stroke-width="0.2" stroke-miterlimit="10"/>
<path d="M429.61 29.78H392.69V32.54H429.61V29.78Z" stroke="#231F20" stroke-width="0.2" stroke-miterlimit="10"/>
<path d="M419.57 60.14H393.36V62.9H419.57V60.14Z" stroke="#231F20" stroke-width="0.2" stroke-miterlimit="10"/>
<path d="M419.57 70.13H393.36V72.89H419.57V70.13Z" fill="#3564FF" stroke="#231F20" stroke-width="0.2" stroke-miterlimit="10"/>
<path d="M437.17 50.14H410.96V52.9H437.17V50.14Z" stroke="#231F20" stroke-width="0.2" stroke-miterlimit="10"/>
<path d="M458.58 29.78H434.78V32.54H458.58V29.78Z" stroke="#231F20" stroke-width="0.2" stroke-miterlimit="10"/>
<path d="M439.26 39.81H415.46V42.57H439.26V39.81Z" stroke="#231F20" stroke-width="0.2" stroke-miterlimit="10"/>
<path d="M410.99 39.81H397.87V42.57H410.99V39.81Z" fill="#3564FF" stroke="#231F20" stroke-width="0.2" stroke-miterlimit="10"/>
<path d="M405.46 50.14H397.17V52.9H405.46V50.14Z" fill="#3564FF" stroke="#231F20" stroke-width="0.2" stroke-miterlimit="10"/>
<path d="M443.4 60.14H423.04V62.9H443.4V60.14Z" stroke="#231F20" stroke-width="0.2" stroke-miterlimit="10"/>
<path d="M445.81 70.13H425.45V72.89H445.81V70.13Z" stroke="#231F20" stroke-width="0.2" stroke-miterlimit="10"/>
<path d="M388.88 39.81H386.12V42.57H388.88V39.81Z" fill="white" stroke="#231F20" stroke-width="0.2" stroke-miterlimit="10"/>
<path d="M388.88 50.14H386.12V52.9H388.88V50.14Z" fill="white" stroke="#231F20" stroke-width="0.2" stroke-miterlimit="10"/>
<path d="M388.88 60.14H386.12V62.9H388.88V60.14Z" fill="white" stroke="#231F20" stroke-width="0.2" stroke-miterlimit="10"/>
<path d="M388.88 70.13H386.12V72.89H388.88V70.13Z" fill="white" stroke="#231F20" stroke-width="0.2" stroke-miterlimit="10"/>
<path d="M476.98 55.64C476.98 55.64 473.36 59.85 469.95 57.87C468.34 56.93 468.13 54.95 468.55 51.81L466.81 51.14L468.1 49.02L469.39 46.9C470.87 42.58 473.79 37.11 476.31 38.37C477.06 38.75 489.29 47.17 486.02 51.17L483.2 55.03L476.98 55.65V55.64Z" fill="white" stroke="#231F20" stroke-width="0.2" stroke-miterlimit="10"/>
<path d="M454.96 70.21C454.96 70.21 465.26 58.38 480.42 61.46C480.42 61.46 488.58 54.59 498.18 59.15C508.48 64.03 513.45 70.61 516.69 80C521.06 92.61 513.87 104.44 501.27 99.8C482.79 93.01 481.98 89.77 481.98 89.77L464.76 83.84L454.97 70.21H454.96Z" fill="#3564FF" stroke="#231F20" stroke-width="0.2" stroke-miterlimit="10"/>
<path d="M483.5 52.99L485.35 60.5C485.35 60.5 480.49 62.73 474 63.26L471.99 55.67" fill="white"/>
<path d="M483.5 52.99L485.35 60.5C485.35 60.5 480.49 62.73 474 63.26L471.99 55.67" stroke="#231F20" stroke-width="0.2" stroke-miterlimit="10"/>
<path d="M483.5 52.99L485.35 60.5C485.35 60.5 480.49 62.73 474 63.26L471.99 55.67" stroke="#231F20" stroke-width="0.2" stroke-miterlimit="10"/>
<path d="M469.71 38.98C468.99 41.18 469.52 42.87 473.01 44.48C473.6 44.75 476.9 46.09 477.97 46.63C479.02 47.17 478 49.55 478 50.84C478 52.24 479.05 52.48 479.18 52.45C479.66 52.4 482.45 46.52 484.76 47.3C487.34 48.86 483.2 52.96 483.2 52.96L483.82 55.19C483.82 55.19 487.52 50.74 490.55 45.75C494.25 39.61 485 41.67 482.42 36.01C476.65 23.21 471.42 33.76 469.7 38.99L469.71 38.98Z" fill="#010101" stroke="#231F20" stroke-width="0.2" stroke-miterlimit="10"/>
<path d="M420.81 84.03L416.71 83.57C416.71 83.57 404.5 71.66 398.33 73.8C393.04 75.62 389.83 83.06 396.05 90.54C397.74 92.58 399.86 94.19 402.19 95.4C403.59 96.12 405.41 97.04 406.99 97.76C410.1 99.18 417.64 104.41 417.64 104.41C417.64 104.41 412.6 92.77 420.81 84.02V84.03Z" fill="black" stroke="#231F20" stroke-width="0.2" stroke-miterlimit="10"/>
<path d="M421.32 82.23L417.22 81.77C417.22 81.77 405.15 70.66 399 72.78C392.86 74.9 389.77 83.65 400.42 92.42C400.42 92.42 404.44 94.54 407.5 95.96C410.56 97.38 417.13 102.24 417.13 102.24C417.13 102.24 413.13 90.97 421.32 82.23Z" fill="white" stroke="#231F20" stroke-width="0.2" stroke-miterlimit="10"/>
<path d="M398.57 90.63L398.62 87.97C398.62 87.97 393.23 80.51 397.84 75.63C401.35 71.93 406.32 75.12 406.32 75.12L406.51 74.48" stroke="#231F20" stroke-width="0.2" stroke-miterlimit="10"/>
<path d="M399.4 91.3C399.4 91.3 401.2 90.01 401.47 88.21C401.74 86.41 403.54 85.39 405.84 87.43C408.15 89.5 413.03 90.25 413.03 90.25C413.03 90.25 412.76 99 417.13 102.35" stroke="#231F20" stroke-width="0.2" stroke-miterlimit="10"/>
<path d="M407.85 74.93C407.85 74.93 408.15 75.87 407.37 76.89C406.59 77.91 409.17 78.69 411.47 79.71C413.78 80.73 415.07 81.27 415.07 81.27L416.33 81C416.33 81 409.6 75.53 407.85 74.94V74.93Z" stroke="#231F20" stroke-width="0.2" stroke-miterlimit="10"/>
<path d="M408.14 76.65L405.81 89.26L414.13 79.76L411.74 91.56" stroke="#231F20" stroke-width="0.2" stroke-miterlimit="10"/>
<path d="M475.67 77.19C475.67 77.19 469.88 70.72 466.01 73.03C462.15 75.34 463.27 80.41 463.94 80.76C465.5 81.54 465.74 80.25 467.03 76.9L468.83 77.68" fill="white"/>
<path d="M475.67 77.19C475.67 77.19 469.88 70.72 466.01 73.03C462.15 75.34 463.27 80.41 463.94 80.76C465.5 81.54 465.74 80.25 467.03 76.9L468.83 77.68" stroke="#231F20" stroke-width="0.2" stroke-miterlimit="10"/>
<path d="M475.67 77.19C475.67 77.19 469.88 70.72 466.01 73.03C462.15 75.34 463.27 80.41 463.94 80.76C465.5 81.54 465.74 80.25 467.03 76.9L468.83 77.68" stroke="#231F20" stroke-width="0.2" stroke-miterlimit="10"/>
<path d="M480.11 77.72C480.11 77.72 471.67 70.99 467.81 73.29C463.95 75.6 465.07 80.67 465.74 81.02C467.3 81.8 465.99 83.46 467.28 80.11L468.83 83.99L477.28 86.97C479.62 84.32 480.26 82.43 480.11 78.32" fill="white"/>
<path d="M480.11 77.72C480.11 77.72 471.67 70.99 467.81 73.29C463.95 75.6 465.07 80.67 465.74 81.02C467.3 81.8 465.99 83.46 467.28 80.11L468.83 83.99L477.28 86.97C479.62 84.32 480.26 82.43 480.11 78.32" stroke="#231F20" stroke-width="0.2" stroke-miterlimit="10"/>
<path d="M480.11 77.72C480.11 77.72 471.67 70.99 467.81 73.29C463.95 75.6 465.07 80.67 465.74 81.02C467.3 81.8 465.99 83.46 467.28 80.11L468.83 83.99L477.28 86.97C479.62 84.32 480.26 82.43 480.11 78.32" stroke="#231F20" stroke-width="0.2" stroke-miterlimit="10"/>
<path d="M402.72 87.7L411.22 78.44L409.4 90.54L416.35 81.02" stroke="#231F20" stroke-width="0.2" stroke-miterlimit="10"/>
<path d="M479.77 50.73C479.77 50.73 476.79 47.7 473.09 54.89C473.09 54.89 468.99 49.1 465.31 54.94C461.63 60.78 471.8 63.31 474.89 61.86C477.98 60.41 479.77 50.73 479.77 50.73Z" fill="#010101" stroke="#231F20" stroke-width="0.2" stroke-miterlimit="10"/>
<path d="M459.56 60.01L469.86 86.39L431.57 82.7L423.86 63.3C423.62 62.71 424.02 62.08 424.66 62.02L458.62 59.42C459.02 59.38 459.41 59.62 459.56 60.01Z" fill="white" stroke="#231F20" stroke-width="0.2" stroke-miterlimit="10"/>
<path d="M495.33 97.5C495.33 97.5 492.75 114.72 477.06 114.72C461.37 114.72 445.67 113.7 445.67 113.7L454.15 132.75C454.15 132.75 444.63 145.09 429.98 142.01C429.98 142.01 417.64 125.03 417.13 103.67C417.13 103.67 411.98 86.45 422.28 80.25C422.28 80.25 457.05 81.38 466.22 83.42C478.61 86.18 495.33 97.5 495.33 97.5Z" fill="white" stroke="#231F20" stroke-width="0.2" stroke-miterlimit="10"/>
<path d="M417.64 103.67C417.64 103.67 428.45 110.86 450.83 104.45C450.83 104.45 457.22 112.04 466.47 114.38" stroke="#231F20" stroke-width="0.2" stroke-miterlimit="10"/>
<path d="M448.01 118.82C448.01 118.82 445.94 113.94 443.37 110.07" stroke="#231F20" stroke-width="0.2" stroke-miterlimit="10"/>
<path d="M500.48 78.96C500.48 78.96 484.79 79.47 480.17 76.89C480.17 76.89 480.68 84.08 477.08 87.19" stroke="#231F20" stroke-width="0.2" stroke-miterlimit="10"/>
<path d="M480.04 77.97C480.04 77.97 474.57 71.88 470.92 74.05C467.27 76.22 468.32 81 468.99 81.32C470.44 82.04 470.68 80.84 471.91 77.67L473.6 78.39" fill="white"/>
<path d="M480.04 77.97C480.04 77.97 474.57 71.88 470.92 74.05C467.27 76.22 468.32 81 468.99 81.32C470.44 82.04 470.68 80.84 471.91 77.67L473.6 78.39" stroke="#231F20" stroke-width="0.2" stroke-miterlimit="10"/>
<path d="M480.04 77.97C480.04 77.97 474.57 71.88 470.92 74.05C467.27 76.22 468.32 81 468.99 81.32C470.44 82.04 470.68 80.84 471.91 77.67L473.6 78.39" stroke="#231F20" stroke-width="0.2" stroke-miterlimit="10"/>
<path d="M446.97 76C447.94 75.32 447.92 73.61 446.93 72.18C445.93 70.74 444.33 70.13 443.36 70.81C442.39 71.49 442.41 73.2 443.4 74.63C444.4 76.07 446 76.68 446.97 76Z" stroke="#231F20" stroke-width="0.2" stroke-miterlimit="10"/>
<path d="M355.46 95.73L359.09 88.13L361.12 94.92L366.35 94.11L363.53 98.11L368.38 102.92H362.31L359.49 109.31L356.27 103.32L349.01 106.52L352.23 101.71L347.79 94.92L355.46 95.73Z" fill="#3564FF" stroke="#231F20" stroke-width="0.2" stroke-miterlimit="10"/>
<path d="M549.64 97.72C550.55 97.72 551.28 96.99 551.28 96.08C551.28 95.17 550.54 94.44 549.64 94.44C548.74 94.44 548 95.17 548 96.08C548 96.99 548.73 97.72 549.64 97.72Z" fill="white" stroke="#231F20" stroke-width="0.2" stroke-miterlimit="10"/>
<path d="M538.3 47.29C539.04 47.29 539.64 46.69 539.64 45.95C539.64 45.21 539.04 44.61 538.3 44.61C537.56 44.61 536.96 45.21 536.96 45.95C536.96 46.69 537.56 47.29 538.3 47.29Z" fill="white" stroke="#231F20" stroke-width="0.2" stroke-miterlimit="10"/>
<path d="M268.67 15.32H217.71V73.83H268.67V15.32Z" fill="white" stroke="black" stroke-width="0.5" stroke-linecap="round" stroke-linejoin="round"/>
<path d="M244.69 43.33C248.86 43.33 252.23 39.95 252.23 35.79C252.23 31.63 248.86 28.26 244.69 28.26C240.52 28.26 237.15 31.63 237.15 35.79C237.15 39.95 240.53 43.33 244.69 43.33Z" fill="#3564FF" stroke="black" stroke-width="0.5" stroke-linecap="round" stroke-linejoin="round"/>
<path d="M261.65 64.83C261.65 55.41 254.02 47.87 244.69 47.87C235.36 47.87 227.73 55.5 227.73 64.83H261.65Z" fill="#3564FF" stroke="black" stroke-width="0.5" stroke-linecap="round" stroke-linejoin="round"/>
<path d="M310.22 30.39H259.25V88.9H310.22V30.39Z" fill="white" stroke="black" stroke-width="0.5" stroke-linecap="round" stroke-linejoin="round"/>
<path d="M294.2 46.49H243.24V105H294.2V46.49Z" fill="white" stroke="black" stroke-width="0.5" stroke-linecap="round" stroke-linejoin="round"/>
<path d="M268.67 75.02C272.84 75.02 276.21 71.64 276.21 67.48C276.21 63.32 272.84 59.94 268.67 59.94C264.5 59.94 261.13 63.32 261.13 67.48C261.13 71.64 264.51 75.02 268.67 75.02Z" fill="#3564FF" stroke="black" stroke-width="0.5" stroke-linecap="round" stroke-linejoin="round"/>
<path d="M285.63 96.52C285.63 87.1 278 79.57 268.67 79.57C259.34 79.57 251.71 87.19 251.71 96.52H285.63Z" fill="#3564FF" stroke="black" stroke-width="0.5" stroke-linecap="round" stroke-linejoin="round"/>
<path d="M46.51 55.97L57.59 52L52.72 47.27L46.51 55.97Z" fill="black" stroke="black" stroke-width="0.5" stroke-linecap="round" stroke-linejoin="round"/>
<path d="M80.48 39.22L61.67 62.18L50.88 51.35L80.48 39.22Z" fill="white" stroke="black" stroke-width="0.5" stroke-linecap="round" stroke-linejoin="round"/>
<path d="M80.48 39.22L40.23 37.41L47.41 47.41L80.48 39.21V39.22Z" fill="white" stroke="black" stroke-width="0.5" stroke-linecap="round" stroke-linejoin="round"/>
<path d="M47.41 47.41L46.51 55.97L50.88 51.35L78.9 40.23L80.49 39.22L47.42 47.42L47.41 47.41Z" fill="white" stroke="black" stroke-width="0.5" stroke-linecap="round" stroke-linejoin="round"/>
<path d="M42.4999 59.94L43.4399 61.71C41.4899 62.76 39.9699 64.6 39.3199 66.69C38.9599 67.85 38.8899 69.07 38.9999 70.26C41.0899 69.61 43.4799 70.48 44.5599 72.28C45.1399 73.25 45.2799 74.34 44.9199 75.24C44.2699 76.83 42.3199 77.33 40.9099 76.79C39.7899 76.39 38.8899 75.49 38.1299 74.08C37.9499 73.72 37.7699 73.36 37.6199 73C37.0099 73.29 36.4299 73.65 36.0299 74.05C34.8699 75.24 34.3299 76.61 34.4099 78.27C34.4499 79.06 34.6299 79.89 34.9199 80.73C35.4299 80.66 35.8599 80.59 36.3299 80.55C37.8499 80.44 39.8999 80.55 41.1999 81.89C42.0699 82.79 42.8599 84.71 41.9199 86.19C41.4099 86.95 40.7299 87.42 39.8299 87.53C38.6699 87.71 37.2999 87.24 36.1799 86.3C35.2399 85.51 34.3699 84.39 33.7199 83.16C33.1099 83.38 32.5599 83.67 32.0199 84.06C30.3199 85.25 29.3099 87.67 29.7499 89.58L27.7599 90.01C27.1499 87.34 28.4799 84.09 30.8299 82.39C31.5199 81.88 32.2399 81.56 32.9199 81.31C32.5999 80.34 32.3799 79.36 32.3799 78.42C32.2699 76.22 33.0299 74.27 34.5799 72.72C35.2299 72.03 36.1299 71.53 37.0699 71.1C36.7799 69.48 36.8899 67.78 37.3599 66.19C38.2299 63.48 40.0699 61.21 42.4899 59.94H42.4999ZM42.5299 74.92C42.7799 74.85 43.0399 74.67 43.1099 74.49C43.2199 74.2 43.15 73.77 42.8899 73.37C42.28 72.32 40.7999 71.85 39.5699 72.29C39.6799 72.58 39.82 72.9 39.9699 73.19C40.4399 74.13 41.0199 74.71 41.6299 74.92C41.9199 74.99 42.2399 74.99 42.5299 74.92ZM39.7199 85.43C39.9399 85.36 40.1199 85.25 40.2299 85.03C40.5199 84.56 40.1199 83.66 39.7599 83.26C39.1799 82.68 37.99 82.39 36.5499 82.54C36.2999 82.58 36.0799 82.58 35.8599 82.61C36.3299 83.4 36.9099 84.13 37.5599 84.67C38.2099 85.21 38.9999 85.54 39.5799 85.43C39.6199 85.47 39.6899 85.47 39.7199 85.43Z" fill="#3564FF"/>
<path d="M128.85 106.93C128.13 108.81 126.54 110.25 124.66 110.87C121.3 111.95 111.74 112.28 103.03 111.48H59.3499C57.2899 111.48 56.5299 108.77 58.2999 107.73C58.4799 107.62 58.6199 107.55 58.8399 107.44C62.6299 105.53 76.9999 109.35 80.2899 107.15C80.6099 106.93 80.8999 106.54 81.1899 106.07C83.3199 102.46 85.0499 92.28 93.6799 88.49C95.8099 87.55 98.2999 87.01 101.3 87.01C105.05 86.9 108.85 87.15 112.71 87.73H112.78L113 87.01L113.83 84.41C114.01 83.9 114.44 83.76 114.88 84.05C117.23 85.75 122.43 91.63 125.67 95.71C125.96 96.03 126.18 96.36 126.43 96.68C126.86 97.26 127.26 97.76 127.59 98.2C127.88 98.6 128.13 98.96 128.28 99.25C128.79 100.08 129.18 101.2 129.33 102.39C129.55 103.83 129.44 105.46 128.86 106.94L128.85 106.93Z" fill="white" stroke="black" stroke-width="0.5" stroke-linecap="round" stroke-linejoin="round"/>
<path d="M113 87L111.74 94.11C111.74 94.11 109.03 94.11 106.04 95.73C106.04 95.73 96 94.11 95.17 95.44C94.34 96.81 98.71 105.19 98.71 105.19C98.71 105.19 99 110.35 103.04 111.44" fill="white"/>
<path d="M113 87L111.74 94.11C111.74 94.11 109.03 94.11 106.04 95.73C106.04 95.73 96 94.11 95.17 95.44C94.34 96.81 98.71 105.19 98.71 105.19C98.71 105.19 99 110.35 103.04 111.44" stroke="black" stroke-width="0.5" stroke-linecap="round" stroke-linejoin="round"/>
<path d="M117.41 108.19L117.12 105.73L119.03 107.1" stroke="black" stroke-width="0.5" stroke-linecap="round" stroke-linejoin="round"/>
<path d="M134.81 110.1H148.38C148.38 110.1 147.22 103.06 136.65 103.85C136.65 103.85 135.42 109.81 134.81 110.1Z" fill="white" stroke="black" stroke-width="0.5" stroke-linecap="round" stroke-linejoin="round"/>
<path d="M125.53 95.73C125.53 95.73 137.73 96.27 136.65 103.85C135.57 111.43 132.86 114.97 129.07 114.43C125.28 113.89 128.24 108.18 128.24 108.18C128.24 108.18 132.32 102.76 125.53 95.72V95.73Z" fill="white" stroke="black" stroke-width="0.5" stroke-linecap="round" stroke-linejoin="round"/>
<path d="M97.08 96.28L102.24 96.57C102.24 96.57 100.07 97.65 100.33 98.48C100.62 99.31 102.24 98.19 102.24 98.19C102.24 98.19 101.41 99.27 101.95 99.27C102.49 99.27 100.04 100.89 100.04 103.35" stroke="black" stroke-width="0.5" stroke-linecap="round" stroke-linejoin="round"/>
<path d="M114.7 86.49L114.41 92.74C114.41 92.74 115.49 91.91 115.78 92.2C116.07 92.49 115.24 93.28 115.24 93.28L120.66 93.57" stroke="black" stroke-width="0.5" stroke-linecap="round" stroke-linejoin="round"/>
<path d="M119.57 102.23C119.57 102.23 120.11 99.52 123.36 100.06L119.57 102.23Z" fill="white"/>
<path d="M119.57 102.23C119.57 102.23 120.11 99.52 123.36 100.06" stroke="black" stroke-width="0.5" stroke-linecap="round" stroke-linejoin="round"/>
<path d="M107.12 108.48C107.12 108.48 107.66 105.77 110.91 106.31L107.12 108.48Z" fill="white"/>
<path d="M107.12 108.48C107.12 108.48 107.66 105.77 110.91 106.31" stroke="black" stroke-width="0.5" stroke-linecap="round" stroke-linejoin="round"/>
<path d="M117.19 105.88C117.77 105.56 118.09 105.01 117.91 104.69C117.73 104.37 117.08 104.37 116.5 104.73C115.92 105.05 115.6 105.6 115.78 105.92C116 106.24 116.61 106.21 117.19 105.88Z" fill="#010101"/>
<path d="M85.71 106.13C87.48 105.59 89.18 104.76 90.51 103.46C91.84 102.16 92.75 100.36 92.6 98.51C92.42 95.91 92.06 95.22 93.54 93.09C94.41 91.83 94.95 90.42 93.94 88.83C93.83 88.69 93.76 88.58 93.65 88.43C85.02 92.22 83.29 102.4 81.16 106.01C81.23 106.01 81.23 106.05 81.3 106.08C82.6 106.84 84.26 106.59 85.7 106.12L85.71 106.13Z" fill="#010101"/>
</g>
<defs>
<clipPath id="clip0_575_1387">
<rect width="523.76" height="155.04" fill="white" transform="translate(27.62 12)"/>
</clipPath>
</defs>
</svg>
