<svg width="24" height="24" viewBox="0 0 24 24" fill="none" xmlns="http://www.w3.org/2000/svg">
<path d="M23.4899 20.87L20.9819 15.342C20.6389 14.587 19.9389 14.089 19.1089 14.011C18.2799 13.938 17.4959 14.29 17.0159 14.971L15.2619 17.456L5.00087 11.226L6.16287 7.974C6.30587 7.573 6.61687 7.252 7.01487 7.092C7.18087 7.02 7.36987 6.982 7.56687 6.982C7.79787 6.982 8.02887 7.037 8.23687 7.141L9.01487 7.483C9.86187 7.902 10.4699 8.585 10.7759 9.426L12.2249 13.518C12.3179 13.779 12.6049 13.915 12.8659 13.82C13.1229 13.726 13.2569 13.443 13.1659 13.185L11.7109 9.077C11.3209 8.002 10.5369 7.124 9.50687 6.61L8.72787 6.268C8.04487 5.931 7.30087 5.901 6.64187 6.167C5.98187 6.432 5.46587 6.968 5.22587 7.638L4.13287 10.698L1.45587 9.073C1.22187 8.932 0.912868 9.005 0.767868 9.241C0.624868 9.477 0.700868 9.785 0.935868 9.929L14.6849 18.276L13.1149 20.5C12.6239 21.195 12.5619 22.096 12.9529 22.851C13.3489 23.613 14.1289 24.086 14.9909 24.086H21.4019C22.1869 24.086 22.9089 23.693 23.3319 23.036C23.7519 22.385 23.8109 21.576 23.4909 20.871L23.4899 20.87ZM22.4909 22.493C22.2519 22.864 21.8449 23.085 21.4009 23.085H14.9899C14.4959 23.085 14.0659 22.825 13.8409 22.39C13.6179 21.961 13.6529 21.47 13.9309 21.076L17.8329 15.548C18.0789 15.2 18.4659 15.001 18.8879 15.001C19.4069 15.001 19.8789 15.332 20.0729 15.757L22.5809 21.285C22.7619 21.684 22.7289 22.125 22.4919 22.494L22.4909 22.493ZM9.69487 17.5V23.5C9.69487 23.776 9.47087 24 9.19487 24C8.91887 24 8.69487 23.776 8.69487 23.5V17.5C8.69487 17.224 8.91887 17 9.19487 17C9.47087 17 9.69487 17.224 9.69487 17.5ZM4.16587 14.667L0.970868 23.667C0.898868 23.872 0.705868 24 0.499868 24C0.443868 24 0.387868 23.991 0.332868 23.971C0.0718678 23.879 -0.0631322 23.593 0.0288678 23.333L3.22387 14.333C3.31587 14.072 3.60587 13.934 3.86187 14.029C4.12287 14.121 4.25787 14.407 4.16587 14.667ZM11.1949 5C12.5739 5 13.6949 3.879 13.6949 2.5C13.6949 1.121 12.5739 0 11.1949 0C9.81587 0 8.69487 1.121 8.69487 2.5C8.69487 3.879 9.81587 5 11.1949 5ZM11.1949 1C12.0219 1 12.6949 1.673 12.6949 2.5C12.6949 3.327 12.0219 4 11.1949 4C10.3679 4 9.69487 3.327 9.69487 2.5C9.69487 1.673 10.3679 1 11.1949 1Z" fill="#787891"/>
</svg>
