<svg width="24" height="24" viewBox="0 0 24 24" fill="none" xmlns="http://www.w3.org/2000/svg">
<path d="M21 7.5C21 7.776 20.776 8 20.5 8H17.5C17.224 8 17 7.776 17 7.5C17 7.224 17.224 7 17.5 7H20.5C20.776 7 21 7.224 21 7.5ZM20.5 10H17.5C17.224 10 17 10.224 17 10.5C17 10.776 17.224 11 17.5 11H20.5C20.776 11 21 10.776 21 10.5C21 10.224 20.776 10 20.5 10ZM20.5 13H17.5C17.224 13 17 13.224 17 13.5C17 13.776 17.224 14 17.5 14H20.5C20.776 14 21 13.776 21 13.5C21 13.224 20.776 13 20.5 13ZM20.5 16H17.5C17.224 16 17 16.224 17 16.5C17 16.776 17.224 17 17.5 17H20.5C20.776 17 21 16.776 21 16.5C21 16.224 20.776 16 20.5 16ZM24 7.5V16.5C24 18.981 21.981 21 19.5 21H4.5C2.019 21 0 18.981 0 16.5V7.5C0 5.019 2.019 3 4.5 3H19.5C21.981 3 24 5.019 24 7.5ZM23 7.5C23 5.57 21.43 4 19.5 4H4.5C2.57 4 1 5.57 1 7.5V16.5C1 18.43 2.57 20 4.5 20H19.5C21.43 20 23 18.43 23 16.5V7.5ZM15 12C15 15.309 12.309 18 9 18C5.691 18 3 15.309 3 12C3 8.691 5.691 6 9 6C12.309 6 15 8.691 15 12ZM9 17C10.198 17 11.284 16.559 12.146 15.854L8.939 12.647C8.656 12.364 8.5 11.987 8.5 11.586V7.051C5.98 7.306 4 9.415 4 12C4 14.757 6.243 17 9 17ZM14 12C14 9.414 12.02 7.306 9.5 7.051V11.586C9.5 11.717 9.554 11.846 9.646 11.94L12.853 15.147C13.559 14.285 14 13.199 14 12Z" fill="#D2D2D2"/>
</svg>
