<svg width="24" height="24" viewBox="0 0 24 24" fill="none" xmlns="http://www.w3.org/2000/svg">
<path d="M10 23.5C10 23.776 9.776 24 9.5 24H0.5C0.224 24 0 23.776 0 23.5C0 23.224 0.224 23 0.5 23H9.5C9.776 23 10 23.224 10 23.5ZM0.5 20H7.5C7.776 20 8 19.776 8 19.5C8 19.224 7.776 19 7.5 19H0.5C0.224 19 0 19.224 0 19.5C0 19.776 0.224 20 0.5 20ZM0.5 16H5.5C5.776 16 6 15.776 6 15.5C6 15.224 5.776 15 5.5 15H0.5C0.224 15 0 15.224 0 15.5C0 15.776 0.224 16 0.5 16ZM12 0C5.383 0 0 5.383 0 12C0 12.175 0.003 12.349 0.011 12.522C0.023 12.798 0.263 13.016 0.532 13C0.808 12.988 1.022 12.754 1.01 12.479C1.003 12.32 1 12.161 1 12.001C1 5.935 5.935 1 12 1C18.065 1 23 5.935 23 12C23 17.91 18.379 22.737 12.479 22.99C12.203 23.002 11.989 23.235 12.001 23.511C12.012 23.78 12.234 23.99 12.5 23.99C12.507 23.99 12.515 23.99 12.522 23.99C18.959 23.715 24.001 18.448 24.001 12.001C24 5.383 18.617 0 12 0ZM12.5 6C12.224 6 12 6.224 12 6.5V11.995C12 12.167 12.089 12.328 12.234 12.419L16.234 14.924C16.317 14.976 16.409 15 16.5 15C16.666 15 16.829 14.917 16.924 14.766C17.07 14.532 16.999 14.223 16.766 14.077L13 11.719V6.501C13 6.225 12.776 6 12.5 6Z" fill="#5F5F5F"/>
</svg>
