<svg width="24" height="24" viewBox="0 0 24 24" fill="none" xmlns="http://www.w3.org/2000/svg">
<path d="M15 13.9992C15 12.3452 13.654 10.9992 12 10.9992H3C1.346 10.9992 0 12.3452 0 13.9992C0 15.3032 0.836 16.4142 2 16.8272V19.9992H0.5C0.224 19.9992 0 20.2232 0 20.4992C0 20.7752 0.224 20.9992 0.5 20.9992H2V23.4992C2 23.7752 2.224 23.9992 2.5 23.9992C2.776 23.9992 3 23.7752 3 23.4992V20.9992H12V23.4992C12 23.7752 12.224 23.9992 12.5 23.9992C12.776 23.9992 13 23.7752 13 23.4992V20.9992H14.5C14.776 20.9992 15 20.7752 15 20.4992C15 20.2232 14.776 19.9992 14.5 19.9992H13V16.8272C14.164 16.4142 15 15.3032 15 13.9992ZM12 19.9992H3V16.9992H12V19.9992ZM12 15.9992H3C1.897 15.9992 1 15.1022 1 13.9992C1 12.8962 1.897 11.9992 3 11.9992H12C13.103 11.9992 14 12.8962 14 13.9992C14 15.1022 13.103 15.9992 12 15.9992ZM23.869 13.0272C23.497 14.4882 22.293 15.6232 20.802 15.9192C20.247 16.0292 19.739 16.0382 19.224 16.0382C18.489 16.0382 18 16.2402 18 17.2292V23.4992C18 23.7752 17.776 23.9992 17.5 23.9992C17.224 23.9992 17 23.7752 17 23.4992V17.2292C17 16.4112 17.289 15.0382 19.224 15.0382C19.687 15.0382 20.141 15.0302 20.607 14.9382C21.705 14.7202 22.627 13.8532 22.9 12.7812C23.089 12.0392 23.009 11.2982 22.67 10.6372C22.464 10.2392 22.466 9.75821 22.673 9.35221C22.89 8.92821 23 8.47321 23 7.99821C23 7.02621 22.561 6.14021 21.826 5.62721C21.323 5.27521 21.011 4.68921 20.969 4.01921C20.903 2.97421 20.316 2.05421 19.357 1.49721C18.287 0.871208 16.959 0.835208 15.808 1.39521C14.827 1.87221 14.159 2.92021 14.021 4.20021C13.959 4.77321 13.651 5.29421 13.174 5.62721C12.439 6.14121 12 7.02721 12 7.99921C12 8.14521 12.01 8.28721 12.031 8.42721C12.071 8.69921 11.882 8.95421 11.609 8.99421C11.332 9.02621 11.082 8.84521 11.042 8.57121C11.015 8.38421 11 8.19321 11 7.99921C11 6.70121 11.599 5.50821 12.602 4.80821C12.841 4.64121 12.997 4.38021 13.027 4.09321C13.201 2.46921 14.077 1.12421 15.37 0.496209C16.823 -0.210791 18.501 -0.159791 19.861 0.633209C21.112 1.36221 21.88 2.57321 21.967 3.95721C21.99 4.32221 22.148 4.63221 22.399 4.80821C23.401 5.50821 24 6.70221 24 7.99921C24 8.63321 23.853 9.24121 23.564 9.80821C23.503 9.92621 23.502 10.0692 23.559 10.1812C24.013 11.0612 24.12 12.0452 23.87 13.0282L23.869 13.0272Z" fill="white"/>
</svg>
