<svg width="398" height="445" viewBox="0 0 398 445" fill="none" xmlns="http://www.w3.org/2000/svg">
<path d="M381.323 49.6798C382.626 42.4977 381.509 36.2086 377.973 30.4033C373.208 22.6629 365.019 18.0485 356.048 18.0857C351.544 18.0857 346.891 19.2765 342.572 21.5093L200.746 95.1174C184.368 103.602 167.654 112.236 151.275 120.795C140.74 126.302 135.008 137.913 137.39 149.002C137.651 150.156 137.986 151.347 138.395 152.5C140.294 156.631 142.676 161.506 147.701 165.227C155.556 171.07 166.276 171.777 175.62 166.976C205.772 151.421 236.37 135.531 266.001 120.162L317.483 93.48C317.744 93.3311 318.079 93.5172 318.116 93.8149L319.27 106.281C320.833 117.483 326.864 125.074 337.324 129.279C337.324 129.279 337.398 129.279 337.435 129.279L343.764 130.284L344.583 130.135L346.295 130.284C358.505 130.247 369.225 120.646 371.273 107.956C374.511 87.8608 378.196 67.2446 381.398 49.531L381.323 49.6798Z" fill="#6B6C6E"/>
<path d="M340.302 147.923C340.302 147.923 340.228 147.923 340.19 147.923L333.341 146.77V146.844C319.344 146.881 307.954 157.152 306.279 171.256C305.236 179.852 303.673 188.486 302.184 196.784L302.035 197.529C301.402 200.952 300.769 204.45 300.174 207.948L280.072 326.547C279.998 326.957 279.477 327.031 279.291 326.696L264.401 302.135C258.966 293.167 253.494 284.198 248.022 275.23L241.359 275.156C239.386 278.356 236.966 281.407 234.1 284.161C226.059 291.976 216.493 296.107 205.698 296.404H204.767C204.767 296.404 204.581 296.404 204.469 296.404H203.687C202.347 296.404 201.007 296.293 199.63 296.144L211.021 314.9C230.75 347.424 251.074 380.99 271.213 413.961C277.057 423.563 286.289 427.842 297.159 426.279C308.289 424.679 315.92 417.981 319.27 406.817C320.089 404.063 320.536 401.197 320.982 398.183C321.206 396.732 321.355 395.69 321.541 394.648L344.397 259.973C348.566 235.412 352.772 210.814 356.904 186.216L358.133 179.443C359.063 174.307 358.914 168.949 357.127 164.037C354.373 156.445 348.752 151.012 340.339 147.886L340.302 147.923Z" fill="#B2F850"/>
<path d="M228.218 242.966L227.921 242.296C223.789 233.812 217.051 228.676 207.335 226.592C186.08 222.052 164.49 217.177 143.607 212.488L125.143 208.32C124.845 208.246 124.734 207.948 124.883 207.688L130.801 197.715C134.114 192.133 135.157 185.732 133.817 179.22C133.593 178.215 133.333 177.21 133.035 176.242L132.216 174.307C130.652 170.586 128.27 167.311 125.218 164.669L123.915 163.553C122.351 162.399 120.676 161.432 118.889 160.65C115.316 159.087 111.705 158.268 108.169 158.268C104.223 158.268 100.277 159.273 96.443 161.283C72.917 173.414 53.6346 183.425 35.7668 192.765C25.9022 197.938 19.4996 209.921 20.8769 220.675C22.3287 232.286 30.1086 240.733 41.611 243.338C60.2606 247.506 79.2079 251.711 97.5225 255.767L141.932 265.629C152.057 267.899 162.368 270.243 172.307 272.513L193.041 277.091C195.163 277.5 197.024 277.909 198.922 278.244C200.784 278.579 202.608 278.765 204.357 278.765H204.99C211.393 278.616 216.865 276.235 221.741 271.509C226.357 267.043 229 261.796 229.633 255.916V255.842C229.409 250.52 228.739 244.715 228.181 243.04L228.218 242.966Z" fill="#BCBCBC"/>
<path d="M390.927 20.7651C382.887 7.70317 369.039 -0.0372133 353.814 6.00267e-08C346.481 6.00267e-08 339.036 1.89788 332.224 5.43315C332.224 5.43315 290.83 26.5331 286.475 28.8031C274.824 34.8689 263.172 40.8975 251.484 46.8888L227.213 59.4297C203.501 71.7102 179.826 83.9906 156.151 96.3082C152.764 98.0572 134.859 107.584 128.717 114.133C121.793 121.502 117.698 131.14 117.066 141.113C117.066 141.374 116.805 141.56 116.544 141.485C106.345 138.88 95.8102 140.034 86.0946 145.058C62.4942 157.189 43.1746 167.237 25.3067 176.615C8.96511 185.174 -1.23446 204.45 1.03624 222.461C3.45585 241.515 16.6706 255.991 35.5063 260.233C54.1559 264.401 73.1032 268.606 91.455 272.662L135.827 282.524C145.915 284.757 156.189 287.138 166.574 289.52L173.61 291.083C173.61 291.083 173.833 291.195 173.87 291.269L193.599 323.831C213.329 356.355 233.69 389.922 253.792 422.93C262.018 436.438 275.457 444.142 290.644 444.067C292.878 444.067 295.148 443.881 297.382 443.583C315.361 441.016 328.688 429.368 333.974 411.654C335.165 407.672 335.723 403.877 336.282 400.155C336.431 399.225 336.542 398.295 336.728 397.402L359.584 262.689C363.753 238.091 367.96 213.53 372.092 188.932L372.576 186.141C373.73 179.964 375.144 172.261 373.209 163.702C371.496 155.998 368.034 149.226 363.121 143.718C362.934 143.532 363.009 143.197 363.232 143.085C375.144 136.759 384.115 124.851 386.386 110.673C389.587 90.7262 393.273 70.2216 396.437 52.5825C398.521 41.0836 396.586 30.4033 390.779 20.8767L390.927 20.7651ZM190.845 276.644L170.111 272.067C160.134 269.797 149.86 267.415 139.735 265.182L95.3263 255.321C77.0118 251.265 58.0272 247.06 39.4149 242.892C27.8752 240.324 20.1325 231.839 18.6807 220.229C17.3034 209.474 23.7433 197.491 33.5706 192.319C51.4012 182.941 70.6836 172.931 94.2468 160.836C98.081 158.864 102.027 157.859 105.973 157.822C109.509 157.822 113.12 158.603 116.693 160.204C118.48 160.985 120.192 161.953 121.719 163.106L123.059 164.26C123.505 164.632 123.803 165.078 124.213 165.488C126.335 167.646 127.972 170.214 129.499 172.856C129.685 173.191 129.908 173.489 130.057 173.824L130.876 175.796V175.833C131.211 176.801 131.472 177.805 131.658 178.773C132.998 185.285 131.955 191.686 128.642 197.268L122.724 207.241C122.575 207.502 122.724 207.837 122.984 207.874L141.448 212.042C162.331 216.731 183.921 221.606 205.176 226.146C214.334 228.081 220.848 232.77 225.017 240.436C225.724 241.738 226.208 243.115 226.543 244.566C227.064 246.799 227.921 250.26 227.474 255.321V255.395C226.841 261.275 224.161 266.522 219.582 270.988C214.706 275.714 209.234 278.095 202.831 278.244H202.198C200.449 278.244 198.625 278.095 196.764 277.723C194.865 277.388 192.967 276.979 190.882 276.57L190.845 276.644ZM148.595 195.072C149.302 192.356 149.674 189.565 149.861 186.774C149.861 186.513 150.121 186.327 150.382 186.402C153.769 187.22 157.231 187.667 160.767 187.667C167.952 187.667 174.95 185.881 181.576 182.494C211.728 166.939 242.364 151.012 271.995 135.68L301.961 120.162C302.184 120.05 302.444 120.162 302.556 120.385C304.455 125.149 307.172 129.428 310.522 133.149C310.708 133.335 310.634 133.67 310.411 133.782C297.568 140.443 288.411 153.17 286.512 168.763C285.544 176.838 284.018 185.174 282.566 193.249L282.418 194.03C281.785 197.529 281.152 201.101 280.519 204.636L268.384 276.272C268.309 276.681 267.788 276.756 267.602 276.421C265.443 272.886 263.284 269.35 261.125 265.778C256.844 258.782 252.489 251.711 248.245 244.827L241.992 234.667L241.768 234.221C235.254 220.824 223.9 212.079 208.936 208.879C188.946 204.599 168.659 200.059 148.93 195.593C148.707 195.556 148.558 195.296 148.632 195.072H148.595ZM355.899 179.108L354.671 185.918C350.501 210.516 346.332 235.077 342.163 259.675L319.307 394.35C319.121 395.392 318.972 396.434 318.749 397.885C318.302 400.9 317.893 403.765 317.036 406.519C313.724 417.646 306.092 424.381 294.925 425.981C284.055 427.544 274.824 423.228 268.979 413.664C248.878 380.693 228.516 347.126 208.787 314.602L197.396 295.846C197.396 295.846 197.434 295.846 197.471 295.846C198.811 295.995 200.151 296.07 201.454 296.07H202.236C202.236 296.07 202.422 296.07 202.533 296.07H203.464C203.985 296.07 204.469 295.958 204.99 295.921C205.623 295.883 206.293 295.846 206.926 295.772C207.633 295.697 208.34 295.586 209.048 295.474C209.643 295.363 210.276 295.288 210.872 295.176C211.579 295.028 212.286 294.842 212.994 294.655C213.552 294.507 214.148 294.358 214.706 294.209C215.413 293.986 216.12 293.725 216.828 293.465C217.349 293.279 217.907 293.092 218.391 292.869C219.098 292.571 219.806 292.199 220.513 291.864C220.997 291.641 221.481 291.418 221.965 291.157C222.672 290.748 223.379 290.301 224.087 289.892C224.533 289.632 224.98 289.371 225.389 289.073C226.134 288.552 226.878 287.994 227.623 287.436C227.958 287.176 228.33 286.915 228.665 286.655C229.745 285.761 230.787 284.831 231.829 283.864C232.872 282.822 233.877 281.78 234.807 280.7C235.142 280.328 235.403 279.956 235.701 279.584C236.296 278.84 236.892 278.095 237.413 277.351C237.748 276.905 238.008 276.458 238.306 276.012C238.79 275.267 239.237 274.523 239.684 273.779C239.944 273.332 240.205 272.848 240.465 272.365C240.875 271.546 241.284 270.727 241.657 269.909C241.805 269.611 241.954 269.313 242.103 269.015C243.369 271.062 244.597 273.109 245.826 275.118C251.26 284.012 256.658 292.944 262.093 301.838L276.983 326.398C277.206 326.733 277.727 326.659 277.764 326.25L297.866 207.651C298.461 204.153 299.094 200.654 299.727 197.231L299.876 196.487C301.402 188.151 302.928 179.554 303.971 170.958C305.683 156.854 317.036 146.583 331.033 146.546V146.472L337.882 147.625C337.882 147.625 337.957 147.625 337.994 147.625C346.37 150.751 351.99 156.184 354.782 163.776C356.569 168.688 356.718 174.047 355.787 179.182L355.899 179.108ZM379.127 49.3077C375.926 67.0213 372.241 87.6375 369.002 107.733C366.955 120.422 356.234 130.024 344.024 130.061L342.312 129.912L341.493 130.061L335.165 129.056C335.165 129.056 335.09 129.056 335.053 129.056C324.63 124.851 318.563 117.259 316.999 106.058L315.845 93.5916C315.845 93.2939 315.473 93.1078 315.212 93.2567L263.731 119.939C234.1 135.308 203.501 151.198 173.349 166.753C164.043 171.554 153.322 170.847 145.431 165.004C143.16 163.664 136.869 154.584 136.125 152.277C135.715 151.086 135.38 149.933 135.12 148.779C132.774 137.689 138.47 126.079 149.004 120.571C165.383 112.012 182.097 103.379 198.476 94.8941L340.302 21.286C344.583 19.0532 349.273 17.8624 353.777 17.8624C362.748 17.8624 370.938 22.4397 375.703 30.18C379.239 35.9481 380.318 42.2372 379.053 49.4566L379.127 49.3077Z" fill="black"/>
</svg>
