<?xml version="1.0" encoding="UTF-8"?>
<svg xmlns="http://www.w3.org/2000/svg" id="Layer_1" data-name="Layer 1" viewBox="0 0 24 24">
  <path d="m19.5,0h-10c-2.481,0-4.5,2.019-4.5,4.5v2.5h-1c-2.206,0-4,1.794-4,4v10c0,1.654,1.346,3,3,3h16.5c2.481,0,4.5-2.019,4.5-4.5V4.5c0-2.481-2.019-4.5-4.5-4.5ZM5,21c0,1.103-.897,2-2,2s-2-.897-2-2v-10c0-1.654,1.346-3,3-3h1v13Zm18-1.5c0,1.93-1.57,3.5-3.5,3.5H5.234c.476-.531.766-1.232.766-2V4.5c0-1.93,1.57-3.5,3.5-3.5h10c1.93,0,3.5,1.57,3.5,3.5v15Zm-2-12c0,.276-.224.5-.5.5h-5c-.276,0-.5-.224-.5-.5s.224-.5.5-.5h5c.276,0,.5.224.5.5Zm0,4c0,.276-.224.5-.5.5h-12c-.276,0-.5-.224-.5-.5s.224-.5.5-.5h12c.276,0,.5.224.5.5Zm0,4c0,.276-.224.5-.5.5h-12c-.276,0-.5-.224-.5-.5s.224-.5.5-.5h12c.276,0,.5.224.5.5Zm0,4c0,.276-.224.5-.5.5h-12c-.276,0-.5-.224-.5-.5s.224-.5.5-.5h12c.276,0,.5.224.5.5Zm-11.5-11.5h2c.827,0,1.5-.673,1.5-1.5v-2c0-.827-.673-1.5-1.5-1.5h-2c-.827,0-1.5.673-1.5,1.5v2c0,.827.673,1.5,1.5,1.5Zm-.5-3.5c0-.276.224-.5.5-.5h2c.276,0,.5.224.5.5v2c0,.276-.224.5-.5.5h-2c-.276,0-.5-.224-.5-.5v-2Z"/>
</svg>
