<svg width="18" height="24" viewBox="0 0 18 24" fill="none" xmlns="http://www.w3.org/2000/svg">
<path d="M13.5 12H10.5C10.224 12 10 11.776 10 11.5C10 11.224 10.224 11 10.5 11H13.5C13.776 11 14 11.224 14 11.5C14 11.776 13.776 12 13.5 12ZM14 16.5C14 16.224 13.776 16 13.5 16H8.5C8.224 16 8 16.224 8 16.5C8 16.776 8.224 17 8.5 17H13.5C13.776 17 14 16.776 14 16.5ZM18 19.5V6.5C18 4.019 15.981 2 13.5 2H12.95C12.718 0.86 11.708 0 10.5 0H7.5C6.292 0 5.283 0.86 5.05 2H4.5C2.019 2 0 4.019 0 6.5V19.5C0 21.981 2.019 24 4.5 24H13.5C15.981 24 18 21.981 18 19.5ZM5.5 3C5.776 3 6 2.776 6 2.5C6 1.673 6.673 1 7.5 1H10.5C11.327 1 12 1.673 12 2.5C12 2.776 12.224 3 12.5 3H13.5C15.43 3 17 4.57 17 6.5V19.5C17 21.43 15.43 23 13.5 23H4.5C2.57 23 1 21.43 1 19.5V6.5C1 4.57 2.57 3 4.5 3H5.5ZM5 15.5C4.448 15.5 4 15.948 4 16.5C4 17.052 4.448 17.5 5 17.5C5.552 17.5 6 17.052 6 16.5C6 15.948 5.552 15.5 5 15.5ZM6.488 11.662L9.35 8.857C9.547 8.664 9.55 8.347 9.357 8.15C9.164 7.953 8.847 7.949 8.65 8.143L5.785 10.951C5.729 11.007 5.605 11.006 5.543 10.945L3.764 9.224C3.566 9.032 3.249 9.037 3.057 9.236C2.865 9.434 2.87 9.751 3.069 9.943L4.842 11.658C5.062 11.878 5.355 12 5.667 12C5.979 12 6.272 11.878 6.489 11.662H6.488Z" fill="#787891"/>
</svg>
