<svg width="16" height="16" viewBox="0 0 16 16" fill="none" xmlns="http://www.w3.org/2000/svg">
<path d="M3 0.666H6.67667C6.89933 0.666 7.11867 0.686 7.33333 0.724667V4.33267C7.33333 5.25133 8.08133 5.99933 9 5.99933H12.6073C12.6293 6.118 12.6453 6.23867 12.6547 6.36C12.6693 6.54333 12.8373 6.67933 13.014 6.66533C13.1973 6.65067 13.334 6.48933 13.3193 6.306C13.236 5.282 12.7907 4.31867 12.064 3.59267L9.74067 1.26933C8.922 0.450667 7.834 2.4754e-07 6.67667 2.4754e-07H3C1.346 -0.000666419 0 1.34533 0 2.99933V12.9993C0 14.6533 1.346 15.9993 3 15.9993H5.66667C5.85067 15.9993 6 15.85 6 15.666C6 15.482 5.85067 15.3327 5.66667 15.3327H3C1.71333 15.3327 0.666667 14.286 0.666667 12.9993V2.99933C0.666667 1.71267 1.71333 0.666 3 0.666ZM11.5927 4.06333C11.956 4.42667 12.236 4.86 12.4193 5.33267H9C8.44867 5.33267 8 4.884 8 4.33267V0.911334C8.47067 1.09333 8.902 1.37267 9.26933 1.74L11.5927 4.06333ZM15.5113 7.82067C14.8827 7.19133 13.7833 7.19133 13.1547 7.82067L8.01667 12.9587C7.576 13.3993 7.33333 13.9853 7.33333 14.6087V15.666C7.33333 15.85 7.48267 15.9993 7.66667 15.9993H8.724C9.34733 15.9993 9.93333 15.7567 10.374 15.316L15.512 10.178C15.8267 9.86333 16 9.44467 16 8.99933C16 8.554 15.826 8.13533 15.5113 7.82067ZM15.04 9.706L9.902 14.844C9.58733 15.1587 9.16867 15.332 8.72333 15.332H7.99933V14.608C7.99933 14.1627 8.17267 13.7447 8.48733 13.4293L13.6253 8.29133C14.0027 7.914 14.662 7.914 15.0393 8.29133C15.228 8.48 15.332 8.73133 15.332 8.99867C15.332 9.266 15.2287 9.51667 15.04 9.706Z" fill="#787891"/>
</svg>
