<svg width="36" height="34" viewBox="0 0 36 34" fill="none" xmlns="http://www.w3.org/2000/svg">
<path d="M29.25 0.5H6.75C3.0285 0.5 0 3.5285 0 7.25V20.75C0 24.4715 3.0285 27.5 6.75 27.5H17.25V32H9.75C9.336 32 9 32.336 9 32.75C9 33.164 9.336 33.5 9.75 33.5H26.25C26.664 33.5 27 33.164 27 32.75C27 32.336 26.664 32 26.25 32H18.75V27.5H29.25C32.9715 27.5 36 24.4715 36 20.75V7.25C36 3.5285 32.9715 0.5 29.25 0.5ZM6.75 2H29.25C32.145 2 34.5 4.355 34.5 7.25V20H1.5V7.25C1.5 4.355 3.855 2 6.75 2ZM29.25 26H6.75C4.113 26 1.944 24.038 1.5765 21.5H34.4235C34.056 24.038 31.887 26 29.25 26Z" fill="black"/>
</svg>
