<svg width="14" height="14" viewBox="0 0 14 14" fill="none" xmlns="http://www.w3.org/2000/svg">
<path d="M5.75437 0.814977C4.8784 0.531408 3.92613 0.925846 3.50722 1.74578L3.00361 2.73151C2.94377 2.84864 2.84852 2.9439 2.73139 3.00373L1.74566 3.50735C0.925724 3.92625 0.531286 4.87852 0.814855 5.7545L1.15577 6.80762C1.19627 6.93275 1.19627 7.06749 1.15577 7.19262L0.814855 8.24575C0.531286 9.12175 0.925724 10.074 1.74566 10.4929L2.73139 10.9965C2.84852 11.0564 2.94377 11.1516 3.00361 11.2687L3.50722 12.2545C3.92613 13.0744 4.8784 13.4689 5.75437 13.1853L6.8075 12.8444C6.93262 12.8039 7.06737 12.8039 7.1925 12.8444L8.24562 13.1853C9.12162 13.4689 10.0739 13.0744 10.4928 12.2545L10.9964 11.2687C11.0562 11.1516 11.1515 11.0564 11.2686 10.9965L12.2544 10.4929C13.0743 10.074 13.4687 9.12175 13.1852 8.24575L12.8442 7.19262C12.8037 7.06749 12.8037 6.93275 12.8442 6.80762L13.1852 5.7545C13.4687 4.87852 13.0743 3.92625 12.2544 3.50735L11.2686 3.00373C11.1515 2.9439 11.0562 2.84864 10.9964 2.73151L10.4928 1.74578C10.0739 0.925846 9.12162 0.531408 8.24562 0.814977L7.1925 1.15589C7.06737 1.19639 6.93262 1.1964 6.8075 1.15589L5.75437 0.814977ZM3.72485 6.84843L4.60874 5.9645L6.3765 7.73231L9.91206 4.19678L10.7959 5.08066L6.3765 9.50006L3.72485 6.84843Z" fill="#5E56FF"/>
</svg>
