<svg width="24" height="24" viewBox="0 0 24 24" fill="none" xmlns="http://www.w3.org/2000/svg">
<path d="M19.5 3.99805H17.972C17.723 1.75105 15.812 -0.00195312 13.5 -0.00195312H4.5C2.019 -0.00195312 0 2.01705 0 4.49805V18.352C0 18.9611 0.333 19.5181 0.871 19.805C1.115 19.9361 1.382 20 1.648 20C1.967 20 2.286 19.907 2.562 19.723L6.086 17.3741C6.495 19.437 8.319 20.997 10.5 20.997H17.349L21.438 23.723C21.714 23.9081 22.032 24.0001 22.352 24.0001C22.618 24.0001 22.885 23.9361 23.129 23.805C23.666 23.5181 24 22.9611 24 22.352V8.49805C24 6.01705 21.981 3.99805 19.5 3.99805ZM2.007 18.892C1.804 19.0271 1.557 19.0401 1.342 18.924C1.128 18.81 1 18.5961 1 18.3531V4.49805C1 2.56805 2.57 0.998047 4.5 0.998047H13.5C15.43 0.998047 17 2.56805 17 4.49805V12.498C17 14.428 15.43 15.998 13.5 15.998H6.563C6.409 15.998 6.278 16.052 6.218 16.085L2.007 18.892ZM23 22.3531C23 22.5961 22.872 22.8101 22.658 22.924C22.444 23.0391 22.195 23.0261 21.993 22.892L17.778 20.0821C17.696 20.0271 17.599 19.998 17.501 19.998H10.501C8.741 19.998 7.28 18.692 7.037 16.998H13.501C15.982 16.998 18.001 14.979 18.001 12.498V4.99805H19.501C21.431 4.99805 23.001 6.56805 23.001 8.49805V22.352L23 22.3531Z" fill="#96132C"/>
</svg>
