<?xml version="1.0" encoding="UTF-8"?>
<svg xmlns="http://www.w3.org/2000/svg" id="Layer_1" data-name="Layer 1" viewBox="0 0 24 24">
  <path d="M2,20c-1.103,0-2,.897-2,2s.897,2,2,2,2-.897,2-2-.897-2-2-2Zm0,3c-.551,0-1-.448-1-1s.449-1,1-1,1,.448,1,1-.449,1-1,1Zm8.5-7c0,1.103,.897,2,2,2s2-.897,2-2-.897-2-2-2-2,.897-2,2Zm3,0c0,.552-.448,1-1,1s-1-.448-1-1,.449-1,1-1,1,.448,1,1ZM2,13c0-2.206,1.794-4,4-4H15.5c.276,0,.5,.224,.5,.5s-.224,.5-.5,.5H6c-1.654,0-3,1.346-3,3s1.346,3,3,3h2.5c.276,0,.5,.224,.5,.5s-.224,.5-.5,.5h-2.5c-2.206,0-4-1.794-4-4Zm22,6.5c0,1.93-1.57,3.5-3.5,3.5H6.5c-.276,0-.5-.224-.5-.5s.224-.5,.5-.5h14c1.379,0,2.5-1.121,2.5-2.5s-1.121-2.5-2.5-2.5h-4c-.276,0-.5-.224-.5-.5s.224-.5,.5-.5h4c1.93,0,3.5,1.57,3.5,3.5Zm-5.5-9.5c.276,0,.5-.224,.5-.5v-3.191l4.348-2.175c.88-.596,.876-2.008-.079-2.597-.436-.181-2.992-1.376-3.395-1.476-.906-.302-1.898,.482-1.874,1.423V9.5c0,.276,.224,.5,.5,.5Zm.5-8.516c0-.154,.074-.301,.199-.394,.231-.198,.596-.003,.848,.101l2.734,1.214c.275,.149,.272,.712,.06,.869l-3.841,1.917V1.484Z"/>
</svg>
