<svg width="49" height="49" viewBox="0 0 49 49" fill="none" xmlns="http://www.w3.org/2000/svg">
<path d="M16.9466 8.33267C18.3917 4.1035 24.2352 3.97542 25.9487 7.94842L26.0937 8.33508L28.0439 14.0384C28.4909 15.3464 29.2131 16.5433 30.162 17.5484C31.1108 18.5536 32.2642 19.3435 33.5443 19.865L34.0687 20.0607L39.772 22.0086C44.0012 23.4537 44.1292 29.2972 40.1587 31.0107L39.772 31.1557L34.0687 33.1059C32.7602 33.5526 31.5628 34.2747 30.5573 35.2235C29.5517 36.1724 28.7614 37.3259 28.2397 38.6062L28.0439 39.1282L26.0961 44.834C24.6509 49.0632 18.8074 49.1912 17.0964 45.2207L16.9466 44.834L14.9987 39.1307C14.5521 37.8222 13.83 36.6248 12.8811 35.6193C11.9323 34.6137 10.7787 33.8234 9.49841 33.3017L8.97641 33.1059L3.27308 31.1581C-0.958504 29.7129 -1.08659 23.8694 2.88641 22.1584L3.27308 22.0086L8.97641 20.0607C10.2844 19.6138 11.4813 18.8916 12.4864 17.9427C13.4916 16.9939 14.2815 15.8405 14.803 14.5604L14.9987 14.0384L16.9466 8.33267ZM40.8547 4.36661e-07C41.3068 -5.70266e-07 41.7498 0.126823 42.1334 0.366056C42.5171 0.60529 42.8259 0.94734 43.0248 1.35333L43.1408 1.63608L43.9867 4.11558L46.4686 4.96142C46.9217 5.11535 47.3188 5.40032 47.6098 5.78022C47.9008 6.16012 48.0724 6.61784 48.1029 7.09538C48.1335 7.57292 48.0215 8.04878 47.7814 8.46265C47.5412 8.87652 47.1835 9.20977 46.7537 9.42017L46.4686 9.53617L43.9891 10.382L43.1432 12.8639C42.989 13.3169 42.7039 13.7139 42.3238 14.0046C41.9438 14.2953 41.486 14.4666 41.0085 14.4969C40.5309 14.5272 40.0552 14.415 39.6415 14.1747C39.2277 13.9343 38.8947 13.5765 38.6845 13.1467L38.5685 12.8639L37.7227 10.3844L35.2407 9.53858C34.7877 9.38465 34.3905 9.09968 34.0995 8.71978C33.8086 8.33988 33.637 7.88216 33.6064 7.40462C33.5759 6.92708 33.6878 6.45122 33.928 6.03735C34.1682 5.62348 34.5258 5.29023 34.9556 5.07983L35.2407 4.96383L37.7202 4.118L38.5661 1.63608C38.729 1.15861 39.0373 0.744112 39.4478 0.450705C39.8582 0.157298 40.3502 -0.000302763 40.8547 4.36661e-07Z" fill="black"/>
<path d="M16.9466 8.33267C18.3917 4.1035 24.2352 3.97542 25.9487 7.94842L26.0937 8.33508L28.0439 14.0384C28.4909 15.3464 29.2131 16.5433 30.162 17.5484C31.1108 18.5536 32.2642 19.3435 33.5443 19.865L34.0687 20.0607L39.772 22.0086C44.0012 23.4537 44.1292 29.2972 40.1587 31.0107L39.772 31.1557L34.0687 33.1059C32.7602 33.5526 31.5628 34.2747 30.5573 35.2235C29.5517 36.1724 28.7614 37.3259 28.2397 38.6062L28.0439 39.1282L26.0961 44.834C24.6509 49.0632 18.8074 49.1912 17.0964 45.2207L16.9466 44.834L14.9987 39.1307C14.5521 37.8222 13.83 36.6248 12.8811 35.6193C11.9323 34.6137 10.7787 33.8234 9.49841 33.3017L8.97641 33.1059L3.27308 31.1581C-0.958504 29.7129 -1.08659 23.8694 2.88641 22.1584L3.27308 22.0086L8.97641 20.0607C10.2844 19.6138 11.4813 18.8916 12.4864 17.9427C13.4916 16.9939 14.2815 15.8405 14.803 14.5604L14.9987 14.0384L16.9466 8.33267ZM40.8547 4.36661e-07C41.3068 -5.70266e-07 41.7498 0.126823 42.1334 0.366056C42.5171 0.60529 42.8259 0.94734 43.0248 1.35333L43.1408 1.63608L43.9867 4.11558L46.4686 4.96142C46.9217 5.11535 47.3188 5.40032 47.6098 5.78022C47.9008 6.16012 48.0724 6.61784 48.1029 7.09538C48.1335 7.57292 48.0215 8.04878 47.7814 8.46265C47.5412 8.87652 47.1835 9.20977 46.7537 9.42017L46.4686 9.53617L43.9891 10.382L43.1432 12.8639C42.989 13.3169 42.7039 13.7139 42.3238 14.0046C41.9438 14.2953 41.486 14.4666 41.0085 14.4969C40.5309 14.5272 40.0552 14.415 39.6415 14.1747C39.2277 13.9343 38.8947 13.5765 38.6845 13.1467L38.5685 12.8639L37.7227 10.3844L35.2407 9.53858C34.7877 9.38465 34.3905 9.09968 34.0995 8.71978C33.8086 8.33988 33.637 7.88216 33.6064 7.40462C33.5759 6.92708 33.6878 6.45122 33.928 6.03735C34.1682 5.62348 34.5258 5.29023 34.9556 5.07983L35.2407 4.96383L37.7202 4.118L38.5661 1.63608C38.729 1.15861 39.0373 0.744112 39.4478 0.450705C39.8582 0.157298 40.3502 -0.000302763 40.8547 4.36661e-07Z" fill="url(#paint0_linear_685_7033)"/>
<defs>
<linearGradient id="paint0_linear_685_7033" x1="0" y1="24.0526" x2="48.1078" y2="24.0526" gradientUnits="userSpaceOnUse">
<stop stop-color="#285DF2"/>
<stop offset="0.5" stop-color="#40C4AA"/>
<stop offset="1" stop-color="#A9BEFA"/>
</linearGradient>
</defs>
</svg>
