<svg width="14" height="15" viewBox="0 0 14 15" fill="none" xmlns="http://www.w3.org/2000/svg">
<path fill-rule="evenodd" clip-rule="evenodd" d="M2.04345 1.5C1.46738 1.5 1 1.97524 1 2.56027V3.1843C1 3.61765 1.16479 4.03439 1.45957 4.34785L4.69007 7.78288L4.69149 7.78072C5.31514 8.41919 5.66604 9.28228 5.66604 10.1822V13.2301C5.66604 13.4338 5.87913 13.5638 6.056 13.4677L7.8957 12.4653C8.17343 12.3136 8.34675 12.0189 8.34675 11.6989V10.1743C8.34675 9.27939 8.69267 8.41991 9.31064 7.78288L12.5411 4.34785C12.8352 4.03439 13 3.61765 13 3.1843V2.56027C13 1.97524 12.5333 1.5 11.9573 1.5H2.04345Z" stroke="#4B4B62" stroke-width="1.5" stroke-linecap="round" stroke-linejoin="round"/>
</svg>
