<svg width="25" height="21" viewBox="0 0 25 21" fill="none" xmlns="http://www.w3.org/2000/svg">
<path d="M23.273 7.72098C22.323 6.62798 20.948 5.99998 19.5 5.99998H14.63L15.439 3.16698C16.009 0.157982 11.552 -1.27902 10.287 1.56498L7.486 5.99998H5.001C2.519 5.99998 0.5 8.01898 0.5 10.5V16.5C0.5 18.981 2.519 21 5 21H18.795C21.272 21 23.4 19.151 23.746 16.698L24.451 11.698C24.653 10.263 24.223 8.81398 23.273 7.72098ZM1.5 16.5V10.5C1.5 8.56998 3.07 6.99998 5 6.99998H7.512L7.501 20H5.001C3.071 20 1.501 18.43 1.501 16.5H1.5ZM23.461 11.559L22.756 16.559C22.479 18.521 20.777 20 18.795 20H8.5L8.512 6.24598L11.157 2.05398C11.929 0.185982 14.758 1.06898 14.465 2.94898L13.486 6.36298C13.443 6.51398 13.472 6.67598 13.567 6.80098C13.662 6.92598 13.809 6.99998 13.966 6.99998H19.499C21.859 6.94598 23.843 9.22798 23.46 11.559H23.461Z" fill="#1C7551"/>
</svg>
