<svg width="24" height="21" viewBox="0 0 24 21" fill="none" xmlns="http://www.w3.org/2000/svg">
<path d="M23.951 9.302L23.246 4.302C22.9 1.849 20.771 0 18.295 0H4.5C2.019 0 0 2.019 0 4.5V10.5C0 12.981 2.019 15 4.5 15H6.985L9.76 19.389C11.022 22.298 15.54 20.868 14.925 17.776L14.129 15H18.999C21.949 15.068 24.43 12.214 23.951 9.302ZM4.5 14C2.57 14 1 12.43 1 10.5V4.5C1 2.57 2.57 1 4.5 1H7L7.011 14H4.5ZM22.02 12.623H22.018C21.259 13.498 20.159 14 19 14H13.467C13.145 13.992 12.889 14.33 12.987 14.638L13.953 17.994C14.296 19.949 11.416 20.837 10.633 18.9L8.014 14.753L8.002 0.999H18.296C20.277 0.999 21.98 2.478 22.257 4.44L22.962 9.44C23.123 10.588 22.78 11.748 22.021 12.622L22.02 12.623Z" fill="#9D0000"/>
</svg>
