<?xml version="1.0" encoding="UTF-8"?>
<svg xmlns="http://www.w3.org/2000/svg" id="Layer_1" data-name="Layer 1" viewBox="0 0 24 24">
  <path d="m17.337,10.367c.458.449,1.061.673,1.663.673s1.205-.224,1.663-.673l1.872-1.831c.945-.944,1.465-2.2,1.465-3.536s-.52-2.591-1.465-3.536c-.944-.944-2.2-1.464-3.535-1.464s-2.591.52-3.536,1.464c-1.95,1.95-1.95,5.122.004,7.075l1.869,1.827Zm-1.166-8.195c.756-.755,1.76-1.171,2.829-1.171s2.073.416,2.828,1.171c.756.755,1.172,1.76,1.172,2.829s-.416,2.073-1.168,2.825l-1.868,1.827c-.531.52-1.396.52-1.928,0l-1.865-1.823c-1.56-1.56-1.56-4.098,0-5.657ZM2,20c-1.103,0-2,.897-2,2s.897,2,2,2,2-.897,2-2-.897-2-2-2Zm0,3c-.551,0-1-.449-1-1s.449-1,1-1,1,.449,1,1-.449,1-1,1Zm8.5-7c0,1.103.897,2,2,2s2-.897,2-2-.897-2-2-2-2,.897-2,2Zm3,0c0,.551-.449,1-1,1s-1-.449-1-1,.449-1,1-1,1,.449,1,1Zm-5,1h-3c-1.93,0-3.5-1.57-3.5-3.5s1.57-3.5,3.5-3.5h9c.276,0,.5.224.5.5s-.224.5-.5.5H5.5c-1.378,0-2.5,1.122-2.5,2.5s1.122,2.5,2.5,2.5h3c.276,0,.5.224.5.5s-.224.5-.5.5Zm15.5,2.5c0,1.93-1.57,3.5-3.5,3.5H6.5c-.276,0-.5-.224-.5-.5s.224-.5.5-.5h14c1.378,0,2.5-1.122,2.5-2.5s-1.122-2.5-2.5-2.5h-4c-.276,0-.5-.224-.5-.5s.224-.5.5-.5h4c1.93,0,3.5,1.57,3.5,3.5Zm-3.999-14.713c0,.552-.448,1-1,1s-1-.448-1-1,.448-1,1-1,1,.448,1,1Z"/>
</svg>
