<svg width="22" height="24" viewBox="0 0 22 24" fill="none" xmlns="http://www.w3.org/2000/svg">
<path d="M21.5 0H0.5C0.224 0 0 0.224 0 0.5C0 0.776 0.224 1 0.5 1H1.164L3.023 19.939C3.251 22.254 5.176 24 7.502 24H14.551C16.877 24 18.802 22.254 19.03 19.939L20.889 1H21.5C21.776 1 22 0.776 22 0.5C22 0.224 21.776 0 21.5 0ZM18.035 19.842C18.033 19.863 18.025 19.883 18.023 19.904L15.296 17.177L18.138 14.335L18.537 14.734L18.035 19.842ZM7.437 9.318L4.595 6.476L7.437 3.634L10.279 6.476L7.437 9.318ZM10.986 7.183L13.861 10.058L11.019 12.9L8.144 10.025L10.986 7.183ZM6.73 10.025L3.867 12.888L3.279 12.3L2.876 8.196L3.888 7.184L6.73 10.026V10.025ZM2.749 6.908L2.655 5.951L3.181 6.477L2.749 6.908ZM4.019 19.842L3.51 14.659L3.867 14.302L6.742 17.177L4.028 19.891C4.026 19.874 4.02 19.859 4.019 19.843V19.842ZM4.574 13.595L7.437 10.732L10.312 13.607L7.449 16.47L4.574 13.595ZM11.019 14.314L13.882 17.177L11.019 20.04L8.156 17.177L11.019 14.314ZM11.726 13.607L14.568 10.765L17.431 13.628L14.589 16.47L11.726 13.607ZM19.3 6.955L18.839 6.494L19.401 5.932L19.301 6.955H19.3ZM19.174 8.243L18.778 12.281L18.138 12.921L15.275 10.058L18.132 7.201L19.174 8.243ZM14.568 9.351L11.693 6.476L14.55 3.619L17.425 6.494L14.568 9.351ZM10.986 5.769L8.144 2.927L10.071 1H11.932L13.844 2.912L10.987 5.769H10.986ZM7.437 2.22L6.217 1H8.657L7.437 2.22ZM13.346 1H15.755L14.55 2.205L13.346 1ZM4.803 1L6.73 2.927L3.888 5.769L2.501 4.382L2.169 1H4.803ZM4.341 20.987C4.341 20.987 4.35 20.982 4.354 20.979L7.449 17.884L10.312 20.747L8.058 23.001H7.502C6.105 23.001 4.901 22.187 4.34 20.988L4.341 20.987ZM11.019 21.453L12.566 23H9.473L11.02 21.453H11.019ZM14.552 23H13.98L11.726 20.746L14.589 17.883L17.708 21.002C17.144 22.192 15.944 23 14.552 23ZM19.554 4.364L18.131 5.787L15.256 2.912L17.168 1H19.884L19.554 4.364Z" fill="black"/>
</svg>
