<svg width="16" height="17" viewBox="0 0 16 17" fill="none" xmlns="http://www.w3.org/2000/svg">
<path d="M3 1.16667H6.67667C6.89933 1.16667 7.11867 1.18667 7.33333 1.22534V4.83334C7.33333 5.75201 8.08133 6.50001 9 6.50001H12.6073C12.6293 6.61867 12.6453 6.73934 12.6547 6.86067C12.6693 7.04401 12.8373 7.18001 13.014 7.16601C13.1973 7.15134 13.334 6.99001 13.3193 6.80667C13.236 5.78267 12.7907 4.81934 12.064 4.09334L9.74067 1.77C8.922 0.951338 7.834 0.500672 6.67667 0.500672H3C1.346 0.500005 0 1.84601 0 3.50001V13.5C0 15.154 1.346 16.5 3 16.5H5.66667C5.85067 16.5 6 16.3507 6 16.1667C6 15.9827 5.85067 15.8333 5.66667 15.8333H3C1.71333 15.8333 0.666667 14.7867 0.666667 13.5V3.50001C0.666667 2.21334 1.71333 1.16667 3 1.16667ZM11.5927 4.56401C11.956 4.92734 12.236 5.36067 12.4193 5.83334H9C8.44867 5.83334 8 5.38467 8 4.83334V1.41201C8.47067 1.59401 8.902 1.87334 9.26933 2.24067L11.5927 4.56401ZM15.5113 8.32134C14.8827 7.69201 13.7833 7.69201 13.1547 8.32134L8.01667 13.4593C7.576 13.9 7.33333 14.486 7.33333 15.1093V16.1667C7.33333 16.3507 7.48267 16.5 7.66667 16.5H8.724C9.34733 16.5 9.93333 16.2573 10.374 15.8167L15.512 10.6787C15.8267 10.364 16 9.94534 16 9.50001C16 9.05467 15.826 8.63601 15.5113 8.32134ZM15.04 10.2067L9.902 15.3447C9.58733 15.6593 9.16867 15.8327 8.72333 15.8327H7.99933V15.1087C7.99933 14.6633 8.17267 14.2453 8.48733 13.93L13.6253 8.79201C14.0027 8.41467 14.662 8.41467 15.0393 8.79201C15.228 8.98067 15.332 9.23201 15.332 9.49934C15.332 9.76667 15.2287 10.0173 15.04 10.2067Z" fill="#787891"/>
</svg>
