<svg width="20" height="24" viewBox="0 0 20 24" fill="none" xmlns="http://www.w3.org/2000/svg">
<path d="M18.096 5.389L14.611 1.904C13.383 0.676 11.751 0 10.015 0H4.5C2.019 0 0 2.019 0 4.5V19.5C0 21.981 2.019 24 4.5 24H15.5C17.981 24 20 21.981 20 19.5V9.985C20 8.249 19.324 6.616 18.096 5.389ZM17.389 6.096C17.939 6.647 18.354 7.295 18.627 8H13.5C12.673 8 12 7.327 12 6.5V1.373C12.705 1.646 13.353 2.061 13.904 2.611L17.389 6.096ZM19 19.5C19 21.43 17.43 23 15.5 23H4.5C2.57 23 1 21.43 1 19.5V4.5C1 2.57 2.57 1 4.5 1H10.015C10.349 1 10.678 1.033 11 1.091V6.5C11 7.878 12.122 9 13.5 9H18.909C18.967 9.322 19 9.651 19 9.985V19.5ZM15.254 13.144C14.793 12.913 14.252 12.963 13.811 13.295L13 14.006V13.5C13 12.673 12.327 12 11.5 12H5.5C4.673 12 4 12.673 4 13.5V18.5C4 19.327 4.673 20 5.5 20H11.5C12.327 20 13 19.327 13 18.5V17.993L13.84 18.729C14.079 18.909 14.362 19 14.648 19C14.854 19 15.061 18.953 15.253 18.856C15.713 18.626 15.999 18.163 15.999 17.648V14.351C15.999 13.836 15.713 13.374 15.253 13.143L15.254 13.144ZM12 18.5C12 18.776 11.776 19 11.5 19H5.5C5.224 19 5 18.776 5 18.5V13.5C5 13.224 5.224 13 5.5 13H11.5C11.776 13 12 13.224 12 13.5V18.5ZM15 17.648C15 17.843 14.865 17.932 14.807 17.961C14.749 17.991 14.597 18.044 14.47 17.952L13 16.663V15.335L14.44 14.071C14.597 13.955 14.749 14.009 14.807 14.038C14.865 14.067 15 14.156 15 14.351V17.648Z" fill="black"/>
</svg>
