<svg width="24" height="24" viewBox="0 0 24 24" fill="none" xmlns="http://www.w3.org/2000/svg">
<path fill-rule="evenodd" clip-rule="evenodd" d="M20.6391 11.0614C20.6933 7.94172 16.8618 2.91284 12.1916 2.99877C11.8273 3.01278 11.535 3.30606 11.5228 3.67035C11.506 5.28811 11.5097 8.0099 11.5154 9.84339C11.5182 10.9073 12.3737 11.7657 13.4376 11.7722C15.4056 11.7862 18.4058 11.7975 20.0376 11.7564C20.3795 11.7003 20.6325 11.408 20.6391 11.0614Z" stroke="#01011D" stroke-width="1.44" stroke-linecap="round" stroke-linejoin="round"/>
<path d="M8.46845 3.7486C7.18717 4.3225 6.06504 5.2 5.19918 6.30515C4.33332 7.41031 3.74981 8.70981 3.49917 10.0912C3.24851 11.4726 3.33826 12.8942 3.76066 14.2331C4.18305 15.5721 4.92535 16.7878 5.92333 17.7754C6.9213 18.7628 8.14488 19.4922 9.48817 19.9004C10.8315 20.3086 12.254 20.3834 13.6326 20.1181C15.0113 19.8529 16.3046 19.2557 17.4005 18.3781C18.4965 17.5007 19.362 16.3693 19.9224 15.0821" stroke="#01011D" stroke-width="1.44" stroke-linecap="round" stroke-linejoin="round"/>
</svg>
