<svg width="161" height="55" viewBox="0 0 161 55" fill="none" xmlns="http://www.w3.org/2000/svg">
<path d="M0 8C0 3.58172 3.58172 0 8 0H153C157.418 0 161 3.58172 161 8V47C161 51.4183 157.418 55 153 55H8C3.58172 55 0 51.4183 0 47V8Z" fill="white"/>
<g clip-path="url(#clip0_232_481)">
<path d="M31.0579 17.2035C31.377 17.2035 31.6832 17.328 31.9111 17.5573L40.424 26.1143C40.8929 26.586 40.8929 27.3526 40.424 27.8309L31.9111 36.3943C31.6832 36.6237 31.3836 36.7482 31.0579 36.7482C30.7322 36.7482 30.4326 36.6237 30.2047 36.3943L21.6918 27.8374C21.2229 27.3657 21.2229 26.5991 21.6918 26.1208L30.2047 17.5639C30.4326 17.3346 30.7322 17.2101 31.0579 17.2101M31.0579 16.2404C30.5043 16.2404 29.9506 16.45 29.5273 16.8759L21.0144 25.4394C20.1677 26.2912 20.1677 27.6736 21.0144 28.5254L29.5273 37.0823C29.9506 37.5082 30.5043 37.7244 31.0579 37.7244C31.6115 37.7244 32.1651 37.5082 32.5885 37.0823L41.0948 28.5254C41.9416 27.6736 41.9416 26.2912 41.0948 25.4394L32.5885 16.8759C32.1651 16.45 31.6115 16.2404 31.0579 16.2404Z" fill="#1D1D1B"/>
<path d="M34.2168 42.9726C34.0931 42.9726 33.9693 42.9267 33.8781 42.8284C33.3571 42.3043 33.064 41.5966 33.064 40.8497C33.064 40.1028 33.3505 39.4017 33.8781 38.8776L42.8925 29.8096C43.4201 29.2789 44.117 28.9906 44.8595 28.9906C45.602 28.9906 46.2989 29.2789 46.8265 29.8096C47.0154 29.9996 47.0154 30.3075 46.8265 30.4975C46.6376 30.6876 46.3315 30.6876 46.1491 30.4975C45.8039 30.1503 45.348 29.9603 44.866 29.9603C44.384 29.9603 43.9281 30.1503 43.5829 30.4975L34.5685 39.5655C34.2233 39.9128 34.0344 40.3714 34.0344 40.8563C34.0344 41.3411 34.2233 41.7998 34.5685 42.147C34.7574 42.337 34.7574 42.645 34.5685 42.835C34.4773 42.9267 34.3536 42.9791 34.2298 42.9791" fill="#1D1D1B"/>
<path d="M17.2627 24.9611C16.5528 24.9611 15.8428 24.6859 15.2957 24.1421C15.1068 23.9521 15.1068 23.6441 15.2957 23.4541C15.4846 23.2641 15.7907 23.2641 15.9796 23.4541C16.6896 24.1683 17.8359 24.1683 18.5458 23.4541L27.5602 14.3862C28.2701 13.672 28.2701 12.5188 27.5602 11.8047C27.3713 11.6147 27.3713 11.3067 27.5602 11.1167C27.7491 10.9267 28.0552 10.9267 28.2376 11.1167C29.3188 12.2043 29.3188 13.9799 28.2376 15.0676L19.2232 24.1355C18.6826 24.6794 17.9727 24.9545 17.2562 24.9545" fill="#1D1D1B"/>
<path d="M44.8529 24.9611C44.1429 24.9611 43.433 24.6859 42.8859 24.1421L33.8715 15.0741C33.3505 14.5434 33.0574 13.8423 33.0574 13.0954C33.0574 12.3485 33.344 11.6474 33.8715 11.1167C34.0604 10.9267 34.3665 10.9267 34.5554 11.1167C34.7443 11.3067 34.7443 11.6147 34.5554 11.8047C34.2102 12.1519 34.0213 12.6106 34.0213 13.0954C34.0213 13.5803 34.2102 14.0389 34.5554 14.3862L43.5698 23.4541C44.2797 24.1683 45.4261 24.1683 46.136 23.4541C46.3249 23.2641 46.631 23.2641 46.8199 23.4541C47.0088 23.6441 47.0088 23.9521 46.8199 24.1421C46.2793 24.6859 45.5694 24.9611 44.8529 24.9611Z" fill="#1D1D1B"/>
<path d="M27.9055 42.9726C27.7817 42.9726 27.658 42.9267 27.5668 42.8284C27.3779 42.6384 27.3779 42.3305 27.5668 42.1405C28.2767 41.4263 28.2767 40.2731 27.5668 39.559L18.5524 30.491C18.2072 30.1437 17.7513 29.9537 17.2693 29.9537C16.7873 29.9537 16.3314 30.1437 15.9862 30.491C15.7973 30.681 15.4912 30.681 15.3023 30.491C15.1134 30.301 15.1134 29.993 15.3023 29.803C15.8234 29.2723 16.5268 28.984 17.2693 28.984C18.0118 28.984 18.7087 29.2723 19.2363 29.803L28.2507 38.871C29.3319 39.9586 29.3319 41.7342 28.2507 42.8219C28.1595 42.9136 28.0357 42.966 27.912 42.966" fill="#1D1D1B"/>
<path d="M48.0314 8.4697C48.8195 8.4697 49.4578 9.11179 49.4578 9.90459V44.3026C49.4578 45.0954 48.8195 45.7375 48.0314 45.7375H14.3904C13.6023 45.7375 12.964 45.0954 12.964 44.3026V9.90459C12.964 9.11179 13.6023 8.4697 14.3904 8.4697H48.0314ZM48.0314 7.5H14.3904C13.0682 7.5 12 8.57453 12 9.90459V44.3026C12 45.6327 13.0682 46.7072 14.3904 46.7072H48.0314C49.3536 46.7072 50.4217 45.6327 50.4217 44.3026V9.90459C50.4217 8.57453 49.3536 7.5 48.0314 7.5Z" fill="#1D1D1B"/>
<path d="M61.5984 45.3247L61.4616 46.0717H62.3018C62.393 46.0717 62.4321 46.1175 62.4191 46.2027L62.3474 46.6089C62.3279 46.6941 62.2823 46.74 62.2041 46.74H60.7647C60.6735 46.74 60.6344 46.6941 60.6475 46.6089L61.2011 43.4509C61.2141 43.3657 61.2597 43.3198 61.3444 43.3198H62.7708C62.862 43.3198 62.8945 43.3657 62.8815 43.4509L62.8099 43.8571C62.7968 43.9423 62.7512 43.9881 62.6666 43.9881H61.8264L61.7026 44.6761H62.4842C62.5689 44.6761 62.608 44.7219 62.6014 44.8071L62.5298 45.1871C62.5168 45.2723 62.4712 45.3182 62.393 45.3182H61.5984V45.3247Z" fill="#1D1D1B"/>
<path d="M63.9564 45.7768L63.7284 44.7416L63.3962 46.6089C63.3832 46.6941 63.3311 46.74 63.2594 46.74H62.8035C62.7123 46.74 62.6733 46.6941 62.6863 46.6089L63.2399 43.4574C63.2529 43.3722 63.2985 43.3264 63.3832 43.3264H63.7935C63.8782 43.3264 63.9303 43.3591 63.9499 43.4247L64.256 44.7351L65.0245 43.4247C65.0636 43.3591 65.1222 43.3264 65.2004 43.3264H65.6368C65.728 43.3264 65.7671 43.3722 65.754 43.4574L65.2004 46.6089C65.1809 46.6941 65.1353 46.74 65.0571 46.74H64.6077C64.51 46.74 64.4709 46.6941 64.4905 46.6089L64.8161 44.7416L64.2234 45.7768C64.1908 45.8423 64.1387 45.8817 64.0736 45.8817C64.0085 45.8817 63.9759 45.8489 63.9564 45.7768Z" fill="#1D1D1B"/>
<path d="M65.7083 46.74C65.6171 46.74 65.578 46.6941 65.5911 46.6089L66.1447 43.4574C66.1642 43.3722 66.2098 43.3264 66.288 43.3264H66.9979C67.3496 43.3264 67.6037 43.3853 67.76 43.5098C67.9163 43.6278 67.9945 43.8374 67.9945 44.1323C67.9945 44.2764 67.9814 44.4206 67.9554 44.5713C67.8772 45.043 67.747 45.364 67.5581 45.5409C67.3692 45.7179 67.0696 45.803 66.6527 45.803H66.4638L66.3206 46.622C66.3075 46.7072 66.2619 46.7531 66.1773 46.7531H65.7083V46.74ZM66.7244 45.1413C66.8807 45.1413 66.9914 45.102 67.0566 45.0299C67.1152 44.9513 67.1738 44.8006 67.2129 44.5647C67.2389 44.4271 67.252 44.3223 67.252 44.2568C67.252 44.1585 67.2259 44.0864 67.1803 44.0471C67.1282 44.0078 67.05 43.9881 66.9328 43.9881H66.783L66.5811 45.1413H66.7309H66.7244Z" fill="#1D1D1B"/>
<path d="M69.3688 43.3264C69.7205 43.3264 69.9745 43.3853 70.1308 43.5033C70.2937 43.6212 70.3718 43.8178 70.3718 44.0995C70.3718 44.224 70.3588 44.3681 70.3262 44.5188C70.2807 44.8137 70.196 45.043 70.0853 45.2068C69.9745 45.3706 69.8247 45.4885 69.6424 45.5541L69.9289 46.5827C69.9615 46.6876 69.9289 46.74 69.8247 46.74H69.3753C69.2841 46.74 69.232 46.7007 69.2125 46.6286L68.978 45.672H68.8152L68.6523 46.6089C68.6393 46.6941 68.5937 46.74 68.509 46.74H68.0401C67.9489 46.74 67.9098 46.6941 67.9229 46.6089L68.4765 43.4509C68.4895 43.3657 68.5351 43.3198 68.6198 43.3198H69.3688V43.3264ZM69.1213 45.043C69.2776 45.043 69.3818 45.0037 69.447 44.9316C69.5121 44.8595 69.5577 44.7154 69.5968 44.5188C69.6098 44.4075 69.6228 44.3223 69.6228 44.2633C69.6228 44.165 69.5968 44.093 69.5512 44.0536C69.5056 44.0143 69.4209 43.9947 69.3037 43.9947H69.1213L68.9389 45.0495H69.1278L69.1213 45.043Z" fill="#1D1D1B"/>
<path d="M71.2317 45.3247L71.0949 46.0717H71.9351C72.0263 46.0717 72.0654 46.1175 72.0524 46.2027L71.9807 46.6089C71.9612 46.6941 71.9156 46.74 71.8374 46.74H70.398C70.3068 46.74 70.2677 46.6941 70.2808 46.6089L70.8344 43.4509C70.8474 43.3657 70.893 43.3198 70.9777 43.3198H72.4041C72.4953 43.3198 72.5278 43.3657 72.5148 43.4509L72.4432 43.8571C72.4301 43.9423 72.3845 43.9881 72.2999 43.9881H71.4662L71.3424 44.6761H72.124C72.2087 44.6761 72.2478 44.7219 72.2413 44.8071L72.1696 45.1871C72.1631 45.2723 72.111 45.3182 72.0328 45.3182H71.2382L71.2317 45.3247Z" fill="#1D1D1B"/>
<path d="M73.8761 46.4779C73.6677 46.6876 73.3876 46.7858 73.0359 46.7858C72.7363 46.7858 72.5213 46.7596 72.378 46.7203C72.3259 46.7072 72.2999 46.6876 72.2804 46.6613C72.2608 46.6417 72.2608 46.6089 72.2673 46.5565L72.352 46.1765C72.3781 46.0782 72.4367 46.0455 72.5344 46.0717C72.6516 46.111 72.7949 46.1306 72.9642 46.1306C73.0945 46.1306 73.2052 46.0979 73.2964 46.0389C73.3876 45.9799 73.4267 45.8817 73.4267 45.7441C73.4267 45.672 73.4071 45.6065 73.3616 45.5344C73.316 45.4689 73.2378 45.3837 73.114 45.2854C72.821 45.043 72.6711 44.7547 72.6711 44.4075C72.6711 43.6474 73.0424 43.274 73.7914 43.274C74.0324 43.274 74.2148 43.2936 74.3451 43.3264C74.3906 43.3395 74.4232 43.3591 74.4362 43.3788C74.4558 43.3984 74.4558 43.4378 74.4428 43.4836L74.3581 43.8702C74.3385 43.9619 74.2799 43.9947 74.1822 43.9685C74.0585 43.9423 73.9347 43.9226 73.8175 43.9226C73.5635 43.9226 73.4332 44.0405 73.4332 44.2764C73.4332 44.414 73.5309 44.5778 73.7328 44.7678C74.0389 45.0364 74.1887 45.3313 74.1887 45.6458C74.1887 45.9865 74.0845 46.2617 73.8826 46.4713" fill="#1D1D1B"/>
<path d="M76.2859 43.3264C76.3966 43.3264 76.4487 43.3722 76.4487 43.464L76.4943 46.6024C76.4943 46.6941 76.4618 46.74 76.3706 46.74H75.9016C75.8104 46.74 75.7713 46.7007 75.7779 46.6155V46.0651H75.1656L74.9702 46.6155C74.9507 46.6613 74.9311 46.6941 74.9116 46.7138C74.8921 46.7334 74.8595 46.74 74.8204 46.74H74.3319C74.2863 46.74 74.2538 46.7269 74.2407 46.7007C74.2212 46.6744 74.2212 46.6417 74.2407 46.6024L75.374 43.464C75.4066 43.3722 75.4783 43.3264 75.576 43.3264H76.2989H76.2859ZM75.8039 45.423L75.83 44.0405H75.8104L75.348 45.423H75.8039Z" fill="#1D1D1B"/>
<path d="M78.8848 45.7768L78.6569 44.7416L78.3247 46.6089C78.3117 46.6941 78.2661 46.74 78.1879 46.74H77.732C77.6408 46.74 77.6017 46.6941 77.6147 46.6089L78.1684 43.4574C78.1814 43.3722 78.227 43.3264 78.3117 43.3264H78.722C78.8067 43.3264 78.8588 43.3591 78.8783 43.4247L79.1844 44.7351L79.953 43.4247C79.9921 43.3591 80.0507 43.3264 80.1289 43.3264H80.5653C80.6564 43.3264 80.6955 43.3722 80.6825 43.4574L80.1289 46.6089C80.1093 46.6941 80.0637 46.74 79.9856 46.74H79.5362C79.4385 46.74 79.3994 46.6941 79.4189 46.6089L79.7446 44.7416L79.1519 45.7768C79.1193 45.8423 79.0672 45.8817 79.0021 45.8817C78.9369 45.8817 78.9044 45.8489 78.8848 45.7768Z" fill="#1D1D1B"/>
<path d="M80.8517 46.6089C80.7019 46.491 80.6238 46.3075 80.6238 46.052C80.6238 45.9603 80.6303 45.862 80.6498 45.7572L81.0537 43.4509C81.0667 43.3657 81.1123 43.3198 81.1969 43.3198H81.6659C81.7571 43.3198 81.7962 43.3657 81.7831 43.4509L81.3989 45.6589C81.3858 45.7637 81.3728 45.8358 81.3728 45.8817C81.3728 45.9668 81.3923 46.0258 81.4249 46.0586C81.4575 46.0913 81.5161 46.111 81.6008 46.111C81.7115 46.111 81.7897 46.0782 81.8418 46.0127C81.8939 45.9472 81.9395 45.8292 81.972 45.6589L82.3563 43.4509C82.3693 43.3657 82.4149 43.3198 82.4996 43.3198H82.9686C83.0532 43.3198 83.0923 43.3657 83.0858 43.4509L82.6755 45.7572C82.6168 46.1306 82.4931 46.3927 82.3172 46.55C82.1414 46.7072 81.8808 46.7858 81.5356 46.7858C81.2295 46.7858 81.0015 46.7269 80.8517 46.6089Z" fill="#1D1D1B"/>
<path d="M85.0137 46.6089C85.0007 46.6941 84.9551 46.74 84.8704 46.74H84.4666C84.3754 46.74 84.3233 46.7007 84.3103 46.6286L83.926 44.8661L83.6199 46.6089C83.6003 46.6941 83.5547 46.74 83.4766 46.74H83.0272C82.936 46.74 82.8969 46.6941 82.9099 46.6089L83.4635 43.4509C83.4766 43.3657 83.5222 43.3198 83.6068 43.3198H84.0172C84.1018 43.3198 84.1539 43.3591 84.1735 43.4247L84.5578 45.1937L84.8574 43.4509C84.8704 43.3657 84.9225 43.3198 85.0007 43.3198H85.4436C85.5348 43.3198 85.5738 43.3657 85.5608 43.4509L85.0007 46.6089H85.0137Z" fill="#1D1D1B"/>
<path d="M85.9843 43.4574C85.9973 43.3722 86.0494 43.3264 86.1276 43.3264H86.5965C86.6877 43.3264 86.7268 43.3722 86.7138 43.4574L86.1602 46.6155C86.1406 46.7007 86.095 46.7465 86.0169 46.7465H85.5479C85.4502 46.7465 85.4111 46.7007 85.4307 46.6155L85.9843 43.4574Z" fill="#1D1D1B"/>
<path d="M88.2443 46.0913C88.2899 46.0848 88.329 46.0913 88.3485 46.1044C88.3681 46.1241 88.3811 46.1568 88.3746 46.2027L88.329 46.5762C88.3225 46.622 88.3095 46.6548 88.2834 46.681C88.2573 46.7006 88.2248 46.7203 88.1792 46.7334C88.0229 46.7727 87.8731 46.7924 87.7298 46.7924C87.3846 46.7924 87.1305 46.7203 86.9677 46.5827C86.8049 46.4451 86.7202 46.1896 86.7202 45.8227C86.7202 45.6261 86.7463 45.3575 86.7984 45.0299C86.883 44.5647 86.9873 44.2043 87.111 43.9554C87.2348 43.7064 87.3846 43.5295 87.5604 43.4312C87.7363 43.3329 87.9708 43.2805 88.2639 43.2805C88.4137 43.2805 88.57 43.3002 88.7328 43.3329C88.8175 43.3526 88.8501 43.405 88.837 43.4902L88.7589 43.8636C88.7393 43.9619 88.6807 43.9947 88.5895 43.9685C88.4527 43.9488 88.3616 43.9423 88.3029 43.9423C88.075 43.9423 87.9121 44.0143 87.8144 44.1519C87.7167 44.2895 87.6256 44.5844 87.5474 45.0233C87.5018 45.3247 87.4758 45.5344 87.4758 45.6589C87.4758 45.8358 87.5083 45.9603 87.58 46.0258C87.6516 46.0913 87.7688 46.1241 87.9382 46.1241C88.0294 46.1241 88.1271 46.111 88.2378 46.0848" fill="#1D1D1B"/>
<path d="M89.2214 43.4574C89.2344 43.3722 89.2865 43.3264 89.3646 43.3264H89.8336C89.9248 43.3264 89.9639 43.3722 89.9508 43.4574L89.3972 46.6155C89.3777 46.7007 89.3321 46.7465 89.2539 46.7465H88.785C88.6873 46.7465 88.6482 46.7007 88.6677 46.6155L89.2214 43.4574Z" fill="#1D1D1B"/>
<path d="M89.9183 46.74C89.8271 46.74 89.788 46.6941 89.801 46.6089L90.3547 43.4574C90.3742 43.3722 90.4198 43.3264 90.4979 43.3264H91.2079C91.5596 43.3264 91.8136 43.3853 91.9699 43.5098C92.1263 43.6278 92.2044 43.8374 92.2044 44.1323C92.2044 44.2764 92.1914 44.4206 92.1653 44.5713C92.0872 45.043 91.9569 45.364 91.768 45.5409C91.5792 45.7179 91.2795 45.803 90.8627 45.803H90.6738L90.5305 46.622C90.5175 46.7072 90.4719 46.7531 90.3872 46.7531H89.9183V46.74ZM90.9408 45.1413C91.0972 45.1413 91.2079 45.102 91.273 45.0299C91.3316 44.9513 91.3837 44.8006 91.4293 44.5647C91.4554 44.4271 91.4684 44.3223 91.4684 44.2568C91.4684 44.1585 91.4424 44.0864 91.3968 44.0471C91.3447 44.0078 91.2665 43.9881 91.1493 43.9881H90.9995L90.7976 45.1413H90.9474H90.9408Z" fill="#1D1D1B"/>
<path d="M93.9434 43.3264C94.0541 43.3264 94.1062 43.3722 94.1062 43.464L94.1518 46.6024C94.1583 46.6941 94.1127 46.74 94.028 46.74H93.5591C93.4679 46.74 93.4288 46.7007 93.4353 46.6155V46.0651H92.8231L92.6277 46.6155C92.6081 46.6613 92.5886 46.6941 92.5691 46.7138C92.5495 46.7334 92.517 46.74 92.4779 46.74H91.9894C91.9438 46.74 91.9112 46.7269 91.8982 46.7007C91.8787 46.6744 91.8787 46.6417 91.8982 46.6024L93.0315 43.464C93.0641 43.3722 93.1357 43.3264 93.2334 43.3264H93.9564H93.9434ZM93.4614 45.423L93.4874 44.0405H93.4679L93.0055 45.423H93.4614Z" fill="#1D1D1B"/>
<path d="M95.246 46.0651H95.9233C96.0145 46.0651 96.0536 46.111 96.0341 46.1961L95.9624 46.6155C95.9494 46.7007 95.8973 46.7465 95.8191 46.7465H94.5425C94.4513 46.7465 94.4123 46.7007 94.4253 46.6155L94.9789 43.4574C94.9919 43.3722 95.0375 43.3264 95.1222 43.3264H95.5912C95.6823 43.3264 95.7214 43.3722 95.7084 43.4574L95.2525 46.0651H95.246Z" fill="#1D1D1B"/>
<path d="M97.2521 46.74C97.1609 46.74 97.1219 46.6941 97.1414 46.6089L97.695 43.4509C97.708 43.3657 97.7601 43.3198 97.8513 43.3198H98.5417C98.8935 43.3198 99.154 43.3984 99.3233 43.5557C99.4927 43.7129 99.5774 43.975 99.5774 44.355C99.5774 44.5188 99.5578 44.7416 99.5122 45.0168C99.4015 45.6654 99.2321 46.1175 99.0042 46.3665C98.7762 46.6155 98.444 46.74 98.0207 46.74H97.2521ZM98.3268 43.9881L97.9621 46.0782H98.1184C98.2942 46.0782 98.4245 46.0061 98.5157 45.862C98.6069 45.7179 98.6915 45.4361 98.7697 45.0102C98.8088 44.7744 98.8348 44.5778 98.8348 44.4402C98.8348 44.2699 98.8088 44.1519 98.7502 44.0864C98.6915 44.0209 98.6004 43.9881 98.4701 43.9881H98.3333H98.3268Z" fill="#1D1D1B"/>
<path d="M100.515 45.3247L100.378 46.0717H101.219C101.31 46.0717 101.349 46.1175 101.336 46.2027L101.264 46.6089C101.245 46.6941 101.199 46.74 101.121 46.74H99.6814C99.5903 46.74 99.5512 46.6941 99.5642 46.6089L100.118 43.4509C100.131 43.3657 100.176 43.3198 100.261 43.3198H101.688C101.779 43.3198 101.811 43.3657 101.798 43.4509L101.727 43.8571C101.714 43.9423 101.668 43.9881 101.583 43.9881H100.75L100.626 44.6761H101.407C101.492 44.6761 101.531 44.7219 101.525 44.8071L101.453 45.1871C101.447 45.2723 101.394 45.3182 101.316 45.3182H100.522L100.515 45.3247Z" fill="#1D1D1B"/>
<path d="M104.71 43.4902C104.86 43.6343 104.938 43.8898 104.938 44.2502C104.938 44.4599 104.912 44.7154 104.853 45.0299C104.775 45.4951 104.671 45.8554 104.554 46.111C104.43 46.3665 104.293 46.5434 104.13 46.6417C103.967 46.7334 103.765 46.7858 103.511 46.7858C103.212 46.7858 102.984 46.7138 102.828 46.5696C102.678 46.4255 102.6 46.1765 102.6 45.8161C102.6 45.613 102.626 45.3575 102.678 45.0364C102.762 44.5712 102.867 44.2109 102.984 43.9554C103.108 43.6998 103.244 43.5229 103.407 43.4246C103.57 43.3264 103.772 43.2805 104.019 43.2805C104.319 43.2805 104.547 43.3526 104.697 43.4967M103.889 45.921C103.961 45.7768 104.039 45.482 104.117 45.0364C104.176 44.6695 104.208 44.4206 104.208 44.2895C104.208 44.1585 104.189 44.0602 104.15 44.0143C104.111 43.9619 104.052 43.9357 103.967 43.9357C103.876 43.9357 103.805 43.9619 103.746 44.0209C103.687 44.0798 103.635 44.1847 103.583 44.3419C103.531 44.4992 103.479 44.735 103.427 45.0364C103.368 45.4034 103.336 45.6523 103.336 45.7899C103.336 45.9275 103.355 46.0127 103.394 46.0651C103.433 46.1175 103.492 46.1437 103.583 46.1437C103.713 46.1437 103.818 46.0717 103.889 45.9275V45.921Z" fill="#1D1D1B"/>
<path d="M105.048 46.74C104.957 46.74 104.918 46.6941 104.931 46.6089L105.485 43.4574C105.504 43.3722 105.55 43.3264 105.628 43.3264H106.475C107.1 43.3264 107.406 43.5557 107.406 44.0143C107.406 44.2109 107.361 44.3878 107.276 44.5516C107.191 44.7154 107.054 44.8399 106.872 44.9185C106.976 44.9513 107.061 45.0299 107.12 45.1413C107.185 45.2527 107.211 45.3968 107.211 45.5541C107.211 45.9144 107.107 46.2027 106.905 46.4189C106.696 46.6351 106.41 46.7465 106.038 46.7465H105.042L105.048 46.74ZM106.051 46.0979C106.201 46.0979 106.312 46.0455 106.39 45.9472C106.462 45.8489 106.501 45.7179 106.501 45.5541C106.501 45.3771 106.403 45.2854 106.201 45.2854H105.876L105.739 46.0913H106.051V46.0979ZM106.247 44.6826C106.384 44.6826 106.488 44.6368 106.553 44.5516C106.625 44.4664 106.657 44.3485 106.657 44.2043C106.657 44.0471 106.566 43.9685 106.377 43.9685H106.11L105.98 44.6826H106.247Z" fill="#1D1D1B"/>
<path d="M108.8 43.3264C109.152 43.3264 109.406 43.3853 109.562 43.5033C109.725 43.6212 109.803 43.8178 109.803 44.0995C109.803 44.224 109.79 44.3681 109.758 44.5188C109.712 44.8137 109.627 45.043 109.517 45.2068C109.406 45.3706 109.256 45.4885 109.074 45.5541L109.36 46.5827C109.393 46.6876 109.36 46.74 109.256 46.74H108.807C108.716 46.74 108.663 46.7007 108.644 46.6286L108.409 45.672H108.247L108.084 46.6089C108.071 46.6941 108.025 46.74 107.94 46.74H107.471C107.38 46.74 107.341 46.6941 107.354 46.6089L107.908 43.4509C107.921 43.3657 107.967 43.3198 108.051 43.3198H108.794L108.8 43.3264ZM108.546 45.043C108.702 45.043 108.807 45.0037 108.872 44.9316C108.937 44.8595 108.989 44.7154 109.022 44.5188C109.035 44.4075 109.048 44.3223 109.048 44.2633C109.048 44.165 109.022 44.093 108.976 44.0536C108.93 44.0143 108.846 43.9947 108.729 43.9947H108.546L108.364 45.0495H108.553L108.546 45.043Z" fill="#1D1D1B"/>
<path d="M111.66 43.3264C111.77 43.3264 111.822 43.3722 111.822 43.464L111.868 46.6024C111.868 46.6941 111.835 46.74 111.744 46.74H111.275C111.184 46.74 111.145 46.7007 111.151 46.6155V46.0651H110.539L110.35 46.6155C110.331 46.6613 110.311 46.6941 110.292 46.7138C110.272 46.7334 110.24 46.74 110.201 46.74H109.712C109.666 46.74 109.634 46.7269 109.621 46.7007C109.601 46.6744 109.601 46.6417 109.621 46.6024L110.754 43.464C110.787 43.3722 110.858 43.3264 110.956 43.3264H111.679H111.66ZM111.178 45.423L111.204 44.0405H111.184L110.722 45.423H111.178Z" fill="#1D1D1B"/>
<path d="M113.711 46.4779C113.503 46.6876 113.223 46.7858 112.871 46.7858C112.571 46.7858 112.356 46.7596 112.213 46.7203C112.161 46.7072 112.135 46.6876 112.115 46.6613C112.096 46.6417 112.096 46.6089 112.102 46.5565L112.187 46.1765C112.206 46.0782 112.272 46.0455 112.369 46.0717C112.487 46.111 112.63 46.1306 112.799 46.1306C112.929 46.1306 113.04 46.0979 113.131 46.0389C113.216 45.9799 113.262 45.8817 113.262 45.7441C113.262 45.672 113.242 45.6065 113.197 45.5344C113.151 45.4689 113.073 45.3837 112.949 45.2854C112.656 45.043 112.506 44.7547 112.506 44.4075C112.506 43.6474 112.877 43.274 113.626 43.274C113.867 43.274 114.05 43.2936 114.18 43.3264C114.226 43.3395 114.258 43.3591 114.271 43.3788C114.291 43.3984 114.291 43.4378 114.278 43.4836L114.193 43.8702C114.173 43.9619 114.115 43.9947 114.017 43.9685C113.893 43.9423 113.77 43.9226 113.652 43.9226C113.398 43.9226 113.268 44.0405 113.268 44.2764C113.268 44.414 113.366 44.5778 113.568 44.7678C113.874 45.0364 114.024 45.3313 114.024 45.6458C114.024 45.9865 113.919 46.2617 113.718 46.4713" fill="#1D1D1B"/>
<path d="M115.978 45.3247L115.841 46.0717H116.681C116.772 46.0717 116.811 46.1175 116.798 46.2027L116.727 46.6089C116.707 46.6941 116.662 46.74 116.584 46.74H115.144C115.053 46.74 115.014 46.6941 115.027 46.6089L115.58 43.4509C115.594 43.3657 115.639 43.3198 115.724 43.3198H117.15C117.241 43.3198 117.274 43.3657 117.261 43.4509L117.189 43.8571C117.176 43.9423 117.131 43.9881 117.046 43.9881H116.212L116.089 44.6761H116.87C116.955 44.6761 116.994 44.7219 116.987 44.8071L116.916 45.1871C116.903 45.2723 116.857 45.3182 116.779 45.3182H115.984L115.978 45.3247Z" fill="#1D1D1B"/>
<path d="M118.251 46.6089C118.101 46.491 118.023 46.3075 118.023 46.052C118.023 45.9603 118.029 45.862 118.049 45.7572L118.453 43.4509C118.466 43.3657 118.511 43.3198 118.596 43.3198H119.065C119.156 43.3198 119.195 43.3657 119.182 43.4509L118.798 45.6589C118.785 45.7637 118.772 45.8358 118.772 45.8817C118.772 45.9668 118.792 46.0258 118.824 46.0586C118.857 46.0913 118.915 46.111 119 46.111C119.111 46.111 119.189 46.0782 119.241 46.0127C119.293 45.9472 119.339 45.8292 119.371 45.6589L119.755 43.4509C119.769 43.3657 119.814 43.3198 119.899 43.3198H120.368C120.452 43.3198 120.491 43.3657 120.485 43.4509L120.075 45.7572C120.016 46.1306 119.892 46.3927 119.716 46.55C119.541 46.7072 119.28 46.7858 118.935 46.7858C118.629 46.7858 118.401 46.7269 118.251 46.6089Z" fill="#1D1D1B"/>
<path d="M121.748 43.3264C122.1 43.3264 122.354 43.3853 122.51 43.5033C122.673 43.6212 122.751 43.8178 122.751 44.0995C122.751 44.224 122.738 44.3681 122.706 44.5188C122.66 44.8137 122.582 45.043 122.465 45.2068C122.354 45.3706 122.204 45.4885 122.022 45.5541L122.309 46.5827C122.341 46.6876 122.309 46.74 122.204 46.74H121.755C121.664 46.74 121.612 46.7007 121.592 46.6286L121.358 45.672H121.195L121.032 46.6089C121.019 46.6941 120.973 46.74 120.889 46.74H120.42C120.329 46.74 120.289 46.6941 120.302 46.6089L120.856 43.4509C120.869 43.3657 120.915 43.3198 120.999 43.3198H121.742L121.748 43.3264ZM121.501 45.043C121.657 45.043 121.761 45.0037 121.827 44.9316C121.892 44.8595 121.944 44.7154 121.976 44.5188C121.989 44.4075 122.002 44.3223 122.002 44.2633C122.002 44.165 121.976 44.093 121.931 44.0536C121.885 44.0143 121.801 43.9947 121.683 43.9947H121.501L121.319 45.0495H121.507L121.501 45.043Z" fill="#1D1D1B"/>
<path d="M122.784 46.74C122.693 46.74 122.654 46.6941 122.667 46.6089L123.221 43.4574C123.24 43.3722 123.286 43.3264 123.364 43.3264H124.211C124.836 43.3264 125.142 43.5557 125.142 44.0143C125.142 44.2109 125.096 44.3878 125.012 44.5516C124.927 44.7154 124.79 44.8399 124.608 44.9185C124.712 44.9513 124.79 45.0299 124.855 45.1413C124.921 45.2527 124.947 45.3968 124.947 45.5541C124.947 45.9144 124.842 46.2027 124.641 46.4189C124.432 46.6351 124.146 46.7465 123.774 46.7465H122.778L122.784 46.74ZM123.781 46.0979C123.931 46.0979 124.041 46.0455 124.119 45.9472C124.191 45.8489 124.23 45.7179 124.23 45.5541C124.23 45.3771 124.132 45.2854 123.931 45.2854H123.611L123.475 46.0913H123.787L123.781 46.0979ZM123.983 44.6826C124.119 44.6826 124.217 44.6368 124.289 44.5516C124.36 44.4664 124.393 44.3485 124.393 44.2043C124.393 44.0471 124.302 43.9685 124.113 43.9685H123.846L123.716 44.6826H123.983Z" fill="#1D1D1B"/>
<path d="M127.031 43.3264C127.142 43.3264 127.194 43.3722 127.194 43.464L127.239 46.6024C127.239 46.6941 127.2 46.74 127.116 46.74H126.647C126.555 46.74 126.516 46.7007 126.523 46.6155V46.0651H125.911L125.722 46.6155C125.702 46.6613 125.683 46.6941 125.663 46.7138C125.644 46.7334 125.611 46.74 125.572 46.74H125.083C125.038 46.74 125.005 46.7269 124.992 46.7007C124.973 46.6744 124.973 46.6417 124.992 46.6024L126.126 43.464C126.158 43.3722 126.23 43.3264 126.327 43.3264H127.05H127.031ZM126.555 45.423L126.581 44.0405H126.562L126.099 45.423H126.555Z" fill="#1D1D1B"/>
<path d="M129.617 46.6089C129.604 46.6941 129.558 46.74 129.473 46.74H129.069C128.978 46.74 128.926 46.7007 128.913 46.6286L128.529 44.8661L128.223 46.6089C128.203 46.6941 128.158 46.74 128.086 46.74H127.637C127.545 46.74 127.506 46.6941 127.519 46.6089L128.073 43.4509C128.086 43.3657 128.132 43.3198 128.216 43.3198H128.627C128.711 43.3198 128.763 43.3591 128.783 43.4247L129.167 45.1937L129.473 43.4509C129.493 43.3657 129.538 43.3198 129.617 43.3198H130.059C130.151 43.3198 130.19 43.3657 130.177 43.4509L129.617 46.6089Z" fill="#1D1D1B"/>
<path d="M130.587 43.4574C130.6 43.3722 130.652 43.3264 130.73 43.3264H131.199C131.291 43.3264 131.33 43.3722 131.317 43.4574L130.763 46.6155C130.743 46.7007 130.698 46.7465 130.62 46.7465H130.151C130.053 46.7465 130.014 46.7007 130.033 46.6155L130.587 43.4574Z" fill="#1D1D1B"/>
<path d="M131.186 46.2224C131.199 46.1503 131.225 46.0848 131.271 46.0258L132.567 43.9947H131.766C131.681 43.9947 131.642 43.9488 131.655 43.8636L131.727 43.4574C131.74 43.3722 131.792 43.3264 131.87 43.3264H133.349C133.433 43.3264 133.472 43.3722 133.459 43.4574L133.394 43.844C133.381 43.9161 133.355 43.9816 133.31 44.0405L132.013 46.0717H132.899C132.99 46.0717 133.03 46.111 133.01 46.1961L132.938 46.6089C132.925 46.6941 132.88 46.74 132.802 46.74H131.225C131.128 46.74 131.089 46.6941 131.108 46.6089L131.173 46.2224H131.186Z" fill="#1D1D1B"/>
<path d="M135.231 43.3264C135.342 43.3264 135.394 43.3722 135.394 43.464L135.439 46.6024C135.439 46.6941 135.407 46.74 135.316 46.74H134.847C134.755 46.74 134.716 46.7007 134.723 46.6155V46.0651H134.111L133.915 46.6155C133.896 46.6613 133.876 46.6941 133.857 46.7138C133.837 46.7334 133.805 46.74 133.765 46.74H133.277C133.231 46.74 133.199 46.7269 133.186 46.7007C133.166 46.6744 133.166 46.6417 133.186 46.6024L134.319 43.464C134.352 43.3722 134.423 43.3264 134.521 43.3264H135.244H135.231ZM134.749 45.423L134.775 44.0405H134.755L134.293 45.423H134.749Z" fill="#1D1D1B"/>
<path d="M137.341 46.0913C137.387 46.0848 137.426 46.0913 137.445 46.1044C137.465 46.1241 137.478 46.1568 137.471 46.2027L137.426 46.5762C137.419 46.622 137.406 46.6548 137.38 46.681C137.354 46.7006 137.322 46.7203 137.276 46.7334C137.146 46.7662 137.022 46.7858 136.898 46.7924C137.015 46.8776 137.074 46.9824 137.074 47.1003C137.074 47.2314 137.029 47.3296 136.944 47.3952C136.859 47.4672 136.742 47.5 136.605 47.5C136.475 47.5 136.39 47.4934 136.338 47.4738C136.299 47.4607 136.286 47.4345 136.293 47.3886L136.325 47.2183C136.325 47.2183 136.358 47.1724 136.39 47.1724H136.56C136.664 47.1724 136.716 47.12 136.716 47.0151C136.716 46.9431 136.67 46.8644 136.579 46.7793C136.325 46.7531 136.136 46.6613 136.012 46.5172C135.889 46.373 135.83 46.1437 135.83 45.8227C135.83 45.6261 135.856 45.3575 135.908 45.0299C135.993 44.5647 136.097 44.2043 136.221 43.9554C136.345 43.7064 136.494 43.5295 136.67 43.4312C136.846 43.3329 137.081 43.2805 137.374 43.2805C137.524 43.2805 137.68 43.3002 137.843 43.3329C137.927 43.3526 137.966 43.405 137.947 43.4902L137.869 43.8636C137.849 43.9619 137.791 43.9947 137.699 43.9685C137.563 43.9488 137.465 43.9423 137.413 43.9423C137.185 43.9423 137.022 44.0143 136.924 44.1519C136.827 44.2895 136.735 44.5844 136.657 45.0233C136.612 45.3247 136.586 45.5344 136.586 45.6589C136.586 45.8358 136.618 45.9603 136.69 46.0258C136.761 46.0913 136.879 46.1241 137.048 46.1241C137.139 46.1241 137.237 46.111 137.354 46.0848" fill="#1D1D1B"/>
<path d="M139.68 43.3264C139.79 43.3264 139.842 43.3722 139.842 43.464L139.888 46.6024C139.888 46.6941 139.855 46.74 139.764 46.74H139.295C139.204 46.74 139.165 46.7007 139.171 46.6155V46.0651H138.559L138.37 46.6155C138.351 46.6613 138.331 46.6941 138.312 46.7138C138.292 46.7334 138.26 46.74 138.221 46.74H137.732C137.686 46.74 137.654 46.7269 137.641 46.7007C137.621 46.6744 137.621 46.6417 137.641 46.6024L138.774 43.464C138.807 43.3722 138.878 43.3264 138.976 43.3264H139.699H139.68ZM139.738 43.156C139.627 43.156 139.517 43.1364 139.406 43.0905L139.302 43.0381C139.171 42.9791 139.093 42.9857 139.054 43.0643V43.0905C139.028 43.1298 138.989 43.156 138.931 43.156H138.774C138.709 43.156 138.683 43.1036 138.696 42.9988C138.735 42.7563 138.859 42.6384 139.074 42.6384C139.178 42.6384 139.289 42.6646 139.406 42.7105L139.51 42.7629C139.64 42.8219 139.725 42.8153 139.751 42.7367L139.764 42.7105C139.784 42.6646 139.823 42.645 139.875 42.645H140.031C140.103 42.645 140.129 42.6974 140.109 42.8022C140.07 43.0381 139.947 43.1626 139.732 43.1626L139.738 43.156ZM139.198 45.423L139.224 44.0405H139.204L138.742 45.423H139.198Z" fill="#1D1D1B"/>
<path d="M142.376 43.4902C142.526 43.6343 142.604 43.8898 142.604 44.2502C142.604 44.4599 142.578 44.7154 142.519 45.0299C142.441 45.4951 142.337 45.8554 142.22 46.111C142.096 46.3665 141.959 46.5434 141.796 46.6417C141.633 46.7334 141.432 46.7858 141.177 46.7858C140.878 46.7858 140.65 46.7138 140.494 46.5696C140.344 46.4255 140.266 46.1765 140.266 45.8161C140.266 45.613 140.292 45.3575 140.344 45.0364C140.428 44.5712 140.533 44.2109 140.65 43.9554C140.774 43.6998 140.91 43.5229 141.073 43.4246C141.236 43.3264 141.438 43.2805 141.692 43.2805C141.992 43.2805 142.22 43.3526 142.369 43.4967M141.555 45.921C141.627 45.7768 141.705 45.482 141.783 45.0364C141.842 44.6695 141.874 44.4206 141.874 44.2895C141.874 44.1585 141.855 44.0602 141.816 44.0143C141.777 43.9619 141.718 43.9357 141.633 43.9357C141.542 43.9357 141.471 43.9619 141.412 44.0209C141.353 44.0798 141.301 44.1847 141.249 44.3419C141.197 44.4992 141.145 44.735 141.093 45.0364C141.034 45.4034 141.002 45.6523 141.002 45.7899C141.002 45.9275 141.021 46.0127 141.06 46.0651C141.099 46.1175 141.164 46.1437 141.249 46.1437C141.379 46.1437 141.484 46.0717 141.555 45.9275V45.921Z" fill="#1D1D1B"/>
<path d="M134.983 26.5008H132.854L131.929 31.8407H133.993C134.99 31.8407 135.732 31.5065 136.221 30.8513C136.709 30.1896 136.95 29.3247 136.95 28.2633C136.95 27.0905 136.293 26.5074 134.977 26.5074" fill="#1D1D1B"/>
<path d="M136.188 17.7408H134.41L133.551 22.4713H135.296C136.188 22.4713 136.866 22.183 137.328 21.6065C137.797 21.0299 138.025 20.2633 138.025 19.3067C138.025 18.2584 137.413 17.7408 136.182 17.7408" fill="#1D1D1B"/>
<path d="M119.436 17.898H118.231L117.026 24.8694H118.264C119.28 24.8694 120.003 24.6269 120.426 24.1355C120.85 23.6441 121.182 22.7269 121.41 21.3837C121.514 20.6368 121.566 20.0733 121.566 19.6867C121.566 19.025 121.41 18.5598 121.091 18.2977C120.771 18.0291 120.224 17.898 119.436 17.898Z" fill="#1D1D1B"/>
<path d="M146.733 7.5H56.4662C55.2156 7.5 54.2061 8.51556 54.2061 9.77355V38.9431C54.2061 40.2011 55.2156 41.2166 56.4662 41.2166H146.74C147.991 41.2166 149 40.2011 149 38.9431V9.77355C149 8.51556 147.984 7.5 146.733 7.5ZM73.3095 17.9308H67.7797L66.9851 22.4713H72.1371C72.7102 22.4713 72.9643 22.7596 72.8991 23.3362L72.4237 25.8653C72.3585 26.4419 72.0524 26.7301 71.5053 26.7301H66.2621L65.3698 31.6835H70.9321C71.5444 31.6835 71.7984 31.9717 71.6942 32.5483L71.2187 35.2346C71.0884 35.8112 70.7758 36.0995 70.2678 36.0995H60.7649C60.1527 36.0995 59.8986 35.8112 60.0029 35.2346L63.6568 14.3862C63.7415 13.8096 64.0606 13.5213 64.6077 13.5213H74.0194C74.6121 13.5213 74.8531 13.8096 74.7489 14.3862L74.2734 17.0725C74.1887 17.6491 73.8696 17.9373 73.3225 17.9373L73.3095 17.9308ZM94.3212 14.3796L90.6673 35.2281C90.5436 35.8047 90.2244 36.093 89.7164 36.093H86.7268C86.0885 36.093 85.8345 35.8047 85.9647 35.2281L88.1271 22.8841L84.2192 29.731C83.9847 30.1765 83.659 30.3993 83.2357 30.3993C82.8123 30.3993 82.5778 30.1765 82.4736 29.731L80.9821 22.8841L78.7871 35.2281C78.6829 35.8047 78.3768 36.093 77.8687 36.093H74.8466C74.2343 36.093 73.9803 35.8047 74.0845 35.2281L77.7385 14.3796C77.8231 13.803 78.1423 13.5147 78.6894 13.5147H81.3924C81.9656 13.5147 82.3108 13.7375 82.4411 14.183L84.4471 22.8514L89.534 14.183C89.8076 13.7375 90.1918 13.5147 90.6803 13.5147H93.5722C94.1649 13.5147 94.4189 13.803 94.3343 14.3796H94.3212ZM105.83 34.8284C104.664 35.8636 102.938 36.3812 100.646 36.3812C98.633 36.3812 97.1285 35.9947 96.1319 35.215C95.1354 34.4353 94.6404 33.2166 94.6404 31.5524C94.6404 30.9562 94.7055 30.3075 94.8293 29.5999L97.4997 14.3796C97.5844 13.803 97.9035 13.5147 98.4507 13.5147H101.531C102.144 13.5147 102.398 13.803 102.293 14.3796L99.7468 28.9644C99.6426 29.6458 99.5905 30.1372 99.5905 30.432C99.5905 30.9889 99.7077 31.3821 99.9422 31.6179C100.177 31.8538 100.554 31.9717 101.089 31.9717C101.812 31.9717 102.346 31.7555 102.697 31.3165C103.049 30.8776 103.329 30.0979 103.538 28.9644L106.078 14.3796C106.162 13.803 106.482 13.5147 107.029 13.5147H110.109C110.683 13.5147 110.937 13.803 110.871 14.3796L108.168 29.5999C107.765 32.0504 106.983 33.7932 105.817 34.8284H105.83ZM126.269 21.4165C125.95 23.3559 125.429 24.8694 124.699 25.957C123.97 27.0446 122.986 27.8112 121.755 28.2568L123.631 35.0381C123.846 35.7391 123.611 36.093 122.934 36.093H119.977C119.384 36.093 119.026 35.8505 118.896 35.3591L117.339 29.0299H116.258L115.177 35.2346C115.092 35.8112 114.773 36.0995 114.219 36.0995H111.139C110.526 36.0995 110.266 35.8112 110.376 35.2346L114.03 14.3862C114.115 13.8096 114.434 13.5213 114.981 13.5213H119.912C122.224 13.5213 123.904 13.9079 124.966 14.6876C126.028 15.4672 126.555 16.7842 126.555 18.6384C126.555 19.4705 126.458 20.3943 126.269 21.423V21.4165ZM142.135 21.5934C141.562 22.6679 140.676 23.4869 139.465 24.0373C140.142 24.2731 140.689 24.7645 141.1 25.5246C141.51 26.2781 141.718 27.1888 141.718 28.2568C141.718 30.622 141.041 32.5221 139.686 33.9505C138.331 35.3788 136.423 36.093 133.961 36.093H127.383C126.77 36.093 126.516 35.8047 126.621 35.2281L130.274 14.3796C130.398 13.803 130.717 13.5147 131.225 13.5147H136.82C140.93 13.5147 142.988 15.0283 142.988 18.0553C142.988 19.3329 142.702 20.5123 142.129 21.5868L142.135 21.5934Z" fill="#1D1D1B"/>
</g>
<defs>
<clipPath id="clip0_232_481">
<rect width="137" height="40" fill="white" transform="translate(12 7.5)"/>
</clipPath>
</defs>
</svg>
