<svg width="584" height="112" viewBox="0 0 584 112" fill="none" xmlns="http://www.w3.org/2000/svg">
<g clip-path="url(#clip0_489_1571)">
<rect width="584" height="112" rx="12" fill="#E5E5EC"/>
<g clip-path="url(#clip1_489_1571)">
<path fill-rule="evenodd" clip-rule="evenodd" d="M158.68 21.7139L155.274 30.8736L163.818 29.0617L162.886 22.079L158.68 21.7139Z" fill="white"/>
<path d="M155.274 31.117C155.204 31.117 155.137 31.0873 155.092 31.0332C155.036 30.9656 155.02 30.8736 155.049 30.7898L158.455 21.6301C158.492 21.5273 158.597 21.4651 158.701 21.4732L162.907 21.8383C163.02 21.8491 163.111 21.9357 163.124 22.0492L164.056 29.0319C164.072 29.1591 163.989 29.2753 163.866 29.3024L155.322 31.1143C155.306 31.117 155.29 31.1197 155.271 31.1197L155.274 31.117ZM158.843 21.9708L155.657 30.5437L163.553 28.8697L162.677 22.3035L158.846 21.9708H158.843Z" fill="black"/>
<path d="M166.471 21.457C166.439 21.457 166.407 21.4516 166.378 21.438C166.3 21.4056 166.246 21.3353 166.233 21.2514L165.743 17.971C165.727 17.8629 165.786 17.7574 165.885 17.7114C165.984 17.6681 166.102 17.6952 166.169 17.7817L168.005 20.0913C168.048 20.1426 168.064 20.2103 168.056 20.2779C168.048 20.3455 168.011 20.405 167.957 20.4428L166.61 21.411C166.568 21.4408 166.519 21.457 166.471 21.457ZM166.353 18.7905L166.651 20.7863L167.47 20.1967L166.353 18.7905Z" fill="black"/>
<path fill-rule="evenodd" clip-rule="evenodd" d="M160.013 14.0281C161.882 13.0734 164.543 14.577 165.946 17.3842C167.352 20.1913 166.975 23.2473 165.106 24.2019C163.237 25.1566 160.575 23.6529 159.172 20.8458C157.767 18.0386 158.144 14.9827 160.013 14.0281Z" fill="white"/>
<path d="M163.879 24.7347C163.229 24.7347 162.538 24.5373 161.847 24.1478C160.685 23.4907 159.657 22.3575 158.955 20.9567C157.491 18.0332 157.917 14.8258 159.903 13.8117C161.89 12.7976 164.696 14.3499 166.161 17.276C166.862 18.6769 167.157 20.1832 166.991 21.5192C166.822 22.8903 166.19 23.9207 165.21 24.421C164.798 24.6319 164.348 24.7374 163.874 24.7374L163.879 24.7347ZM161.247 13.9821C160.854 13.9821 160.474 14.0659 160.123 14.2444C158.374 15.1368 158.042 18.0495 159.387 20.7349C160.045 22.0492 161.001 23.1121 162.083 23.7205C163.132 24.3155 164.169 24.4075 164.999 23.9829C165.829 23.5583 166.369 22.6604 166.517 21.457C166.669 20.2157 166.391 18.8094 165.732 17.4951C164.656 15.3451 162.827 13.9821 161.245 13.9821H161.247Z" fill="black"/>
<path fill-rule="evenodd" clip-rule="evenodd" d="M166.913 10.0905C168.428 12.1972 168.171 14.9935 166.343 16.3376C164.514 17.6817 161.799 17.0597 160.284 14.9557C158.768 12.8516 159.025 10.0526 160.854 8.71125C162.685 7.36987 165.398 7.98647 166.913 10.0905Z" fill="black"/>
<path fill-rule="evenodd" clip-rule="evenodd" d="M165.317 18.6336C165.507 19.0257 165.518 19.4179 165.339 19.5071C165.159 19.5964 164.859 19.3503 164.667 18.9554C164.474 18.5633 164.463 18.1712 164.642 18.0819C164.822 17.9927 165.122 18.2388 165.315 18.6309L165.317 18.6336Z" fill="black"/>
<path fill-rule="evenodd" clip-rule="evenodd" d="M155.459 14.9854C156.792 13.7901 158.645 13.6981 159.593 14.7772C160.541 15.8562 160.227 17.7033 158.894 18.8986C157.561 20.094 155.708 20.1859 154.76 19.1069C153.812 18.0278 154.125 16.1807 155.459 14.9854Z" fill="black"/>
<path fill-rule="evenodd" clip-rule="evenodd" d="M158.782 12.7435C160.305 11.6536 162.401 11.9998 163.459 13.5088C164.517 15.0206 164.139 17.13 162.613 18.2171C161.09 19.307 158.993 18.9635 157.935 17.4518C156.878 15.94 157.255 13.8306 158.779 12.7408L158.782 12.7435Z" fill="black"/>
<path fill-rule="evenodd" clip-rule="evenodd" d="M157.63 12.4784C158.348 11.8673 159.743 12.3378 160.744 13.5332C161.745 14.7285 161.978 16.1943 161.263 16.8082C160.546 17.4193 159.154 16.9488 158.15 15.7534C157.148 14.5581 156.915 13.0896 157.63 12.4784Z" fill="black"/>
<path fill-rule="evenodd" clip-rule="evenodd" d="M159.255 16.1402C160.634 16.3268 161.571 17.8439 161.346 19.5261C161.124 21.2055 159.823 22.4197 158.444 22.2331C157.068 22.0465 156.128 20.5294 156.353 18.8473C156.575 17.1678 157.876 15.9536 159.255 16.1402Z" fill="black"/>
<path fill-rule="evenodd" clip-rule="evenodd" d="M159.017 19.1907C159.834 18.7742 160.91 19.2583 161.419 20.2725C161.928 21.2866 161.676 22.4495 160.859 22.8687C160.043 23.2851 158.966 22.8011 158.458 21.7869C157.949 20.7728 158.201 19.6099 159.017 19.1907Z" fill="white"/>
<path d="M160.227 23.2635C159.97 23.2635 159.705 23.204 159.446 23.0877C158.942 22.8606 158.514 22.436 158.243 21.8951C157.676 20.762 157.973 19.4503 158.907 18.9744C159.842 18.4984 161.065 19.0312 161.633 20.1643C162.201 21.3001 161.901 22.6091 160.966 23.0877C160.736 23.2067 160.484 23.2635 160.227 23.2635ZM159.127 19.4098C158.431 19.7668 158.227 20.7836 158.674 21.6787C158.897 22.1196 159.239 22.463 159.641 22.6442C160.027 22.8173 160.42 22.82 160.749 22.6523C161.446 22.2953 161.649 21.2785 161.202 20.3833C160.755 19.4909 159.823 19.0528 159.124 19.4071L159.127 19.4098Z" fill="black"/>
<path fill-rule="evenodd" clip-rule="evenodd" d="M161.229 66.6877C161.229 66.6877 178.07 74.141 191.476 70.0601C207.338 65.23 208.751 62.093 217.434 63.629C236.303 66.9635 243.133 69.7193 243.133 69.7193L253.224 52.9711C253.224 52.9711 241.093 43.879 214.923 37.4858C200.679 34.0053 173.251 60.1864 173.251 60.1864L161.229 66.6904V66.6877Z" fill="white"/>
<path d="M182.512 71.515C179.369 71.515 175.631 71.1445 171.269 70.1412C165.43 68.7971 161.173 66.9284 161.13 66.9095C161.044 66.8716 160.99 66.7905 160.985 66.6958C160.982 66.6039 161.031 66.5146 161.111 66.4714L173.106 59.9835C173.559 59.5563 180.303 53.201 188.603 47.3271C200.125 39.1761 208.998 35.7848 214.977 37.2451C240.895 43.5761 253.243 52.6817 253.364 52.7737C253.463 52.8494 253.489 52.9873 253.425 53.0955L243.334 69.8437C243.272 69.9465 243.149 69.987 243.039 69.9438C242.972 69.9167 236.005 67.1556 217.389 63.867C211.761 62.8718 209.231 63.8589 203.691 66.0197C200.716 67.1799 197.011 68.624 191.541 70.2899C189.407 70.939 186.416 71.515 182.507 71.515H182.512ZM161.788 66.6607C163.039 67.1745 166.696 68.5916 171.387 69.6706C176.726 70.8957 184.534 71.9207 191.407 69.8275C196.858 68.167 200.553 66.7256 203.522 65.5681C209.15 63.3721 211.718 62.3715 217.477 63.3884C234.469 66.3902 241.797 68.9594 243.031 69.4191L252.903 53.036C251.305 51.9083 238.999 43.614 214.867 37.7184C200.912 34.3109 173.69 60.0998 173.417 60.3595C173.401 60.373 173.385 60.3865 173.366 60.3973L161.791 66.658L161.788 66.6607Z" fill="black"/>
<path fill-rule="evenodd" clip-rule="evenodd" d="M234.557 59.9944L248.242 72.2073L264.02 52.6276L255.257 53.2145L241.46 46.9052L234.557 59.9944Z" fill="white"/>
<path d="M248.242 72.4507C248.183 72.4507 248.126 72.4291 248.081 72.3885L234.396 60.1756C234.313 60.0998 234.292 59.9781 234.343 59.8781L241.245 46.7889C241.304 46.6753 241.441 46.6293 241.559 46.6807L255.299 52.9657L264.004 52.3815C264.103 52.3815 264.191 52.4275 264.234 52.5141C264.277 52.6006 264.266 52.7034 264.207 52.7791L248.426 72.3561C248.386 72.4075 248.325 72.4399 248.26 72.4453C248.255 72.4453 248.247 72.4453 248.242 72.4453V72.4507ZM234.86 59.9403L248.212 71.8558L263.484 52.9089L255.273 53.4579C255.232 53.4579 255.192 53.4525 255.158 53.4362L241.567 47.2189L234.86 59.9376V59.9403Z" fill="black"/>
<path fill-rule="evenodd" clip-rule="evenodd" d="M149.386 50.6859C149.386 50.6859 146.267 63.4992 155.793 79.0521C158.83 84.0092 162.559 82.4055 164.356 82.5489C166.153 82.6922 161.644 50.8508 161.644 50.8508C161.644 50.8508 149.405 51.0293 149.386 50.6859Z" fill="white"/>
<path d="M161.657 82.9329C159.81 82.9329 157.547 82.3866 155.585 79.1819C150.639 71.1066 149.151 63.7805 148.773 59.0586C148.363 53.9311 149.116 50.7616 149.148 50.6291C149.177 50.5128 149.284 50.4317 149.405 50.4452C149.456 50.4506 149.501 50.4695 149.539 50.502C150.256 50.6994 157.295 50.6724 161.636 50.6102C161.636 50.6102 161.636 50.6102 161.638 50.6102C161.759 50.6102 161.861 50.6994 161.877 50.8184C161.887 50.8941 162.953 58.4393 163.831 66.0738C165.622 81.624 164.921 82.3785 164.659 82.6597C164.568 82.7571 164.452 82.8058 164.329 82.795C164 82.7679 163.593 82.8058 163.119 82.849C162.675 82.8896 162.179 82.9329 161.652 82.9329H161.657ZM149.568 50.9942C149.209 52.8467 147.357 64.8217 155.997 78.9277C158.364 82.7923 161.092 82.5462 163.082 82.365C163.558 82.3217 163.97 82.2838 164.329 82.3082C165.266 81.1507 163.068 62.696 161.432 51.0997C160.685 51.1105 158.088 51.1429 155.52 51.1429C151.716 51.1429 150.184 51.0997 149.568 50.9942Z" fill="black"/>
<path fill-rule="evenodd" clip-rule="evenodd" d="M167.199 37.5264C169.103 32.3124 159.1 23.9883 153.708 32.6829C148.955 40.3444 148.524 52.4167 148.524 52.4167C148.524 52.4167 158.567 52.2058 160.918 49.7799C164.155 46.4373 165.028 43.4841 167.199 37.5264Z" fill="white"/>
<path d="M148.524 52.6628C148.46 52.6628 148.398 52.6358 148.353 52.5898C148.307 52.5411 148.28 52.4762 148.283 52.4113C148.283 52.3815 148.398 49.331 149.097 45.3826C149.74 41.7344 151.027 36.5474 153.504 32.5558C156.915 27.055 161.571 28.8048 162.915 29.4728C165.973 30.9899 168.517 34.6219 167.427 37.6129C167.237 38.1349 167.058 38.6325 166.883 39.1112C165.076 44.1116 164.08 46.8646 161.092 49.953C158.698 52.4221 148.947 52.6547 148.532 52.6628C148.532 52.6628 148.529 52.6628 148.527 52.6628H148.524ZM159.654 29.1455C157.435 29.1455 155.402 30.4058 153.911 32.8127C151.477 36.734 150.208 41.8561 149.571 45.4583C148.995 48.7144 148.821 51.3539 148.776 52.1652C150.355 52.1111 158.693 51.7244 160.744 49.6096C163.66 46.5969 164.642 43.879 166.428 38.9408C166.602 38.4621 166.782 37.9618 166.972 37.4399C167.88 34.9545 165.922 31.5037 162.701 29.9055C161.67 29.3943 160.642 29.1428 159.654 29.1428V29.1455Z" fill="black"/>
<path fill-rule="evenodd" clip-rule="evenodd" d="M161.229 64.0699C161.229 64.0699 178.07 71.5231 191.476 67.4395C207.338 62.6095 208.778 54.8263 217.148 57.6253C240.525 65.4356 241.433 67.0636 241.433 67.0636L251.524 50.3154C251.524 50.3154 241.093 41.2584 214.923 34.8653C200.679 31.3848 173.251 57.5658 173.251 57.5658L161.229 64.0699Z" fill="white"/>
<path d="M182.512 68.8972C179.369 68.8972 175.631 68.5267 171.272 67.5233C165.432 66.182 161.175 64.3105 161.132 64.2916C161.047 64.2538 160.993 64.1726 160.988 64.078C160.985 63.986 161.033 63.8968 161.114 63.8535L173.109 57.363C173.561 56.9357 180.306 50.5804 188.606 44.7065C200.127 36.5555 209 33.1642 214.979 34.6246C240.905 40.9582 251.578 50.0368 251.682 50.1261C251.771 50.2045 251.792 50.3343 251.73 50.4371L241.639 67.1853C241.596 67.2583 241.516 67.3016 241.433 67.3016C241.433 67.3016 241.43 67.3016 241.427 67.3016C241.35 67.3016 241.28 67.261 241.235 67.1988C241.141 67.0933 239.256 65.2625 217.07 57.8498C212.588 56.3516 210.195 57.9282 206.232 60.5406C202.893 62.742 198.735 65.4788 191.546 67.6694C189.412 68.3184 186.421 68.8945 182.512 68.8945V68.8972ZM161.788 64.0428C163.039 64.5566 166.696 65.9737 171.387 67.0501C176.726 68.2779 184.534 69.3001 191.407 67.2069C198.531 65.038 202.655 62.3201 205.969 60.1377C209.913 57.5388 212.521 55.8215 217.223 57.3927C236.15 63.7156 240.413 66.0008 241.371 66.6958L251.208 50.3695C249.803 49.2363 238.967 40.988 214.864 35.1006C200.909 31.6903 173.687 57.4793 173.414 57.7416C173.398 57.7551 173.382 57.7687 173.363 57.7795L161.788 64.0428Z" fill="black"/>
<path fill-rule="evenodd" clip-rule="evenodd" d="M207.587 8.50571L203.461 10.9478L201.803 35.0843L205.929 32.6423L207.587 8.50571Z" fill="#3564FF"/>
<path d="M201.803 35.3277C201.76 35.3277 201.715 35.3142 201.677 35.2899C201.602 35.2412 201.557 35.1574 201.565 35.0654L203.222 10.9288C203.228 10.8477 203.273 10.7774 203.34 10.7368L207.466 8.29477C207.544 8.2488 207.64 8.2515 207.715 8.29747C207.79 8.34615 207.836 8.42999 207.828 8.52194L206.17 32.6585C206.165 32.7396 206.119 32.81 206.052 32.8505L201.926 35.2926C201.889 35.3142 201.846 35.325 201.803 35.325V35.3277ZM203.691 11.0938L202.074 34.6435L205.696 32.4989L207.314 8.94923L203.691 11.0938Z" fill="black"/>
<path fill-rule="evenodd" clip-rule="evenodd" d="M206.853 34.0729L206.09 32.7532L185.398 44.9418L186.159 46.2615L206.853 34.0729Z" fill="white"/>
<path d="M186.159 46.5049C186.137 46.5049 186.119 46.5049 186.097 46.4968C186.036 46.4806 185.982 46.44 185.95 46.3832L185.189 45.0635C185.123 44.9472 185.16 44.7985 185.275 44.7309L205.969 32.5422C206.085 32.4746 206.232 32.5152 206.299 32.6288L207.062 33.9485C207.094 34.0053 207.102 34.0702 207.086 34.1324C207.07 34.1946 207.03 34.2487 206.973 34.2811L186.279 46.4698C186.242 46.4914 186.199 46.5022 186.159 46.5022V46.5049ZM185.728 45.031L186.247 45.9316L206.524 33.9891L206.004 33.0885L185.728 45.031Z" fill="black"/>
<path fill-rule="evenodd" clip-rule="evenodd" d="M154.709 29.3781C154.709 29.3781 147.274 47.4569 160.634 65.2084L184.954 50.767C184.954 50.767 169.839 33.1101 165.181 28.107L154.706 29.3808L154.709 29.3781Z" fill="white"/>
<path d="M160.634 65.4491C160.562 65.4491 160.49 65.4166 160.442 65.3517C153.496 56.1271 152.246 46.8132 152.417 40.6256C152.605 33.9187 154.465 29.3267 154.484 29.2807C154.516 29.1996 154.591 29.1428 154.677 29.132L165.151 27.8582C165.226 27.8501 165.304 27.8772 165.355 27.934C169.963 32.883 184.983 50.4263 185.133 50.6021C185.179 50.6561 185.2 50.7292 185.19 50.8022C185.179 50.8725 185.136 50.9347 185.074 50.9726L160.755 65.4139C160.717 65.4356 160.674 65.4464 160.632 65.4464L160.634 65.4491ZM154.88 29.5999C154.581 30.3895 153.065 34.6652 152.902 40.6608C152.736 46.7267 153.957 55.835 160.699 64.8839L184.584 50.6994C182.833 48.6549 169.497 33.1074 165.092 28.3558L154.88 29.5972V29.5999Z" fill="black"/>
<path fill-rule="evenodd" clip-rule="evenodd" d="M163.558 33.9323C158.334 32.1853 154.594 38.1132 158.591 47.5461C162.988 57.9228 168.113 62.8826 173.869 65.2084C176.916 66.4389 182.183 64.6865 186.994 55.0778C189.407 50.2613 189.35 46.5969 191.131 43.0217C191.514 42.2537 195.227 41.4667 196.232 37.3966C196.847 34.9032 193.01 36.1931 188.732 37.4101C180.517 39.7467 179.644 51.7433 177.165 49.45C175.264 47.6922 174.405 43.6302 171.323 40.1199C168.87 37.3263 166.198 34.8166 163.555 33.9323H163.558Z" fill="white"/>
<path d="M175.711 65.798C175.034 65.798 174.386 65.6763 173.778 65.4302C167.299 62.815 162.404 57.1602 158.369 47.6381C156.591 43.4409 155.665 37.8861 158.399 34.8815C159.7 33.4509 161.609 33.0209 163.633 33.697C165.933 34.4677 168.434 36.4555 171.505 39.9549C173.168 41.848 174.177 43.8709 175.066 45.6558C175.821 47.1702 176.474 48.4764 177.328 49.2688C177.615 49.5338 177.794 49.4987 177.853 49.4879C178.437 49.377 179.098 48.041 179.864 46.4914C181.422 43.3354 183.776 38.5649 188.668 37.1748C188.986 37.0856 189.302 36.9936 189.615 36.9044C192.82 35.9822 195.351 35.252 196.229 36.112C196.531 36.4095 196.612 36.8611 196.464 37.4588C195.72 40.4742 193.543 41.7452 192.242 42.5025C191.819 42.7485 191.423 42.9811 191.345 43.1326C190.536 44.7579 190.105 46.4265 189.65 48.1925C189.12 50.2451 188.52 52.5709 187.208 55.1887C184.997 59.6049 182.536 62.7096 179.899 64.4133C178.477 65.3328 177.042 65.8007 175.714 65.8007L175.711 65.798ZM161.778 33.8674C160.605 33.8674 159.563 34.3244 158.752 35.2142C157.063 37.0721 156.19 41.2611 158.811 47.4488C162.792 56.8438 167.604 62.4148 173.957 64.9812C176.951 66.1901 182.105 64.2943 186.777 54.9669C188.065 52.3951 188.633 50.1964 189.182 48.0681C189.645 46.2751 190.081 44.5848 190.914 42.9135C191.056 42.6296 191.431 42.4105 192.001 42.0806C193.235 41.3612 195.302 40.1551 195.999 37.3398C196.103 36.9179 196.068 36.6312 195.894 36.4609C195.217 35.7983 192.435 36.5988 189.747 37.3722C189.433 37.4615 189.117 37.5534 188.799 37.6454C184.113 38.9786 181.816 43.6302 180.295 46.7105C179.406 48.5143 178.764 49.8151 177.942 49.9692C177.626 50.0287 177.31 49.9152 177.002 49.6312C176.081 48.7793 175.411 47.4352 174.635 45.8802C173.759 44.1224 172.766 42.132 171.143 40.2849C168.131 36.853 165.697 34.9086 163.48 34.1676C162.891 33.9701 162.318 33.8728 161.778 33.8728V33.8674Z" fill="black"/>
<path fill-rule="evenodd" clip-rule="evenodd" d="M164.134 32.8614C158.776 31.5984 152.709 34.1649 154.846 44.1954C156.112 50.1342 161.028 55.2509 161.028 55.2509L173.869 41.9021C173.869 41.9021 168.584 33.9079 164.134 32.8586V32.8614Z" fill="white"/>
<path d="M161.025 55.497C160.961 55.497 160.897 55.4699 160.851 55.424C160.8 55.3726 155.871 50.1883 154.607 44.2495C153.408 38.6217 154.87 35.7388 156.307 34.3136C158.112 32.5206 161.06 31.8905 164.187 32.6261C166.083 33.0723 168.321 34.7517 170.849 37.6156C172.715 39.7332 174.054 41.7506 174.067 41.7696C174.131 41.8642 174.118 41.9913 174.04 42.0752L161.199 55.424C161.154 55.4699 161.092 55.497 161.025 55.497ZM161.665 32.81C159.649 32.81 157.863 33.4509 156.645 34.6598C154.709 36.5826 154.165 39.863 155.079 44.1467C156.182 49.3283 160.158 53.9393 161.028 54.902L173.556 41.8804C172.779 40.7473 168.035 34.035 164.078 33.102C163.253 32.9073 162.442 32.8127 161.665 32.8127V32.81Z" fill="black"/>
<path fill-rule="evenodd" clip-rule="evenodd" d="M153.614 74.0734C154.208 73.0322 153.855 71.6962 152.824 71.0931C151.793 70.4901 150.471 70.8497 149.874 71.8909L133.53 100.484C132.933 101.525 133.289 102.861 134.32 103.465C135.351 104.068 136.674 103.708 137.268 102.667L153.611 74.0734H153.614Z" fill="white"/>
<path d="M135.394 103.997C134.987 103.997 134.574 103.892 134.2 103.673C133.054 103.005 132.66 101.517 133.321 100.36L149.665 71.7692C150.326 70.6118 151.796 70.2142 152.945 70.8822C154.091 71.5502 154.484 73.0376 153.823 74.1951L137.479 102.788C137.035 103.565 136.226 104 135.396 104L135.394 103.997ZM151.745 71.0445C151.081 71.0445 150.436 71.3933 150.08 72.0126L133.739 100.606C133.209 101.531 133.525 102.718 134.441 103.254C135.356 103.786 136.532 103.47 137.059 102.545L153.402 73.9517C153.93 73.0268 153.617 71.8395 152.701 71.3041C152.401 71.1283 152.072 71.0445 151.745 71.0445Z" fill="black"/>
<path fill-rule="evenodd" clip-rule="evenodd" d="M243.087 71.4285C243.684 70.3873 243.328 69.0513 242.298 68.4509C241.267 67.8479 239.944 68.2076 239.35 69.2487L221.496 100.484C220.902 101.525 221.255 102.861 222.286 103.465C223.317 104.068 224.64 103.708 225.234 102.667L243.087 71.4312V71.4285Z" fill="white"/>
<path d="M223.36 103.997C222.953 103.997 222.54 103.892 222.165 103.673C221.02 103.005 220.626 101.52 221.287 100.36L239.141 69.1243C239.462 68.5645 239.979 68.1643 240.597 67.9939C241.216 67.8262 241.864 67.9128 242.418 68.2373C242.972 68.5618 243.368 69.0838 243.534 69.7085C243.7 70.3332 243.615 70.9877 243.294 71.5475L225.44 102.783C224.996 103.559 224.187 103.995 223.357 103.995L223.36 103.997ZM241.221 68.4023C241.055 68.4023 240.886 68.4239 240.72 68.4699C240.225 68.6051 239.813 68.9242 239.556 69.3731L221.702 100.609C221.175 101.534 221.488 102.721 222.404 103.256C223.319 103.789 224.495 103.473 225.022 102.548L242.876 71.3122C243.133 70.8633 243.2 70.3413 243.069 69.8437C242.935 69.3434 242.619 68.9269 242.174 68.6673C241.88 68.4942 241.55 68.4077 241.218 68.4077L241.221 68.4023Z" fill="black"/>
<path fill-rule="evenodd" clip-rule="evenodd" d="M189.444 74.8711C188.85 73.83 189.203 72.494 190.234 71.8909C191.265 71.2905 192.587 71.6475 193.182 72.6914L209.07 100.484C209.664 101.525 209.311 102.861 208.28 103.465C207.249 104.068 205.927 103.708 205.33 102.667L189.441 74.8738L189.444 74.8711Z" fill="white"/>
<path d="M207.206 104C206.376 104 205.568 103.565 205.123 102.788L189.235 74.9955C188.574 73.8381 188.967 72.3534 190.113 71.6827C191.259 71.0147 192.729 71.4122 193.391 72.5697L209.279 100.363C209.94 101.52 209.547 103.005 208.401 103.675C208.023 103.895 207.611 104 207.204 104H207.206ZM189.653 74.7495L205.541 102.542C206.071 103.467 207.247 103.786 208.162 103.251C209.078 102.715 209.394 101.528 208.864 100.603L192.976 72.8104C192.445 71.8855 191.273 71.5664 190.357 72.0992C189.441 72.6346 189.128 73.8218 189.656 74.7467L189.653 74.7495Z" fill="black"/>
<path fill-rule="evenodd" clip-rule="evenodd" d="M245.08 71.7882C244.482 70.747 244.839 69.411 245.872 68.8079C246.903 68.2049 248.226 68.5645 248.82 69.6057L266.47 100.484C267.064 101.526 266.711 102.861 265.68 103.465C264.649 104.068 263.327 103.708 262.729 102.667L245.08 71.7882Z" fill="white"/>
<path d="M264.606 104C263.776 104 262.968 103.565 262.523 102.788L244.873 71.9099C244.212 70.7524 244.606 69.2677 245.752 68.597C246.306 68.2725 246.951 68.1886 247.572 68.3563C248.193 68.524 248.71 68.9242 249.029 69.484L266.679 100.363C267.34 101.52 266.946 103.005 265.801 103.675C265.423 103.895 265.011 104 264.604 104H264.606ZM245.288 71.6665L262.938 102.545C263.468 103.47 264.641 103.789 265.56 103.254C266.475 102.718 266.791 101.531 266.261 100.606L248.611 69.7274C248.354 69.2785 247.942 68.9594 247.446 68.8242C246.951 68.6889 246.434 68.7593 245.993 69.0162C245.077 69.5516 244.761 70.7389 245.288 71.6638V71.6665Z" fill="black"/>
<path fill-rule="evenodd" clip-rule="evenodd" d="M135.686 48.5251C135.533 62.4175 143.421 74.36 156.018 81.3319C175.208 91.9493 196.28 88.9501 205.064 83.9092C216.005 77.6296 213.614 63.2613 195.972 66.996C166.436 73.2485 153.488 57.9039 152.631 45.077C151.775 32.2502 135.809 36.9396 135.683 48.5251H135.686Z" fill="#3564FF"/>
<path fill-rule="evenodd" clip-rule="evenodd" d="M266.805 76.7913C266.805 71.442 262.507 67.1015 257.211 67.1015H229.339C224.042 67.1015 219.742 71.442 219.742 76.7913C219.742 82.1405 224.042 86.4837 229.339 86.4837H257.211C262.507 86.4837 266.805 82.1405 266.805 76.7913Z" fill="#3564FF"/>
</g>
<g clip-path="url(#clip2_489_1571)">
<g opacity="0.1">
<path fill-rule="evenodd" clip-rule="evenodd" d="M451 -11.6547C451 -18.4684 445.468 -24 438.655 -24H379.475C372.661 -24 367.129 -18.4684 367.129 -11.6547V82.6523C367.129 89.4661 372.661 94.9976 379.475 94.9976H438.655C445.468 94.9976 451 89.4661 451 82.6523V-11.6547Z" fill="#3564FF"/>
</g>
<path d="M380.249 10.8928C379.963 10.8928 379.69 10.7821 379.484 10.5853L376.972 8.17157L378.506 6.57575L380.219 8.22077L384.231 4.02675L385.83 5.55799L381.052 10.5515C380.849 10.7636 380.569 10.8866 380.274 10.8928C380.265 10.8928 380.259 10.8928 380.249 10.8928Z" fill="#3564FF"/>
<path fill-rule="evenodd" clip-rule="evenodd" d="M439.765 6.04074C439.765 5.35199 439.205 4.79237 438.516 4.79237H392.502C391.814 4.79237 391.254 5.35199 391.254 6.04074C391.254 6.72949 391.814 7.28911 392.502 7.28911H438.516C439.205 7.28911 439.765 6.72949 439.765 6.04074Z" fill="white"/>
<path fill-rule="evenodd" clip-rule="evenodd" d="M423.865 9.78584C423.865 9.09709 423.305 8.53748 422.617 8.53748H392.505C391.817 8.53748 391.257 9.09709 391.257 9.78584C391.257 10.4746 391.817 11.0342 392.505 11.0342H422.617C423.305 11.0342 423.865 10.4746 423.865 9.78584Z" fill="white"/>
<path fill-rule="evenodd" clip-rule="evenodd" d="M439.765 22.8383C439.765 22.1496 439.205 21.59 438.516 21.59H392.502C391.814 21.59 391.254 22.1496 391.254 22.8383C391.254 23.5271 391.814 24.0867 392.502 24.0867H438.516C439.205 24.0867 439.765 23.5271 439.765 22.8383Z" fill="white"/>
<path fill-rule="evenodd" clip-rule="evenodd" d="M381.94 21.9774C383.441 21.9774 384.656 23.195 384.656 24.6924C384.656 26.1899 383.438 27.4075 381.94 27.4075C380.443 27.4075 379.225 26.1899 379.225 24.6924C379.225 23.195 380.443 21.9774 381.94 21.9774Z" fill="#3564FF"/>
<g opacity="0.5">
<path fill-rule="evenodd" clip-rule="evenodd" d="M381.94 20.6768C384.157 20.6768 385.956 22.4786 385.956 24.6924C385.956 26.9063 384.154 28.7081 381.94 28.7081C379.727 28.7081 377.925 26.9094 377.925 24.6924C377.925 22.4755 379.724 20.6768 381.94 20.6768ZM381.94 21.2425C383.847 21.2425 385.393 22.7891 385.393 24.6955C385.393 26.6019 383.847 28.1485 381.94 28.1485C380.034 28.1485 378.487 26.6019 378.487 24.6955C378.487 22.7891 380.034 21.2425 381.94 21.2425Z" fill="#3564FF"/>
</g>
<path fill-rule="evenodd" clip-rule="evenodd" d="M423.865 26.5834C423.865 25.8947 423.305 25.3351 422.617 25.3351H392.505C391.817 25.3351 391.257 25.8947 391.257 26.5834C391.257 27.2722 391.817 27.8318 392.505 27.8318H422.617C423.305 27.8318 423.865 27.2722 423.865 26.5834Z" fill="white"/>
<path fill-rule="evenodd" clip-rule="evenodd" d="M439.765 39.6175C439.765 38.9287 439.205 38.3691 438.516 38.3691H392.502C391.814 38.3691 391.254 38.9287 391.254 39.6175C391.254 40.3062 391.814 40.8659 392.502 40.8659H438.516C439.205 40.8659 439.765 40.3062 439.765 39.6175Z" fill="white"/>
<path fill-rule="evenodd" clip-rule="evenodd" d="M423.865 43.3626C423.865 42.6738 423.305 42.1142 422.617 42.1142H392.505C391.817 42.1142 391.257 42.6738 391.257 43.3626C391.257 44.0513 391.817 44.611 392.505 44.611H422.617C423.305 44.611 423.865 44.0513 423.865 43.3626Z" fill="white"/>
<path fill-rule="evenodd" clip-rule="evenodd" d="M381.94 37.1638C384.157 37.1638 385.956 38.9656 385.956 41.1795C385.956 43.3934 384.154 45.1952 381.94 45.1952C379.727 45.1952 377.925 43.3934 377.925 41.1795C377.925 38.9656 379.724 37.1638 381.94 37.1638ZM381.94 37.7265C383.847 37.7265 385.393 39.2731 385.393 41.1795C385.393 43.0859 383.847 44.6325 381.94 44.6325C380.034 44.6325 378.487 43.0859 378.487 41.1795C378.487 39.2731 380.034 37.7265 381.94 37.7265Z" fill="#3564FF"/>
<path fill-rule="evenodd" clip-rule="evenodd" d="M439.673 57.9925C439.673 57.3037 439.113 56.7441 438.424 56.7441H392.41C391.721 56.7441 391.162 57.3037 391.162 57.9925C391.162 58.6812 391.721 59.2408 392.41 59.2408H438.424C439.113 59.2408 439.673 58.6812 439.673 57.9925Z" fill="white"/>
<path fill-rule="evenodd" clip-rule="evenodd" d="M423.77 61.7376C423.77 61.0488 423.21 60.4892 422.521 60.4892H392.41C391.721 60.4892 391.162 61.0488 391.162 61.7376C391.162 62.4263 391.721 62.9859 392.41 62.9859H422.521C423.21 62.9859 423.77 62.4263 423.77 61.7376Z" fill="white"/>
<path fill-rule="evenodd" clip-rule="evenodd" d="M381.848 55.5388C384.065 55.5388 385.864 57.3406 385.864 59.5545C385.864 61.7683 384.062 63.5701 381.848 63.5701C379.634 63.5701 377.833 61.7714 377.833 59.5545C377.833 57.3375 379.631 55.5388 381.848 55.5388ZM381.848 56.1015C383.755 56.1015 385.301 57.6481 385.301 59.5545C385.301 61.4608 383.755 63.0075 381.848 63.0075C379.942 63.0075 378.395 61.4608 378.395 59.5545C378.395 57.6481 379.942 56.1015 381.848 56.1015Z" fill="#3564FF"/>
<path fill-rule="evenodd" clip-rule="evenodd" d="M339.911 9.56445L332.596 16.2921L341.246 18.6013L343.592 11.8429L339.911 9.56445Z" fill="white"/>
<path d="M341.246 18.878C341.221 18.878 341.2 18.878 341.175 18.8688L332.523 16.5565C332.424 16.5319 332.35 16.4551 332.326 16.3567C332.301 16.2583 332.332 16.1537 332.406 16.0861L339.721 9.36152C339.813 9.2785 339.948 9.2662 340.053 9.33077L343.736 11.6092C343.847 11.6768 343.893 11.8121 343.853 11.9351L341.507 18.6935C341.467 18.8073 341.36 18.8811 341.246 18.8811V18.878ZM333.153 16.1537L341.067 18.2692L343.257 11.9628L339.942 9.91191L333.153 16.1537Z" fill="black"/>
<path fill-rule="evenodd" clip-rule="evenodd" d="M348.324 9.51833L348.948 12.464L347.269 12.7192L348.324 9.51833Z" fill="white"/>
<path d="M347.269 12.9959C347.189 12.9959 347.112 12.959 347.057 12.8975C346.996 12.8237 346.974 12.7223 347.005 12.6331L348.06 9.43531C348.099 9.31539 348.216 9.2416 348.336 9.24468C348.462 9.25083 348.567 9.33999 348.591 9.46299L349.216 12.4086C349.231 12.4824 349.216 12.5624 349.173 12.6239C349.13 12.6854 349.062 12.7284 348.985 12.7407L347.306 12.9959C347.306 12.9959 347.279 12.999 347.266 12.999L347.269 12.9959ZM348.266 10.5822L347.672 12.3779L348.613 12.2364L348.262 10.5822H348.266Z" fill="black"/>
<path fill-rule="evenodd" clip-rule="evenodd" d="M344.653 3.21808C346.802 3.21808 348.545 5.81013 348.545 9.00484C348.545 12.1996 346.799 14.7916 344.653 14.7916C342.506 14.7916 340.76 12.1996 340.76 9.00484C340.76 5.81013 342.503 3.21808 344.653 3.21808Z" fill="white"/>
<path d="M344.653 15.0683C342.353 15.0683 340.483 12.3471 340.483 9.00484C340.483 5.66254 342.353 2.94135 344.653 2.94135C346.953 2.94135 348.825 5.66254 348.825 9.00484C348.825 12.3471 346.953 15.0683 344.653 15.0683ZM344.653 3.49481C342.66 3.49481 341.037 5.96694 341.037 9.00484C341.037 12.0427 342.66 14.5149 344.653 14.5149C346.645 14.5149 348.269 12.0427 348.269 9.00484C348.269 5.96694 346.645 3.49481 344.653 3.49481Z" fill="black"/>
<path fill-rule="evenodd" clip-rule="evenodd" d="M352.773 2.84295C353.194 5.45038 351.679 7.86717 349.388 8.23922C347.1 8.60819 344.896 6.79407 344.477 4.18356C344.056 1.57614 345.572 -0.840651 347.863 -1.2127C350.153 -1.58168 352.355 0.232453 352.773 2.84295Z" fill="black"/>
<path fill-rule="evenodd" clip-rule="evenodd" d="M347.398 9.84426C347.392 10.2901 347.223 10.6499 347.02 10.6468C346.817 10.6468 346.651 10.2809 346.657 9.83811C346.66 9.39226 346.833 9.03251 347.036 9.03559C347.242 9.03559 347.405 9.40149 347.398 9.84426Z" fill="black"/>
<path fill-rule="evenodd" clip-rule="evenodd" d="M340.044 1.97587C341.812 1.51157 343.552 2.28334 343.924 3.70082C344.296 5.1183 343.164 6.64648 341.393 7.11077C339.625 7.57507 337.885 6.80329 337.513 5.38581C337.141 3.96833 338.273 2.44016 340.044 1.97587Z" fill="black"/>
<path fill-rule="evenodd" clip-rule="evenodd" d="M344.115 1.48082C346.009 1.20101 347.767 2.48012 348.044 4.34038C348.321 6.20063 347.005 7.93788 345.114 8.21769C343.22 8.4975 341.458 7.21838 341.184 5.35813C340.908 3.50096 342.22 1.76062 344.115 1.48082Z" fill="black"/>
<path fill-rule="evenodd" clip-rule="evenodd" d="M343.18 0.709052C344.115 0.484592 345.175 1.56077 345.547 3.10739C345.916 4.65401 345.458 6.08994 344.52 6.3144C343.586 6.53886 342.525 5.46576 342.156 3.91914C341.787 2.37252 342.245 0.936588 343.183 0.712128L343.18 0.709052Z" fill="black"/>
<path fill-rule="evenodd" clip-rule="evenodd" d="M342.992 4.78008C344.167 5.58875 344.33 7.39673 343.355 8.81421C342.38 10.2348 340.634 10.7298 339.459 9.92421C338.285 9.11554 338.122 7.30756 339.097 5.89008C340.071 4.46952 341.818 3.97448 342.992 4.78008Z" fill="black"/>
<path fill-rule="evenodd" clip-rule="evenodd" d="M341.375 11.6215C340.437 11.6215 339.675 10.6837 339.675 9.52756C339.675 8.37144 340.437 7.43362 341.375 7.43362C342.313 7.43362 343.072 8.16235 343.072 9.3154" fill="white"/>
<path d="M341.375 11.8982C340.286 11.8982 339.398 10.8343 339.398 9.52756C339.398 8.22077 340.283 7.15689 341.375 7.15689C342.519 7.15689 343.349 8.06395 343.349 9.3154C343.349 9.46914 343.226 9.59213 343.072 9.59213C342.918 9.59213 342.795 9.46914 342.795 9.3154C342.795 8.36836 342.211 7.71035 341.375 7.71035C340.591 7.71035 339.951 8.52517 339.951 9.52448C339.951 10.5238 340.591 11.3417 341.375 11.3417C341.529 11.3417 341.652 11.4647 341.652 11.6184C341.652 11.7722 341.529 11.8951 341.375 11.8951V11.8982Z" fill="black"/>
<path fill-rule="evenodd" clip-rule="evenodd" d="M372.784 27.3029C372.559 27.2322 379.238 25.2859 380.498 23.9207C381.762 22.5555 382.817 25.3935 380.523 27.3921C378.023 29.5721 373.989 29.4184 373.989 29.4184" fill="white"/>
<path d="M374.195 29.6951C374.075 29.6951 374.001 29.6951 373.98 29.692C373.826 29.6859 373.709 29.5568 373.712 29.4061C373.719 29.2554 373.842 29.1386 373.989 29.1386C373.995 29.1386 373.977 29.1386 374.143 29.1386C374.875 29.1386 378.214 29.034 380.339 27.1799C381.415 26.2452 381.722 25.086 381.55 24.3511C381.485 24.0775 381.356 23.8838 381.206 23.8438C381.067 23.8069 380.886 23.8991 380.695 24.1051C379.822 25.0522 376.824 26.1468 374.081 27.0969C373.592 27.266 373.125 27.429 372.971 27.4936C372.901 27.5643 372.793 27.595 372.692 27.5612C372.578 27.5243 372.495 27.4167 372.492 27.2968C372.49 27.1389 372.958 26.8981 373.897 26.5742C375.693 25.95 379.431 24.6525 380.283 23.73C380.735 23.2411 381.141 23.2565 381.341 23.3088C381.698 23.4041 381.968 23.7362 382.082 24.2251C382.276 25.0553 382.027 26.4358 380.695 27.595C378.448 29.5568 375.075 29.692 374.186 29.692L374.195 29.6951Z" fill="black"/>
<path fill-rule="evenodd" clip-rule="evenodd" d="M297.738 109.311L279.277 134.613L307.156 135.241L304.376 131.465L306.922 120.122L297.738 109.311Z" fill="white"/>
<path d="M307.156 135.517C307.156 135.517 307.153 135.517 307.15 135.517L279.271 134.893C279.169 134.893 279.074 134.832 279.028 134.739C278.982 134.647 278.991 134.536 279.052 134.453L297.513 109.151C297.562 109.083 297.642 109.04 297.725 109.037C297.808 109.034 297.891 109.071 297.947 109.136L307.131 119.946C307.187 120.014 307.208 120.1 307.19 120.186L304.668 131.406L307.374 135.078C307.436 135.164 307.445 135.274 307.396 135.37C307.346 135.462 307.254 135.52 307.15 135.52L307.156 135.517ZM279.812 134.349L306.599 134.948L304.152 131.628C304.106 131.563 304.087 131.48 304.106 131.403L306.624 120.196L297.756 109.757L279.812 134.349Z" fill="black"/>
<path fill-rule="evenodd" clip-rule="evenodd" d="M318.127 31.5185C318.127 31.5185 309.397 43.338 310.993 64.8431C311.5 71.6968 315.648 72.0166 317.226 73.1328C318.806 74.252 329.27 38.2861 329.27 38.2861C329.27 38.2861 317.985 31.8905 318.127 31.5185Z" fill="white"/>
<path d="M317.303 73.4372C317.216 73.4372 317.136 73.4126 317.066 73.3603C316.78 73.1574 316.389 72.9759 315.94 72.7699C314.028 71.8844 311.138 70.5469 310.716 64.8646C309.889 53.7093 311.885 45.1983 313.702 40.0264C315.676 34.4088 317.816 31.4785 317.905 31.3555C317.988 31.2448 318.139 31.211 318.262 31.2787C318.323 31.3125 318.369 31.3678 318.391 31.4324C318.951 32.0197 325.408 35.7802 329.408 38.0494C329.519 38.1139 329.574 38.2431 329.537 38.3661C329.512 38.4522 327.019 47.0124 324.316 55.548C318.812 72.939 317.825 73.2834 317.453 73.4126C317.404 73.431 317.352 73.4372 317.306 73.4372H317.303ZM318.163 31.9551C316.909 33.84 309.834 45.4381 311.27 64.8247C311.666 70.181 314.271 71.3863 316.174 72.2687C316.617 72.4748 317.001 72.6531 317.318 72.8622C318.791 71.7952 325.177 51.3571 328.947 38.4214C328.264 38.034 325.869 36.6688 323.507 35.282C320.094 33.2773 318.705 32.401 318.167 31.9551H318.163Z" fill="black"/>
<path fill-rule="evenodd" clip-rule="evenodd" d="M340.462 27.838C344.591 23.9914 339.25 11.8214 330.33 17.2023C322.471 21.9436 316.543 32.6869 316.543 32.6869C316.543 32.6869 325.829 37.1454 329.094 36.0323C333.587 34.5011 335.742 32.2288 340.459 27.8349L340.462 27.838Z" fill="white"/>
<path d="M327.815 36.4874C323.867 36.4874 316.764 33.102 316.423 32.939C316.355 32.9052 316.303 32.8468 316.279 32.773C316.254 32.6992 316.263 32.6223 316.3 32.5547C316.359 32.4471 322.351 21.6914 330.186 16.9655C335.85 13.5463 339.324 17.3006 340.253 18.5336C342.365 21.3348 343.029 25.8209 340.649 28.0378C340.234 28.4222 339.841 28.7912 339.462 29.1448C335.514 32.8407 333.337 34.8762 329.183 36.2936C328.796 36.4259 328.332 36.4843 327.812 36.4843L327.815 36.4874ZM316.934 32.567C318.474 33.2804 326.192 36.7333 329.008 35.774C333.052 34.3965 335.195 32.3887 339.087 28.745C339.466 28.3914 339.859 28.0225 340.274 27.635C342.199 25.8424 341.984 21.7468 339.813 18.8688C337.519 15.8309 334.029 15.2959 330.475 17.439C323.443 21.6822 317.893 30.9066 316.934 32.5639V32.567Z" fill="black"/>
<path fill-rule="evenodd" clip-rule="evenodd" d="M325.303 47.0001C325.303 47.0001 323.587 57.5097 332.796 81.0258C342.005 104.542 346.055 124.365 346.055 124.365L370.401 122.166C370.401 122.166 363.114 82.4863 350.971 57.6881C344.361 44.1897 343.168 39.4176 343.168 39.4176L325.306 46.997L325.303 47.0001Z" fill="white"/>
<path d="M346.055 124.645C345.926 124.645 345.812 124.553 345.784 124.423C345.744 124.227 341.633 104.351 332.538 81.1272C323.406 57.8111 325.011 47.0616 325.029 46.954C325.045 46.8586 325.106 46.7818 325.195 46.7449L343.057 39.1655C343.131 39.1348 343.214 39.1378 343.287 39.1717C343.361 39.2086 343.413 39.2731 343.432 39.3531C343.444 39.3992 344.705 44.2697 351.217 57.5681C357.502 70.3993 362.456 87.2707 365.506 99.1609C368.811 112.041 370.653 122.019 370.671 122.12C370.687 122.197 370.668 122.274 370.619 122.339C370.573 122.4 370.502 122.44 370.422 122.446L346.076 124.645C346.076 124.645 346.061 124.645 346.052 124.645H346.055ZM325.555 47.1938C325.401 48.5529 324.565 59.2531 333.051 80.9274C341.621 102.808 345.775 121.727 346.273 124.07L370.069 121.921C369.737 120.168 367.947 110.916 364.968 99.2931C361.924 87.4275 356.982 70.5991 350.719 57.8111C345.08 46.296 343.361 41.0596 342.983 39.7958L325.555 47.1907V47.1938Z" fill="black"/>
<path fill-rule="evenodd" clip-rule="evenodd" d="M324.079 47.9102C324.079 47.9102 327.403 57.8387 314.329 75.7433C301.255 93.6447 287.136 116.417 287.136 116.417L309.723 125.46C309.723 125.46 333.74 108.456 339.502 86.8371C345.265 65.2182 343.73 43.3226 343.73 43.3226L324.076 47.9102H324.079Z" fill="white"/>
<path d="M309.726 125.736C309.692 125.736 309.656 125.73 309.625 125.718L287.037 116.675C286.961 116.644 286.902 116.583 286.878 116.506C286.853 116.429 286.862 116.343 286.905 116.272C287.047 116.045 301.178 93.288 314.108 75.5803C326.923 58.0294 323.852 48.0978 323.818 47.9994C323.793 47.9256 323.803 47.8456 323.839 47.778C323.876 47.7104 323.941 47.6612 324.018 47.6427L343.672 43.0551C343.749 43.0367 343.835 43.0551 343.899 43.1012C343.964 43.1474 344.004 43.2242 344.01 43.3042C344.025 43.5225 345.483 65.4919 339.773 86.9078C334.051 108.376 310.129 125.515 309.886 125.684C309.84 125.718 309.782 125.736 309.726 125.736ZM287.548 116.284L309.689 125.149C311.543 123.799 333.78 107.254 339.238 86.7695C344.542 66.8633 343.635 46.4743 343.478 43.6732L324.427 48.1193C324.879 49.9119 326.496 59.5606 314.554 75.9093C302.414 92.5316 289.211 113.619 287.548 116.287V116.284Z" fill="black"/>
<path fill-rule="evenodd" clip-rule="evenodd" d="M332.762 14.6717C332.762 14.6717 317.671 27.6135 321.767 49.8842L352.81 52.63C352.81 52.63 344.902 25.0553 342.931 18.3645L332.759 14.6717H332.762Z" fill="white"/>
<path d="M352.813 52.9068C352.813 52.9068 352.798 52.9068 352.788 52.9068L321.746 50.161C321.623 50.1487 321.521 50.0564 321.496 49.9365C319.366 38.3538 322.49 29.3292 325.488 23.7977C328.735 17.8018 332.544 14.4964 332.584 14.4657C332.661 14.4011 332.766 14.3827 332.858 14.4165L343.029 18.1093C343.112 18.1401 343.174 18.2077 343.201 18.2907C345.148 24.9046 353.001 52.2826 353.081 52.5562C353.105 52.6454 353.087 52.7376 353.028 52.8084C352.976 52.8729 352.896 52.9098 352.816 52.9098L352.813 52.9068ZM322.004 49.626L352.435 52.3195C351.472 48.9679 344.588 24.9692 342.706 18.5767L332.824 14.9884C332.16 15.5941 328.839 18.7612 325.961 24.0806C323.031 29.4953 319.978 38.3138 322.001 49.629L322.004 49.626Z" fill="black"/>
<path fill-rule="evenodd" clip-rule="evenodd" d="M336.898 18.4568C331.311 17.6665 327.763 24.8923 334.352 32.9667C340.938 41.0411 348.459 45.6779 354.775 46.4189C360.208 47.0554 370.136 38.8027 376.667 35.279C379.336 33.84 374.546 35.9124 377.07 36.927C377.845 37.2407 380.203 36.3398 380.335 34.1351C380.449 32.2011 378.749 29.0894 374.18 27.2537C369.912 25.538 358.24 32.8683 355.322 31.0327C353.084 29.6244 349.606 26.1653 345.861 23.2196C342.878 20.8766 339.73 18.8596 336.901 18.4568H336.898Z" fill="white"/>
<path d="M355.399 46.7295C355.175 46.7295 354.953 46.7172 354.741 46.6926C348.029 45.9055 340.52 40.9673 334.137 33.142C329.921 27.9763 329.952 23.4164 331.385 20.8736C332.523 18.8565 334.598 17.851 336.935 18.1831C339.401 18.5336 342.291 20.0649 346.027 23.0013C347.666 24.2897 349.283 25.701 350.707 26.9463C352.592 28.5913 354.221 30.0149 355.464 30.7959C356.764 31.6169 360.343 30.3132 363.802 29.0525C367.824 27.5889 371.981 26.073 374.278 26.9955C378.81 28.8157 380.735 31.9797 380.606 34.1505C380.52 35.5957 379.585 36.392 379.038 36.7395C378.309 37.2007 377.457 37.3821 376.962 37.1823C376.095 36.8348 375.982 36.3428 376.04 35.9923C376.043 35.9708 376.046 35.9523 376.052 35.9308C374.309 36.924 372.363 38.1969 370.315 39.5345C364.897 43.0736 359.307 46.7295 355.399 46.7295ZM336.074 18.6751C334.297 18.6751 332.756 19.5637 331.865 21.1472C330.521 23.5302 330.524 27.841 334.561 32.7915C340.855 40.5061 348.232 45.3735 354.802 46.1422C358.52 46.5758 364.626 42.5908 370.01 39.0702C372.363 37.5328 374.583 36.0815 376.529 35.033C376.692 34.9438 376.824 34.87 376.932 34.8116C377.184 34.6271 377.408 34.5133 377.482 34.5072C377.611 34.501 377.731 34.5841 377.765 34.7101C377.82 34.9069 377.765 34.9838 377.23 35.282C376.929 35.5157 376.572 35.8662 376.578 36.1491C376.584 36.3859 376.901 36.5642 377.165 36.6688C377.448 36.7825 378.115 36.6657 378.737 36.2721C379.195 35.98 379.979 35.3159 380.049 34.1167C380.166 32.1396 378.346 29.2247 374.069 27.5059C371.972 26.6634 367.732 28.2069 363.99 29.5691C360.076 30.9958 356.697 32.2257 355.165 31.2602C353.886 30.4546 352.241 29.0187 350.338 27.3583C348.917 26.1192 347.306 24.7109 345.68 23.4318C342.024 20.5568 339.216 19.0625 336.852 18.7273C336.587 18.6905 336.326 18.672 336.068 18.672L336.074 18.6751Z" fill="black"/>
<path fill-rule="evenodd" clip-rule="evenodd" d="M336.732 18.1831C331.093 18.3276 325.724 22.4202 330.417 31.7245C333.196 37.2345 339.386 40.9888 339.386 40.9888L348.711 24.551C348.711 24.551 341.418 18.0632 336.735 18.1831H336.732Z" fill="white"/>
<path d="M339.386 41.2656C339.336 41.2656 339.284 41.2533 339.241 41.2256C339.18 41.1887 332.95 37.3637 330.17 31.8475C327.532 26.6173 328.249 23.3949 329.313 21.6146C330.65 19.3761 333.424 17.9894 336.726 17.9064C341.455 17.7865 348.591 24.0744 348.893 24.3419C348.991 24.428 349.013 24.5725 348.948 24.6863L339.622 41.1241C339.585 41.1887 339.524 41.2379 339.45 41.2564C339.429 41.2625 339.404 41.2656 339.379 41.2656H339.386ZM336.741 18.4598C333.63 18.5398 331.028 19.825 329.789 21.9005C328.366 24.2835 328.667 27.635 330.666 31.5984C333.067 36.3613 338.128 39.842 339.29 40.5984L348.358 24.6094C347.254 23.6624 341.003 18.4568 336.867 18.4568C336.824 18.4568 336.784 18.4568 336.741 18.4568V18.4598Z" fill="black"/>
<path fill-rule="evenodd" clip-rule="evenodd" d="M409.066 76.9732C417.553 76.9732 424.44 83.8638 424.44 92.3471C424.44 100.831 417.549 107.721 409.066 107.721C400.583 107.721 393.692 100.831 393.692 92.3471C393.692 83.8638 400.583 76.9732 409.066 76.9732Z" fill="#3564FF"/>
<path fill-rule="evenodd" clip-rule="evenodd" d="M409.066 76.9732C417.553 76.9732 424.44 83.8638 424.44 92.3471C424.44 100.831 417.549 107.721 409.066 107.721C400.583 107.721 393.692 100.831 393.692 92.3471C393.692 83.8638 400.583 76.9732 409.066 76.9732ZM409.066 77.5389C417.239 77.5389 423.877 84.1743 423.877 92.3502C423.877 100.526 417.242 107.162 409.066 107.162C400.89 107.162 394.255 100.526 394.255 92.3502C394.255 84.1743 400.89 77.5389 409.066 77.5389Z" fill="#3564FF"/>
<path fill-rule="evenodd" clip-rule="evenodd" d="M418.214 92.3502C418.214 91.6246 417.626 91.0373 416.901 91.0373H401.229C400.503 91.0373 399.916 91.6276 399.916 92.3502C399.916 93.0728 400.503 93.6632 401.229 93.6632H416.901C417.626 93.6632 418.214 93.0728 418.214 92.3502Z" fill="white"/>
<path fill-rule="evenodd" clip-rule="evenodd" d="M409.066 101.037C409.829 101.037 410.45 100.415 410.45 99.6529V85.0476C410.45 84.285 409.832 83.6639 409.066 83.6639C408.301 83.6639 407.682 84.282 407.682 85.0476V99.6529C407.682 100.415 408.304 101.037 409.066 101.037Z" fill="white"/>
</g>
</g>
<defs>
<clipPath id="clip0_489_1571">
<rect width="584" height="112" rx="12" fill="white"/>
</clipPath>
<clipPath id="clip1_489_1571">
<rect width="134" height="96" fill="white" transform="translate(133 8)"/>
</clipPath>
<clipPath id="clip2_489_1571">
<rect width="172" height="160" fill="white" transform="translate(279 -24)"/>
</clipPath>
</defs>
</svg>
