<svg width="579" height="112" viewBox="0 0 579 112" fill="none" xmlns="http://www.w3.org/2000/svg">
<rect width="579" height="112" rx="12" fill="#E5E5EC"/>
<g clip-path="url(#clip0_968_1451)">
<path d="M64.8067 12.0286C64.938 12.0548 65.0239 12.1836 64.9952 12.3171C64.9881 12.3529 64.9738 12.3839 64.9523 12.4125C63.7663 13.9958 62.6471 15.5218 61.5947 16.993C49.897 33.3549 43.7404 41.9675 43.1271 42.8307C41.9888 44.4258 40.8911 45.9328 39.8363 47.3515C39.7051 47.528 39.5929 47.6496 39.4975 47.7164C39.3519 47.8165 39.1562 47.7927 39.0393 47.6615L30.1837 37.4919C30.1026 37.3989 29.9642 37.387 29.8687 37.4657C27.5588 39.3589 25.3085 41.2188 23.1178 43.0477C22.6286 43.4554 22.2874 43.7081 22.0941 43.8011C22.0368 43.8297 22.0034 43.844 21.9939 43.8417C21.8054 43.8226 21.6693 43.6557 21.6884 43.4697C21.6884 43.4649 21.6884 43.4625 21.6884 43.4578L23.502 30.155C23.5235 29.9977 23.471 29.8403 23.3589 29.7282L12.0978 18.4737C11.969 18.345 11.9666 18.1375 12.0955 18.0088C12.136 17.9658 12.1885 17.9372 12.2458 17.9229C13.0118 17.725 13.8733 17.725 14.9137 17.5986C24.3611 16.4494 33.2477 15.3835 41.576 14.4035C48.6633 13.569 57.9962 12.7439 63.919 12.0382C64.3104 11.9929 64.6063 11.9881 64.8067 12.0286ZM61.2249 13.0396C58.02 13.3711 54.6673 13.7025 51.1666 14.0339C48.0476 14.3272 44.6973 14.6849 41.1154 15.1069C32.0546 16.168 22.7503 17.3125 13.2027 18.5381C13.1765 18.5429 13.1574 18.5691 13.1621 18.5953C13.1621 18.6049 13.1693 18.6144 13.1741 18.6216L23.8767 29.3157C23.9984 29.4373 24.1845 29.4731 24.342 29.4039L61.275 13.2256C61.3251 13.2018 61.3442 13.1445 61.3227 13.0968C61.306 13.0587 61.2654 13.0372 61.2249 13.0396ZM63.2437 13.5713C63.32 13.4688 63.2986 13.3234 63.196 13.2471C63.1291 13.197 63.0385 13.1875 62.9621 13.2232L24.9195 29.8904C24.8026 29.9428 24.7501 30.0787 24.8026 30.1956C24.8121 30.217 24.8241 30.2361 24.8384 30.2528L39.1276 46.8127C39.2111 46.9104 39.3567 46.9223 39.4545 46.8413C39.4689 46.8294 39.4832 46.815 39.4927 46.7984L63.2437 13.5713ZM29.5585 36.8958C29.6014 36.8624 29.6062 36.8004 29.5728 36.7575C29.5728 36.7575 29.5728 36.7575 29.5704 36.7551L24.2752 30.62C24.2394 30.5795 24.1774 30.5771 24.1368 30.6129C24.1201 30.6272 24.1082 30.6486 24.1058 30.6701L22.5022 42.4325C22.495 42.4849 22.5332 42.535 22.5857 42.5422C22.6119 42.5469 22.6406 42.5374 22.6621 42.5207L29.5585 36.8958Z" fill="black"/>
<path d="M61.2251 13.0394C61.28 13.0347 61.3253 13.0752 61.3325 13.1277C61.3373 13.1682 61.3134 13.2087 61.2752 13.2254L24.3423 29.4038C24.1848 29.4729 23.9986 29.4372 23.8769 29.3156L13.1743 18.6214C13.1552 18.5999 13.1576 18.5689 13.1767 18.5499C13.1839 18.5427 13.1934 18.5379 13.2029 18.5379C22.7506 17.3123 32.0548 16.1678 41.1156 15.1067C44.6975 14.6847 48.0479 14.327 51.1668 14.0338C54.6675 13.7023 58.0203 13.3709 61.2251 13.0394Z" fill="white"/>
<path d="M63.2434 13.5712L39.4924 46.7982C39.4184 46.9031 39.2729 46.9269 39.1703 46.8506C39.1536 46.8387 39.1416 46.8268 39.1273 46.8125L24.8381 30.2526C24.7546 30.1549 24.7665 30.0094 24.8619 29.926C24.8786 29.9116 24.8977 29.8997 24.9192 29.8902L62.9618 13.223C63.0787 13.1706 63.2148 13.223 63.2673 13.3375C63.3007 13.4138 63.2935 13.502 63.2434 13.5712Z" fill="white"/>
<path d="M29.5585 36.8957L22.6621 42.5205C22.6215 42.5563 22.5595 42.5492 22.5237 42.5086C22.507 42.4872 22.4974 42.4586 22.5022 42.4323L24.1058 30.6699C24.1154 30.6175 24.1655 30.5793 24.218 30.5889C24.2394 30.5913 24.2609 30.6032 24.2752 30.6199L29.5705 36.755C29.6063 36.7955 29.6015 36.8575 29.5609 36.8933C29.5609 36.8933 29.5609 36.8933 29.5585 36.8957Z" fill="white"/>
<path d="M30.2386 61.398C30.2386 61.4433 30.272 61.4815 30.3197 61.4815C30.3245 61.4815 30.3293 61.4815 30.3317 61.4815C33.6773 61.0356 37.2591 62.1109 38.5549 65.5374C39.1395 67.0825 39.2231 68.4845 38.8031 69.7435C37.9177 72.4069 34.6437 72.8743 32.1978 72.0278C29.8472 71.2147 28.1744 69.6434 27.1793 67.3138C27.1483 67.2398 27.0648 67.2065 26.9908 67.2375C26.9789 67.2422 26.967 67.2494 26.955 67.2589C24.4828 69.2571 22.9985 72.0635 23.2324 75.3064C23.2372 75.3922 23.3135 75.459 23.3994 75.4518C23.4018 75.4518 23.4042 75.4518 23.409 75.4518C25.9361 75.149 28.5777 75.8429 30.1861 77.9221C31.1048 79.1095 31.5224 80.7023 30.9378 82.1401C29.9737 84.5174 27.6136 85.0038 25.3657 84.2384C23.4973 83.6018 21.982 82.1664 20.9439 80.4734C20.8842 80.3781 20.7625 80.3471 20.6671 80.4043C17.7224 82.2498 16.6414 85.073 16.6605 88.5137C16.6676 89.6869 16.4648 90.7241 15.2478 90.9673C14.1214 91.1938 13.2409 90.5047 13.1001 89.3888C13.0142 88.6949 13.0094 87.8675 13.0882 86.9066C13.4485 82.412 15.558 79.0523 19.4119 76.8276C19.5097 76.7704 19.5646 76.6631 19.5527 76.551C19.3546 74.6721 19.4525 72.9267 19.8462 71.3172C20.6862 67.8789 23.1059 64.9436 26.1866 63.0433C26.2988 62.9741 26.368 62.8549 26.3704 62.7237C26.399 61.2001 26.5088 59.5238 26.9789 58.055C27.7282 55.7088 29.0025 53.7249 30.7994 52.1035C31.8374 51.1664 33.4052 50.2079 34.6557 51.4263C35.5577 52.3014 35.2737 53.3911 34.3955 54.1088C33.682 54.693 33.2 55.0983 32.9518 55.3225C31.1883 56.9272 30.2839 58.9516 30.241 61.3956L30.2386 61.398ZM30.6729 65.5994C31.1287 66.9823 32.1667 68.3343 33.6892 68.5894C34.4194 68.711 35.4217 68.7468 35.2952 67.6762C35.0399 65.5326 32.6034 64.8817 30.7874 65.3824C30.6968 65.4086 30.6443 65.5016 30.6705 65.5922C30.6705 65.5946 30.6705 65.597 30.6729 65.5994ZM24.521 79.0738C24.3539 79.4076 24.8646 80.0013 25.6593 80.3947C26.4539 80.7906 27.2342 80.8382 27.4013 80.502C27.5683 80.1682 27.0576 79.5745 26.263 79.1811C25.4684 78.7853 24.688 78.7376 24.521 79.0738Z" fill="#2E6AFD"/>
<path d="M36.7815 107.537C36.9318 108.731 36.0561 109.828 34.8247 109.983C33.5934 110.138 32.4718 109.297 32.3215 108.1C32.1711 106.905 33.0469 105.808 34.2783 105.653C35.5096 105.498 36.6312 106.34 36.7815 107.537ZM36.4236 107.718C36.3878 106.719 35.5168 105.937 34.4811 105.975C33.4454 106.013 32.6341 106.855 32.6699 107.854C32.7057 108.853 33.5767 109.635 34.6123 109.597C35.648 109.559 36.4593 108.717 36.4236 107.718Z" fill="black"/>
<path d="M34.6142 109.598C35.6507 109.56 36.4612 108.718 36.4245 107.718C36.3878 106.718 35.5178 105.938 34.4813 105.976C33.4447 106.014 32.6342 106.855 32.6709 107.855C32.7077 108.856 33.5777 109.636 34.6142 109.598Z" fill="#F1F2F5"/>
</g>
<path d="M136.91 71.7509C138.341 74.3276 137.636 77.7631 134.86 79.0514C134.34 79.2947 133.3 79.4148 131.74 79.4118C104.485 79.3998 83.6484 79.3998 69.2304 79.4088C66.6784 79.4088 65.0559 78.2316 64.3596 75.8772C63.9024 74.3306 64.1086 72.781 64.9722 71.2284C70.5003 61.3032 80.8275 42.8492 95.9568 15.8694C96.8293 14.3108 97.6242 12.6441 99.4589 12.2026C101.186 11.7852 102.659 12.0134 103.881 12.8813C104.398 13.2507 105.208 14.4369 106.317 16.446C118.356 38.2845 128.555 56.7204 136.91 71.7509ZM98.1561 13.9114C97.8662 14.2597 97.6361 14.5901 97.4598 14.9024C90.318 27.6866 79.9908 46.1616 66.4782 70.3305C65.8836 71.3936 65.1545 72.4807 65.008 73.3876C64.6226 75.7841 66.0061 78.5619 68.7074 78.5619C110.115 78.5529 131.2 78.5559 131.959 78.5709C133.237 78.598 134.086 78.5109 134.507 78.3097C135.365 77.8982 135.981 77.3126 136.354 76.5559C137.478 74.2825 136.53 72.7269 135.213 70.3545C127.754 56.9096 117.552 38.4707 104.611 15.0345C104.034 13.9864 103.272 13.3077 102.328 12.9984C101.082 12.59 99.1153 12.7492 98.1561 13.9114Z" fill="black"/>
<path d="M98.156 13.9113C99.1152 12.7491 101.081 12.59 102.327 12.9984C103.272 13.3077 104.034 13.9864 104.61 15.0345C117.552 38.4706 127.754 56.9096 135.213 70.3544C136.53 72.7269 137.478 74.2825 136.354 76.5558C135.981 77.3126 135.365 77.8982 134.507 78.3096C134.086 78.5108 133.237 78.5979 131.958 78.5709C131.199 78.5559 110.115 78.5529 68.7073 78.5619C66.006 78.5619 64.6225 75.784 65.0079 73.3876C65.1544 72.4806 65.8835 71.3935 66.4781 70.3304C79.9907 46.1615 90.3179 27.6865 97.4597 14.9023C97.636 14.59 97.8661 14.2597 98.156 13.9113ZM100.809 59.0808C102.686 59.0808 103.935 57.8886 103.944 55.9786C103.959 52.9695 104.222 50.462 104.249 47.3748C104.258 46.2576 104.33 44.3987 104.461 41.795C104.494 41.1253 104.53 38.891 104.569 35.0921C104.601 32.014 104.019 30.5004 100.795 30.5004C97.5673 30.5004 96.9876 32.017 97.0204 35.0981C97.0653 38.897 97.1041 41.1283 97.14 41.798C97.2744 44.4017 97.3462 46.2606 97.3581 47.3778C97.388 50.465 97.6539 52.9725 97.6719 55.9816C97.6838 57.8946 98.9359 59.0808 100.809 59.0808ZM104.766 67.1381C104.766 64.9729 103.021 63.2191 100.866 63.2191C98.7118 63.2191 96.9667 64.9729 96.9667 67.1381C96.9667 69.3034 98.7118 71.0572 100.866 71.0572C103.021 71.0572 104.766 69.3034 104.766 67.1381Z" fill="white"/>
<path d="M100.795 30.5005C104.019 30.5005 104.602 32.014 104.569 35.0922C104.53 38.8911 104.494 41.1254 104.461 41.7951C104.33 44.3988 104.258 46.2577 104.249 47.3749C104.222 50.462 103.959 52.9696 103.944 55.9787C103.935 57.8887 102.686 59.0809 100.81 59.0809C98.9333 59.0809 97.6842 57.8947 97.6722 55.9817C97.6543 52.9726 97.3884 50.465 97.3585 47.3779C97.3465 46.2607 97.2748 44.4018 97.1403 41.7981C97.1045 41.1284 97.0656 38.8971 97.0208 35.0982C96.9879 32.017 97.5677 30.5035 100.795 30.5005Z" fill="black"/>
<path d="M100.866 71.0573C103.02 71.0573 104.766 69.3027 104.766 67.1383C104.766 64.9739 103.02 63.2192 100.866 63.2192C98.7127 63.2192 96.9668 64.9739 96.9668 67.1383C96.9668 69.3027 98.7127 71.0573 100.866 71.0573Z" fill="black"/>
<g clip-path="url(#clip1_968_1451)">
<path d="M234.042 86.6326C234.042 86.5553 233.988 86.4896 233.915 86.478C225.513 84.8816 217.838 80.0731 212.534 73.2816C201.819 59.5673 201.795 39.6336 212.758 25.8226C217.946 19.2824 224.655 15.0653 232.883 13.1713C235.243 12.6263 237.855 12.3054 240.717 12.2088C248.682 11.9344 255.531 11.9305 261.263 12.1895C265.199 12.3712 269.139 13.2486 273.083 14.8295C295.53 23.8204 302.541 53.1508 288.534 72.238C282.311 80.7147 272.786 85.817 262.348 86.563C259.83 86.7447 257.381 86.7756 255.005 86.6558C254.855 86.648 254.712 86.706 254.607 86.8181C250.343 91.3754 244.858 97.1889 238.148 104.259C236.464 106.037 234.038 105.005 234.054 102.581C234.1 95.5886 234.096 90.2699 234.042 86.6326ZM234.876 85.6353C235.008 85.6624 235.104 85.7822 235.104 85.9175C235.104 89.7017 235.104 95.3412 235.108 102.836C235.108 103.574 235.491 103.996 236.259 104.1C236.391 104.119 236.526 104.1 236.646 104.05C236.978 103.915 237.426 103.544 237.99 102.944C242.25 98.4103 247.62 92.7437 254.09 85.9445C254.325 85.6972 254.65 85.558 254.99 85.558C256.245 85.558 257.794 85.5619 259.637 85.5735C276.714 85.6701 290.62 73.8962 293.981 57.3022C294.375 55.3502 294.599 53.0735 294.657 50.4721C295.051 32.2275 283.076 16.7197 264.84 13.6197C263.577 13.4071 261.846 13.2563 259.645 13.1674C256.601 13.0476 254.862 12.9858 254.426 12.9858C253.12 12.9858 249.578 13.0399 243.799 13.1558C239.164 13.2486 235.641 13.5772 233.235 14.1454C228.445 15.2779 224.231 17.1488 220.588 19.7579C208.575 28.3622 203.395 43.5299 206.431 57.8279C209.486 72.238 220.53 82.8522 234.876 85.6353Z" fill="black"/>
<path d="M234.876 85.6351C220.53 82.852 209.486 72.2377 206.43 57.8276C203.394 43.5297 208.574 28.362 220.588 19.7577C224.23 17.1485 228.444 15.2777 233.234 14.1451C235.641 13.5769 239.164 13.2484 243.799 13.1556C249.578 13.0396 253.12 12.9817 254.426 12.9855C254.862 12.9855 256.6 13.0474 259.644 13.1672C261.846 13.2561 263.577 13.4069 264.84 13.6195C283.076 16.7195 295.051 32.2273 294.657 50.4719C294.599 53.0732 294.375 55.3499 293.981 57.302C290.62 73.896 276.714 85.6699 259.636 85.5732C257.794 85.5616 256.245 85.5578 254.99 85.5578C254.65 85.5578 254.325 85.6969 254.09 85.9443C247.619 92.7435 242.25 98.4101 237.989 102.944C237.425 103.543 236.977 103.914 236.645 104.05C236.525 104.1 236.39 104.119 236.259 104.1C235.49 103.996 235.108 103.574 235.108 102.836C235.108 95.341 235.104 89.7015 235.104 85.9173C235.104 85.782 235.007 85.6621 234.876 85.6351ZM233.122 41.9294H242.304C242.408 41.9294 242.501 41.8598 242.532 41.7593C242.88 40.5417 243.115 39.5638 243.648 38.5743C245.035 35.9883 247.191 34.7359 250.107 34.8133C255.001 34.9408 257.303 39.2391 255.839 43.6302C255.19 45.5744 253.077 47.6231 251.621 48.945C249.655 50.7231 247.959 52.1649 246.885 53.9777C245.483 56.3472 244.919 59.0723 245.194 62.1569C245.205 62.2844 245.313 62.3849 245.441 62.3849H253.456C253.614 62.3849 253.746 62.2535 253.746 62.095C253.746 62.095 253.746 62.0911 253.746 62.0873C253.665 58.821 254.912 56.1694 257.489 54.1362C259.524 52.5321 261.093 51.2063 262.198 50.1588C267.602 45.0449 267.949 37.1016 262.974 31.5006C258.25 26.1742 250.594 24.8174 244.104 27.0091C237.217 29.3322 233.771 34.7244 232.979 41.7709C232.972 41.8482 233.026 41.9217 233.107 41.9294C233.111 41.9294 233.118 41.9294 233.122 41.9294ZM255.407 72.8137C255.407 69.6363 252.834 67.062 249.659 67.062C246.484 67.062 243.911 69.6363 243.911 72.8137C243.911 75.991 246.484 78.5653 249.659 78.5653C252.834 78.5653 255.407 75.991 255.407 72.8137Z" fill="white"/>
<path d="M233.122 41.9298C233.045 41.9298 232.979 41.868 232.979 41.7868C232.979 41.783 232.979 41.7752 232.979 41.7714C233.771 34.7248 237.217 29.3326 244.104 27.0095C250.594 24.8179 258.25 26.1746 262.974 31.5011C267.949 37.102 267.602 45.0453 262.198 50.1592C261.093 51.2067 259.525 52.5325 257.489 54.1367C254.912 56.1698 253.665 58.8215 253.746 62.0877C253.75 62.2462 253.622 62.3815 253.464 62.3854C253.464 62.3854 253.46 62.3854 253.456 62.3854H245.441C245.313 62.3854 245.205 62.2849 245.194 62.1573C244.919 59.0727 245.483 56.3477 246.886 53.9782C247.959 52.1653 249.655 50.7235 251.621 48.9455C253.078 47.6235 255.191 45.5749 255.839 43.6306C257.303 39.2395 255.001 34.9413 250.107 34.8137C247.191 34.7364 245.035 35.9888 243.649 38.5747C243.115 39.5642 242.88 40.5422 242.532 41.7598C242.501 41.8603 242.409 41.9298 242.304 41.9298H233.122Z" fill="#2E6AFD"/>
<path d="M249.659 78.5653C252.833 78.5653 255.407 75.9902 255.407 72.8137C255.407 69.6371 252.833 67.062 249.659 67.062C246.485 67.062 243.911 69.6371 243.911 72.8137C243.911 75.9902 246.485 78.5653 249.659 78.5653Z" fill="#2E6AFD"/>
</g>
<g clip-path="url(#clip2_968_1451)">
<path d="M401.71 82.3698C401.689 82.3669 401.673 82.3467 401.676 82.3251C401.676 82.3164 401.682 82.3078 401.688 82.3006L402.471 81.5099C402.554 81.4277 402.664 81.3815 402.781 81.3801C413.066 81.3657 420.433 81.3671 424.884 81.383C426.386 81.3873 427.287 81.3455 427.588 81.2575C429.204 80.7799 430.526 79.3804 430.767 77.6722C430.84 77.1471 430.877 76.469 430.877 75.6365C430.871 65.7552 430.87 56.4985 430.874 47.8651C430.874 47.2404 430.705 46.5984 430.367 45.9376C429.538 44.3117 428.198 43.4994 426.35 43.5008C414.749 43.5081 402.941 43.5081 390.928 43.5008C389.625 43.5008 388.563 43.9337 387.745 44.8008C386.518 46.1007 386.496 47.4684 386.496 49.5229C386.489 66.9786 386.489 76.104 386.499 76.8975C386.528 79.2881 388.205 81.3253 390.642 81.3657C392.134 81.3902 393.7 81.3887 395.339 81.3613C395.365 81.3613 395.386 81.383 395.385 81.4104C395.385 81.4219 395.38 81.4335 395.373 81.4407C394.633 82.2472 393.945 83.0623 393.458 83.9756C393.396 84.091 393.278 84.1631 393.147 84.1631H374.555C374.459 84.1631 374.373 84.1054 374.335 84.0174C372.491 79.7657 370.617 75.6899 368.714 71.7873C367.755 69.8237 366.983 68.3175 366.397 67.2701C364.767 64.3528 362.663 62.0199 359.799 60.3925C359.001 59.9395 358.152 59.5196 357.251 59.1315C354.323 57.8735 351.276 56.8058 348.109 55.9301C348.034 55.9099 347.983 55.8421 347.98 55.7656L347.877 52.6291C347.875 52.5757 347.917 52.5295 347.97 52.5266C351.901 52.2929 354.481 49.8734 355.804 46.2969C356.485 44.4603 356.901 42.5544 357.055 40.5793C357.08 40.2576 357.122 39.7858 357.181 39.164C357.294 37.9564 357.247 36.7589 357.314 35.6639C357.351 35.0767 357.353 34.3856 357.318 33.5906C357.26 32.2489 357.165 30.6099 357.035 28.6738C356.99 28.0159 356.929 27.1964 356.853 26.2139C356.848 26.1634 356.878 26.1172 356.926 26.0999C357.248 25.9787 357.699 25.8676 358.089 25.6555C359.305 24.9933 359.98 23.9401 360.113 22.4959C360.298 20.4876 359.371 18.5919 358.102 17.1203C356.071 14.7672 353.234 13.2465 350.207 12.5266C346.363 11.6104 342.584 11.9394 338.798 13.1369C336.282 13.9333 334.144 15.0831 332.3 16.9558C328.506 20.8137 327.768 26.286 328.662 31.4337C328.676 31.5174 328.65 31.6025 328.592 31.6646C327.496 32.8087 326.821 34.1822 326.566 35.7836C326.214 38.0011 326.639 40.5677 328.152 42.3063C329.377 43.7158 330.822 44.4617 332.703 44.0823C332.739 44.0751 332.774 44.0996 332.782 44.1357C332.782 44.14 332.782 44.1443 332.782 44.1486C332.777 45.1903 332.809 46.5984 332.677 47.7483C332.463 49.6022 332.177 51.27 331.819 52.7503C331.66 53.4096 331.413 53.8886 330.727 54.0329C326.722 54.8798 321.972 55.9936 317.626 57.318C315.576 57.9427 313.608 58.7362 311.721 59.6971C307.428 61.8828 304.295 65.1737 302.321 69.5669C301.796 70.7355 301.251 72.2259 300.809 73.5561C299.057 78.8221 297.422 84.2338 295.903 89.7927C295.683 90.5934 295.512 91.2456 295.387 91.7462C295.277 92.1906 295.441 92.4589 295.884 92.5498C296.43 92.6623 296.798 92.7446 296.988 92.7951C297.03 92.8066 297.054 92.8484 297.044 92.8903C296.884 93.5208 296.718 94.2118 296.546 94.9635C296.159 96.6573 295.615 98.4275 295.344 99.9482C294.794 103.052 294.658 106.337 295.317 109.462C296.095 113.144 298.588 116.159 302.402 116.733C303.912 116.96 305.391 117.042 306.842 116.98C308.823 116.895 309.842 116.854 309.896 116.857C310.492 116.895 311.239 116.773 311.999 116.714C317.716 116.267 323.625 115.52 329.725 114.474C330.199 114.393 330.661 114.383 331.113 114.442C331.154 114.448 331.183 114.487 331.177 114.529C331.177 114.533 331.176 114.537 331.174 114.542C331.08 114.817 331.025 115.085 331.011 115.348C330.974 116.038 331.409 116.062 331.994 116.062C352.621 116.058 371.312 116.058 388.065 116.061C388.96 116.061 389.526 116.016 389.759 115.925C390.705 115.557 391.175 114.791 391.487 113.819C393.015 109.055 393.875 106.383 394.067 105.801C394.095 105.716 394.157 105.646 394.239 105.607C394.431 105.514 394.651 105.345 394.901 105.1C396.419 103.601 397.658 102.503 398.616 101.804C399.251 101.342 399.762 101.04 400.481 100.625C400.726 100.483 400.968 100.319 401.211 100.13C402.94 98.7853 404.103 97.0598 404.7 94.9534C404.74 94.8149 404.813 94.6894 404.915 94.5884C406.016 93.4962 406.949 92.3089 407.713 91.0263C408.038 90.478 408.344 89.849 408.426 89.1824C408.532 88.3312 408.354 87.2088 407.671 86.6172C407.36 86.3489 406.985 86.1224 406.544 85.9391C406.461 85.9045 406.399 85.8324 406.377 85.7458C406.296 85.4212 406.249 85.2337 406.237 85.1817C406.059 84.3781 405.393 83.7924 404.608 83.6423C404.511 83.6236 404.293 83.5961 403.954 83.5615C403.902 83.5557 403.859 83.5211 403.845 83.4721C403.63 82.7882 403.121 82.4318 402.319 82.403C401.981 82.39 401.778 82.3799 401.709 82.3698H401.71ZM342.471 12.7805C337.37 14.0775 334.119 19.0132 333.018 23.9863C332.515 26.2572 332.368 28.4083 332.577 30.4397C332.58 30.4628 332.562 30.483 332.539 30.4859C332.537 30.4859 332.532 30.4859 332.532 30.4859L331.578 30.4267C331.545 30.4238 331.518 30.3978 331.515 30.3647C330.984 24.3859 332.91 17.807 338.079 14.3733C339.243 13.5985 340.7 13.0258 342.446 12.6535C342.454 12.6521 342.462 12.6564 342.465 12.6636L342.497 12.7257C342.505 12.7444 342.497 12.769 342.478 12.7776C342.475 12.7776 342.472 12.7791 342.471 12.7805ZM356.437 25.5921C356.546 27.5253 356.654 29.1354 356.76 30.4238C356.801 30.9273 356.834 31.5189 356.858 32.1969C356.901 33.3771 356.98 34.2009 356.937 35.4922C356.864 37.6722 356.823 38.8408 356.811 38.998C356.649 41.1607 356.417 43.0118 355.833 45.0114C354.734 48.7683 352.484 51.7 348.347 52.0909C345.581 52.3535 342.84 51.4085 340.508 49.9312C340.424 49.8778 340.312 49.9023 340.259 49.986C340.249 50.0019 340.242 50.0177 340.238 50.035C340.219 50.1057 340.248 50.1995 340.323 50.3178C341.865 52.7128 344.568 54.7759 347.436 55.0817C347.483 55.0861 347.519 55.125 347.522 55.1726C347.595 56.6471 347.639 57.5243 347.655 57.8056C347.759 59.6365 347.211 61.1456 346.006 62.3344C345.056 63.2737 343.708 63.8536 342.403 63.9258C341.292 63.9878 340.311 63.8666 339.461 63.5622C335.523 62.1498 332.428 58.3625 330.952 54.5393C330.928 54.4772 330.958 54.408 331.02 54.3835C331.02 54.3835 331.022 54.3835 331.024 54.382C331.931 54.0704 332.174 53.1095 332.347 52.2684C332.675 50.6713 332.93 49.0381 333.112 47.3688C333.231 46.2752 333.164 45.0662 333.206 44.1732C333.211 44.0606 333.267 43.9553 333.359 43.8889L333.985 43.4403C334.038 43.4013 334.112 43.4085 334.158 43.4561C334.711 44.0491 335.336 44.5656 336.032 45.0056C338.006 46.2536 340.192 47.0312 342.554 47.239C342.645 47.2477 342.724 47.3068 342.759 47.3919C343.356 48.8881 344.942 49.0713 346.427 48.8534C347.778 48.6558 348.733 47.3256 347.963 46.0372C347.464 45.2033 346.423 44.9869 345.449 44.9955C344.224 45.0071 343.333 45.2985 342.756 46.3488C342.71 46.4325 342.618 46.4787 342.524 46.4686C339.984 46.1887 336.808 45.1369 334.936 43.2585C334.889 43.2123 334.889 43.1358 334.936 43.0897C337.06 40.9154 337.526 37.5409 336.658 34.7073C336.648 34.6727 336.665 34.6366 336.698 34.6222C338.256 33.9874 338.772 32.1133 338.954 30.5407C339.117 29.1297 339.258 27.7288 339.374 26.3365C339.417 25.8244 339.53 24.8245 339.955 24.6211C340.692 24.2691 342.429 24.8231 343.359 25.1174C344.339 25.4276 345.27 25.7349 346.151 26.0422C347.199 26.4072 348.01 26.6308 348.582 26.7131C351.226 27.094 354.032 26.7809 356.343 25.5401C356.374 25.5228 356.413 25.5358 356.43 25.5675C356.434 25.5762 356.437 25.5849 356.437 25.5935V25.5921ZM329.329 31.4496C330.568 30.6936 332.024 30.5421 333.326 31.2217C335.297 32.2532 336.43 34.2529 336.632 36.4646C336.837 38.6922 336.297 41.142 334.741 42.7477C334.616 42.8761 334.476 42.954 334.321 42.9786C334.283 42.9843 334.245 42.9584 334.24 42.918C334.237 42.8992 334.241 42.879 334.253 42.8646C334.367 42.7102 334.585 42.4375 334.907 42.0466C336.128 40.562 336.519 38.1627 336.295 36.3362C336.059 34.4015 335.171 32.888 333.628 31.793C332.992 31.3414 332.254 31.1221 331.413 31.1351C330.653 31.1452 329.97 31.2837 329.362 31.5492C329.359 31.5506 329.355 31.5492 329.352 31.5477L329.324 31.5246C329.303 31.5088 329.302 31.4799 329.318 31.4597C329.321 31.4554 329.325 31.4525 329.329 31.4496ZM373.899 84.1444H361.839C361.785 84.1444 361.739 84.0997 361.737 84.0448C361.7 83.1013 361.716 82.1895 361.639 81.2156C361.491 79.3646 361.415 78.4181 361.411 78.3777C361.232 76.2641 360.993 74.2125 360.69 72.2201C360.683 72.1711 360.642 72.135 360.593 72.135H360.531C360.438 72.135 360.362 72.2114 360.362 72.3052C360.362 72.3139 360.362 72.3225 360.364 72.3298C360.908 76.2728 361.262 80.1884 361.424 84.078C361.425 84.1069 361.402 84.1328 361.372 84.1343H361.371C360.309 84.153 359.516 84.1516 358.99 84.1285C358.138 84.0896 357.543 84.1487 357.209 84.3045C356.628 84.5758 356.235 85.0144 356.033 85.6189C354.31 90.7738 352.604 95.9662 350.917 101.198C350.898 101.254 350.838 101.286 350.78 101.267C350.773 101.264 350.765 101.261 350.759 101.257C349.632 100.576 348.424 100.167 347.135 100.032C345.667 99.8789 344.188 100.012 342.703 100.429C340.339 101.094 337.861 102.083 336.681 102.49C336.026 102.717 335.241 103.013 334.669 102.958C328.818 102.395 323.111 101.843 317.55 101.299C316.58 101.205 315.189 101.068 313.38 100.887C313.319 100.882 313.273 100.825 313.278 100.763C313.278 100.758 313.28 100.75 313.281 100.745C313.682 99.2441 313.988 97.7278 314.195 96.1971C314.204 96.1379 314.258 96.0961 314.316 96.1047H314.321L316.738 96.5707C316.841 96.5895 316.941 96.5217 316.96 96.4178C316.961 96.4091 316.963 96.4005 316.963 96.3918C316.989 95.8133 317.04 95.278 317.117 94.7846C317.352 93.2683 317.584 91.8212 317.855 90.5386C318.801 86.0531 319.757 81.4032 320.318 76.9364C320.366 76.5541 320.399 76.1314 320.416 75.6711C320.418 75.6279 320.383 75.5904 320.341 75.5889H320.338H320.292C320.202 75.5889 320.126 75.6567 320.114 75.7476C319.74 78.8538 319.225 82.0207 318.57 85.2466C317.822 88.9357 317.013 92.4906 316.58 96.0889C316.576 96.1249 316.543 96.1509 316.506 96.1466H316.501L295.88 92.1689C295.785 92.1502 295.722 92.0578 295.741 91.9612C295.741 91.9568 295.742 91.9525 295.744 91.9496C297.106 86.786 298.694 81.3743 300.512 75.7144C301.167 73.6744 301.784 71.9301 302.367 70.4816C304.28 65.7292 307.541 62.2075 312.151 59.9164C315.32 58.3409 318.925 57.2603 322.373 56.3975C325.002 55.7411 327.676 55.1092 330.396 54.5032C330.484 54.483 330.571 54.5321 330.601 54.6157C331.687 57.5705 333.574 60.0881 336.033 62.0661C338.652 64.1725 342.465 65.3815 345.475 63.2563C347.227 62.0185 348.095 60.3002 348.08 58.1029C348.076 57.5546 348.042 57.015 347.976 56.4855C347.969 56.4264 347.976 56.3773 348 56.3384C348.016 56.3153 348.044 56.3038 348.07 56.311C351.139 57.1521 354.117 58.1865 357.006 59.4143C359.9 60.6435 362.448 62.3287 364.35 64.8563C365.301 66.1202 366.19 67.5716 367.013 69.2105C369.334 73.8215 371.64 78.7817 373.933 84.091C373.942 84.1097 373.933 84.1314 373.913 84.1401C373.909 84.1415 373.903 84.1429 373.899 84.1429V84.1444ZM393.883 84.0117C394.323 83.2196 394.906 82.4852 395.631 81.8086C397.372 80.1855 398.585 79.0602 400.183 77.9377C400.925 77.4169 401.686 77.0562 402.581 77.2279C403.01 77.3087 403.339 77.5208 403.567 77.8627C404.179 78.7788 403.535 79.7988 402.872 80.5231C401.688 81.8172 400.466 82.9772 399.209 84.003C399.079 84.1098 398.914 84.1689 398.745 84.1689H393.975C393.918 84.1689 393.871 84.1227 393.871 84.065C393.871 84.0463 393.875 84.029 393.883 84.0117ZM399.366 84.368C399.943 83.8775 400.494 83.4057 401.021 82.9512C401.172 82.8214 401.354 82.7565 401.567 82.755C402.579 82.7478 403.786 82.8546 403.472 84.2944C403.328 84.9595 403.147 85.5496 402.934 86.0661C402.24 87.744 401.377 89.2777 400.342 90.6699C399.907 91.2557 399.217 92.0521 398.522 92.2353C398.485 92.2454 398.446 92.2223 398.436 92.1848C398.433 92.1718 398.433 92.1574 398.436 92.1444C398.933 90.5227 399.441 88.8622 399.961 87.1612C400.271 86.1455 400.393 85.0605 399.371 84.4459C399.348 84.4329 399.341 84.4041 399.354 84.381C399.357 84.3767 399.36 84.3723 399.366 84.368ZM404.027 83.9554C404.908 83.9424 405.514 84.3233 405.846 85.098C406.25 86.0387 405.62 87.4872 405.226 88.3038C404.517 89.7768 403.656 91.1821 402.643 92.5181C402.258 93.0245 401.596 93.6016 400.946 93.4371C400.314 93.2755 400.132 92.6465 400.087 92.0131C400.07 91.7693 400.109 91.5875 400.202 91.4692C401.587 89.7263 402.68 87.7945 403.48 85.6722C403.683 85.1327 403.775 84.4546 403.899 84.0506C403.916 83.9943 403.968 83.9568 404.027 83.9554ZM348.484 115.683C347.394 115.352 346.97 114.272 347.315 113.262C348.423 110.032 349.627 106.402 350.929 102.369C352.501 97.5027 354.16 92.4373 355.904 87.1741C356.242 86.1541 356.586 84.5354 357.947 84.5368C372.926 84.5483 386.274 84.5527 397.992 84.5498C398.517 84.5498 398.88 84.6032 399.076 84.7099C400.225 85.3361 399.735 86.5624 399.456 87.5089C398.224 91.6798 396.77 96.0283 395.549 99.8169C394.901 101.831 394.151 104.207 393.3 106.944C392.411 109.805 391.646 112.174 391.003 114.051C390.733 114.839 390.259 115.352 389.582 115.592C389.367 115.668 388.658 115.707 387.455 115.707C371.036 115.709 358.1 115.709 348.649 115.707C348.593 115.707 348.537 115.699 348.484 115.683ZM406.409 86.2796C407.081 86.5393 407.665 86.8899 407.917 87.6344C408.307 88.7799 408.041 89.735 407.473 90.7103C406.562 92.2786 405.34 93.8901 403.878 94.9289C403.041 95.5233 402.561 93.8988 402.536 93.3751C402.531 93.2928 402.557 93.2135 402.609 93.1514C403.906 91.5514 404.982 89.7841 405.836 87.8493C406.048 87.3732 406.193 86.8019 406.319 86.3272C406.329 86.2897 406.366 86.2681 406.403 86.2782C406.406 86.2782 406.408 86.2782 406.409 86.2796ZM394.378 104.892C394.429 104.608 394.542 104.196 394.717 103.657C395.83 100.222 396.942 96.7612 398.053 93.2741C398.126 93.0447 398.199 92.8787 398.273 92.7763C398.313 92.72 398.371 92.6811 398.437 92.6638C398.851 92.5541 399.237 92.3478 399.592 92.0448C399.623 92.0189 399.671 92.0218 399.696 92.0535C399.705 92.0636 399.709 92.0751 399.712 92.0867C399.794 92.5065 399.815 92.8715 400.026 93.1875C400.413 93.7646 401.122 94.0402 401.778 93.7184C402 93.6102 402.114 93.5539 402.122 93.5525C402.157 93.5424 402.195 93.5655 402.205 93.6016C402.205 93.6044 402.206 93.6088 402.206 93.6117C402.272 94.17 402.483 94.6649 402.836 95.0977C403.243 95.594 403.709 95.4324 404.196 95.2001C404.213 95.1915 404.234 95.1972 404.244 95.2146C404.249 95.2232 404.25 95.2347 404.246 95.2448C403.487 97.5114 402.122 99.2283 400.152 100.393C399.526 100.763 399.148 100.99 399.02 101.075C398.434 101.465 397.871 101.892 397.331 102.358C396.386 103.171 395.433 104.034 394.475 104.946C394.451 104.967 394.413 104.966 394.392 104.942C394.381 104.929 394.375 104.91 394.378 104.892ZM348.553 108.004C347.38 106.883 346.195 105.957 345 105.226C344.932 105.184 344.846 105.187 344.78 105.233L344.723 105.275C344.658 105.321 344.642 105.41 344.688 105.475C344.7 105.491 344.714 105.504 344.731 105.516C346.096 106.348 347.338 107.323 348.458 108.44C348.49 108.472 348.501 108.518 348.487 108.561L347.603 111.191C347.59 111.229 347.55 111.249 347.512 111.236C347.504 111.233 347.499 111.23 347.493 111.226C346.294 110.342 345.022 109.604 343.675 109.016C343.552 108.962 343.41 108.987 343.313 109.078C342.879 109.486 342.329 109.981 341.663 110.564C340.636 111.463 339.441 112.181 338.076 112.721C336.629 113.292 335.436 113.262 333.77 113.265C333.491 113.265 333.213 113.302 332.943 113.374C332.148 113.589 331.293 113.778 330.381 113.944C323.77 115.14 317.212 115.963 310.71 116.414C308.335 116.579 306.235 116.625 304.409 116.551C303.297 116.507 302.337 116.371 301.531 116.142C297.781 115.075 295.947 111.746 295.451 108.028C295.298 106.875 295.228 105.865 295.241 104.996C295.278 102.337 295.706 99.7505 296.484 96.8218C296.678 96.0903 296.98 94.8163 297.389 92.997C297.405 92.922 297.478 92.8744 297.553 92.8888L313.74 96.0109C313.8 96.0239 313.84 96.0802 313.831 96.1408C313.618 97.5734 313.306 99.1042 312.895 100.73C312.882 100.784 312.833 100.82 312.779 100.817L310.527 100.678C310.425 100.671 310.338 100.749 310.33 100.851C310.33 100.859 310.33 100.866 310.33 100.873V100.88C310.375 100.978 310.468 101.043 310.574 101.05C312.011 101.153 313.225 101.254 314.221 101.353C320.471 101.974 327.06 102.613 333.989 103.269C334.637 103.331 335.142 103.321 335.507 103.242C335.913 103.153 336.798 102.854 338.166 102.346C342.246 100.828 346.446 99.1403 350.613 101.581C350.7 101.633 350.74 101.74 350.707 101.837L349.814 104.497C349.801 104.533 349.762 104.552 349.728 104.54C349.719 104.538 349.71 104.532 349.703 104.526C348.817 103.717 347.857 102.998 346.827 102.371C346.775 102.339 346.709 102.342 346.659 102.378L346.583 102.433C346.517 102.48 346.502 102.574 346.55 102.64C346.562 102.658 346.578 102.671 346.595 102.682C347.683 103.334 348.672 104.072 349.56 104.894C349.629 104.957 349.653 105.054 349.623 105.142L348.672 107.974C348.659 108.013 348.617 108.033 348.579 108.02C348.569 108.017 348.56 108.012 348.553 108.004ZM337.918 113.162C340.117 112.395 341.795 111.02 343.463 109.453C343.532 109.388 343.634 109.371 343.72 109.411C344.945 109.984 346.144 110.688 347.314 111.526C347.404 111.591 347.441 111.707 347.406 111.812L346.956 113.151C346.936 113.214 346.877 113.256 346.81 113.256H337.934C337.908 113.259 337.884 113.24 337.881 113.214C337.878 113.19 337.894 113.167 337.918 113.162ZM346.81 113.765C346.771 114.482 347.006 115.074 347.514 115.543C347.553 115.577 347.555 115.637 347.52 115.676C347.503 115.694 347.479 115.706 347.453 115.706C341.671 115.709 336.57 115.709 332.148 115.707C331.727 115.707 331.358 115.758 331.378 115.234C331.388 114.987 331.524 114.686 331.786 114.332C332.178 113.801 333.413 113.654 333.953 113.651C337.006 113.64 341.259 113.643 346.709 113.659C346.765 113.659 346.81 113.703 346.81 113.76V113.765Z" fill="black"/>
<path d="M342.471 12.7806C342.491 12.7762 342.503 12.7546 342.499 12.7329C342.499 12.7301 342.498 12.7272 342.496 12.7257L342.465 12.6637C342.462 12.6565 342.453 12.6522 342.446 12.6536C340.7 13.0258 339.243 13.5986 338.079 14.3733C332.91 17.8071 330.984 24.386 331.515 30.3647C331.518 30.3979 331.545 30.4239 331.578 30.4268L332.532 30.4859C332.555 30.4874 332.575 30.47 332.576 30.447C332.576 30.4441 332.576 30.4412 332.576 30.4397C332.367 28.4084 332.515 26.2572 333.018 23.9863C334.119 19.0132 337.37 14.0776 342.471 12.7806Z" fill="#F8F8F9"/>
<path d="M356.342 25.5387C354.032 26.7794 351.226 27.0925 348.581 26.7116C348.01 26.6294 347.199 26.4058 346.15 26.0408C345.269 25.7335 344.338 25.4261 343.358 25.116C342.429 24.8216 340.691 24.2676 339.955 24.6197C339.529 24.8231 339.416 25.8229 339.373 26.3351C339.257 27.7273 339.117 29.1282 338.954 30.5392C338.772 32.1118 338.256 33.9859 336.697 34.6208C336.664 34.6352 336.647 34.6712 336.657 34.7059C337.525 37.5394 337.06 40.914 334.935 43.0882C334.888 43.1344 334.888 43.2108 334.935 43.257C336.808 45.1355 339.984 46.1872 342.523 46.4671C342.618 46.4772 342.71 46.4311 342.755 46.3474C343.333 45.2971 344.224 45.0056 345.448 44.9941C346.422 44.9854 347.464 45.2018 347.962 46.0357C348.733 47.3241 347.778 48.6543 346.427 48.852C344.941 49.0698 343.356 48.8866 342.758 47.3905C342.724 47.3054 342.645 47.2462 342.553 47.2375C340.191 47.0298 338.005 46.2521 336.031 45.0042C335.335 44.5641 334.711 44.0476 334.158 43.4547C334.112 43.4071 334.037 43.3998 333.984 43.4388L333.358 43.8875C333.267 43.9539 333.211 44.0592 333.205 44.1717C333.164 45.0648 333.231 46.2738 333.112 47.3674C332.93 49.0366 332.675 50.6698 332.347 52.2669C332.174 53.1081 331.93 54.0689 331.023 54.3806C330.962 54.4022 330.929 54.47 330.95 54.5335C330.95 54.5349 330.95 54.5364 330.952 54.5378C332.427 58.3611 335.523 62.1483 339.461 63.5607C340.31 63.8652 341.291 63.9864 342.403 63.9243C343.708 63.8522 345.056 63.2722 346.006 62.333C347.21 61.1441 347.759 59.635 347.654 57.8042C347.639 57.5229 347.594 56.6457 347.521 55.1712C347.518 55.1236 347.482 55.0846 347.435 55.0803C344.567 54.7744 341.864 52.7113 340.323 50.3164C340.247 50.1981 340.218 50.1043 340.237 50.0336C340.261 49.9384 340.36 49.8821 340.458 49.9081C340.475 49.9124 340.492 49.9196 340.508 49.9297C342.84 51.4071 345.58 52.3521 348.346 52.0895C352.483 51.6985 354.734 48.7669 355.832 45.0099C356.417 43.0103 356.649 41.1593 356.811 38.9966C356.822 38.8393 356.864 37.6707 356.937 35.4907C356.98 34.1995 356.901 33.3757 356.858 32.1955C356.834 31.5174 356.801 30.9259 356.759 30.4224C356.653 29.134 356.546 27.5239 356.437 25.5906C356.434 25.5546 356.404 25.5271 356.368 25.53C356.359 25.53 356.349 25.5329 356.342 25.5372V25.5387ZM350.267 40.8346C350.842 40.8851 351.215 40.8952 351.392 40.8664C352.334 40.712 352.73 40.171 352.576 39.2462C352.284 37.4731 351.664 35.9077 350.962 33.9023C350.926 33.7984 350.969 33.683 351.065 33.6296L351.071 33.6267C351.15 33.582 351.25 33.6094 351.296 33.6887C351.3 33.6974 351.304 33.7061 351.307 33.7147C351.899 35.3666 352.576 37.2119 352.949 39.05C353.149 40.0383 352.841 40.7192 352.025 41.0958C351.652 41.2675 351.074 41.3122 350.29 41.2285C350.184 41.2184 350.101 41.1304 350.095 41.0222V41.0034C350.09 40.9154 350.157 40.839 350.244 40.8346C350.251 40.8346 350.259 40.8346 350.267 40.8346Z" fill="white"/>
<path d="M329.33 31.4497C329.308 31.4627 329.301 31.4916 329.314 31.5132C329.317 31.5175 329.32 31.5219 329.324 31.5247L329.352 31.5478C329.352 31.5478 329.36 31.5507 329.362 31.5493C329.97 31.2838 330.653 31.1453 331.414 31.1352C332.255 31.1222 332.992 31.3415 333.628 31.7931C335.171 32.8881 336.059 34.4016 336.296 36.3363C336.519 38.1628 336.128 40.5621 334.908 42.0467C334.585 42.4377 334.368 42.7103 334.253 42.8647C334.23 42.8965 334.236 42.9426 334.269 42.9657C334.284 42.9772 334.303 42.9816 334.322 42.9787C334.476 42.9542 334.617 42.8763 334.741 42.7478C336.297 41.1421 336.837 38.6923 336.632 36.4647C336.43 34.253 335.297 32.2533 333.326 31.2218C332.024 30.5422 330.569 30.6937 329.33 31.4497Z" fill="white"/>
<path d="M350.268 40.8347C350.181 40.8275 350.103 40.8924 350.096 40.9804C350.096 40.9876 350.096 40.9948 350.096 41.0035V41.0222C350.102 41.1304 350.185 41.2185 350.291 41.2286C351.074 41.3122 351.653 41.2675 352.026 41.0958C352.842 40.7193 353.15 40.0383 352.949 39.05C352.577 37.212 351.899 35.3667 351.308 33.7147C351.276 33.6282 351.183 33.5835 351.097 33.6152C351.089 33.6181 351.08 33.6224 351.072 33.6267L351.066 33.6296C350.97 33.683 350.927 33.7984 350.963 33.9023C351.665 35.9077 352.285 37.4731 352.577 39.2462C352.73 40.171 352.335 40.7121 351.392 40.8664C351.216 40.8953 350.842 40.8852 350.268 40.8347Z" fill="black"/>
<path d="M373.899 84.1443C373.919 84.1443 373.937 84.1269 373.937 84.1067C373.937 84.1024 373.937 84.0966 373.934 84.0923C371.64 78.783 369.334 73.8229 367.013 69.2119C366.19 67.5729 365.302 66.1215 364.35 64.8577C362.448 62.33 359.9 60.6448 357.006 59.4156C354.117 58.1879 351.139 57.1534 348.07 56.3123C348.045 56.3051 348.016 56.3166 348 56.3397C347.976 56.3787 347.969 56.4277 347.976 56.4869C348.042 57.0164 348.076 57.5559 348.08 58.1042C348.095 60.3015 347.227 62.0198 345.475 63.2577C342.465 65.3828 338.652 64.1738 336.033 62.0674C333.574 60.0894 331.687 57.5718 330.601 54.6171C330.571 54.5334 330.484 54.4843 330.397 54.5045C327.676 55.1105 325.002 55.7424 322.373 56.3989C318.925 57.2616 315.32 58.3422 312.151 59.9177C307.542 62.2088 304.28 65.7305 302.368 70.4829C301.785 71.9314 301.167 73.6757 300.512 75.7158C298.695 81.3756 297.106 86.7874 295.744 91.9509C295.719 92.0462 295.774 92.1428 295.868 92.1674C295.873 92.1674 295.877 92.1688 295.88 92.1702L316.502 96.1479C316.539 96.1551 316.573 96.1306 316.58 96.0945C316.58 96.0931 316.58 96.0916 316.58 96.0902C317.013 92.492 317.822 88.9371 318.57 85.248C319.225 82.022 319.741 78.8552 320.114 75.7489C320.126 75.658 320.202 75.5902 320.292 75.5902H320.338C320.381 75.5902 320.417 75.6263 320.417 75.6696C320.417 75.6696 320.417 75.671 320.417 75.6725C320.399 76.1327 320.366 76.5554 320.318 76.9378C319.758 81.4045 318.801 86.0545 317.855 90.5399C317.585 91.8225 317.353 93.2696 317.118 94.7859C317.04 95.2794 316.989 95.8146 316.963 96.3932C316.959 96.4985 316.87 96.5793 316.765 96.5749C316.757 96.5749 316.748 96.5749 316.738 96.572L314.321 96.106C314.264 96.0945 314.208 96.132 314.197 96.1912C314.197 96.1926 314.197 96.1955 314.197 96.1969C313.989 97.7277 313.684 99.244 313.283 100.744C313.267 100.805 313.303 100.867 313.363 100.884C313.369 100.886 313.376 100.887 313.382 100.887C315.191 101.068 316.582 101.205 317.552 101.298C323.113 101.842 328.819 102.395 334.671 102.958C335.243 103.012 336.028 102.717 336.682 102.49C337.863 102.083 340.341 101.094 342.704 100.429C344.19 100.012 345.668 99.8788 347.136 100.032C348.426 100.167 349.633 100.576 350.761 101.257C350.811 101.287 350.878 101.271 350.908 101.219C350.912 101.212 350.915 101.205 350.918 101.197C352.606 95.9661 354.312 90.7737 356.035 85.6187C356.237 85.0142 356.629 84.5756 357.211 84.3044C357.545 84.1486 358.139 84.0894 358.992 84.1284C359.517 84.1515 360.311 84.1529 361.372 84.1342C361.402 84.1342 361.427 84.1082 361.425 84.0793C361.425 84.0793 361.425 84.0793 361.425 84.0779C361.263 80.1883 360.91 76.2726 360.365 72.3296C360.352 72.2373 360.415 72.1507 360.509 72.1363C360.517 72.1363 360.524 72.1349 360.533 72.1349H360.595C360.643 72.1349 360.685 72.1709 360.692 72.22C360.994 74.2124 361.233 76.264 361.412 78.3776C361.417 78.418 361.493 79.3644 361.64 81.2155C361.718 82.1893 361.702 83.1012 361.739 84.0447C361.74 84.0995 361.786 84.1443 361.841 84.1443H373.901H373.899Z" fill="#2D69FC"/>
<path d="M393.883 84.0116C393.855 84.0621 393.872 84.127 393.922 84.1559C393.938 84.1645 393.956 84.1703 393.975 84.1688H398.745C398.914 84.1688 399.079 84.1097 399.209 84.0029C400.465 82.9771 401.687 81.8172 402.872 80.523C403.535 79.7988 404.178 78.7788 403.567 77.8626C403.339 77.5207 403.009 77.3086 402.581 77.2278C401.686 77.0561 400.925 77.4168 400.183 77.9376C398.585 79.0601 397.371 80.1854 395.631 81.8085C394.906 82.4852 394.323 83.2195 393.883 84.0116Z" fill="white"/>
<path d="M399.366 84.3682C399.346 84.3855 399.343 84.4158 399.36 84.4345C399.365 84.4389 399.369 84.4432 399.373 84.4461C400.394 85.0607 400.273 86.1456 399.963 87.1613C399.443 88.8623 398.935 90.5229 398.438 92.1445C398.425 92.1821 398.445 92.221 398.482 92.234C398.495 92.2383 398.509 92.2383 398.522 92.234C399.217 92.0508 399.907 91.2544 400.343 90.6686C401.377 89.2764 402.241 87.7427 402.934 86.0648C403.148 85.5483 403.328 84.9582 403.473 84.2931C403.787 82.8533 402.579 82.7465 401.568 82.7537C401.354 82.7537 401.172 82.8201 401.022 82.9499C400.495 83.4044 399.943 83.8762 399.366 84.3667V84.3682Z" fill="white"/>
<path d="M403.899 84.0506C403.774 84.4546 403.682 85.1327 403.479 85.6723C402.68 87.7945 401.587 89.7264 400.202 91.4692C400.108 91.5875 400.07 91.7693 400.087 92.0131C400.131 92.6465 400.313 93.2755 400.945 93.4371C401.595 93.6016 402.257 93.0245 402.643 92.5181C403.655 91.1821 404.516 89.7769 405.225 88.3038C405.619 87.4872 406.249 86.0387 405.846 85.0981C405.513 84.3233 404.907 83.9424 404.026 83.9554C403.968 83.9554 403.916 83.9944 403.899 84.0506Z" fill="white"/>
<path d="M348.649 115.707C358.101 115.709 371.036 115.709 387.455 115.707C388.658 115.707 389.367 115.668 389.582 115.592C390.26 115.352 390.734 114.839 391.003 114.051C391.646 112.174 392.411 109.805 393.301 106.944C394.152 104.207 394.901 101.831 395.55 99.8167C396.77 96.0281 398.224 91.6796 399.456 87.5087C399.736 86.5622 400.225 85.3359 399.077 84.7098C398.88 84.603 398.518 84.5496 397.992 84.5496C386.275 84.5525 372.927 84.5482 357.948 84.5366C356.587 84.5352 356.243 86.1539 355.905 87.174C354.16 92.4371 352.501 97.5026 350.93 102.369C349.628 106.401 348.423 110.031 347.316 113.262C346.971 114.272 347.395 115.352 348.485 115.683C348.538 115.698 348.594 115.707 348.649 115.707ZM377.105 97.1938C378.529 98.4144 378.572 100.718 377.2 102.342C375.829 103.965 373.563 104.291 372.139 103.07C370.715 101.85 370.672 99.5455 372.044 97.9224C373.415 96.2993 375.682 95.9733 377.105 97.1938Z" fill="white"/>
<path d="M406.409 86.2795C406.373 86.2665 406.334 86.2853 406.32 86.3214C406.32 86.3228 406.319 86.3257 406.319 86.3271C406.193 86.8018 406.048 87.3731 405.836 87.8492C404.982 89.7839 403.906 91.5513 402.609 93.1513C402.557 93.2133 402.531 93.2927 402.536 93.3749C402.561 93.8986 403.041 95.5232 403.878 94.9288C405.34 93.89 406.562 92.2784 407.473 90.7102C408.041 89.7349 408.307 88.7798 407.917 87.6342C407.665 86.8898 407.081 86.5392 406.409 86.2795Z" fill="white"/>
<path d="M394.377 104.893C394.372 104.924 394.393 104.955 394.426 104.96C394.443 104.963 394.462 104.957 394.475 104.946C395.433 104.034 396.386 103.171 397.331 102.358C397.871 101.892 398.434 101.465 399.02 101.075C399.148 100.99 399.526 100.763 400.152 100.393C402.121 99.2283 403.487 97.5114 404.246 95.2449C404.253 95.2261 404.243 95.2059 404.224 95.1987C404.214 95.1944 404.204 95.1958 404.194 95.2002C403.707 95.4324 403.242 95.594 402.835 95.0977C402.481 94.6649 402.27 94.17 402.204 93.6117C402.2 93.5742 402.166 93.5468 402.13 93.5511C402.127 93.5511 402.124 93.5511 402.12 93.5525C402.113 93.554 401.998 93.6103 401.776 93.7185C401.12 94.0402 400.411 93.7646 400.024 93.1875C399.814 92.8716 399.792 92.5066 399.711 92.0867C399.703 92.0463 399.665 92.0204 399.625 92.029C399.612 92.0319 399.6 92.0377 399.59 92.0449C399.235 92.3479 398.85 92.5542 398.436 92.6638C398.37 92.6811 398.311 92.7201 398.271 92.7763C398.198 92.8788 398.125 93.0447 398.052 93.2741C396.94 96.7612 395.829 100.222 394.716 103.658C394.541 104.196 394.428 104.608 394.376 104.893H394.377Z" fill="white"/>
<path d="M348.553 108.004C348.583 108.032 348.629 108.03 348.656 108C348.663 107.993 348.669 107.983 348.672 107.974L349.623 105.142C349.653 105.054 349.629 104.957 349.56 104.894C348.672 104.072 347.683 103.334 346.595 102.682C346.524 102.639 346.5 102.548 346.542 102.477C346.552 102.46 346.566 102.444 346.583 102.433L346.659 102.378C346.709 102.342 346.775 102.339 346.827 102.371C347.857 102.998 348.816 103.717 349.703 104.526C349.73 104.552 349.773 104.549 349.799 104.522C349.806 104.514 349.811 104.506 349.813 104.497L350.707 101.837C350.74 101.74 350.7 101.633 350.613 101.581C346.446 99.1402 342.246 100.828 338.166 102.346C336.798 102.854 335.913 103.152 335.507 103.242C335.142 103.321 334.636 103.331 333.989 103.269C327.06 102.613 320.471 101.974 314.221 101.353C313.225 101.254 312.011 101.153 310.574 101.05C310.468 101.043 310.375 100.978 310.332 100.88V100.873C310.325 100.771 310.402 100.684 310.504 100.678C310.511 100.678 310.518 100.678 310.527 100.678L312.778 100.817C312.833 100.82 312.882 100.784 312.894 100.73C313.306 99.1041 313.618 97.5734 313.831 96.1408C313.84 96.0802 313.8 96.0239 313.74 96.0109L297.553 92.8888C297.478 92.8744 297.405 92.922 297.389 92.997C296.98 94.8163 296.677 96.0903 296.484 96.8217C295.706 99.7505 295.278 102.337 295.241 104.996C295.228 105.865 295.298 106.875 295.451 108.028C295.947 111.745 297.78 115.075 301.531 116.142C302.337 116.371 303.297 116.507 304.408 116.551C306.235 116.625 308.335 116.579 310.71 116.414C317.212 115.963 323.77 115.14 330.381 113.944C331.293 113.778 332.148 113.589 332.943 113.374C333.213 113.302 333.49 113.265 333.77 113.265C335.436 113.262 336.629 113.292 338.076 112.721C339.441 112.181 340.636 111.463 341.663 110.564C342.329 109.981 342.879 109.486 343.313 109.078C343.41 108.987 343.552 108.962 343.675 109.016C345.022 109.604 346.294 110.342 347.493 111.226C347.524 111.249 347.57 111.243 347.593 111.21C347.597 111.204 347.6 111.197 347.603 111.191L348.487 108.561C348.501 108.518 348.49 108.472 348.458 108.44C347.338 107.323 346.096 106.348 344.731 105.516C344.664 105.474 344.642 105.386 344.682 105.318C344.692 105.301 344.705 105.286 344.722 105.275L344.78 105.233C344.846 105.187 344.932 105.184 345 105.226C346.195 105.957 347.38 106.883 348.553 108.004Z" fill="white"/>
<path d="M377.105 97.1941C375.681 95.9736 373.416 96.2996 372.044 97.9227C370.673 99.5458 370.716 101.85 372.138 103.07C373.562 104.291 375.827 103.965 377.199 102.342C378.57 100.719 378.527 98.4147 377.105 97.1941ZM376.815 97.4625C378.087 98.5229 378.138 100.576 376.929 102.049C375.718 103.522 373.707 103.857 372.435 102.796C371.163 101.736 371.113 99.6828 372.322 98.2098C373.532 96.7368 375.543 96.402 376.815 97.4625Z" fill="black"/>
<path d="M372.435 102.797C371.162 101.737 371.112 99.6835 372.322 98.2106C373.531 96.7377 375.543 96.403 376.816 97.463C378.088 98.523 378.138 100.576 376.929 102.049C375.719 103.522 373.707 103.857 372.435 102.797Z" fill="white"/>
<path d="M337.918 113.162C337.892 113.168 337.877 113.193 337.882 113.219C337.888 113.243 337.91 113.259 337.934 113.256H346.81C346.877 113.256 346.936 113.214 346.956 113.151L347.405 111.812C347.441 111.707 347.404 111.591 347.314 111.526C346.143 110.688 344.944 109.984 343.72 109.411C343.634 109.371 343.532 109.388 343.463 109.453C341.794 111.02 340.117 112.395 337.918 113.162Z" fill="#2E6AFD"/>
</g>
<g clip-path="url(#clip3_968_1451)">
<path d="M459.381 82.3698C459.403 82.3669 459.418 82.3467 459.416 82.3251C459.416 82.3164 459.41 82.3078 459.404 82.3006L458.615 81.5099C458.531 81.4277 458.42 81.3815 458.303 81.3801C447.942 81.3657 440.521 81.3671 436.038 81.383C434.524 81.3873 433.616 81.3455 433.313 81.2575C431.685 80.7799 430.354 79.3804 430.111 77.6722C430.038 77.1471 430 76.469 430 75.6365C430.006 65.7552 430.007 56.4985 430.003 47.8651C430.003 47.2404 430.173 46.5984 430.514 45.9376C431.349 44.3117 432.698 43.4994 434.56 43.5008C446.247 43.5081 458.141 43.5081 470.242 43.5008C471.556 43.5008 472.625 43.9337 473.449 44.8008C474.685 46.1007 474.707 47.4684 474.707 49.5229C474.714 66.9786 474.714 76.104 474.704 76.8975C474.675 79.2881 472.986 81.3253 470.531 81.3657C469.027 81.3902 467.45 81.3887 465.799 81.3613C465.773 81.3613 465.752 81.383 465.753 81.4104C465.753 81.4219 465.758 81.4335 465.765 81.4407C466.511 82.2472 467.203 83.0623 467.694 83.9756C467.756 84.091 467.876 84.1631 468.007 84.1631H486.736C486.833 84.1631 486.919 84.1054 486.958 84.0174C488.815 79.7657 490.703 75.6899 492.62 71.7873C493.586 69.8237 494.364 68.3175 494.954 67.2701C496.596 64.3528 498.716 62.0199 501.6 60.3925C502.404 59.9395 503.26 59.5196 504.167 59.1315C507.117 57.8735 510.186 56.8058 513.377 55.9301C513.452 55.9099 513.504 55.8421 513.507 55.7656L513.61 52.6291C513.612 52.5757 513.57 52.5295 513.517 52.5266C509.557 52.2929 506.958 49.8734 505.625 46.2969C504.939 44.4603 504.519 42.5544 504.365 40.5793C504.339 40.2576 504.297 39.7858 504.238 39.164C504.124 37.9564 504.172 36.7589 504.104 35.6639C504.066 35.0767 504.065 34.3856 504.1 33.5906C504.159 32.2489 504.254 30.6099 504.385 28.6738C504.43 28.0159 504.492 27.1964 504.569 26.2139C504.573 26.1634 504.543 26.1172 504.495 26.0999C504.17 25.9787 503.716 25.8676 503.323 25.6555C502.098 24.9933 501.418 23.9401 501.284 22.4959C501.098 20.4876 502.032 18.5919 503.31 17.1203C505.356 14.7672 508.214 13.2465 511.263 12.5266C515.136 11.6104 518.942 11.9394 522.756 13.1369C525.29 13.9333 527.444 15.0831 529.302 16.9558C533.124 20.8137 533.867 26.286 532.967 31.4337C532.952 31.5174 532.978 31.6025 533.038 31.6646C534.141 32.8087 534.821 34.1822 535.078 35.7836C535.433 38.0011 535.004 40.5677 533.481 42.3063C532.247 43.7158 530.791 44.4617 528.896 44.0823C528.86 44.0751 528.824 44.0996 528.817 44.1357C528.817 44.14 528.817 44.1443 528.817 44.1486C528.821 45.1903 528.789 46.5984 528.922 47.7483C529.137 49.6022 529.426 51.27 529.786 52.7503C529.947 53.4096 530.195 53.8886 530.886 54.0329C534.921 54.8798 539.706 55.9936 544.084 57.318C546.149 57.9427 548.131 58.7362 550.032 59.6971C554.356 61.8828 557.512 65.1737 559.501 69.5669C560.03 70.7355 560.579 72.2259 561.025 73.5561C562.789 78.8221 564.436 84.2338 565.967 89.7927C566.188 90.5934 566.361 91.2456 566.486 91.7462C566.597 92.1906 566.431 92.4589 565.986 92.5498C565.436 92.6623 565.065 92.7446 564.873 92.7951C564.831 92.8066 564.807 92.8484 564.817 92.8903C564.978 93.5208 565.146 94.2118 565.319 94.9635C565.709 96.6573 566.257 98.4275 566.53 99.9482C567.084 103.052 567.221 106.337 566.557 109.462C565.773 113.144 563.261 116.159 559.42 116.733C557.899 116.96 556.408 117.042 554.947 116.98C552.951 116.895 551.925 116.854 551.87 116.857C551.27 116.895 550.518 116.773 549.752 116.714C543.993 116.267 538.04 115.52 531.896 114.474C531.418 114.393 530.952 114.383 530.498 114.442C530.456 114.448 530.427 114.487 530.433 114.529C530.433 114.533 530.434 114.537 530.436 114.542C530.531 114.817 530.586 115.085 530.6 115.348C530.638 116.038 530.199 116.062 529.61 116.062C508.831 116.058 490.003 116.058 473.127 116.061C472.225 116.061 471.655 116.016 471.42 115.925C470.468 115.557 469.994 114.791 469.68 113.819C468.14 109.055 467.274 106.383 467.081 105.801C467.052 105.716 466.99 105.646 466.908 105.607C466.714 105.514 466.492 105.345 466.241 105.1C464.711 103.601 463.463 102.503 462.498 101.804C461.859 101.342 461.343 101.04 460.619 100.625C460.372 100.483 460.128 100.319 459.885 100.13C458.143 98.7853 456.971 97.0598 456.369 94.9534C456.329 94.8149 456.255 94.6894 456.153 94.5884C455.043 93.4962 454.104 92.3089 453.335 91.0263C453.007 90.478 452.698 89.849 452.616 89.1824C452.509 88.3312 452.688 87.2088 453.377 86.6172C453.69 86.3489 454.068 86.1224 454.512 85.9391C454.596 85.9045 454.658 85.8324 454.68 85.7458C454.762 85.4212 454.81 85.2337 454.821 85.1817C455 84.3781 455.671 83.7924 456.462 83.6423C456.56 83.6236 456.779 83.5961 457.121 83.5615C457.173 83.5557 457.216 83.5211 457.231 83.4721C457.447 82.7882 457.96 82.4318 458.768 82.403C459.108 82.39 459.313 82.3799 459.382 82.3698H459.381ZM519.056 12.7805C524.195 14.0775 527.469 19.0132 528.579 23.9863C529.085 26.2572 529.234 28.4083 529.023 30.4397C529.02 30.4628 529.038 30.483 529.061 30.4859C529.063 30.4859 529.066 30.4859 529.068 30.4859L530.029 30.4267C530.062 30.4238 530.089 30.3978 530.092 30.3647C530.628 24.3859 528.687 17.807 523.481 14.3733C522.307 13.5985 520.84 13.0258 519.081 12.6535C519.074 12.6521 519.065 12.6564 519.062 12.6636L519.03 12.7257C519.022 12.7444 519.03 12.769 519.049 12.7776C519.052 12.7776 519.055 12.7791 519.056 12.7805ZM504.987 25.5921C504.877 27.5253 504.769 29.1354 504.662 30.4238C504.62 30.9273 504.587 31.5189 504.563 32.1969C504.519 33.3771 504.44 34.2009 504.483 35.4922C504.557 37.6722 504.599 38.8408 504.61 38.998C504.773 41.1607 505.007 43.0118 505.596 45.0114C506.703 48.7683 508.97 51.7 513.137 52.0909C515.924 52.3535 518.684 51.4085 521.033 49.9312C521.118 49.8778 521.231 49.9023 521.284 49.986C521.294 50.0019 521.302 50.0177 521.306 50.035C521.325 50.1057 521.296 50.1995 521.219 50.3178C519.667 52.7128 516.944 54.7759 514.055 55.0817C514.007 55.0861 513.971 55.125 513.968 55.1726C513.895 56.6471 513.85 57.5243 513.834 57.8056C513.729 59.6365 514.281 61.1456 515.495 62.3344C516.452 63.2737 517.81 63.8536 519.124 63.9258C520.244 63.9878 521.232 63.8666 522.088 63.5622C526.055 62.1498 529.173 58.3626 530.659 54.5393C530.684 54.4772 530.654 54.408 530.592 54.3835C530.59 54.3835 530.589 54.3835 530.587 54.382C529.674 54.0704 529.429 53.1095 529.254 52.2684C528.924 50.6713 528.667 49.0381 528.483 47.3688C528.364 46.2752 528.431 45.0662 528.39 44.1732C528.384 44.0606 528.328 43.9553 528.235 43.8889L527.605 43.4403C527.551 43.4013 527.476 43.4085 527.43 43.4561C526.873 44.0491 526.244 44.5656 525.543 45.0056C523.554 46.2536 521.352 47.0312 518.973 47.239C518.88 47.2477 518.801 47.3068 518.766 47.3919C518.165 48.8881 516.567 49.0713 515.071 48.8534C513.71 48.6558 512.747 47.3256 513.524 46.0372C514.026 45.2033 515.075 44.9869 516.056 44.9955C517.29 45.0071 518.188 45.2985 518.769 46.3488C518.815 46.4325 518.908 46.4787 519.003 46.4686C521.561 46.1887 524.76 45.1369 526.646 43.2585C526.694 43.2123 526.694 43.1358 526.646 43.0897C524.507 40.9154 524.038 37.5409 524.912 34.7073C524.922 34.6727 524.905 34.6366 524.872 34.6222C523.302 33.9874 522.782 32.1133 522.599 30.5407C522.434 29.1297 522.293 27.7288 522.176 26.3365C522.133 25.8244 522.019 24.8245 521.59 24.6211C520.848 24.2691 519.098 24.8231 518.162 25.1174C517.175 25.4276 516.237 25.7349 515.349 26.0422C514.293 26.4072 513.476 26.6308 512.9 26.7131C510.237 27.094 507.41 26.7809 505.082 25.5401C505.051 25.5228 505.012 25.5358 504.994 25.5675C504.99 25.5762 504.987 25.5849 504.987 25.5935V25.5921ZM532.294 31.4496C531.046 30.6936 529.58 30.5421 528.268 31.2217C526.283 32.2532 525.141 34.2529 524.938 36.4646C524.732 38.6922 525.276 41.142 526.843 42.7477C526.968 42.8761 527.11 42.954 527.266 42.9786C527.304 42.9843 527.342 42.9584 527.348 42.918C527.351 42.8992 527.346 42.879 527.335 42.8646C527.219 42.7102 527 42.4375 526.675 42.0466C525.446 40.562 525.052 38.1627 525.277 36.3362C525.515 34.4015 526.41 32.888 527.964 31.793C528.605 31.3414 529.348 31.1221 530.195 31.1351C530.961 31.1452 531.649 31.2837 532.261 31.5492C532.264 31.5506 532.268 31.5492 532.271 31.5477L532.3 31.5246C532.32 31.5088 532.322 31.4799 532.306 31.4597C532.303 31.4554 532.299 31.4525 532.294 31.4496ZM457.977 80.9069C457.756 80.6226 457.548 80.3384 457.351 80.0528C456.665 79.0616 456.696 77.551 457.944 77.01C459.244 76.4459 460.407 77.0648 461.452 77.8266C462.693 78.7312 463.89 79.7397 465.043 80.8535C465.137 80.9444 465.261 80.9934 465.391 80.992C465.846 80.9877 467.365 80.9877 469.952 80.9891C470.697 80.9891 471.208 80.9415 471.483 80.8477C472.811 80.3932 473.683 79.542 474.1 78.2955C474.232 77.9002 474.297 77.2019 474.296 76.2021C474.28 67.2643 474.277 57.9023 474.29 48.1162C474.291 46.2983 473.341 44.6897 471.638 44.0823C471.222 43.9337 470.426 43.8601 469.25 43.8601C455.098 43.8673 443.596 43.8673 434.742 43.8615C432.954 43.8615 431.672 44.5742 430.899 46.0026C430.466 46.8004 430.401 47.503 430.403 48.4408C430.416 61.8857 430.416 71.1784 430.405 76.3218C430.405 76.8398 430.437 77.2914 430.504 77.6766C430.766 79.1828 431.939 80.4755 433.382 80.8751C433.655 80.9501 434.421 80.9877 435.683 80.9877C446.709 80.9862 454.128 80.9833 457.941 80.9804C457.967 80.9804 457.987 80.9588 457.986 80.9328C457.986 80.9227 457.983 80.9141 457.977 80.9069ZM487.397 84.1444H499.545C499.6 84.1444 499.646 84.0997 499.648 84.0448C499.685 83.1013 499.67 82.1895 499.747 81.2156C499.896 79.3646 499.973 78.4181 499.977 78.3777C500.157 76.2641 500.398 74.2125 500.703 72.2201C500.71 72.1711 500.752 72.135 500.801 72.135H500.863C500.957 72.135 501.033 72.2114 501.033 72.3052C501.033 72.3139 501.033 72.3225 501.032 72.3298C500.483 76.2728 500.127 80.1884 499.964 84.078C499.962 84.1069 499.986 84.1328 500.016 84.1343C500.016 84.1343 500.016 84.1343 500.017 84.1343C501.087 84.153 501.886 84.1516 502.416 84.1285C503.274 84.0896 503.873 84.1487 504.209 84.3045C504.795 84.5758 505.19 85.0144 505.394 85.6189C507.13 90.7738 508.848 95.9662 510.548 101.198C510.567 101.254 510.628 101.286 510.685 101.267C510.693 101.264 510.701 101.261 510.707 101.257C511.843 100.576 513.059 100.167 514.358 100.032C515.837 99.8789 517.326 100.012 518.823 100.429C521.203 101.094 523.7 102.083 524.889 102.49C525.548 102.717 526.339 103.013 526.915 102.958C532.81 102.395 538.558 101.843 544.16 101.299C545.137 101.205 546.538 101.068 548.361 100.887C548.423 100.882 548.469 100.825 548.463 100.763C548.463 100.758 548.462 100.75 548.46 100.745C548.056 99.2441 547.749 97.7278 547.54 96.1971C547.531 96.1379 547.476 96.0961 547.418 96.1047C547.417 96.1047 547.414 96.1047 547.413 96.1047L544.978 96.5707C544.874 96.5895 544.773 96.5217 544.755 96.4178C544.753 96.4091 544.752 96.4005 544.752 96.3918C544.726 95.8133 544.674 95.278 544.596 94.7846C544.359 93.2683 544.126 91.8212 543.853 90.5386C542.9 86.0531 541.937 81.4032 541.372 76.9364C541.323 76.5541 541.29 76.1314 541.273 75.6711C541.271 75.6279 541.306 75.5904 541.349 75.5889C541.349 75.5889 541.351 75.5889 541.352 75.5889H541.398C541.489 75.5889 541.566 75.6567 541.577 75.7476C541.954 78.8538 542.473 82.0207 543.133 85.2466C543.886 88.9357 544.701 92.4907 545.137 96.0889C545.141 96.1249 545.175 96.1509 545.212 96.1466C545.214 96.1466 545.215 96.1466 545.216 96.1466L565.99 92.1689C566.085 92.1502 566.149 92.0578 566.13 91.9612C566.13 91.9568 566.128 91.9525 566.127 91.9496C564.755 86.786 563.154 81.3743 561.323 75.7144C560.664 73.6744 560.042 71.9301 559.455 70.4816C557.528 65.7292 554.242 62.2075 549.599 59.9164C546.407 58.3409 542.775 57.2603 539.302 56.3975C536.654 55.7411 533.96 55.1092 531.219 54.5032C531.131 54.483 531.043 54.5321 531.013 54.6157C529.919 57.5705 528.019 60.0881 525.541 62.0661C522.903 64.1725 519.062 65.3815 516.03 63.2563C514.266 62.0185 513.391 60.3002 513.405 58.1029C513.41 57.5546 513.444 57.015 513.511 56.4855C513.518 56.4264 513.511 56.3773 513.486 56.3384C513.47 56.3153 513.442 56.3038 513.416 56.311C510.325 57.1521 507.325 58.1865 504.414 59.4143C501.499 60.6435 498.932 62.3287 497.016 64.8563C496.058 66.1202 495.163 67.5716 494.333 69.2105C491.996 73.8215 489.672 78.7817 487.362 84.091C487.354 84.1098 487.362 84.1314 487.382 84.1401C487.387 84.1415 487.392 84.1429 487.397 84.1429V84.1444ZM467.266 84.0117C466.823 83.2196 466.235 82.4852 465.505 81.8086C463.752 80.1855 462.53 79.0602 460.919 77.9377C460.172 77.4169 459.405 77.0562 458.504 77.2279C458.072 77.3087 457.74 77.5207 457.511 77.8627C456.895 78.7788 457.543 79.7988 458.211 80.5231C459.404 81.8172 460.635 82.9772 461.9 84.003C462.032 84.1098 462.198 84.1689 462.368 84.1689H467.173C467.231 84.1689 467.278 84.1227 467.278 84.065C467.278 84.0463 467.274 84.029 467.266 84.0117ZM461.743 84.368C461.162 83.8775 460.606 83.4057 460.075 82.9512C459.924 82.8214 459.74 82.7565 459.525 82.755C458.506 82.7478 457.29 82.8546 457.606 84.2944C457.752 84.9595 457.934 85.5496 458.149 86.0661C458.847 87.744 459.717 89.2777 460.759 90.6699C461.198 91.2557 461.893 92.0521 462.593 92.2353C462.631 92.2454 462.67 92.2223 462.68 92.1848C462.683 92.1718 462.683 92.1574 462.68 92.1444C462.179 90.5227 461.667 88.8622 461.143 87.1612C460.831 86.1455 460.709 85.0605 461.737 84.4459C461.76 84.4329 461.768 84.4041 461.755 84.381C461.752 84.3767 461.749 84.3723 461.743 84.368ZM457.048 83.9554C456.16 83.9424 455.55 84.3233 455.215 85.098C454.808 86.0387 455.443 87.4872 455.84 88.3038C456.554 89.7768 457.421 91.1821 458.442 92.5181C458.83 93.0245 459.496 93.6016 460.152 93.4371C460.788 93.2755 460.971 92.6465 461.016 92.0131C461.033 91.7693 460.994 91.5875 460.9 91.4692C459.505 89.7263 458.404 87.7945 457.599 85.6722C457.394 85.1327 457.302 84.4546 457.176 84.0506C457.159 83.9943 457.107 83.9568 457.048 83.9554ZM512.999 115.683C514.097 115.352 514.524 114.272 514.176 113.262C513.061 110.032 511.847 106.402 510.535 102.369C508.952 97.5027 507.281 92.4373 505.524 87.1741C505.183 86.1541 504.837 84.5354 503.466 84.5368C488.377 84.5483 474.931 84.5527 463.127 84.5498C462.597 84.5498 462.232 84.6032 462.035 84.7099C460.877 85.3361 461.371 86.5624 461.652 87.5089C462.893 91.6798 464.358 96.0283 465.587 99.8169C466.241 101.831 466.996 104.207 467.853 106.944C468.749 109.805 469.519 112.174 470.167 114.051C470.439 114.839 470.916 115.352 471.599 115.592C471.815 115.668 472.53 115.707 473.742 115.707C490.281 115.709 503.312 115.709 512.833 115.707C512.889 115.707 512.945 115.699 512.999 115.683ZM454.648 86.2796C453.971 86.5393 453.382 86.8899 453.128 87.6344C452.736 88.7799 453.004 89.735 453.576 90.7103C454.494 92.2786 455.724 93.8901 457.198 94.9289C458.04 95.5233 458.524 93.8988 458.55 93.3751C458.554 93.2928 458.528 93.2135 458.476 93.1514C457.169 91.5514 456.085 89.7841 455.225 87.8493C455.012 87.3732 454.866 86.8019 454.739 86.3272C454.729 86.2897 454.691 86.2681 454.654 86.2782C454.651 86.2782 454.649 86.2782 454.648 86.2796ZM466.768 104.892C466.716 104.608 466.602 104.196 466.426 103.657C465.304 100.222 464.185 96.7612 463.065 93.2741C462.991 93.0447 462.918 92.8787 462.844 92.7763C462.804 92.72 462.745 92.6811 462.678 92.6638C462.261 92.5541 461.873 92.3478 461.515 92.0448C461.483 92.0189 461.436 92.0218 461.41 92.0535C461.401 92.0636 461.397 92.0751 461.394 92.0867C461.312 92.5065 461.29 92.8715 461.078 93.1875C460.688 93.7646 459.974 94.0402 459.313 93.7184C459.089 93.6102 458.974 93.554 458.967 93.5525C458.931 93.5424 458.893 93.5655 458.883 93.6016C458.883 93.6044 458.882 93.6088 458.882 93.6117C458.815 94.17 458.603 94.6649 458.247 95.0977C457.837 95.594 457.368 95.4324 456.877 95.2001C456.86 95.1915 456.838 95.1972 456.828 95.2146C456.824 95.2232 456.823 95.2347 456.827 95.2448C457.592 97.5114 458.967 99.2283 460.951 100.393C461.582 100.763 461.962 100.99 462.091 101.075C462.681 101.465 463.248 101.892 463.792 102.358C464.745 103.171 465.704 104.034 466.67 104.946C466.694 104.967 466.732 104.966 466.753 104.942C466.765 104.929 466.771 104.91 466.768 104.892ZM512.929 108.004C514.111 106.883 515.304 105.957 516.508 105.226C516.577 105.184 516.664 105.187 516.73 105.233L516.788 105.275C516.853 105.321 516.869 105.41 516.823 105.475C516.811 105.491 516.797 105.504 516.779 105.516C515.404 106.348 514.153 107.323 513.025 108.44C512.993 108.472 512.981 108.518 512.996 108.561L513.886 111.191C513.899 111.229 513.939 111.249 513.978 111.236C513.986 111.233 513.991 111.23 513.997 111.226C515.205 110.342 516.486 109.604 517.843 109.016C517.967 108.962 518.11 108.987 518.208 109.078C518.645 109.486 519.199 109.981 519.87 110.564C520.905 111.463 522.108 112.181 523.483 112.721C524.941 113.292 526.143 113.262 527.821 113.265C528.102 113.265 528.382 113.302 528.654 113.374C529.455 113.589 530.316 113.778 531.235 113.944C537.895 115.14 544.501 115.963 551.051 116.414C553.443 116.579 555.558 116.625 557.398 116.551C558.518 116.507 559.485 116.371 560.297 116.142C564.075 115.075 565.922 111.746 566.421 108.028C566.576 106.875 566.646 105.865 566.633 104.996C566.596 102.337 566.165 99.7505 565.381 96.8218C565.186 96.0903 564.882 94.8163 564.469 92.997C564.453 92.922 564.38 92.8744 564.304 92.8888L547.999 96.0109C547.938 96.0239 547.898 96.0802 547.906 96.1408C548.121 97.5734 548.436 99.1042 548.85 100.73C548.863 100.784 548.912 100.82 548.967 100.817L551.235 100.678C551.338 100.671 551.426 100.749 551.433 100.851C551.433 100.859 551.433 100.866 551.433 100.873V100.88C551.388 100.978 551.294 101.043 551.188 101.05C549.74 101.153 548.517 101.254 547.514 101.353C541.218 101.974 534.58 102.613 527.6 103.269C526.948 103.331 526.439 103.321 526.071 103.242C525.662 103.153 524.771 102.854 523.393 102.346C519.283 100.828 515.052 99.1403 510.854 101.581C510.766 101.633 510.726 101.74 510.759 101.837L511.659 104.497C511.672 104.533 511.711 104.552 511.746 104.54C511.755 104.538 511.763 104.532 511.771 104.526C512.664 103.717 513.631 102.998 514.668 102.371C514.72 102.339 514.786 102.342 514.837 102.378L514.913 102.433C514.98 102.48 514.996 102.574 514.947 102.64C514.935 102.658 514.919 102.671 514.902 102.682C513.805 103.334 512.81 104.072 511.915 104.894C511.846 104.957 511.821 105.054 511.851 105.142L512.81 107.974C512.823 108.013 512.864 108.033 512.903 108.02C512.913 108.017 512.922 108.012 512.929 108.004ZM523.642 113.162C521.427 112.395 519.737 111.02 518.056 109.453C517.987 109.388 517.885 109.371 517.798 109.411C516.564 109.984 515.356 110.688 514.177 111.526C514.087 111.591 514.049 111.707 514.085 111.812L514.538 113.151C514.558 113.214 514.618 113.256 514.685 113.256H523.626C523.652 113.259 523.677 113.24 523.68 113.214C523.683 113.19 523.667 113.167 523.642 113.162ZM514.685 113.765C514.724 114.482 514.488 115.074 513.975 115.543C513.937 115.577 513.935 115.637 513.97 115.676C513.987 115.694 514.012 115.706 514.038 115.706C519.861 115.709 525 115.709 529.455 115.707C529.879 115.707 530.251 115.758 530.231 115.234C530.221 114.987 530.084 114.686 529.82 114.332C529.424 113.801 528.18 113.654 527.636 113.651C524.561 113.64 520.277 113.643 514.786 113.659C514.73 113.659 514.685 113.703 514.685 113.76C514.685 113.761 514.685 113.764 514.685 113.765Z" fill="black"/>
<path d="M519.056 12.7806C519.036 12.7762 519.023 12.7546 519.027 12.7329C519.027 12.7301 519.029 12.7272 519.03 12.7257L519.062 12.6637C519.065 12.6565 519.073 12.6522 519.081 12.6536C520.84 13.0258 522.307 13.5986 523.48 14.3733C528.687 17.8071 530.627 24.386 530.092 30.3647C530.089 30.3979 530.062 30.4239 530.029 30.4268L529.068 30.4859C529.045 30.4874 529.024 30.47 529.023 30.447C529.023 30.4441 529.023 30.4412 529.023 30.4397C529.234 28.4084 529.085 26.2572 528.578 23.9863C527.469 19.0132 524.195 14.0776 519.056 12.7806Z" fill="#F8F8F9"/>
<path d="M505.082 25.5387C507.41 26.7794 510.236 27.0925 512.9 26.7116C513.476 26.6294 514.293 26.4058 515.349 26.0408C516.236 25.7335 517.174 25.4261 518.161 25.116C519.098 24.8216 520.848 24.2676 521.59 24.6197C522.019 24.8231 522.133 25.8229 522.176 26.3351C522.293 27.7273 522.434 29.1282 522.599 30.5392C522.782 32.1118 523.301 33.9859 524.871 34.6208C524.905 34.6352 524.922 34.6712 524.912 34.7059C524.037 37.5394 524.506 40.914 526.646 43.0882C526.694 43.1344 526.694 43.2108 526.646 43.257C524.76 45.1355 521.561 46.1872 519.003 46.4671C518.907 46.4772 518.815 46.4311 518.769 46.3474C518.187 45.2971 517.29 45.0056 516.056 44.9941C515.075 44.9854 514.026 45.2018 513.524 46.0357C512.747 47.3241 513.71 48.6543 515.071 48.852C516.567 49.0698 518.164 48.8866 518.766 47.3905C518.801 47.3054 518.88 47.2462 518.972 47.2375C521.352 47.0298 523.554 46.2521 525.542 45.0042C526.244 44.5641 526.873 44.0476 527.43 43.4547C527.476 43.4071 527.551 43.3998 527.604 43.4388L528.235 43.8875C528.327 43.9539 528.384 44.0592 528.389 44.1717C528.431 45.0648 528.363 46.2738 528.483 47.3674C528.666 49.0366 528.923 50.6698 529.254 52.2669C529.428 53.1081 529.674 54.0689 530.587 54.3806C530.649 54.4022 530.682 54.47 530.661 54.5335C530.661 54.5349 530.661 54.5364 530.659 54.5378C529.173 58.3611 526.055 62.1483 522.088 63.5607C521.232 63.8652 520.244 63.9864 519.124 63.9243C517.809 63.8522 516.451 63.2722 515.495 62.333C514.281 61.1441 513.729 59.635 513.834 57.8042C513.85 57.5229 513.894 56.6457 513.968 55.1712C513.971 55.1236 514.007 55.0846 514.055 55.0803C516.944 54.7744 519.666 52.7113 521.219 50.3164C521.296 50.1981 521.325 50.1043 521.306 50.0336C521.281 49.9384 521.182 49.8821 521.084 49.9081C521.066 49.9124 521.049 49.9196 521.033 49.9297C518.684 51.4071 515.923 52.3521 513.137 52.0895C508.97 51.6985 506.703 48.7669 505.596 45.0099C505.007 43.0103 504.773 41.1593 504.61 38.9966C504.599 38.8393 504.557 37.6707 504.483 35.4907C504.44 34.1995 504.519 33.3757 504.563 32.1955C504.587 31.5174 504.62 30.9259 504.662 30.4224C504.769 29.134 504.877 27.5239 504.987 25.5906C504.99 25.5546 505.02 25.5271 505.056 25.53C505.065 25.53 505.075 25.5329 505.082 25.5372V25.5387ZM511.202 40.8346C510.623 40.8851 510.247 40.8952 510.069 40.8664C509.12 40.712 508.721 40.171 508.876 39.2462C509.17 37.4731 509.795 35.9077 510.502 33.9023C510.538 33.7984 510.495 33.683 510.398 33.6296L510.392 33.6267C510.313 33.582 510.212 33.6094 510.166 33.6887C510.161 33.6974 510.157 33.7061 510.154 33.7147C509.558 35.3666 508.876 37.2119 508.501 39.05C508.299 40.0383 508.609 40.7192 509.431 41.0958C509.806 41.2675 510.389 41.3122 511.179 41.2285C511.286 41.2184 511.369 41.1304 511.375 41.0222V41.0034C511.381 40.9154 511.313 40.839 511.225 40.8346C511.218 40.8346 511.211 40.8346 511.202 40.8346Z" fill="white"/>
<path d="M532.295 31.4497C532.316 31.4627 532.324 31.4916 532.311 31.5132C532.308 31.5175 532.305 31.5219 532.301 31.5247L532.272 31.5478C532.272 31.5478 532.264 31.5507 532.262 31.5493C531.65 31.2838 530.961 31.1453 530.195 31.1352C529.348 31.1222 528.605 31.3415 527.964 31.7931C526.41 32.8881 525.516 34.4016 525.277 36.3363C525.052 38.1628 525.446 40.5621 526.676 42.0467C527 42.4377 527.22 42.7103 527.335 42.8647C527.358 42.8965 527.353 42.9426 527.319 42.9657C527.303 42.9772 527.285 42.9816 527.266 42.9787C527.11 42.9542 526.969 42.8763 526.843 42.7478C525.276 41.1421 524.732 38.6923 524.938 36.4647C525.142 34.253 526.283 32.2533 528.269 31.2218C529.58 30.5422 531.047 30.6937 532.295 31.4497Z" fill="white"/>
<path d="M511.202 40.8347C511.29 40.8275 511.368 40.8924 511.376 40.9804C511.376 40.9876 511.376 40.9948 511.376 41.0035V41.0222C511.37 41.1304 511.286 41.2185 511.179 41.2286C510.39 41.3122 509.807 41.2675 509.432 41.0958C508.609 40.7193 508.299 40.0383 508.501 39.05C508.876 37.212 509.559 35.3667 510.155 33.7147C510.187 33.6282 510.28 33.5835 510.367 33.6152C510.376 33.6181 510.384 33.6224 510.393 33.6267L510.399 33.6296C510.495 33.683 510.539 33.7984 510.503 33.9023C509.796 35.9077 509.171 37.4731 508.876 39.2462C508.722 40.171 509.12 40.7121 510.07 40.8664C510.247 40.8953 510.624 40.8852 511.202 40.8347Z" fill="black"/>
<path d="M457.977 80.9071C457.991 80.9273 457.987 80.9562 457.967 80.972C457.959 80.9778 457.949 80.9807 457.941 80.9807C454.128 80.9836 446.708 80.9865 435.682 80.9879C434.421 80.9879 433.655 80.9504 433.382 80.8754C431.939 80.4757 430.766 79.183 430.503 77.6768C430.437 77.2916 430.404 76.84 430.405 76.3221C430.415 71.1787 430.415 61.886 430.402 48.4411C430.401 47.5033 430.466 46.8007 430.899 46.0028C431.672 44.5745 432.954 43.8604 434.741 43.8618C443.596 43.8676 455.098 43.8676 469.249 43.8604C470.425 43.8604 471.222 43.9339 471.638 44.0825C473.34 44.6899 474.291 46.2986 474.29 48.1164C474.277 57.9026 474.28 67.2645 474.296 76.2023C474.297 77.2022 474.232 77.9004 474.099 78.2958C473.682 79.5423 472.811 80.3935 471.483 80.848C471.208 80.9417 470.697 80.9894 469.952 80.9894C467.365 80.9879 465.845 80.9894 465.391 80.9922C465.261 80.9937 465.137 80.9446 465.043 80.8537C463.89 79.7399 462.692 78.7315 461.451 77.8269C460.407 77.0651 459.244 76.4462 457.943 77.0103C456.695 77.5513 456.665 79.0619 457.35 80.053C457.548 80.3387 457.756 80.6229 457.977 80.9071ZM443.92 50.7956C441.561 50.7913 439.212 50.7855 436.874 50.7812C436.223 50.7812 435.799 50.8461 435.6 50.9803C435.258 51.2097 435.082 51.592 435.075 52.1244C435.053 53.4734 435.055 55.9361 435.078 59.5127C435.083 60.3942 435.525 60.8342 436.404 60.8313C440.319 60.8212 442.59 60.8241 443.219 60.8386C443.879 60.853 444.317 60.6553 444.537 60.2456C444.662 60.0104 444.721 59.5141 444.711 58.7596C444.678 56.1208 444.669 54.2091 444.682 53.0218C444.687 52.7505 444.789 52.4577 444.993 52.1446C445.606 51.2155 446.026 50.5345 446.254 50.1017C446.522 49.5895 446.268 49.034 445.698 48.9172C445.144 48.8017 444.879 49.2014 444.607 49.6775C444.389 50.0613 444.16 50.4335 443.92 50.7956ZM469.74 52.9814C469.74 52.8847 469.661 52.8054 469.564 52.8054H448.753C448.656 52.8054 448.577 52.8847 448.577 52.9814V53.0535C448.577 53.1502 448.656 53.2295 448.753 53.2295H469.564C469.661 53.2295 469.74 53.1502 469.74 53.0535V52.9814ZM469.713 59.2111C469.713 59.1001 469.623 59.0106 469.512 59.0106H448.791C448.679 59.0106 448.59 59.1001 448.59 59.2111V59.24C448.59 59.3511 448.679 59.4405 448.791 59.4405H469.512C469.623 59.4405 469.713 59.3511 469.713 59.24V59.2111ZM469.769 66.8043C469.769 66.7149 469.695 66.6413 469.606 66.6413H435.303C435.213 66.6413 435.14 66.7149 435.14 66.8043V66.8678C435.14 66.9572 435.213 67.0308 435.303 67.0308H469.606C469.695 67.0308 469.769 66.9572 469.769 66.8678V66.8043ZM462.274 72.9143C462.274 72.8047 462.184 72.7152 462.075 72.7152H435.336C435.226 72.7152 435.137 72.8047 435.137 72.9143V72.949C435.137 73.0586 435.226 73.148 435.336 73.148H462.075C462.184 73.148 462.274 73.0586 462.274 72.949V72.9143Z" fill="white"/>
<path d="M444.993 52.1445C444.556 52.5758 444.332 53.1457 444.32 53.8512C444.29 55.7484 444.283 57.549 444.299 59.2514C444.303 59.6568 444.269 59.9208 444.195 60.0435C444.043 60.2988 443.824 60.4258 443.54 60.4272C440.779 60.4316 438.371 60.4316 436.315 60.4287C435.765 60.4287 435.488 60.1589 435.484 59.6222C435.466 57.5519 435.466 54.9953 435.485 51.954C435.486 51.6424 435.636 51.4043 435.934 51.2399C435.977 51.2168 436.026 51.2038 436.074 51.2038C438.525 51.211 440.896 51.2067 443.185 51.1908C443.626 51.1879 443.872 51.0566 443.921 50.7955C444.16 50.4334 444.39 50.0611 444.608 49.6774C444.879 49.2013 445.144 48.8016 445.699 48.917C446.269 49.0339 446.522 49.5894 446.254 50.1015C446.026 50.5344 445.606 51.2153 444.993 52.1445ZM442.538 55.4483C442.17 55.5969 441.815 55.6619 441.473 55.6402C441.397 55.6345 441.322 55.6705 441.276 55.734L440.326 57.0642C440.309 57.0902 440.273 57.0974 440.245 57.0786C440.24 57.0743 440.234 57.07 440.231 57.0642L438.673 54.8684C438.495 54.6173 438.185 54.4976 437.883 54.561L437.836 54.5697C437.67 54.5986 437.557 54.7573 437.586 54.9232C437.593 54.9679 437.612 55.0097 437.638 55.0473L440.059 58.4738C440.123 58.5632 440.244 58.5892 440.338 58.5329C440.446 58.468 440.576 58.3382 440.73 58.1419C440.791 58.064 441.404 57.1782 442.57 55.4858C442.577 55.4729 442.573 55.457 442.561 55.4498C442.554 55.4455 442.546 55.4455 442.538 55.4483Z" fill="#2D69FC"/>
<path d="M443.921 50.7952C443.871 51.0563 443.626 51.1876 443.185 51.1905C440.896 51.2064 438.525 51.2107 436.073 51.2035C436.026 51.2035 435.977 51.2165 435.934 51.2396C435.636 51.4041 435.486 51.6421 435.485 51.9537C435.466 54.995 435.466 57.5516 435.483 59.6219C435.488 60.1586 435.765 60.427 436.314 60.4284C438.371 60.4313 440.779 60.4313 443.54 60.427C443.824 60.427 444.043 60.2986 444.195 60.0432C444.268 59.9206 444.303 59.6565 444.299 59.2511C444.283 57.5487 444.29 55.7482 444.32 53.8509C444.332 53.1454 444.555 52.5756 444.993 52.1442C444.789 52.4573 444.687 52.7501 444.682 53.0214C444.669 54.2087 444.678 56.1204 444.711 58.7592C444.721 59.5137 444.662 60.01 444.537 60.2452C444.317 60.6549 443.879 60.8526 443.219 60.8382C442.59 60.8237 440.319 60.8208 436.404 60.8309C435.525 60.8338 435.084 60.3938 435.078 59.5123C435.055 55.9357 435.053 53.4729 435.075 52.124C435.082 51.5916 435.258 51.2093 435.6 50.9799C435.799 50.8457 436.224 50.7793 436.874 50.7808C439.212 50.7851 441.561 50.7909 443.921 50.7952Z" fill="black"/>
<path d="M469.564 52.8052H448.753C448.656 52.8052 448.577 52.884 448.577 52.9812V53.0533C448.577 53.1505 448.656 53.2293 448.753 53.2293H469.564C469.661 53.2293 469.74 53.1505 469.74 53.0533V52.9812C469.74 52.884 469.661 52.8052 469.564 52.8052Z" fill="black"/>
<path d="M487.397 84.1443C487.377 84.1443 487.359 84.1269 487.359 84.1067C487.359 84.1024 487.359 84.0966 487.362 84.0923C489.673 78.783 491.996 73.8229 494.333 69.2119C495.163 67.5729 496.058 66.1215 497.016 64.8577C498.932 62.33 501.499 60.6448 504.414 59.4156C507.325 58.1879 510.325 57.1534 513.416 56.3123C513.442 56.3051 513.47 56.3166 513.486 56.3397C513.511 56.3787 513.518 56.4277 513.511 56.4869C513.445 57.0164 513.41 57.5559 513.406 58.1042C513.391 60.3015 514.266 62.0198 516.03 63.2577C519.062 65.3828 522.903 64.1738 525.541 62.0674C528.019 60.0894 529.919 57.5718 531.013 54.6171C531.043 54.5334 531.131 54.4843 531.219 54.5045C533.96 55.1105 536.654 55.7424 539.302 56.3989C542.775 57.2616 546.407 58.3422 549.599 59.9177C554.242 62.2088 557.528 65.7305 559.455 70.4829C560.042 71.9314 560.664 73.6757 561.323 75.7158C563.154 81.3756 564.755 86.7874 566.127 91.9509C566.152 92.0462 566.097 92.1428 566.002 92.1674C565.997 92.1674 565.993 92.1688 565.99 92.1702L545.217 96.1479C545.179 96.1551 545.144 96.1306 545.137 96.0945C545.137 96.0931 545.137 96.0916 545.137 96.0902C544.701 92.492 543.886 88.9371 543.133 85.248C542.473 82.022 541.954 78.8552 541.577 75.7489C541.566 75.658 541.489 75.5902 541.398 75.5902H541.352C541.309 75.5902 541.273 75.6263 541.273 75.6696C541.273 75.6696 541.273 75.671 541.273 75.6725C541.29 76.1327 541.323 76.5554 541.372 76.9378C541.937 81.4045 542.901 86.0545 543.853 90.5399C544.126 91.8225 544.359 93.2696 544.596 94.7859C544.674 95.2794 544.726 95.8146 544.752 96.3932C544.756 96.4985 544.846 96.5793 544.951 96.5749C544.96 96.5749 544.968 96.5749 544.978 96.572L547.413 96.106C547.47 96.0945 547.527 96.132 547.538 96.1912C547.538 96.1926 547.538 96.1955 547.538 96.1969C547.748 97.7277 548.055 99.244 548.459 100.744C548.475 100.805 548.439 100.867 548.378 100.884C548.372 100.886 548.365 100.887 548.359 100.887C546.537 101.068 545.136 101.205 544.159 101.298C538.557 101.842 532.808 102.395 526.913 102.958C526.338 103.012 525.547 102.717 524.888 102.49C523.698 102.083 521.202 101.094 518.821 100.429C517.325 100.012 515.836 99.8788 514.356 100.032C513.058 100.167 511.841 100.576 510.706 101.257C510.655 101.287 510.587 101.271 510.557 101.219C510.553 101.212 510.55 101.205 510.547 101.197C508.847 95.9661 507.128 90.7737 505.393 85.6187C505.189 85.0142 504.794 84.5756 504.208 84.3044C503.872 84.1486 503.273 84.0894 502.414 84.1284C501.885 84.1515 501.085 84.1529 500.016 84.1342C499.986 84.1342 499.961 84.1082 499.963 84.0793C499.963 84.0793 499.963 84.0793 499.963 84.0779C500.126 80.1883 500.482 76.2726 501.03 72.3296C501.043 72.2373 500.98 72.1507 500.886 72.1363C500.877 72.1363 500.87 72.1349 500.862 72.1349H500.799C500.75 72.1349 500.709 72.1709 500.701 72.22C500.397 74.2124 500.156 76.264 499.976 78.3776C499.971 78.418 499.895 79.3644 499.746 81.2155C499.668 82.1893 499.684 83.1012 499.647 84.0447C499.645 84.0995 499.599 84.1443 499.544 84.1443H487.395H487.397Z" fill="#2D69FC"/>
<path d="M442.538 55.448C442.551 55.4422 442.567 55.448 442.571 55.4624C442.574 55.4696 442.574 55.4783 442.57 55.4855C441.404 57.1779 440.791 58.0637 440.73 58.1416C440.576 58.3378 440.446 58.4677 440.338 58.5326C440.244 58.5889 440.123 58.5629 440.059 58.4734L437.638 55.0469C437.541 54.9084 437.573 54.718 437.711 54.6213C437.749 54.5953 437.791 54.578 437.836 54.5694L437.883 54.5607C438.185 54.4972 438.495 54.617 438.672 54.868L440.231 57.0639C440.248 57.0899 440.284 57.0971 440.312 57.0783C440.317 57.074 440.323 57.0697 440.326 57.0639L441.276 55.7337C441.322 55.6702 441.397 55.6341 441.473 55.6399C441.815 55.6615 442.17 55.5966 442.538 55.448Z" fill="white"/>
<path d="M469.512 59.0103H448.79C448.68 59.0103 448.59 59.1 448.59 59.2108V59.2396C448.59 59.3504 448.68 59.4402 448.79 59.4402H469.512C469.623 59.4402 469.712 59.3504 469.712 59.2396V59.2108C469.712 59.1 469.623 59.0103 469.512 59.0103Z" fill="black"/>
<path d="M469.606 66.6411H435.303C435.213 66.6411 435.14 66.7141 435.14 66.8041V66.8676C435.14 66.9577 435.213 67.0307 435.303 67.0307H469.606C469.696 67.0307 469.769 66.9577 469.769 66.8676V66.8041C469.769 66.7141 469.696 66.6411 469.606 66.6411Z" fill="black"/>
<path d="M462.075 72.7148H435.336C435.226 72.7148 435.137 72.804 435.137 72.9139V72.9486C435.137 73.0585 435.226 73.1477 435.336 73.1477H462.075C462.185 73.1477 462.274 73.0585 462.274 72.9486V72.9139C462.274 72.804 462.185 72.7148 462.075 72.7148Z" fill="black"/>
<path d="M467.266 84.0116C467.295 84.0621 467.278 84.127 467.227 84.1559C467.211 84.1645 467.192 84.1703 467.174 84.1688H462.368C462.198 84.1688 462.032 84.1097 461.901 84.0029C460.635 82.9771 459.404 81.8172 458.211 80.523C457.543 79.7988 456.895 78.7788 457.511 77.8626C457.741 77.5207 458.073 77.3086 458.504 77.2278C459.406 77.0561 460.172 77.4168 460.92 77.9376C462.53 79.0601 463.752 80.1854 465.506 81.8085C466.236 82.4852 466.823 83.2195 467.266 84.0116Z" fill="white"/>
<path d="M461.743 84.3682C461.763 84.3855 461.766 84.4158 461.749 84.4345C461.744 84.4389 461.74 84.4432 461.736 84.4461C460.707 85.0607 460.829 86.1456 461.141 87.1613C461.665 88.8623 462.177 90.5229 462.678 92.1445C462.691 92.1821 462.671 92.221 462.633 92.234C462.62 92.2383 462.606 92.2383 462.593 92.234C461.893 92.0508 461.197 91.2544 460.759 90.6686C459.717 89.2764 458.847 87.7427 458.148 86.0648C457.933 85.5483 457.751 84.9582 457.606 84.2931C457.29 82.8533 458.506 82.7465 459.525 82.7537C459.74 82.7537 459.923 82.8201 460.075 82.9499C460.606 83.4044 461.161 83.8762 461.743 84.3667V84.3682Z" fill="white"/>
<path d="M457.176 84.0506C457.302 84.4546 457.394 85.1327 457.599 85.6723C458.404 87.7945 459.505 89.7264 460.9 91.4692C460.994 91.5875 461.033 91.7693 461.016 92.0131C460.971 92.6465 460.788 93.2755 460.152 93.4371C459.496 93.6016 458.83 93.0245 458.442 92.5181C457.421 91.1821 456.554 89.7769 455.84 88.3038C455.443 87.4872 454.808 86.0387 455.215 85.0981C455.55 84.3233 456.16 83.9424 457.048 83.9554C457.107 83.9554 457.159 83.9944 457.176 84.0506Z" fill="white"/>
<path d="M512.832 115.707C503.311 115.709 490.281 115.709 473.741 115.707C472.529 115.707 471.815 115.668 471.598 115.592C470.916 115.352 470.438 114.839 470.167 114.051C469.519 112.174 468.749 109.805 467.852 106.944C466.995 104.207 466.241 101.831 465.587 99.8167C464.357 96.0281 462.893 91.6796 461.652 87.5087C461.37 86.5622 460.877 85.3359 462.034 84.7098C462.232 84.603 462.597 84.5496 463.127 84.5496C474.93 84.5525 488.376 84.5482 503.466 84.5366C504.837 84.5352 505.183 86.1539 505.523 87.174C507.281 92.4371 508.952 97.5026 510.535 102.369C511.847 106.401 513.06 110.031 514.176 113.262C514.523 114.272 514.096 115.352 512.998 115.683C512.945 115.698 512.888 115.707 512.832 115.707ZM484.167 97.1938C482.733 98.4144 482.689 100.718 484.072 102.342C485.453 103.965 487.736 104.291 489.17 103.07C490.604 101.85 490.647 99.5455 489.265 97.9224C487.884 96.2993 485.601 95.9733 484.167 97.1938Z" fill="white"/>
<path d="M454.648 86.2795C454.684 86.2665 454.723 86.2853 454.738 86.3214C454.738 86.3228 454.739 86.3257 454.739 86.3271C454.866 86.8018 455.012 87.3731 455.226 87.8492C456.086 89.7839 457.169 91.5513 458.477 93.1513C458.529 93.2133 458.555 93.2927 458.55 93.3749C458.524 93.8986 458.041 95.5232 457.198 94.9288C455.725 93.89 454.494 92.2784 453.576 90.7102C453.005 89.7349 452.736 88.7798 453.129 87.6342C453.383 86.8898 453.972 86.5392 454.648 86.2795Z" fill="white"/>
<path d="M466.767 104.893C466.773 104.924 466.752 104.955 466.718 104.96C466.701 104.963 466.682 104.957 466.669 104.946C465.704 104.034 464.744 103.171 463.792 102.358C463.248 101.892 462.681 101.465 462.091 101.075C461.962 100.99 461.581 100.763 460.951 100.393C458.967 99.2283 457.591 97.5114 456.827 95.2449C456.819 95.2261 456.829 95.2059 456.848 95.1987C456.858 95.1944 456.868 95.1958 456.879 95.2002C457.369 95.4324 457.838 95.594 458.248 95.0977C458.604 94.6649 458.816 94.17 458.883 93.6117C458.887 93.5742 458.922 93.5468 458.958 93.5511C458.961 93.5511 458.964 93.5511 458.968 93.5525C458.975 93.554 459.091 93.6103 459.314 93.7185C459.975 94.0402 460.689 93.7646 461.079 93.1875C461.291 92.8716 461.313 92.5066 461.395 92.0867C461.402 92.0463 461.441 92.0204 461.482 92.029C461.495 92.0319 461.506 92.0377 461.516 92.0449C461.874 92.3479 462.262 92.5542 462.679 92.6638C462.746 92.6811 462.805 92.7201 462.845 92.7763C462.919 92.8788 462.993 93.0447 463.066 93.2741C464.186 96.7612 465.306 100.222 466.427 103.658C466.603 104.196 466.717 104.608 466.769 104.893H466.767Z" fill="white"/>
<path d="M512.929 108.004C512.899 108.032 512.852 108.03 512.825 108C512.818 107.993 512.812 107.983 512.809 107.974L511.851 105.142C511.821 105.054 511.845 104.957 511.914 104.894C512.809 104.072 513.805 103.334 514.901 102.682C514.972 102.639 514.997 102.548 514.955 102.477C514.945 102.46 514.93 102.444 514.913 102.433L514.837 102.378C514.786 102.342 514.72 102.339 514.668 102.371C513.63 102.998 512.663 103.717 511.77 104.526C511.743 104.552 511.699 104.549 511.673 104.522C511.666 104.514 511.662 104.506 511.659 104.497L510.759 101.837C510.725 101.74 510.766 101.633 510.854 101.581C515.052 99.1402 519.282 100.828 523.392 102.346C524.77 102.854 525.662 103.152 526.07 103.242C526.438 103.321 526.948 103.331 527.6 103.269C534.58 102.613 541.217 101.974 547.513 101.353C548.516 101.254 549.74 101.153 551.187 101.05C551.294 101.043 551.388 100.978 551.431 100.88V100.873C551.438 100.771 551.36 100.684 551.258 100.678C551.251 100.678 551.243 100.678 551.235 100.678L548.966 100.817C548.912 100.82 548.863 100.784 548.85 100.73C548.435 99.1041 548.121 97.5734 547.906 96.1408C547.897 96.0802 547.938 96.0239 547.998 96.0109L564.304 92.8888C564.379 92.8744 564.453 92.922 564.469 92.997C564.881 94.8163 565.186 96.0903 565.381 96.8217C566.164 99.7505 566.596 102.337 566.633 104.996C566.646 105.865 566.575 106.875 566.421 108.028C565.922 111.745 564.075 115.075 560.297 116.142C559.484 116.371 558.518 116.507 557.398 116.551C555.558 116.625 553.443 116.579 551.05 116.414C544.5 115.963 537.894 115.14 531.235 113.944C530.316 113.778 529.454 113.589 528.653 113.374C528.382 113.302 528.102 113.265 527.821 113.265C526.142 113.262 524.94 113.292 523.483 112.721C522.108 112.181 520.904 111.463 519.87 110.564C519.199 109.981 518.645 109.486 518.207 109.078C518.109 108.987 517.966 108.962 517.842 109.016C516.486 109.604 515.204 110.342 513.997 111.226C513.965 111.249 513.919 111.243 513.896 111.21C513.891 111.204 513.888 111.197 513.886 111.191L512.995 108.561C512.981 108.518 512.992 108.472 513.024 108.44C514.153 107.323 515.404 106.348 516.779 105.516C516.847 105.474 516.868 105.386 516.828 105.318C516.818 105.301 516.805 105.286 516.787 105.275L516.73 105.233C516.663 105.187 516.577 105.184 516.508 105.226C515.304 105.957 514.111 106.883 512.929 108.004Z" fill="white"/>
<path d="M484.167 97.1941C485.601 95.9736 487.883 96.2996 489.265 97.9227C490.646 99.5458 490.603 101.85 489.17 103.07C487.735 104.291 485.454 103.965 484.072 102.342C482.691 100.719 482.734 98.4147 484.167 97.1941ZM484.458 97.4625C483.177 98.5229 483.127 100.576 484.344 102.049C485.564 103.522 487.59 103.857 488.871 102.796C490.153 101.736 490.203 99.6828 488.985 98.2098C487.766 96.7368 485.74 96.402 484.458 97.4625Z" fill="black"/>
<path d="M488.872 102.797C490.154 101.737 490.205 99.6835 488.986 98.2106C487.767 96.7377 485.741 96.403 484.459 97.463C483.178 98.523 483.127 100.576 484.345 102.049C485.564 103.522 487.591 103.857 488.872 102.797Z" fill="white"/>
<path d="M523.642 113.162C523.668 113.168 523.684 113.193 523.678 113.219C523.672 113.243 523.651 113.259 523.626 113.256H514.685C514.617 113.256 514.558 113.214 514.538 113.151L514.085 111.812C514.049 111.707 514.086 111.591 514.177 111.526C515.356 110.688 516.564 109.984 517.798 109.411C517.884 109.371 517.987 109.388 518.056 109.453C519.737 111.02 521.427 112.395 523.642 113.162Z" fill="#2E6AFD"/>
</g>
<defs>
<clipPath id="clip0_968_1451">
<rect width="53" height="98" fill="white" transform="translate(12 12)"/>
</clipPath>
<clipPath id="clip1_968_1451">
<rect width="159" height="130" fill="white" transform="translate(136.754 12)"/>
</clipPath>
<clipPath id="clip2_968_1451">
<rect width="136" height="105" fill="white" transform="matrix(-1 0 0 1 430.877 12)"/>
</clipPath>
<clipPath id="clip3_968_1451">
<rect width="137" height="105" fill="white" transform="translate(430 12)"/>
</clipPath>
</defs>
</svg>
