<svg width="584" height="113" viewBox="0 0 584 113" fill="none" xmlns="http://www.w3.org/2000/svg">
<rect width="584" height="113" rx="12" fill="#E5E5EC"/>
<g clip-path="url(#clip0_494_1578)">
<path d="M328.075 76.89C325.715 83.28 322.155 88.83 317.475 93.4C312.155 98.6 305.185 102.73 296.765 105.67C296.485 105.77 296.205 105.85 295.915 105.9C295.535 105.98 295.145 106.02 294.755 106.02H294.675C294.265 106.02 293.845 105.98 293.435 105.9C293.145 105.84 292.865 105.76 292.585 105.67C284.155 102.73 277.175 98.6 271.845 93.4C267.165 88.83 263.605 83.28 261.245 76.89C256.965 65.27 257.205 52.48 257.405 42.19V42.03C257.445 41.18 257.475 40.29 257.485 39.3C257.555 34.46 261.405 30.46 266.235 30.19C276.315 29.63 284.125 26.34 290.785 19.84L290.845 19.79C291.955 18.77 293.345 18.28 294.735 18.3C296.075 18.32 297.405 18.81 298.475 19.79L298.535 19.84C305.205 26.34 313.005 29.63 323.085 30.19C327.925 30.46 331.765 34.46 331.835 39.3C331.845 40.29 331.875 41.18 331.915 42.03V42.1C332.115 52.4 332.355 65.23 328.055 76.88L328.075 76.89Z" fill="#00DD80"/>
<path d="M328.075 76.89C325.715 83.28 322.155 88.83 317.475 93.4C312.155 98.6 305.185 102.73 296.765 105.67C296.485 105.77 296.205 105.85 295.915 105.9C295.535 105.98 295.145 106.02 294.755 106.02V18.32C296.095 18.34 297.425 18.83 298.495 19.81L298.555 19.86C305.225 26.36 313.025 29.65 323.105 30.21C327.945 30.48 331.785 34.48 331.855 39.32C331.865 40.31 331.895 41.2 331.935 42.05V42.12C332.135 52.42 332.375 65.25 328.075 76.9V76.89Z" fill="#00AA63"/>
<path d="M316.535 62.18C316.535 74.21 306.765 84 294.755 84.04H294.675C282.625 84.04 272.815 74.23 272.815 62.18C272.815 50.13 282.625 40.32 294.675 40.32H294.755C306.775 40.36 316.535 50.15 316.535 62.18Z" fill="white"/>
<path d="M316.535 62.18C316.535 74.21 306.765 84 294.755 84.04V40.32C306.775 40.36 316.535 50.15 316.535 62.18Z" fill="#E1EBF0"/>
<path d="M304.595 59.03L294.755 68.88L292.625 71.01C292.125 71.51 291.465 71.76 290.805 71.76C290.145 71.76 289.485 71.51 288.985 71.01L284.415 66.43C283.405 65.42 283.405 63.8 284.415 62.79C285.415 61.78 287.045 61.78 288.055 62.79L290.815 65.55L300.965 55.4C301.975 54.39 303.605 54.39 304.605 55.4C305.615 56.41 305.615 58.04 304.605 59.04L304.595 59.03Z" fill="#B4D2D7"/>
<path d="M304.595 59.03L294.755 68.88V61.6L300.965 55.39C301.975 54.38 303.605 54.38 304.605 55.39C305.615 56.4 305.615 58.03 304.605 59.03H304.595Z" fill="#6FA5AA"/>
<path d="M130.815 68.1H126.275V62.73C126.275 60.64 124.575 58.94 122.485 58.94H122.115V54.4C122.115 46.8 115.925 40.61 108.325 40.61C100.725 40.61 94.5351 46.8 94.5351 54.4V58.94H94.1651C92.0751 58.94 90.3751 60.64 90.3751 62.73V68.1H85.8151C84.6451 68.1 83.6951 69.05 83.6951 70.22V78.55C83.6951 79.72 84.6451 80.67 85.8151 80.67H90.3551V86.05C90.3551 88.14 92.0551 89.84 94.1451 89.84H122.475C124.565 89.84 126.265 88.14 126.265 86.05V80.67H130.805C131.975 80.67 132.925 79.72 132.925 78.55V70.22C132.925 69.05 131.975 68.1 130.805 68.1H130.815ZM95.4451 54.39C95.4451 47.29 101.225 41.51 108.325 41.51C115.425 41.51 121.205 47.29 121.205 54.39V58.93H117.125V54.39C117.125 49.54 113.185 45.6 108.335 45.6C103.485 45.6 99.5451 49.54 99.5451 54.39V58.93H95.4651V54.39H95.4451ZM116.195 54.39V58.93H100.445V54.39C100.445 50.05 103.975 46.51 108.325 46.51C112.675 46.51 116.205 50.04 116.205 54.39H116.195ZM91.2751 62.72C91.2751 61.13 92.5651 59.84 94.1551 59.84H122.485C124.075 59.84 125.365 61.13 125.365 62.72V68.09H91.2751V62.72ZM125.365 86.06C125.365 87.64 124.075 88.94 122.485 88.94H94.1551C92.5651 88.94 91.2751 87.65 91.2751 86.06V80.68H125.355V86.06H125.365ZM132.025 78.56C132.025 79.23 131.485 79.77 130.815 79.77H85.8151C85.1451 79.77 84.6051 79.23 84.6051 78.56V70.23C84.6051 69.56 85.1451 69.02 85.8151 69.02H130.815C131.485 69.02 132.025 69.56 132.025 70.23V78.56Z" fill="black"/>
<path d="M92.9451 76.09C92.9551 75.93 92.8751 75.77 92.7451 75.68L90.8151 74.39L92.7451 73.1C92.8851 73.01 92.9551 72.85 92.9451 72.69C92.9351 72.53 92.8351 72.38 92.6951 72.31C92.5451 72.24 92.3751 72.25 92.2351 72.34L90.4551 73.53V71.88C90.4551 71.63 90.2451 71.42 89.9951 71.42C89.7451 71.42 89.5351 71.63 89.5351 71.88V73.52L87.7451 72.33C87.5351 72.19 87.2451 72.25 87.1051 72.46C87.0351 72.56 87.0151 72.68 87.0351 72.8C87.0551 72.92 87.1251 73.02 87.2351 73.09L89.1651 74.38L87.2351 75.67C87.1351 75.74 87.0651 75.84 87.0351 75.96C87.0151 76.08 87.0351 76.2 87.1051 76.3C87.1751 76.4 87.2751 76.47 87.3951 76.5C87.5151 76.52 87.6351 76.5 87.7351 76.43L89.5251 75.24V76.88C89.5251 77.13 89.7351 77.34 89.9851 77.34C90.2351 77.34 90.4451 77.13 90.4451 76.88V75.24L92.2351 76.43C92.3751 76.52 92.5451 76.53 92.6951 76.46C92.8451 76.39 92.9351 76.24 92.9451 76.08V76.09Z" fill="black"/>
<path d="M102.115 76.09C102.125 75.93 102.045 75.77 101.915 75.68L99.9851 74.39L101.915 73.1C102.055 73.01 102.125 72.85 102.115 72.69C102.105 72.53 102.005 72.38 101.865 72.31C101.715 72.24 101.545 72.25 101.405 72.34L99.6251 73.53V71.88C99.6251 71.63 99.4151 71.42 99.1651 71.42C98.9151 71.42 98.7051 71.63 98.7051 71.88V73.52L96.9151 72.33C96.7051 72.19 96.4151 72.25 96.2751 72.46C96.2051 72.56 96.1851 72.68 96.2051 72.8C96.2251 72.92 96.2951 73.02 96.3951 73.09L98.3251 74.38L96.3951 75.67C96.2951 75.74 96.2251 75.84 96.1951 75.96C96.1751 76.08 96.1951 76.2 96.2651 76.3C96.3351 76.4 96.4351 76.47 96.5551 76.5C96.6751 76.52 96.7951 76.5 96.8951 76.43L98.6851 75.24V76.88C98.6851 77.13 98.8951 77.34 99.1451 77.34C99.3951 77.34 99.6051 77.13 99.6051 76.88V75.24L101.395 76.43C101.535 76.52 101.705 76.53 101.855 76.46C102.005 76.39 102.095 76.24 102.105 76.08L102.115 76.09Z" fill="black"/>
<path d="M120.445 76.09C120.455 75.93 120.375 75.77 120.245 75.68L118.315 74.39L120.245 73.1C120.385 73.01 120.455 72.85 120.445 72.69C120.435 72.53 120.335 72.38 120.195 72.31C120.055 72.24 119.875 72.25 119.735 72.34L117.955 73.53V71.88C117.955 71.63 117.745 71.42 117.495 71.42C117.245 71.42 117.035 71.63 117.035 71.88V73.52L115.245 72.33C115.035 72.19 114.745 72.25 114.605 72.46C114.535 72.56 114.515 72.68 114.535 72.8C114.555 72.92 114.625 73.02 114.735 73.09L116.665 74.38L114.735 75.67C114.635 75.74 114.565 75.84 114.535 75.96C114.515 76.08 114.535 76.2 114.605 76.3C114.675 76.4 114.775 76.47 114.895 76.5C115.015 76.52 115.135 76.5 115.235 76.43L117.025 75.24V76.88C117.025 77.13 117.235 77.34 117.485 77.34C117.735 77.34 117.945 77.13 117.945 76.88V75.24L119.735 76.43C119.875 76.52 120.045 76.53 120.195 76.46C120.345 76.39 120.435 76.24 120.445 76.08V76.09Z" fill="black"/>
<path d="M111.275 76.09C111.285 75.93 111.205 75.77 111.075 75.68L109.145 74.39L111.075 73.1C111.215 73.01 111.285 72.85 111.275 72.69C111.265 72.53 111.165 72.38 111.025 72.31C110.875 72.24 110.705 72.25 110.565 72.34L108.785 73.53V71.88C108.785 71.63 108.575 71.42 108.325 71.42C108.075 71.42 107.865 71.63 107.865 71.88V73.52L106.075 72.33C105.865 72.19 105.575 72.25 105.435 72.46C105.365 72.56 105.345 72.68 105.365 72.8C105.385 72.92 105.455 73.02 105.565 73.09L107.495 74.38L105.565 75.67C105.465 75.74 105.395 75.84 105.365 75.96C105.335 76.08 105.365 76.2 105.435 76.3C105.505 76.4 105.605 76.47 105.725 76.5C105.845 76.52 105.965 76.5 106.065 76.43L107.855 75.24V76.88C107.855 77.13 108.065 77.34 108.315 77.34C108.565 77.34 108.775 77.13 108.775 76.88V75.24L110.565 76.43C110.705 76.52 110.875 76.53 111.025 76.46C111.175 76.39 111.265 76.24 111.275 76.08V76.09Z" fill="black"/>
<path d="M96.6551 62.27H94.1551C93.9051 62.27 93.6951 62.48 93.6951 62.73V65.23C93.6951 65.48 93.9051 65.69 94.1551 65.69C94.4051 65.69 94.6151 65.48 94.6151 65.23V63.19H96.6551C96.9051 63.19 97.1151 62.98 97.1151 62.73C97.1151 62.48 96.9051 62.27 96.6551 62.27Z" fill="black"/>
<path d="M129.155 76.43H124.155C123.905 76.43 123.695 76.64 123.695 76.89C123.695 77.14 123.905 77.35 124.155 77.35H129.155C129.405 77.35 129.615 77.14 129.615 76.89C129.615 76.64 129.405 76.43 129.155 76.43Z" fill="black"/>
<path d="M228.225 69.72C228.225 62.35 222.245 56.37 214.885 56.37H172.305C164.945 56.37 158.965 62.35 158.965 69.72C158.965 77.09 164.945 83.06 172.305 83.06H214.885C222.245 83.06 228.225 77.08 228.225 69.72Z" fill="#3564FF"/>
<path d="M158.225 53.53L154.005 50.14C153.165 49.47 151.935 49.59 151.245 50.41C150.555 51.24 150.675 52.45 151.515 53.13L155.725 56.52C156.565 57.19 157.805 57.07 158.485 56.24C159.175 55.42 159.055 54.2 158.215 53.52L158.225 53.53Z" fill="#3564FF"/>
<path d="M162.095 51.28C162.355 52.34 163.425 52.99 164.485 52.74C165.545 52.49 166.195 51.43 165.935 50.37L164.695 45.29C164.435 44.23 163.365 43.58 162.305 43.83C161.245 44.08 160.595 45.14 160.855 46.2L162.095 51.28Z" fill="#3564FF"/>
<path d="M153.695 60.55L148.505 60.31C147.435 60.26 146.525 61.09 146.475 62.15C146.425 63.22 147.245 64.12 148.315 64.17L153.505 64.41C154.575 64.46 155.485 63.63 155.535 62.57C155.585 61.5 154.765 60.6 153.695 60.55Z" fill="#3564FF"/>
<path d="M484.505 112.43H499.545L498.195 107.71L484.505 112.43Z" fill="white"/>
<path d="M484.505 112.43L498.195 107.71L499.545 112.43H500.295L498.775 107.14C498.745 107.04 498.685 106.96 498.595 106.92C498.505 106.87 498.405 106.87 498.305 106.9L482.265 112.43H484.495H484.505Z" fill="black"/>
<path d="M441.155 89.31C440.065 88.95 437.425 87.94 434.035 85.75C425.475 92.16 412.895 102.24 403.655 112.43H433.635C434.355 109.1 435.205 105.75 436.205 102.42C437.575 97.83 439.275 93.45 441.155 89.31Z" fill="white"/>
<path d="M474.385 112.43H476.245L476.135 111.88L474.385 112.43Z" fill="white"/>
<path d="M403.655 112.43C412.895 102.23 425.475 92.15 434.035 85.75C433.825 85.61 433.605 85.48 433.395 85.33C424.685 91.86 411.945 102.1 402.695 112.44H403.665L403.655 112.43Z" fill="black"/>
<path d="M474.385 112.43L476.135 111.88L476.245 112.43H476.985L476.765 111.34C476.745 111.24 476.685 111.15 476.595 111.1C476.505 111.05 476.395 111.04 476.305 111.07L471.985 112.44H474.395L474.385 112.43Z" fill="black"/>
<path d="M392.475 65.69C390.375 67.42 384.165 66.3 376.965 65.02C371.025 63.96 364.405 62.77 360.795 63.58C360.705 63.67 360.585 63.71 360.465 63.69C360.435 63.69 360.365 63.71 360.325 63.72L357.465 68.74C357.555 68.79 357.625 68.87 357.645 68.98C357.685 69.18 357.555 69.37 357.365 69.41C356.735 69.54 356.195 69.71 355.625 69.9C355.295 70.01 354.965 70.11 354.625 70.21C354.595 70.42 354.555 70.63 354.555 70.85C354.475 72.96 355.465 74.9 357.205 76.04C361.615 78.94 368.395 77.23 368.455 77.21C368.485 77.21 368.515 77.2 368.545 77.2C368.605 77.2 368.675 77.22 368.735 77.25C368.945 77.37 389.645 89.63 395.555 88.17C402.275 86.5 408.985 82.03 415.085 75.27L401.065 56.56C400.245 57.47 399.445 58.37 398.705 59.22C396.315 61.93 394.245 64.27 392.495 65.71L392.475 65.69Z" fill="white"/>
<path d="M360.855 63.13C360.935 63.26 360.925 63.44 360.815 63.56C360.815 63.56 360.805 63.56 360.795 63.57C364.415 62.76 371.035 63.95 376.965 65.01C384.165 66.3 390.375 67.41 392.475 65.68C394.235 64.23 396.295 61.89 398.685 59.19C399.435 58.34 400.225 57.45 401.045 56.53L400.605 55.94C399.745 56.89 398.915 57.83 398.135 58.71C395.765 61.4 393.715 63.72 392.005 65.12C390.165 66.63 383.515 65.44 377.085 64.29C370.485 63.11 363.685 61.9 360.045 63.02C360.685 62.89 360.725 62.95 360.835 63.12L360.855 63.13Z" fill="black"/>
<path d="M415.075 75.25C408.975 82.01 402.265 86.48 395.545 88.15C389.645 89.62 368.935 77.36 368.725 77.23C368.665 77.2 368.605 77.18 368.535 77.18C368.505 77.18 368.475 77.18 368.445 77.19C368.375 77.21 361.605 78.92 357.195 76.02C355.465 74.88 354.475 72.94 354.545 70.83C354.545 70.61 354.585 70.4 354.615 70.19C354.375 70.26 354.125 70.32 353.865 70.37C353.855 70.51 353.825 70.65 353.815 70.8C353.725 73.16 354.845 75.34 356.785 76.62C361.145 79.49 367.405 78.18 368.475 77.92C370.285 78.99 387.385 88.98 394.455 88.98C394.925 88.98 395.345 88.94 395.715 88.84C402.545 87.14 409.335 82.64 415.515 75.83L415.075 75.24V75.25Z" fill="black"/>
<path d="M409.355 46.86C405.195 49.88 401.535 53.84 400.665 54.81L417.455 77.22C418.055 76.71 419.545 75.41 421.275 73.54C417.405 68.32 413.575 61.32 410.735 52.05C410.715 51.99 410.715 51.93 410.735 51.87L411.395 48.9L409.375 46.86H409.355Z" fill="white"/>
<path d="M421.275 73.54C419.535 75.4 418.055 76.71 417.455 77.22L400.665 54.81C401.535 53.84 405.195 49.88 409.355 46.86L408.825 46.33C404.135 49.75 400.175 54.26 399.915 54.55C399.805 54.68 399.795 54.87 399.895 55.01L400.595 55.95L401.035 56.54L415.055 75.25L415.495 75.84L417.085 77.96C417.145 78.04 417.235 78.09 417.325 78.1C417.345 78.1 417.355 78.1 417.375 78.1C417.455 78.1 417.535 78.07 417.605 78.02C417.645 77.99 419.455 76.52 421.705 74.12C421.555 73.92 421.405 73.74 421.255 73.54H421.275Z" fill="black"/>
<path d="M358.435 64.15C353.495 65.33 348.075 66.55 346.285 66.05C345.885 65.94 345.585 65.96 345.435 66.12C345.275 66.29 345.255 66.63 345.385 67.03C345.735 68.07 346.995 69.27 349.025 69.62C352.375 70.19 353.835 69.71 355.385 69.21C355.945 69.03 356.525 68.84 357.205 68.7C357.295 68.68 357.385 68.7 357.455 68.74L360.315 63.72C359.965 63.79 359.225 63.96 358.425 64.16L358.435 64.15Z" fill="white"/>
<path d="M354.615 70.2C354.965 70.1 355.295 70 355.615 69.89C356.185 69.71 356.715 69.53 357.355 69.4C357.555 69.36 357.675 69.17 357.635 68.97C357.615 68.86 357.545 68.78 357.455 68.73C357.385 68.69 357.295 68.67 357.205 68.69C356.525 68.83 355.945 69.02 355.385 69.2C353.835 69.7 352.375 70.18 349.025 69.61C346.985 69.27 345.725 68.06 345.385 67.02C345.255 66.63 345.275 66.28 345.435 66.11C345.585 65.95 345.885 65.93 346.285 66.04C348.075 66.54 353.495 65.32 358.435 64.14C359.235 63.95 359.975 63.77 360.325 63.7C360.375 63.7 360.435 63.68 360.465 63.67C360.585 63.69 360.705 63.65 360.795 63.56C360.795 63.56 360.805 63.56 360.815 63.55C360.915 63.43 360.935 63.25 360.855 63.12C360.755 62.95 360.715 62.89 360.065 63.02C359.705 63.09 359.145 63.23 358.265 63.44C355.015 64.22 348.235 65.84 346.485 65.35C345.585 65.1 345.115 65.41 344.915 65.62C344.555 65.99 344.485 66.59 344.705 67.26C345.115 68.51 346.585 69.94 348.915 70.33C350.035 70.52 350.955 70.59 351.745 70.59C352.575 70.59 353.255 70.51 353.865 70.38C354.125 70.33 354.375 70.26 354.615 70.2Z" fill="black"/>
<path d="M481.005 75.57C481.235 62.02 473.395 54.23 470.265 51.67L464.535 59.33C465.505 60.81 466.335 62.31 466.985 63.83C469.385 69.42 466.115 80.36 463.235 90.01C462.135 93.69 461.095 97.2 460.385 100.25C460.455 100.2 460.525 100.16 460.595 100.12C461.065 99.89 461.815 99.85 462.685 100.95C463.185 101.58 463.285 102.9 462.935 104.16C462.665 105.11 461.905 106.83 459.825 107.58C459.185 107.81 458.445 107.94 457.635 107.94C454.475 107.94 450.235 106.06 446.515 101.38C444.215 98.48 444.545 91.95 444.935 85.52L442.075 89.34C442.025 89.41 441.945 89.45 441.855 89.47C439.965 93.61 438.265 98.01 436.885 102.62C435.905 105.89 435.075 109.17 434.365 112.43H470.925C472.165 108.18 473.635 104.8 475.085 101.49C478.005 94.8 480.765 88.49 480.985 75.58L481.005 75.57Z" fill="white"/>
<path d="M470.265 51.67C473.385 54.23 481.225 62.02 481.005 75.57C480.785 88.48 478.025 94.79 475.105 101.48C473.655 104.8 472.185 108.18 470.945 112.42H471.705C472.925 108.3 474.355 105 475.775 101.77C478.725 95.02 481.515 88.64 481.735 75.58C481.965 61.7 473.925 53.72 470.705 51.09L470.275 51.67H470.265Z" fill="black"/>
<path d="M441.875 89.47C441.875 89.47 441.825 89.49 441.805 89.49C441.775 89.49 441.745 89.49 441.715 89.48C441.675 89.47 441.485 89.42 441.165 89.31C439.285 93.44 437.595 97.82 436.215 102.42C435.215 105.76 434.375 109.11 433.645 112.43H434.385C435.095 109.17 435.925 105.89 436.905 102.62C438.285 98.01 439.985 93.61 441.875 89.47Z" fill="black"/>
<path d="M406.445 39.16C406.175 40.13 405.795 41 405.315 41.75L411.565 48.06L413.815 37.89L408.525 36.27C408.385 37.65 407.565 38.79 406.445 39.16Z" fill="white"/>
<path d="M409.355 46.86L411.375 48.9L411.565 48.06L405.315 41.75C405.185 41.96 405.035 42.16 404.895 42.35L408.835 46.32L409.365 46.85L409.355 46.86Z" fill="black"/>
<path d="M408.545 36.12C408.545 36.12 408.535 36.12 408.525 36.12C408.525 36.17 408.525 36.22 408.525 36.27L413.815 37.89L413.975 37.18L408.985 35.66C408.855 35.82 408.715 35.98 408.545 36.12Z" fill="black"/>
<path d="M394.905 40.78L395.095 39.34C394.885 38.79 394.715 38.22 394.585 37.62L394.135 41.07C394.125 41.17 394.155 41.27 394.215 41.35C394.275 41.43 394.375 41.48 394.475 41.48L396.275 41.61C396.105 41.37 395.945 41.12 395.795 40.85L394.915 40.79L394.905 40.78Z" fill="black"/>
<path d="M402.665 35.99C402.645 35.69 402.665 35.39 402.695 35.1C402.635 35.03 402.575 34.98 402.515 34.91C402.265 34.6 402.065 34.27 401.895 33.94C401.235 34.17 400.525 34.28 399.785 34.23C398.925 34.17 398.135 33.9 397.445 33.49C396.725 34.06 395.895 34.46 395.015 34.66C395.015 35.04 395.015 35.43 395.045 35.82C395.415 40.45 398.195 44.01 401.245 43.77C403.255 43.61 404.885 41.82 405.655 39.3C404.135 39.28 402.815 37.86 402.665 36V35.99ZM397.195 38.13C396.885 38.16 396.585 37.63 396.525 36.96C396.465 36.29 396.665 35.72 396.975 35.69C397.285 35.66 397.585 36.19 397.645 36.86C397.705 37.53 397.505 38.1 397.195 38.13Z" fill="white"/>
<path d="M405.315 41.75C405.795 41 406.175 40.13 406.445 39.16C406.265 39.22 406.075 39.26 405.885 39.27C405.815 39.27 405.755 39.27 405.685 39.27C405.685 39.27 405.665 39.27 405.655 39.27C404.885 41.79 403.255 43.58 401.245 43.74C398.195 43.98 395.415 40.42 395.045 35.79C395.015 35.4 395.005 35.01 395.015 34.63C394.775 34.68 394.535 34.72 394.285 34.74C394.285 35.1 394.285 35.47 394.325 35.84C394.375 36.44 394.465 37.03 394.585 37.59C394.715 38.19 394.885 38.77 395.095 39.31C395.295 39.84 395.535 40.35 395.795 40.81C395.945 41.08 396.105 41.33 396.275 41.57C397.505 43.35 399.175 44.46 400.965 44.46C401.085 44.46 401.195 44.46 401.315 44.45C402.715 44.34 403.945 43.55 404.895 42.33C405.045 42.14 405.185 41.94 405.315 41.73V41.75Z" fill="black"/>
<path d="M395.015 34.64C395.895 34.44 396.725 34.04 397.445 33.47C395.805 32.5 394.745 30.71 394.875 28.71C395.045 26.19 397.035 24.22 399.505 23.94C398.525 21.9 396.685 20.47 394.475 20.29C390.965 20.01 387.855 23.02 387.535 27.02C387.215 31.02 389.805 34.49 393.315 34.77C393.645 34.8 393.965 34.78 394.275 34.76C394.525 34.74 394.765 34.7 395.005 34.65L395.015 34.64Z" fill="black"/>
<path d="M396.975 35.69C396.665 35.72 396.465 36.29 396.525 36.96C396.585 37.63 396.885 38.15 397.195 38.13C397.505 38.1 397.705 37.53 397.645 36.86C397.585 36.19 397.285 35.67 396.975 35.69Z" fill="black"/>
<path d="M405.265 28.06C406.465 28.2 407.695 28.85 408.605 29.97C408.945 30.38 409.195 30.83 409.385 31.29C410.185 30.73 410.765 29.96 410.935 29.02C411.325 26.83 409.425 24.66 406.695 24.17C405.555 23.97 404.465 24.1 403.535 24.47C403.625 24.75 403.695 25.04 403.745 25.36C404.515 26.08 405.055 27.02 405.265 28.07V28.06Z" fill="black"/>
<path d="M394.885 28.71C394.745 30.71 395.805 32.51 397.455 33.47C398.145 33.88 398.935 34.16 399.795 34.21C400.535 34.26 401.245 34.15 401.905 33.92C401.435 33.01 401.255 32.03 401.355 31.13C401.065 31.24 400.765 31.3 400.455 31.25C399.015 31.03 398.145 28.91 398.515 26.52C398.675 25.5 399.045 24.6 399.515 23.92C397.045 24.2 395.055 26.17 394.885 28.69V28.71Z" fill="black"/>
<path d="M405.265 28.06C405.045 27.01 404.505 26.08 403.745 25.35C403.835 25.97 403.845 26.65 403.745 27.36C403.695 27.67 403.635 27.96 403.545 28.24C404.085 28.04 404.675 27.98 405.275 28.06H405.265Z" fill="black"/>
<path d="M398.505 26.54C398.135 28.92 399.005 31.04 400.445 31.27C400.745 31.32 401.045 31.26 401.345 31.15C401.455 30.21 401.845 29.36 402.575 28.77C402.865 28.53 403.195 28.37 403.535 28.25C403.615 27.97 403.685 27.67 403.735 27.37C403.845 26.66 403.835 25.98 403.735 25.36C403.685 25.04 403.615 24.75 403.525 24.47C403.185 23.47 402.575 22.76 401.785 22.64C400.965 22.51 400.135 23.04 399.505 23.95C399.025 24.63 398.655 25.53 398.505 26.55V26.54Z" fill="black"/>
<path d="M405.265 28.06C404.665 27.99 404.075 28.05 403.535 28.24C403.195 28.36 402.865 28.52 402.575 28.76C401.845 29.35 401.455 30.21 401.345 31.14C401.245 32.04 401.425 33.02 401.895 33.93C402.065 34.27 402.265 34.59 402.515 34.9C402.575 34.97 402.635 35.02 402.695 35.09C402.775 34.49 402.975 33.92 403.295 33.45C403.795 32.72 404.515 32.28 405.305 32.22C406.915 32.09 408.365 33.57 408.525 35.51C408.545 35.72 408.535 35.92 408.525 36.12C408.525 36.12 408.535 36.12 408.545 36.12C408.715 35.98 408.855 35.83 408.985 35.66C409.925 34.53 410.055 32.85 409.385 31.29C409.185 30.83 408.935 30.38 408.605 29.97C407.695 28.85 406.475 28.21 405.265 28.06Z" fill="black"/>
<path d="M407.805 35.57C407.685 34.02 406.585 32.84 405.365 32.94C404.785 32.99 404.265 33.31 403.885 33.86C403.495 34.43 403.315 35.16 403.375 35.92C403.495 37.47 404.605 38.64 405.815 38.55C407.035 38.45 407.925 37.11 407.805 35.57Z" fill="white"/>
<path d="M408.525 36.28C408.525 36.28 408.525 36.18 408.525 36.13C408.535 35.93 408.545 35.73 408.525 35.52C408.365 33.58 406.915 32.1 405.305 32.23C404.505 32.29 403.795 32.73 403.295 33.46C402.965 33.94 402.765 34.5 402.695 35.1C402.655 35.39 402.635 35.69 402.665 35.99C402.815 37.84 404.135 39.27 405.655 39.29C405.655 39.29 405.675 39.29 405.685 39.29C405.755 39.29 405.815 39.29 405.885 39.29C406.075 39.27 406.265 39.23 406.445 39.18C407.565 38.82 408.385 37.68 408.525 36.29V36.28ZM405.825 38.55C404.615 38.65 403.515 37.47 403.385 35.92C403.325 35.16 403.505 34.42 403.895 33.86C404.275 33.31 404.795 32.99 405.375 32.94C406.595 32.84 407.685 34.02 407.815 35.57C407.935 37.12 407.045 38.45 405.825 38.55Z" fill="black"/>
<path d="M464.115 58.69L470.125 50.66C463.305 49.12 456.715 47.54 450.595 46.01C456.345 49.8 460.965 54.11 464.115 58.69Z" fill="white"/>
<path d="M443.865 71.83C442.155 70.33 439.335 68.54 436.055 66.47C434.925 65.75 433.715 64.99 432.495 64.2L431.845 64.87C431.775 64.94 431.675 64.98 431.585 64.98C431.515 64.98 431.455 64.96 431.395 64.93C431.365 64.91 428.125 62.9 424.705 60.05C420.085 56.2 417.335 52.75 416.525 49.77C415.235 44.98 416.005 40.4 418.565 37.44C416.735 36.91 415.465 36.54 414.875 36.37L411.435 51.93C416.405 68.09 424.405 77.24 430.245 82.08C435.825 86.7 440.555 88.37 441.635 88.71L444.995 84.21C445.325 78.77 445.565 73.34 443.845 71.83H443.865Z" fill="white"/>
<path d="M434.035 85.74C437.425 87.93 440.055 88.94 441.155 89.3C441.475 89.4 441.665 89.46 441.705 89.47C441.735 89.47 441.765 89.48 441.795 89.48C441.825 89.48 441.845 89.47 441.865 89.46C441.945 89.44 442.025 89.4 442.085 89.33L444.945 85.51C444.955 85.34 444.965 85.16 444.975 84.99C444.995 84.73 445.005 84.46 445.025 84.2L441.665 88.7C440.585 88.36 435.855 86.69 430.275 82.07C424.435 77.23 416.435 68.08 411.465 51.92L414.905 36.36C415.495 36.53 416.765 36.9 418.595 37.43C418.655 37.36 418.705 37.27 418.775 37.2C418.885 37.08 419.015 36.95 419.145 36.83C416.385 36.04 414.805 35.57 414.745 35.55C414.645 35.52 414.545 35.53 414.455 35.58C414.365 35.63 414.305 35.72 414.285 35.81L413.985 37.16L413.825 37.87L411.575 48.04L411.385 48.88L410.725 51.85C410.715 51.91 410.715 51.97 410.725 52.03C413.565 61.3 417.395 68.3 421.265 73.52C421.415 73.72 421.565 73.91 421.715 74.1C424.545 77.82 427.375 80.61 429.835 82.64C431.075 83.67 432.265 84.54 433.385 85.3C433.605 85.45 433.815 85.58 434.025 85.72L434.035 85.74Z" fill="black"/>
<path d="M450.235 45.76C450.355 45.84 450.475 45.92 450.595 46C456.715 47.53 463.305 49.11 470.125 50.65L464.115 58.68C464.265 58.89 464.395 59.11 464.535 59.33L470.265 51.67L470.695 51.09L471.035 50.63C471.105 50.53 471.125 50.4 471.085 50.29C471.045 50.17 470.945 50.09 470.825 50.06C463.785 48.48 456.995 46.85 450.695 45.27L450.235 45.75V45.76Z" fill="black"/>
<path d="M444.345 71.28C446.425 73.1 446.085 78.64 445.695 85.04C445.325 91.19 444.895 98.17 447.085 100.93C451.535 106.54 456.675 107.96 459.585 106.9C461.355 106.26 462.005 104.78 462.245 103.96C462.565 102.84 462.435 101.78 462.125 101.4C461.835 101.04 461.415 100.63 461.025 100.74C460.555 100.87 460.185 101.6 459.975 102.15C459.765 103.08 459.685 103.12 459.435 103.12C459.265 103.12 459.115 103 459.085 102.84C459.065 102.74 459.135 102.38 459.285 101.94C459.325 101.75 459.385 101.51 459.445 101.22C460.145 97.88 461.315 93.95 462.555 89.79C465.405 80.26 468.625 69.45 466.335 64.1C463.555 57.62 457.735 51.44 449.735 46.27L433.025 63.64C434.205 64.4 435.365 65.14 436.455 65.83C439.755 67.92 442.595 69.72 444.355 71.26L444.345 71.28Z" fill="white"/>
<path d="M446.525 101.38C450.245 106.06 454.485 107.94 457.645 107.94C458.455 107.94 459.195 107.82 459.835 107.58C461.905 106.83 462.675 105.11 462.945 104.16C463.305 102.9 463.205 101.58 462.695 100.95C461.825 99.85 461.075 99.89 460.605 100.12C460.535 100.16 460.455 100.2 460.395 100.25C461.105 97.19 462.145 93.69 463.245 90.01C466.125 80.36 469.395 69.42 466.995 63.83C466.345 62.31 465.505 60.81 464.545 59.33C464.405 59.11 464.275 58.9 464.125 58.68C460.975 54.1 456.355 49.78 450.605 46C450.485 45.92 450.365 45.84 450.245 45.76L449.735 46.29C457.735 51.45 463.555 57.64 466.335 64.12C468.625 69.47 465.405 80.27 462.555 89.81C461.315 93.97 460.145 97.9 459.445 101.24C459.385 101.53 459.335 101.77 459.285 101.96C459.125 102.39 459.055 102.76 459.085 102.86C459.125 103.02 459.275 103.14 459.435 103.14C459.685 103.14 459.765 103.1 459.975 102.17C460.185 101.61 460.555 100.88 461.025 100.76C461.415 100.65 461.835 101.06 462.125 101.42C462.425 101.8 462.555 102.87 462.245 103.98C462.015 104.8 461.365 106.27 459.585 106.92C456.685 107.97 451.535 106.55 447.085 100.95C444.895 98.19 445.315 91.22 445.695 85.06C446.085 78.65 446.415 73.12 444.345 71.3C442.595 69.76 439.745 67.96 436.445 65.87C435.355 65.18 434.185 64.44 433.015 63.68L432.505 64.21C433.725 65 434.935 65.77 436.065 66.48C439.335 68.55 442.165 70.34 443.875 71.84C445.595 73.35 445.355 78.78 445.025 84.22C445.005 84.48 444.995 84.75 444.975 85.01C444.965 85.18 444.955 85.36 444.945 85.53C444.555 91.95 444.225 98.49 446.525 101.39V101.38Z" fill="black"/>
<path d="M419.295 37.71C416.755 40.48 415.985 44.92 417.245 49.58C418.925 55.82 429.755 63.01 431.545 64.15L451.325 43.59C449.805 42.29 442.335 36.2 434.115 34.71C432.265 34.38 430.545 34.21 428.955 34.21C424.715 34.21 421.425 35.39 419.295 37.7V37.71Z" fill="white"/>
<path d="M418.755 37.22C418.695 37.29 418.645 37.37 418.575 37.45C416.015 40.41 415.245 44.98 416.535 49.78C417.335 52.75 420.085 56.21 424.715 60.06C428.135 62.9 431.365 64.92 431.405 64.94C431.465 64.98 431.535 64.99 431.595 64.99C431.695 64.99 431.785 64.95 431.855 64.88L432.505 64.21L433.015 63.68L449.725 46.31L450.235 45.78L450.695 45.3L452.105 43.84C452.175 43.77 452.205 43.67 452.205 43.58C452.205 43.48 452.155 43.39 452.085 43.32C452.005 43.24 443.615 35.71 434.235 34.02C425.825 32.51 421.405 34.63 419.125 36.86C418.995 36.98 418.875 37.11 418.755 37.23V37.22ZM434.105 34.72C442.325 36.2 449.795 42.29 451.315 43.6L431.535 64.16C429.755 63.01 418.915 55.83 417.235 49.59C415.975 44.92 416.745 40.48 419.285 37.72C421.405 35.41 424.695 34.23 428.945 34.23C430.535 34.23 432.255 34.4 434.105 34.73V34.72Z" fill="black"/>
<path d="M469.775 23.71C469.395 26.91 470.245 30.06 472.165 32.63C473.245 32.15 474.135 31.34 474.735 30.34C473.475 28.52 472.915 26.34 473.185 24.12C473.225 23.75 473.305 23.39 473.385 23.04C472.495 22.33 471.385 21.89 470.175 21.82C470.005 22.44 469.865 23.07 469.785 23.72L469.775 23.71Z" fill="#3564FF"/>
<path d="M475.105 29.6C475.375 28.94 475.525 28.22 475.525 27.47C475.525 25.98 474.945 24.63 474.005 23.61C473.965 23.81 473.925 24 473.905 24.21C473.675 26.12 474.105 28 475.105 29.6Z" fill="#3564FF"/>
<path d="M469.855 33.13C470.415 33.13 470.955 33.05 471.465 32.89C469.525 30.2 468.665 26.94 469.065 23.62C469.135 23 469.265 22.4 469.425 21.82C466.505 22.05 464.195 24.48 464.195 27.46C464.195 30.59 466.735 33.13 469.865 33.13H469.855Z" fill="#3564FF"/>
<path d="M471.465 32.9C471.575 33.05 471.675 33.21 471.785 33.36C474.335 36.61 478.155 38.41 482.135 38.41C483.365 38.41 484.615 38.24 485.845 37.88C486.475 37.7 486.985 37.29 487.305 36.71C487.615 36.14 487.695 35.48 487.515 34.86C487.145 33.57 485.785 32.82 484.495 33.2C481.215 34.15 477.735 33.03 475.625 30.35C475.435 30.11 475.265 29.86 475.105 29.61C474.105 28.01 473.675 26.12 473.905 24.22C473.925 24.02 473.965 23.82 474.005 23.62C474.385 21.65 475.435 19.91 477.025 18.66C480.635 15.82 485.875 16.45 488.715 20.06C490.365 22.16 490.905 24.89 490.185 27.45L488.785 26.78C488.655 26.72 488.505 26.74 488.405 26.83C488.295 26.92 488.245 27.06 488.285 27.2L489.785 33.44C489.815 33.55 489.885 33.63 489.985 33.68C490.085 33.73 490.195 33.73 490.295 33.68L496.095 30.95C496.225 30.89 496.305 30.76 496.305 30.62C496.305 30.48 496.225 30.35 496.095 30.29L494.635 29.59C496.115 25.36 495.335 20.59 492.555 17.06C488.055 11.34 479.745 10.35 474.025 14.85C471.745 16.65 470.165 19.09 469.435 21.85C469.285 22.44 469.155 23.04 469.075 23.65C468.675 26.97 469.545 30.23 471.475 32.92L471.465 32.9ZM474.445 15.39C476.725 13.6 479.445 12.73 482.145 12.73C485.845 12.73 489.505 14.36 491.965 17.49C494.655 20.91 495.365 25.56 493.825 29.63C493.755 29.81 493.835 30 494.005 30.09L495.075 30.6L490.365 32.82L489.145 27.76L490.245 28.29C490.335 28.34 490.445 28.34 490.545 28.29C490.645 28.25 490.715 28.17 490.745 28.07C491.705 25.17 491.155 22 489.275 19.61C486.185 15.69 480.485 15.01 476.565 18.09C474.955 19.35 473.855 21.09 473.375 23.05C473.285 23.41 473.215 23.76 473.175 24.13C472.905 26.35 473.465 28.53 474.725 30.35C474.825 30.5 474.925 30.65 475.045 30.8C477.335 33.72 481.125 34.93 484.685 33.9C485.595 33.64 486.545 34.16 486.805 35.07C486.935 35.51 486.885 35.97 486.665 36.37C486.445 36.77 486.085 37.06 485.645 37.19C480.735 38.61 475.515 36.94 472.355 32.92C472.285 32.83 472.225 32.74 472.165 32.65C470.245 30.08 469.395 26.93 469.775 23.73C469.855 23.08 469.995 22.45 470.165 21.83C470.875 19.3 472.345 17.06 474.445 15.4V15.39Z" fill="black"/>
<path d="M165.195 71.47L165.565 71C166.295 71.73 167.325 72.2 168.465 72.2C169.795 72.2 170.655 71.48 170.655 70.53C170.655 69.58 169.925 69.14 168.255 68.74C166.405 68.32 165.555 67.76 165.555 66.59C165.555 65.24 166.675 64.24 168.225 64.24C169.305 64.24 170.295 64.68 171.075 65.42L170.715 65.89C170.005 65.22 169.115 64.82 168.185 64.82C166.995 64.82 166.145 65.56 166.145 66.55C166.145 67.37 166.885 67.79 168.545 68.18C170.355 68.61 171.245 69.22 171.245 70.48C171.245 71.74 170.155 72.77 168.425 72.77C167.165 72.77 166.015 72.29 165.175 71.46L165.195 71.47Z" fill="white"/>
<path d="M177.735 71.42L178.115 71.83C177.585 72.41 176.505 72.79 175.565 72.79C173.905 72.79 172.485 71.35 172.485 69.53C172.485 67.71 173.845 66.3 175.535 66.3C177.345 66.3 178.485 67.69 178.485 69.79H173.085C173.205 71.16 174.245 72.24 175.555 72.24C176.395 72.24 177.265 71.94 177.735 71.42ZM173.085 69.24H177.895C177.815 67.84 176.935 66.85 175.545 66.85C174.255 66.85 173.215 67.86 173.085 69.24Z" fill="white"/>
<path d="M185.375 66.44V71.98C185.375 73.57 184.175 74.7 182.485 74.7C181.545 74.7 180.545 74.35 179.975 73.87L180.255 73.38C180.775 73.84 181.645 74.15 182.415 74.15C183.845 74.15 184.795 73.27 184.795 71.98V70.71C184.325 71.67 183.395 72.19 182.315 72.19C180.775 72.19 179.555 70.88 179.555 69.24C179.555 67.6 180.775 66.3 182.315 66.3C183.435 66.3 184.335 66.82 184.795 67.78V66.45H185.385L185.375 66.44ZM184.785 69.24C184.785 67.85 183.765 66.85 182.425 66.85C181.165 66.85 180.155 67.92 180.155 69.24C180.155 70.56 181.165 71.64 182.425 71.64C183.765 71.64 184.785 70.64 184.785 69.24Z" fill="white"/>
<path d="M192.225 66.44V72.64H191.635V71.57C191.315 72.3 190.535 72.78 189.595 72.78C188.245 72.78 187.285 71.82 187.285 70.46V66.43H187.875V70.38C187.875 71.46 188.615 72.23 189.685 72.23C190.755 72.23 191.645 71.44 191.645 70.4V66.44H192.235H192.225Z" fill="white"/>
<path d="M197.135 66.3V66.85C195.735 66.85 194.735 67.82 194.735 69.18V72.65H194.145V66.45H194.735V67.81C195.045 66.93 195.995 66.31 197.135 66.31V66.3Z" fill="white"/>
<path d="M203.265 68.86V72.64H202.675V71.64C202.205 72.38 201.185 72.78 200.315 72.78C199.025 72.78 198.075 71.99 198.075 70.79C198.075 69.59 199.105 68.74 200.545 68.74C201.225 68.74 201.995 68.91 202.675 69.15V68.86C202.675 67.89 202.205 66.83 200.775 66.83C200.155 66.83 199.475 67.06 198.905 67.38L198.665 66.89C199.425 66.48 200.205 66.29 200.835 66.29C202.385 66.29 203.255 67.36 203.255 68.86H203.265ZM202.675 70.7V69.66C202.065 69.46 201.335 69.29 200.625 69.29C199.475 69.29 198.645 69.91 198.645 70.79C198.645 71.67 199.415 72.24 200.395 72.24C201.295 72.24 202.435 71.74 202.675 70.7Z" fill="white"/>
<path d="M210.055 68.61V72.64H209.465V68.69C209.465 67.61 208.725 66.84 207.655 66.84C206.585 66.84 205.695 67.63 205.695 68.67V72.63H205.105V66.43H205.695V67.5C206.015 66.77 206.795 66.29 207.735 66.29C209.085 66.29 210.045 67.25 210.045 68.61H210.055Z" fill="white"/>
<path d="M214.835 72.79L214.665 73.2C214.665 73.2 214.775 73.19 214.825 73.19C215.305 73.19 215.625 73.51 215.625 73.97C215.625 74.52 215.125 74.95 214.495 74.95C214.145 74.95 213.775 74.82 213.495 74.61L213.685 74.18C213.925 74.37 214.205 74.47 214.475 74.47C214.835 74.47 215.125 74.23 215.125 73.94C215.125 73.7 214.945 73.52 214.635 73.52C214.495 73.52 214.325 73.58 214.225 73.65L214.035 73.45L214.325 72.77C212.715 72.6 211.545 71.28 211.545 69.54C211.545 67.69 212.885 66.3 214.675 66.3C215.505 66.3 216.275 66.65 216.835 67.21L216.415 67.62C215.975 67.15 215.345 66.85 214.675 66.85C213.225 66.85 212.145 68 212.145 69.54C212.145 71.08 213.225 72.24 214.675 72.24C215.345 72.24 215.975 71.94 216.435 71.46L216.845 71.87C216.315 72.41 215.605 72.75 214.825 72.79H214.835Z" fill="white"/>
<path d="M223.115 68.86V72.64H222.525V71.64C222.055 72.38 221.035 72.78 220.165 72.78C218.875 72.78 217.925 71.99 217.925 70.79C217.925 69.59 218.955 68.74 220.395 68.74C221.075 68.74 221.845 68.91 222.525 69.15V68.86C222.525 67.89 222.055 66.83 220.625 66.83C220.005 66.83 219.325 67.06 218.755 67.38L218.515 66.89C219.275 66.48 220.055 66.29 220.685 66.29C222.235 66.29 223.105 67.36 223.105 68.86H223.115ZM222.525 70.7V69.66C221.915 69.46 221.185 69.29 220.475 69.29C219.325 69.29 218.495 69.91 218.495 70.79C218.495 71.67 219.265 72.24 220.245 72.24C221.145 72.24 222.285 71.74 222.525 70.7Z" fill="white"/>
</g>
<defs>
<clipPath id="clip0_494_1578">
<rect width="416.61" height="100.43" fill="white" transform="translate(83.6951 12)"/>
</clipPath>
</defs>
</svg>
