<svg width="198" height="60" viewBox="0 0 198 60" fill="none" xmlns="http://www.w3.org/2000/svg">
<g clip-path="url(#clip0_615_4558)">
<path d="M42.54 18.485C42.43 18.485 42.31 18.575 42.27 18.675C42.25 18.765 42.2 18.935 42.27 19.015C42.33 19.085 42.47 19.135 42.55 19.145C42.7 19.145 42.75 18.965 42.75 18.835C42.75 18.675 42.66 18.565 42.53 18.485H42.54ZM11.2 18.485C11.07 18.565 10.98 18.675 10.98 18.835C10.98 18.955 11.04 19.145 11.18 19.145C11.26 19.135 11.41 19.085 11.47 19.015C11.55 18.935 11.49 18.765 11.47 18.675C11.44 18.575 11.31 18.485 11.2 18.485ZM18.31 37.555C16.14 38.095 16.62 40.555 17.66 41.915C17.65 40.325 17.19 38.935 18.31 37.555ZM20.46 40.225C20.18 40.225 19.96 40.465 19.96 40.735C19.96 41.005 20.18 41.245 20.46 41.245C20.74 41.245 20.96 41.015 20.96 40.735C20.96 40.455 20.74 40.225 20.46 40.225ZM17.97 38.955C17.97 39.225 18.19 39.465 18.46 39.465C18.73 39.465 18.95 39.235 18.95 38.955C18.95 38.675 18.73 38.445 18.46 38.445C18.19 38.445 17.97 38.675 17.97 38.955ZM10.26 23.195C10.26 23.125 10.23 23.035 10.17 22.995C10.08 22.935 10.08 22.865 9.97 22.925C9.92 22.945 9.87 22.985 9.86 23.045V23.065L9.85 23.075C9.8 23.145 9.79 23.175 9.85 23.245C9.89 23.315 9.96 23.305 10.03 23.305L10.25 23.205L10.26 23.195ZM9.54 25.955V26.085L9.96 26.045C10.04 25.985 10.15 25.935 10.25 25.935C10.39 25.935 10.54 25.935 10.63 26.065C10.71 26.185 10.84 26.275 10.93 26.405C11.14 26.725 11.22 27.175 11.26 27.555L11.16 27.885L10.42 27.965L10.03 28.135L10.21 28.235C10.41 28.255 10.7 28.275 10.9 28.235C11.05 28.205 11.23 28.185 11.36 28.275L11.39 28.295V28.325C11.46 28.685 11.56 29.325 11.51 29.685L11.33 30.245L10.88 30.265L10.57 30.215L10.59 30.245C10.56 30.355 10.59 30.475 10.72 30.515C10.84 30.555 11 30.515 11.12 30.575H11.14L11.23 30.775C11.25 30.945 11.24 31.145 11.21 31.305C11.17 31.455 11.07 31.605 10.93 31.695L10.45 31.805L10.39 31.935L10.75 32.015V32.175C10.69 32.455 10.55 32.755 10.39 32.975C10.29 33.105 9.83 33.655 10.01 33.815C10.18 33.855 10.33 33.625 10.39 33.495C10.54 33.175 10.64 32.795 10.84 32.505C10.95 32.365 11.03 32.195 11.23 32.215L11.45 32.245L11.42 32.215C11.42 32.115 11.37 31.945 11.3 31.875L11.28 31.855V31.825C11.31 31.595 11.37 31.225 11.47 31.015C11.51 30.915 11.63 30.755 11.76 30.775C11.9 30.795 12.13 30.795 12.27 30.775C12.25 30.685 12.18 30.615 12.1 30.575C11.98 30.515 11.87 30.475 11.75 30.435L11.68 30.415L11.71 30.345C11.82 30.065 11.93 29.675 11.93 29.385C11.93 29.095 11.9 28.915 11.8 28.635C11.77 28.525 11.69 28.295 11.8 28.215C11.89 28.065 12.09 27.995 12.26 28.025C12.26 27.915 12.19 27.825 12.08 27.815C11.95 27.815 11.74 27.805 11.69 27.655C11.59 27.315 11.5 26.975 11.39 26.645C11.33 26.475 11.03 26.015 11.06 25.865V25.845L11.07 25.835C11.13 25.765 11.26 25.595 11.36 25.595C11.17 25.495 10.91 25.425 10.7 25.455H10.67L10.65 25.445C10.27 25.165 9.53 24.635 9.26 24.275C9.2 24.175 9.1 23.975 9.16 23.865L9.18 23.835H9.22C9.32 23.835 9.45 23.755 9.52 23.695C9.63 23.545 9.43 23.565 9.34 23.595C9.25 23.645 8.93 23.825 8.83 23.755H8.82V23.735C8.63 23.465 8.08 22.775 7.81 22.625C7.65 22.525 7.3 22.345 7.48 22.695C7.64 23.005 7.84 23.155 8.12 23.355C8.24 23.455 8.5 23.685 8.53 23.835V23.865L8.52 23.895C8.43 24.005 8.3 24.135 8.18 24.205C8.18 24.335 8.27 24.415 8.39 24.415C8.45 24.395 8.54 24.325 8.58 24.265L8.6 24.235L8.87 24.255L8.89 24.275C9.08 24.485 9.28 24.705 9.5 24.895C9.77 25.135 10 25.135 10.24 25.485V25.505L10.25 25.735V25.755C10.21 25.815 10.07 25.845 10.01 25.855C9.87 25.885 9.72 25.935 9.6 26.015L9.54 25.955ZM7.36 21.185C7.36 21.115 7.33 21.035 7.27 20.985C7.18 20.915 7.18 20.845 7.08 20.905C7.03 20.925 6.98 20.975 6.98 21.025V21.045L6.97 21.055C6.91 21.135 6.91 21.145 6.97 21.225C7.01 21.295 7.08 21.285 7.15 21.295L7.37 21.185H7.36ZM7.1 21.855C7.1 21.935 7.18 21.975 7.23 22.035C7.29 22.095 7.43 22.125 7.51 22.085C7.52 22.025 7.53 21.895 7.51 21.835C7.49 21.765 7.4 21.735 7.34 21.725V21.705L7.25 21.795L7.1 21.855ZM12.53 25.215C12.53 25.155 12.5 25.085 12.46 25.045C12.38 24.995 12.39 24.945 12.3 24.985C12.26 25.005 12.22 25.035 12.22 25.075V25.095L12.21 25.105C12.17 25.165 12.17 25.175 12.21 25.235C12.25 25.295 12.28 25.265 12.35 25.295L12.54 25.215H12.53ZM12.5 27.745L12.57 28.045L12.73 28.205V28.185C12.84 28.145 12.92 28.035 12.9 27.915C12.88 27.835 12.79 27.725 12.73 27.675C12.62 27.595 12.52 27.595 12.5 27.745ZM11.77 25.655L11.99 25.595C11.99 25.455 11.95 25.255 11.84 25.155V25.135L11.6 25.245C11.58 25.345 11.59 25.495 11.64 25.565L11.77 25.655ZM7.39 18.735V18.715L6.2 18.555L6.23 18.585C6.23 18.695 6.29 18.665 6.39 18.675C6.54 18.705 6.71 18.705 6.86 18.755C6.99 18.805 7.07 18.825 7.21 18.805C7.24 18.805 7.28 18.805 7.3 18.795L7.39 18.735ZM10.56 27.345L10.62 27.495L10.75 27.605C10.75 27.605 10.9 27.675 10.94 27.645C10.94 27.635 10.93 27.605 10.92 27.595C10.89 27.535 10.8 27.415 10.75 27.375C10.7 27.335 10.58 27.235 10.56 27.345ZM7.63 36.965C7.63 37.045 7.71 37.075 7.76 37.135C7.82 37.205 7.95 37.215 8.03 37.185C8.03 37.115 8.05 37.015 8.03 36.955C8.02 36.895 7.91 36.855 7.86 36.855L7.8 36.915L7.64 36.985L7.63 36.965ZM9.3 17.895L9.05 17.915C9.01 18.005 8.97 18.125 9 18.215L9.1 18.315H9.3C9.34 18.195 9.36 18.005 9.3 17.895ZM13.3 27.715L13.14 27.795H13.17C13.19 27.905 13.29 27.965 13.38 27.975C13.44 27.975 13.56 27.925 13.61 27.895C13.71 27.815 13.71 27.755 13.59 27.715H13.29H13.3ZM9.63 17.755L9.81 17.815C9.86 17.815 10 17.795 10 17.715C10 17.635 9.86 17.395 9.81 17.315C9.66 17.375 9.61 17.455 9.58 17.615L9.64 17.765L9.63 17.755ZM9.63 18.425L9.55 18.495L9.35 18.565H9.37C9.37 18.685 9.44 18.705 9.52 18.785C9.6 18.875 9.76 18.885 9.86 18.845C9.86 18.745 9.88 18.645 9.86 18.555C9.83 18.485 9.72 18.425 9.64 18.425H9.63ZM9.09 35.055L9.26 35.105C9.32 35.105 9.45 35.085 9.45 34.995C9.45 34.905 9.32 34.685 9.27 34.595C9.13 34.655 9.06 34.725 9.04 34.885L9.11 35.055H9.09ZM6.29 18.015L6.18 18.055H6.24C6.29 18.115 6.37 18.195 6.44 18.225C6.6 18.315 6.96 18.365 7.15 18.425C7.23 18.445 7.35 18.485 7.43 18.485L7.47 18.435L6.54 18.045L6.28 18.025L6.29 18.015ZM7.28 38.635C7.34 38.705 7.44 38.695 7.52 38.675C7.52 38.595 7.52 38.525 7.52 38.465C7.5 38.415 7.42 38.385 7.36 38.385L7.3 38.435L7.15 38.485H7.17C7.17 38.575 7.23 38.595 7.28 38.645V38.635ZM8.43 35.695C8.43 35.785 8.5 35.815 8.56 35.885C8.63 35.965 8.75 35.965 8.85 35.935C8.85 35.855 8.87 35.765 8.85 35.695C8.83 35.635 8.72 35.585 8.66 35.585L8.61 35.635H8.6L8.44 35.705L8.43 35.695ZM19.46 28.265H20.9V22.055H22.85V20.615H20.9V18.435H19.46V20.615H17.39V22.055H19.46V28.265ZM35.58 37.665C35.5 37.315 35.29 37.015 35.01 36.805L34.95 36.755L35.84 35.785L36.81 37.485L35.61 37.725L35.59 37.655L35.58 37.665ZM35.86 40.265L35.01 39.225L35.06 39.185C35.32 38.975 35.5 38.695 35.58 38.375L35.6 38.305L36.65 38.605L35.86 40.275V40.265ZM34.9 35.125L34.47 36.615L34.39 36.565C34.31 36.515 34.2 36.505 34.11 36.505C33.91 36.505 33.71 36.545 33.53 36.625L33.45 36.655L33.21 35.125H34.9ZM34.11 38.785C33.68 38.785 33.34 38.435 33.34 38.015C33.34 37.595 33.69 37.245 34.11 37.245C34.53 37.245 34.89 37.595 34.89 38.015C34.89 38.435 34.54 38.785 34.11 38.785ZM33.08 40.905L33.6 39.495H33.65C33.88 39.495 34.14 39.525 34.37 39.495H34.43L34.85 40.925L33.09 40.905H33.08ZM32.14 40.175L31.35 38.505L32.63 38.255V38.325C32.71 38.635 32.88 38.925 33.12 39.135L33.18 39.185L32.15 40.175H32.14ZM32.15 35.635L33.06 36.935L33.02 36.975C32.83 37.175 32.7 37.425 32.64 37.685L32.62 37.765L31.36 37.245L32.15 35.625V35.635ZM36.63 34.915L35.21 34.075L35.04 34.665L34.97 34.645C34.65 34.545 34.32 34.495 33.99 34.495C33.73 34.495 33.46 34.525 33.21 34.585L33.14 34.605L33.05 34.025L31.58 34.795L31.89 35.245L31.84 35.285C31.33 35.715 30.95 36.275 30.74 36.905L30.72 36.975L30.29 36.795L30.17 38.735L30.61 38.645V38.715C30.76 39.425 31.1 40.075 31.61 40.595L31.66 40.645L31.17 41.115L32.65 42.105L32.9 41.405L32.96 41.425C33.29 41.535 33.64 41.595 34 41.595C34.32 41.595 34.63 41.545 34.94 41.455L35.01 41.435L35.21 42.115L36.53 41.055L36.26 40.715L36.31 40.675C36.83 40.185 37.2 39.555 37.36 38.855L37.38 38.785L37.81 38.905L37.86 37.255L37.4 37.345V37.275C37.23 36.545 36.86 35.885 36.31 35.375L36.26 35.325L36.66 34.885L36.63 34.915ZM43.7 23.295C43.77 23.295 43.84 23.295 43.88 23.235C43.94 23.165 43.93 23.135 43.88 23.065V23.035C43.88 22.985 43.82 22.935 43.77 22.915C43.66 22.855 43.66 22.925 43.57 22.985C43.51 23.025 43.49 23.115 43.49 23.185H43.47L43.71 23.285L43.7 23.295ZM43.36 31.915L43.3 31.785L42.82 31.675C42.68 31.585 42.58 31.435 42.54 31.285C42.51 31.125 42.5 30.925 42.52 30.755L42.61 30.565H42.63C42.75 30.505 42.91 30.535 43.03 30.495C43.15 30.455 43.18 30.335 43.16 30.225L42.87 30.245L42.42 30.225L42.24 29.665C42.18 29.305 42.28 28.665 42.35 28.305V28.275L42.38 28.255C42.51 28.175 42.7 28.185 42.84 28.215C43.04 28.265 43.33 28.235 43.53 28.215L43.71 28.115L43.32 27.945L42.58 27.865L42.48 27.555C42.52 27.165 42.6 26.725 42.81 26.395C42.9 26.255 43.03 26.175 43.11 26.055C43.2 25.925 43.35 25.925 43.49 25.925C43.59 25.925 43.7 25.965 43.78 26.025L44.2 26.075V25.935V25.945C44.08 25.865 43.93 25.815 43.79 25.785C43.73 25.775 43.59 25.745 43.56 25.685V25.665V25.435V25.415C43.81 25.075 44.04 25.065 44.31 24.825C44.53 24.635 44.73 24.415 44.92 24.205L44.94 24.185L45.21 24.165L45.23 24.195C45.27 24.245 45.36 24.325 45.42 24.345C45.54 24.345 45.63 24.265 45.63 24.135C45.51 24.065 45.37 23.935 45.29 23.825L45.27 23.795V23.765C45.31 23.615 45.57 23.385 45.69 23.285C45.97 23.085 46.17 22.935 46.33 22.625C46.51 22.275 46.16 22.455 46 22.555C45.73 22.705 45.18 23.395 44.99 23.665L44.98 23.685C44.88 23.755 44.56 23.575 44.47 23.525C44.38 23.495 44.18 23.475 44.29 23.625C44.36 23.685 44.49 23.765 44.59 23.765H44.63L44.65 23.795C44.71 23.905 44.61 24.105 44.55 24.205C44.28 24.565 43.54 25.095 43.16 25.375L43.14 25.395H43.11C42.9 25.355 42.63 25.425 42.45 25.525C42.55 25.525 42.69 25.705 42.74 25.785V25.815C42.76 25.955 42.47 26.415 42.4 26.585C42.29 26.915 42.2 27.255 42.1 27.595C42.05 27.745 41.83 27.755 41.71 27.755C41.6 27.765 41.53 27.855 41.53 27.965C41.7 27.935 41.89 28.005 41.99 28.155C42.1 28.235 42.02 28.465 41.99 28.575C41.89 28.855 41.86 29.025 41.86 29.325C41.86 29.625 41.97 30.015 42.08 30.285L42.11 30.355L42.04 30.375C41.92 30.415 41.8 30.465 41.69 30.525C41.61 30.565 41.54 30.645 41.52 30.725C41.66 30.745 41.89 30.745 42.03 30.725C42.16 30.705 42.27 30.865 42.32 30.965C42.42 31.175 42.48 31.535 42.51 31.775V31.805L42.49 31.825C42.41 31.895 42.37 32.065 42.37 32.165L42.34 32.195L42.56 32.165C42.76 32.145 42.85 32.315 42.95 32.455C43.14 32.745 43.24 33.135 43.4 33.445C43.46 33.565 43.62 33.805 43.78 33.765C43.95 33.605 43.49 33.055 43.4 32.925C43.24 32.705 43.1 32.405 43.04 32.125V31.965L43.4 31.885L43.36 31.915ZM46.38 21.185L46.6 21.305C46.67 21.295 46.74 21.305 46.78 21.235C46.84 21.155 46.84 21.145 46.78 21.065V21.035C46.78 20.985 46.72 20.935 46.68 20.915C46.57 20.865 46.58 20.935 46.49 20.995C46.43 21.035 46.4 21.115 46.4 21.185H46.38ZM46.24 22.075C46.32 22.115 46.45 22.095 46.52 22.025C46.57 21.965 46.65 21.935 46.65 21.845H46.67L46.5 21.785L46.42 21.695V21.715C46.35 21.725 46.26 21.765 46.25 21.835C46.23 21.885 46.24 22.025 46.25 22.085L46.24 22.075ZM41.22 25.215L41.41 25.305C41.48 25.275 41.5 25.305 41.55 25.235C41.59 25.175 41.59 25.165 41.55 25.105V25.075C41.55 25.035 41.5 25.005 41.47 24.985C41.38 24.935 41.39 24.985 41.31 25.045C41.26 25.085 41.24 25.155 41.24 25.215H41.22ZM41.17 28.045L41.25 27.745C41.22 27.595 41.13 27.585 41.02 27.675C40.96 27.735 40.87 27.835 40.85 27.915C40.84 28.035 40.91 28.145 41.02 28.185V28.205L41.18 28.045H41.17ZM41.9 25.155C41.8 25.255 41.75 25.455 41.75 25.595L41.97 25.655L42.09 25.575C42.15 25.495 42.16 25.345 42.14 25.245H42.15L41.89 25.155H41.9ZM46.36 18.715V18.825V18.805H46.42C46.46 18.805 46.5 18.805 46.54 18.805C46.68 18.835 46.76 18.805 46.89 18.755C47.04 18.705 47.2 18.705 47.36 18.675C47.46 18.665 47.52 18.685 47.52 18.585L47.55 18.555L47.22 18.575L46.36 18.705V18.715ZM43.12 27.495L43.18 27.345C43.16 27.235 43.03 27.335 42.99 27.375C42.94 27.425 42.85 27.535 42.82 27.595C42.82 27.595 42.8 27.635 42.8 27.645C42.83 27.675 42.96 27.625 42.99 27.605L43.12 27.495ZM45.99 37.135C46.04 37.085 46.12 37.055 46.12 36.975H46.14L45.96 36.905L45.9 36.845C45.85 36.845 45.74 36.895 45.73 36.955C45.71 37.025 45.73 37.115 45.73 37.185C45.81 37.225 45.94 37.205 46 37.135H45.99ZM44.45 17.895C44.39 18.015 44.41 18.195 44.45 18.315H44.65L44.75 18.215C44.77 18.125 44.74 18.005 44.7 17.925L44.45 17.895ZM40.44 27.715H40.15C40.03 27.755 40.01 27.805 40.12 27.895C40.17 27.935 40.29 27.975 40.35 27.975C40.44 27.975 40.54 27.905 40.56 27.805H40.59L40.43 27.715H40.44ZM44.12 17.755L44.18 17.605C44.15 17.455 44.09 17.365 43.95 17.305C43.9 17.385 43.76 17.615 43.76 17.705C43.76 17.795 43.9 17.805 43.95 17.805L44.13 17.745L44.12 17.755ZM44.12 18.425C44.04 18.425 43.93 18.485 43.9 18.555C43.88 18.645 43.9 18.745 43.9 18.845C44 18.885 44.16 18.885 44.24 18.785C44.32 18.715 44.39 18.695 44.39 18.585H44.41L44.21 18.505L44.12 18.435V18.425ZM44.65 35.055L44.72 34.885C44.7 34.735 44.63 34.655 44.49 34.595C44.44 34.675 44.31 34.895 44.31 34.995C44.31 35.085 44.43 35.105 44.49 35.105L44.66 35.045L44.65 35.055ZM47.51 18.065L47.45 18.015L47.21 18.035L46.28 18.425L46.32 18.495C46.4 18.485 46.52 18.445 46.6 18.425C46.79 18.365 47.15 18.315 47.31 18.225C47.38 18.195 47.46 18.115 47.51 18.055V18.065ZM46.46 38.635C46.51 38.585 46.57 38.565 46.57 38.485H46.59L46.44 38.425L46.38 38.375C46.32 38.375 46.24 38.415 46.22 38.465C46.22 38.525 46.22 38.605 46.22 38.675C46.3 38.705 46.4 38.705 46.46 38.635ZM45.09 35.575C45.03 35.575 44.92 35.625 44.9 35.685C44.88 35.755 44.9 35.855 44.9 35.925C44.99 35.955 45.12 35.955 45.19 35.875C45.24 35.815 45.32 35.785 45.32 35.685L45.34 35.665L45.17 35.635H45.16L45.1 35.565L45.09 35.575ZM33.62 27.345L33.69 25.815H34.43L34.5 27.345H33.63H33.62ZM33.76 24.135H34.35L34.41 25.465H33.71L33.77 24.135H33.76ZM36.67 28.885L36.91 28.745L34.91 25.285L34.82 25.345L34.71 23.645H33.38L32.91 28.785H33.55L33.6 27.705H34.5L34.55 28.785H35.19L34.93 25.935L36.67 28.895V28.885ZM32.58 18.225L31.69 19.115L33.75 20.285L32.58 18.225ZM36.46 22.095L34.4 20.925L35.57 22.975L36.46 22.085V22.095ZM36.46 19.105L35.57 18.215L34.4 20.265L36.46 19.095V19.105ZM32.58 22.975L33.75 20.925L31.69 22.095L32.58 22.985V22.975ZM36.82 19.975L34.54 20.605L36.82 21.235V19.985V19.975ZM31.33 19.975V21.225L33.61 20.595L31.33 19.965V19.975ZM34.07 21.055L33.44 23.335H34.69L34.06 21.055H34.07ZM34.7 17.865H33.45L34.08 20.145L34.71 17.865H34.7ZM31.78 27.105L31.3 27.705L31.87 28.245L32.35 27.645L31.78 27.105ZM31.98 26.065L31.45 26.575L31.79 27.065L32.43 26.825L31.98 26.065ZM32.72 26.295L32.91 25.705L32.59 25.485L32 25.895L32.72 26.295ZM43.06 19.055C42.96 19.135 42.76 19.285 42.63 19.285C42.46 19.285 42.15 19.185 42.06 19.035C41.98 18.885 42.01 18.675 42.08 18.525C42.16 18.365 42.47 18.305 42.63 18.305C42.73 18.305 42.83 18.335 42.92 18.385C43.16 18.555 43.22 18.775 43.08 19.035L43.07 19.055H43.06ZM10.66 19.025C10.52 18.765 10.6 18.555 10.83 18.385C10.92 18.335 11.02 18.305 11.12 18.305C11.28 18.305 11.59 18.365 11.67 18.525C11.74 18.675 11.78 18.875 11.69 19.035C11.6 19.185 11.29 19.285 11.12 19.285C10.98 19.285 10.78 19.135 10.67 19.035L10.66 19.025ZM14.44 8.20503L16.26 7.21503L18.36 11.895L18.3 11.925C17.85 12.135 17.4 12.365 16.97 12.625L16.91 12.665L14.43 8.21503L14.44 8.20503ZM18.66 6.49503L20.03 11.205L19.97 11.225C19.6 11.355 19.23 11.505 18.87 11.655L18.8 11.685L17.17 7.12503L18.66 6.48503V6.49503ZM21.83 5.95503L22.55 10.495H22.49C21.88 10.645 21.27 10.805 20.67 10.995L20.6 11.015L19.44 6.69503L21.83 5.95503ZM24.76 4.75503L25.17 10.075H25.1C24.48 10.145 23.87 10.225 23.26 10.345H23.19L22.35 5.08503L24.76 4.75503ZM27.17 5.35503L27.15 9.98503H27.08C26.66 9.98503 26.24 10.005 25.82 10.035H25.75L25.53 5.50503L27.16 5.35503H27.17ZM30.76 4.79503L30.33 10.195H30.26C29.4 10.065 28.54 9.99503 27.67 9.98503H27.6L27.74 4.59503L30.76 4.80503V4.79503ZM31.35 5.94503L33 6.34503L32.24 10.575L32.17 10.555C31.75 10.455 31.33 10.365 30.9 10.295H30.84L31.35 5.95503V5.94503ZM33.74 5.15503L35.88 6.02503L34.65 11.335L34.58 11.305C33.97 11.065 33.35 10.865 32.72 10.695L32.66 10.675L33.75 5.15503H33.74ZM37.04 6.31503L38.03 6.92503L36.03 11.935L35.96 11.905C35.61 11.735 35.25 11.575 34.89 11.425L34.82 11.395L37.03 6.30503L37.04 6.31503ZM39.5 7.86503L37.35 12.575L37.08 12.515C36.86 12.375 36.63 12.255 36.41 12.145L36.35 12.115L38.23 7.41503L39.49 7.87503L39.5 7.86503ZM6.65 51.155C6.82 51.325 6.99 51.495 7.15 51.655L7.19 51.675C8.15 52.035 9.15 52.185 10.18 52.185C10.55 52.185 10.92 52.165 11.29 52.135H11.3H11.31C11.48 52.195 11.66 52.255 11.83 52.305L11.94 52.345L11.85 52.425C11.24 52.965 10.6 53.135 9.79 53.135C9.36 53.135 8.93 53.095 8.51 53.055C7.96 53.005 7.41 52.955 6.86 52.955C5.94 52.955 5.04 53.095 4.17 53.405L3.72 53.565L4.1 53.285C4.29 53.145 4.51 53.075 4.74 53.005C5.78 52.685 6.19 52.205 6.52 51.175L6.56 51.065L6.64 51.145L6.65 51.155ZM49.01 53.625C48.14 53.315 47.24 53.175 46.32 53.175C45.77 53.175 45.22 53.225 44.67 53.275C44.24 53.315 43.82 53.355 43.39 53.355C42.58 53.355 41.94 53.195 41.33 52.645L41.24 52.565L41.35 52.525C41.52 52.465 41.7 52.415 41.87 52.355H41.88H41.89C42.26 52.385 42.63 52.405 43 52.405C44.03 52.405 45.03 52.255 46 51.895L46.04 51.875C46.21 51.715 46.38 51.545 46.54 51.365L46.62 51.285L46.66 51.395C46.99 52.425 47.4 52.905 48.44 53.225C48.66 53.295 48.88 53.365 49.07 53.505L49.46 53.785L49.01 53.625ZM29.86 54.775C27.67 55.365 25.42 55.355 23.27 54.605L23.17 54.575L23.24 54.495C23.53 54.175 23.75 53.805 23.91 53.405C24.37 52.245 24.22 50.945 23.82 49.795L23.78 49.675L23.91 49.705C25.72 50.185 27.51 50.305 29.33 49.795L29.46 49.755L29.41 49.885C28.97 51.075 28.79 52.425 29.27 53.635C29.42 54.015 29.63 54.365 29.89 54.665L29.96 54.745L29.86 54.775ZM36.95 15.005H36.84C33.94 13.105 30.61 12.115 27.15 12.115C23.69 12.115 20.4 13.085 17.52 14.945L17.47 14.975L16.45 13.965L16.52 13.915C19.03 12.245 21.87 11.195 24.87 10.845C25.77 10.765 26.67 10.745 27.57 10.785C30.09 10.895 32.67 11.565 35.04 12.405C35.98 12.825 36.88 13.325 37.74 13.895L37.8 13.935L36.96 14.995L36.95 15.005ZM33.34 15.005H20.93L21.27 14.875C23.14 14.145 25.13 13.775 27.14 13.775C29.15 13.775 31.13 14.145 33 14.875L33.34 15.005ZM22.79 47.715L22.71 47.665L22.28 47.605C19.96 47.275 17.96 46.925 16.04 45.495L15.63 45.185L16.11 45.375C17.36 45.865 18.62 46.035 19.95 46.075C22.7 46.135 24.15 46.835 26.37 48.395L26.86 48.745L27.36 48.395C29.58 46.845 31.04 46.135 33.78 46.075C34.93 46.045 36.05 45.915 37.15 45.555L37.54 45.425L37.21 45.675C35.27 47.145 33.25 47.495 30.89 47.835L30.46 47.895L30.38 47.945L30.31 48.055C30.16 48.285 30.02 48.525 29.9 48.765V48.785H29.86C27.68 49.625 25.58 49.435 23.39 48.745H23.36L23.35 48.715C23.2 48.405 23.03 48.115 22.85 47.825L22.78 47.715H22.79ZM12.3 43.495L12.37 43.525C12.73 43.695 13.09 43.895 13.44 44.105C16.19 47.145 18.23 47.825 22.18 48.355L22.31 48.375L22.33 48.405C23.14 49.745 23.82 51.575 23.21 53.115C22.79 54.185 21.83 54.805 20.74 55.095C17.67 55.045 15.64 53.615 13.3 51.845C11.36 50.375 9.5 48.975 6.95 48.975C6.74 48.975 6.54 48.975 6.33 49.005H6.23L6.25 48.925C6.4 48.275 7.32 47.525 7.81 47.085L7.86 47.045L7.89 47.005L7.91 46.945C8.25 46.105 8.78 45.455 9.33 44.745C9.79 44.155 10.24 43.575 10.68 42.975L10.71 42.935H10.76C11.29 43.085 11.8 43.265 12.3 43.495ZM18.99 40.415L18.94 40.245C18.89 40.075 18.73 39.955 18.55 39.955C18.32 39.955 18.14 40.145 18.14 40.375C18.14 40.605 18.32 40.795 18.55 40.795C18.7 40.795 18.84 40.705 18.91 40.575L18.99 40.425V40.415ZM13.62 33.725V33.435C13.58 32.835 13.67 32.585 14.04 32.115L14.13 31.995C14.13 31.995 14.16 31.955 14.18 31.935L14.2 31.915H26.24V47.015L26.13 46.945C24.11 45.655 22.6 45.075 20.19 45.005H20.12V44.945C19.86 43.075 19.74 41.175 19.82 39.285V39.155L19.93 39.235C19.98 39.275 20.05 39.305 20.12 39.305C20.3 39.305 20.44 39.155 20.44 38.985C20.44 38.815 20.3 38.665 20.12 38.665C20.06 38.665 20.01 38.685 19.96 38.705L19.85 38.775V38.645C19.89 38.245 19.92 37.845 19.97 37.445L19.99 37.215L20.09 37.415C20.57 38.355 21.05 39.285 21.53 40.225C22.06 39.145 21.54 37.755 20.78 36.915L20.7 36.825L20.82 36.805C22.15 36.555 22.78 37.885 23.06 38.945C23.26 38.435 23.6 37.875 23.47 37.315C23.26 36.355 21.67 36.425 20.93 36.485L20.64 36.505L20.89 36.355C21.95 35.695 22.69 35.355 23.98 35.575C23.42 33.095 21.29 34.565 20.3 35.805L20.12 36.035L20.18 35.745C20.48 34.345 21.37 33.515 22.34 32.535C20.7 31.795 19.96 33.885 19.56 35.065L19.52 35.195L19.44 35.085C18.86 34.245 18.05 33.485 17.49 34.845C18.4 35.015 19.02 35.625 19.21 36.535L19.26 36.745L19.1 36.605C17.71 35.345 16.19 35.225 15.88 37.415C16.7 36.965 17.43 36.565 18.36 37.025H18.38L18.39 37.045C18.65 37.405 18.94 37.595 19.35 37.325L19.48 37.235L19.45 37.395C19.29 38.345 19.15 39.295 19.06 40.255L19.04 40.435L19.02 40.625C18.9 42.045 18.87 43.475 18.99 44.895V44.975H18.92C16.8 44.805 15.08 43.795 13.39 42.595L13.36 42.575V33.875L13.6 33.755L13.62 33.725ZM11.7 40.595L11.61 40.535C11.48 40.435 11.33 40.365 11.18 40.315C11.14 40.295 11.09 40.265 11.05 40.245L11 40.205L11.04 40.155C11.12 40.055 11.23 39.975 11.36 39.975H11.51C11.65 39.975 11.71 39.955 11.82 40.065H11.83V40.095C11.87 40.255 11.95 40.435 12.11 40.505H12.14C12.21 40.555 12.29 40.585 12.36 40.615H12.4V40.665C12.42 40.765 12.45 40.875 12.51 40.965L12.56 41.055C12.62 41.155 12.67 41.255 12.75 41.335L12.78 41.365V41.405C12.75 41.465 12.73 41.525 12.72 41.585V41.615L12.7 41.705C12.7 41.765 12.68 41.825 12.68 41.885V41.925L12.65 41.945C12.51 42.025 12.38 42.125 12.26 42.235C12.17 42.325 12.08 42.425 12 42.525L11.97 42.565L11.92 42.545C11.69 42.455 11.46 42.385 11.23 42.315L11.11 42.275L11.21 42.195C11.62 41.845 11.82 41.265 11.72 40.735L11.7 40.635V40.595ZM8.82 30.175L8.78 30.405L8.75 30.425C8.66 30.475 8.58 30.555 8.52 30.645C8.47 30.705 8.42 30.775 8.39 30.845L8.36 30.905L8.3 30.865C8.22 30.815 8.14 30.765 8.07 30.705C8.04 30.675 8 30.645 7.97 30.625C7.93 30.595 7.88 30.555 7.85 30.515L7.78 30.445L7.87 30.405C7.94 30.375 8.01 30.325 8.05 30.255C8.16 30.075 8.09 29.855 7.99 29.685C7.95 29.615 7.89 29.555 7.81 29.535H7.77V29.485C7.77 29.465 7.77 29.445 7.76 29.435V29.395L7.78 29.365C7.8 29.345 7.82 29.315 7.84 29.285C7.87 29.255 7.91 29.225 7.94 29.205C8.15 29.045 8.32 28.855 8.18 28.595C8.13 28.515 8.09 28.435 8.05 28.355C7.96 28.185 7.86 27.975 7.65 27.945H7.52L7.6 27.835C7.62 27.815 7.63 27.785 7.65 27.765C7.68 27.715 7.71 27.675 7.74 27.635C8.06 27.185 8.33 26.675 7.97 26.155C7.85 25.935 7.54 25.725 7.33 25.635L7.29 25.615V25.575C7.29 25.335 7.25 25.065 7.13 24.855C7.06 24.725 6.98 24.605 6.86 24.515L6.82 24.485L6.84 24.435C6.95 24.205 7 23.945 6.95 23.685C6.84 23.155 6.66 22.725 6.21 22.395L6.17 22.365V22.315C6.26 22.065 6.27 21.805 6.21 21.555C6.11 21.165 5.98 20.915 5.67 20.655L5.63 20.615L5.65 20.565C5.73 20.405 5.78 20.225 5.76 20.045C5.74 19.925 5.72 19.795 5.66 19.685L5.64 19.645L5.67 19.605C5.82 19.425 5.97 19.195 6 18.965C6.03 18.655 6.04 18.325 6 18.025V17.985L6.02 17.965C6.08 17.915 6.13 17.855 6.17 17.785L6.2 17.725C6.2 17.725 6.28 17.605 6.27 17.565L6.23 17.115L6.37 17.525C6.37 17.525 6.39 17.515 6.4 17.515H6.48L6.47 17.595C6.47 17.665 6.52 17.735 6.56 17.785C6.63 17.875 6.84 17.955 6.95 17.995C7.08 18.045 7.17 18.125 7.29 18.185C7.35 18.215 7.47 18.235 7.55 18.235L7.76 18.295L6.63 17.615L6.49 17.525L6.65 17.495C6.73 17.475 6.81 17.455 6.88 17.425C7.08 17.345 7.27 17.205 7.32 16.985V16.925H7.42C7.72 16.925 8.04 16.875 8.31 16.735C8.51 16.625 8.7 16.495 8.81 16.295L8.84 16.235L8.92 16.275C9.15 16.385 9.86 16.715 10.01 16.885C10.1 17.055 10.21 17.215 10.31 17.375C10.38 17.495 10.46 17.605 10.52 17.725L10.56 17.785L10.79 17.965L10.98 18.115L10.74 18.095C10.74 18.095 10.71 18.095 10.7 18.095H10.69L10.37 18.365C10.15 18.735 10.25 19.165 10.51 19.475C10.73 19.715 11.18 19.755 11.47 19.645C11.74 19.545 11.96 19.435 12.01 19.115L12.05 18.785L12.14 19.105C12.24 19.455 12.43 19.675 12.74 19.865C13.21 20.165 13.78 20.515 14.34 20.675C14.46 20.755 14.57 20.825 14.69 20.875L14.79 20.915L14.7 20.985C14.64 21.035 14.58 21.095 14.52 21.155L14.46 21.225L14.41 21.145C14.41 21.145 14.35 21.095 14.33 21.085C14.01 20.875 13.15 20.655 12.76 20.595C12.18 20.515 11.58 20.515 10.99 20.545C10.9 20.545 10.82 20.545 10.73 20.545C10.43 20.545 10.32 20.505 10.11 20.285C9.73 19.885 9.3 19.515 8.84 19.205L8.8 19.185C8.66 19.115 8.46 19.085 8.3 19.085C7.96 19.085 7.69 19.255 7.55 19.565L7.53 19.635C7.46 20.155 7.85 20.725 8.24 21.045C8.36 21.145 8.49 21.245 8.61 21.345C9.34 21.935 10.07 22.535 10.84 23.075C11 23.185 11.16 23.285 11.32 23.385C12.19 23.945 12.86 24.435 13.44 25.315C14.11 26.325 14.19 27.105 14.22 28.295C14.22 28.655 14.24 29.015 14.27 29.375C14.23 29.905 14.22 30.445 14.27 30.965V31.015L14.23 31.035C13.94 31.145 13.67 31.325 13.49 31.575L13.41 31.675C12.99 32.195 12.83 32.575 12.82 33.255V33.295L12.78 33.315C12.43 33.505 12 33.765 11.75 34.065C11.7 34.125 11.65 34.185 11.6 34.235C11.32 34.545 11.24 34.725 11.19 35.145V35.185L11.15 35.205C10.78 35.365 10.21 35.615 9.92 35.885L9.83 35.965C9.35 36.375 9.11 36.725 9.03 37.355V37.395L8.99 37.415C8.34 37.695 7.73 38.225 7.7 38.985V39.135C7.68 39.565 7.67 39.965 7.85 40.365C8.08 40.905 8.57 41.425 8.97 41.845L9.01 41.875C9.3 42.075 9.66 42.265 10 42.365L10.09 42.395L10.03 42.475C9.96 42.565 9.89 42.655 9.83 42.755L9.8 42.795H9.76C9.69 42.765 9.62 42.745 9.55 42.735C9.33 42.675 9.1 42.665 8.88 42.665C8.81 42.665 8.74 42.665 8.66 42.665H8.61L8.59 42.625C8.48 42.405 8.34 42.145 8.15 41.985C7.91 41.775 7.68 41.645 7.38 41.545H7.34V41.495C7.29 41.295 7.22 41.065 7.12 40.885L7.05 40.775C6.96 40.625 6.88 40.485 6.76 40.365L6.73 40.335L6.75 40.295C6.83 40.075 6.91 39.775 6.88 39.545C6.86 39.255 6.72 38.935 6.57 38.695L6.55 38.675V38.645C6.61 38.395 6.67 38.125 6.67 37.875C6.67 37.655 6.66 37.445 6.61 37.235V37.195L6.63 37.165C6.78 37.025 6.95 36.855 7.04 36.675C7.06 36.635 7.09 36.585 7.11 36.545C7.26 36.255 7.37 35.995 7.37 35.675V35.635L7.4 35.615C7.6 35.475 7.85 35.285 7.99 35.085C8.23 34.735 8.45 34.335 8.44 33.895V33.865L8.47 33.845C8.79 33.585 9.15 33.195 9.26 32.785C9.32 32.525 9.34 32.165 9.3 31.895V31.865L9.31 31.845C9.49 31.635 9.65 31.345 9.65 31.055C9.65 30.675 9.54 30.185 9.07 30.185C9.03 30.185 8.99 30.185 8.95 30.195L8.76 30.235L8.82 30.175ZM9.78 37.905L9.8 37.605C9.83 37.065 9.97 36.835 10.37 36.495C10.4 36.465 10.44 36.435 10.47 36.405C10.71 36.165 11.36 35.905 11.68 35.775L11.94 35.675L11.96 35.395C11.98 35.105 11.96 34.985 12.16 34.755L12.28 34.615V39.515L12.17 39.425C11.96 39.265 11.75 39.245 11.49 39.245H11.34C10.87 39.245 10.44 39.575 10.28 40.015L10.24 40.115V40.225C10.3 40.585 10.6 40.855 10.92 40.975C10.93 40.975 10.95 40.985 10.96 40.995L11.01 41.015V41.065C10.98 41.325 10.85 41.585 10.6 41.715C10.57 41.725 10.53 41.725 10.51 41.725C10.21 41.725 9.76 41.485 9.51 41.315C9.18 40.965 8.75 40.515 8.56 40.085C8.43 39.775 8.45 39.475 8.46 39.155V39.005C8.49 38.515 9.05 38.145 9.47 38.005L9.76 37.915L9.78 37.905ZM14.59 21.985L15.03 21.715L15.08 21.655C15.22 21.485 15.4 21.385 15.59 21.285L15.86 21.145L15.77 20.245H15.12C15.03 20.235 14.86 20.135 14.79 20.075L14.72 20.015L14.62 19.985C14.21 19.885 13.77 19.625 13.41 19.395L13.38 19.375V16.075H26.27V30.695H15.05V30.635C15.02 30.235 15.03 29.805 15.07 29.405V29.365V29.325C15.04 28.975 15.03 28.625 15.02 28.275C14.99 26.955 14.87 26.055 14.12 24.925C13.95 24.665 13.76 24.415 13.54 24.185L13.52 24.165V21.485L13.61 21.515C13.77 21.565 13.88 21.625 14.02 21.685C14.11 21.835 14.26 21.885 14.42 21.935L14.6 21.985H14.59ZM12.42 21.265V23.225L12.31 23.145C12.13 23.025 11.95 22.905 11.77 22.785C11.62 22.685 11.46 22.585 11.31 22.485C10.55 21.965 9.84 21.375 9.13 20.795C9.01 20.695 8.88 20.595 8.76 20.495C8.58 20.355 8.38 20.115 8.3 19.895L8.27 19.805H8.37C8.43 19.805 8.49 19.815 8.55 19.835C8.95 20.115 9.33 20.435 9.66 20.785C10 21.145 10.3 21.265 10.8 21.265C10.9 21.265 11 21.265 11.1 21.265C11.52 21.245 11.95 21.245 12.37 21.265H12.43H12.42ZM40.12 33.725L40.37 33.845V42.545L40.34 42.565C38.09 44.165 36.58 44.925 33.77 44.985C31.22 45.045 29.74 45.565 27.6 46.935L27.49 47.005V31.905H39.53L39.55 31.925C39.55 31.925 39.59 31.965 39.6 31.985L39.69 32.105C40.06 32.575 40.15 32.825 40.13 33.425V33.715L40.12 33.725ZM41.44 43.485C41.76 43.365 42.09 43.255 42.43 43.165H42.47L42.5 43.195C42.94 43.795 43.4 44.385 43.86 44.975C44.41 45.675 44.94 46.325 45.28 47.165L45.3 47.225L45.33 47.265L45.38 47.305C45.88 47.745 46.78 48.485 46.94 49.145L46.96 49.235H46.87C46.66 49.205 46.46 49.195 46.25 49.195C43.69 49.195 41.84 50.595 39.9 52.065C37.56 53.835 35.53 55.265 32.46 55.315C31.37 55.015 30.41 54.405 29.99 53.335C29.38 51.795 30.06 49.965 30.87 48.625L30.89 48.595L31.02 48.575C34.97 48.005 37 47.385 39.76 44.325C40.29 44.005 40.82 43.725 41.39 43.495L41.46 43.465L41.44 43.485ZM43.02 18.075H43.01C43.01 18.075 42.98 18.075 42.97 18.075L42.73 18.095L43.15 17.765L43.19 17.705C43.25 17.585 43.33 17.475 43.4 17.355C43.5 17.195 43.61 17.045 43.7 16.865C43.85 16.695 44.57 16.355 44.79 16.255L44.87 16.215L44.9 16.265C45.02 16.465 45.2 16.595 45.4 16.705C45.67 16.845 45.98 16.895 46.31 16.895H46.37L46.38 16.955C46.43 17.185 46.61 17.315 46.81 17.395C46.89 17.425 46.96 17.445 47.04 17.465L47.2 17.495L45.93 18.275L46.14 18.215C46.21 18.215 46.33 18.205 46.39 18.165C46.51 18.105 46.6 18.025 46.73 17.975C46.84 17.935 47.05 17.855 47.12 17.765C47.16 17.715 47.22 17.645 47.21 17.575V17.495H47.28C47.28 17.495 47.28 17.495 47.29 17.495L47.45 17.105L47.42 17.545C47.42 17.545 47.47 17.665 47.49 17.705L47.53 17.765C47.57 17.835 47.62 17.895 47.68 17.945L47.71 17.965V18.005C47.67 18.315 47.67 18.645 47.71 18.945C47.73 19.175 47.89 19.415 48.04 19.585L48.07 19.625L48.05 19.665C47.99 19.775 47.97 19.905 47.95 20.025C47.93 20.205 47.98 20.385 48.06 20.545L48.08 20.595L48.04 20.635C47.73 20.895 47.6 21.145 47.5 21.535C47.44 21.785 47.45 22.045 47.52 22.295V22.345L47.5 22.375C47.05 22.705 46.87 23.135 46.76 23.665C46.71 23.915 46.76 24.175 46.87 24.415L46.89 24.465L46.85 24.495C46.73 24.585 46.65 24.705 46.58 24.835C46.46 25.045 46.43 25.315 46.42 25.555V25.595L46.38 25.615C46.16 25.705 45.85 25.915 45.74 26.135C45.37 26.655 45.64 27.165 45.97 27.615C46 27.655 46.03 27.705 46.06 27.745C46.07 27.765 46.09 27.795 46.11 27.815L46.19 27.915H46.06C45.85 27.955 45.74 28.165 45.66 28.335C45.62 28.415 45.58 28.505 45.53 28.575C45.39 28.845 45.56 29.035 45.77 29.185C45.8 29.205 45.84 29.235 45.87 29.265C45.89 29.295 45.91 29.315 45.93 29.345L45.96 29.375V29.415C45.96 29.415 45.94 29.445 45.93 29.465V29.505L45.89 29.515C45.81 29.545 45.75 29.605 45.71 29.675C45.62 29.845 45.55 30.065 45.65 30.245C45.69 30.315 45.75 30.365 45.83 30.395L45.92 30.435L45.85 30.505C45.85 30.505 45.77 30.585 45.73 30.615C45.7 30.645 45.66 30.665 45.63 30.695C45.56 30.755 45.48 30.805 45.4 30.855L45.34 30.895L45.31 30.835C45.27 30.765 45.23 30.695 45.18 30.635C45.12 30.545 45.04 30.475 44.95 30.415L44.92 30.395L44.88 30.165L44.69 30.125C44.69 30.125 44.61 30.115 44.57 30.115C44.1 30.115 43.99 30.605 43.99 30.985C43.99 31.275 44.15 31.555 44.33 31.775L44.35 31.795V31.825C44.31 32.085 44.32 32.455 44.38 32.715C44.48 33.125 44.84 33.515 45.17 33.775L45.2 33.795V33.825C45.18 34.265 45.4 34.665 45.65 35.015C45.79 35.215 46.04 35.405 46.24 35.545L46.27 35.565V35.605C46.27 35.935 46.38 36.195 46.53 36.475C46.55 36.515 46.58 36.565 46.6 36.605C46.69 36.785 46.86 36.955 47.01 37.095L47.04 37.125V37.165C46.99 37.375 46.97 37.595 46.97 37.805C46.97 38.055 47.03 38.325 47.08 38.575V38.605V38.625C46.93 38.865 46.79 39.185 46.77 39.475C46.74 39.705 46.82 40.005 46.9 40.225V40.265L46.88 40.295C46.76 40.415 46.67 40.555 46.59 40.705L46.53 40.815C46.42 40.995 46.36 41.225 46.31 41.425V41.465L46.26 41.475C45.96 41.575 45.73 41.705 45.49 41.915C45.3 42.075 45.16 42.335 45.05 42.555L45.03 42.595H44.98C44.91 42.595 44.84 42.595 44.76 42.595C44.54 42.595 44.31 42.615 44.09 42.665C43.92 42.705 43.75 42.755 43.59 42.805L43.33 42.905L43.22 42.865V42.845C43.12 42.725 43.02 42.595 42.93 42.475L42.83 42.335L43 42.365C43.06 42.375 43.12 42.385 43.19 42.385C43.66 42.385 44.26 42.085 44.64 41.825L44.68 41.795C45.08 41.375 45.57 40.855 45.8 40.315C45.97 39.905 45.97 39.515 45.95 39.085V38.935C45.92 38.175 45.31 37.645 44.66 37.365L44.62 37.345V37.305C44.53 36.675 44.29 36.315 43.81 35.915L43.72 35.835C43.43 35.565 42.86 35.315 42.49 35.155L42.45 35.135V35.095C42.4 34.685 42.32 34.495 42.04 34.185C41.99 34.125 41.94 34.065 41.89 34.015C41.64 33.715 41.2 33.455 40.86 33.265L40.82 33.245V33.205C40.82 32.535 40.65 32.155 40.23 31.625L40.15 31.525C39.97 31.265 39.7 31.085 39.41 30.985L39.36 30.965V30.915C39.43 30.395 39.41 29.855 39.38 29.325C39.41 28.965 39.42 28.605 39.43 28.245C39.46 27.065 39.54 26.285 40.21 25.265C40.79 24.385 41.46 23.895 42.33 23.335C42.49 23.235 42.65 23.125 42.81 23.025C43.58 22.485 44.31 21.895 45.04 21.295C45.16 21.195 45.29 21.095 45.41 20.995C45.8 20.685 46.19 20.105 46.12 19.585L46.1 19.515C45.97 19.205 45.7 19.035 45.35 19.035C45.19 19.035 44.99 19.075 44.85 19.135L44.81 19.155C44.36 19.465 43.92 19.835 43.54 20.235C43.33 20.455 43.22 20.495 42.92 20.495C42.83 20.495 42.75 20.495 42.66 20.495C42.08 20.465 41.47 20.465 40.89 20.545C40.5 20.605 39.64 20.815 39.32 21.035C39.3 21.045 39.26 21.075 39.25 21.095L39.2 21.175L39.14 21.105C39.09 21.045 39.03 20.985 38.96 20.935L38.87 20.865L38.97 20.825C39.09 20.775 39.21 20.705 39.32 20.625C39.88 20.465 40.44 20.125 40.92 19.815C41.23 19.615 41.42 19.405 41.52 19.055L41.61 18.735L41.65 19.065C41.69 19.375 41.92 19.485 42.19 19.595C42.48 19.705 42.93 19.665 43.15 19.425C43.42 19.115 43.51 18.685 43.29 18.325L42.98 18.055L43.02 18.075ZM42.04 40.595L42.02 40.695C41.92 41.255 42.15 41.875 42.61 42.215L42.73 42.305L42.55 42.345C42.31 42.405 42.08 42.465 41.84 42.535H41.79L41.76 42.515C41.67 42.405 41.58 42.295 41.48 42.195C41.36 42.085 41.23 41.985 41.09 41.905L41.06 41.885V41.845C41.06 41.785 41.05 41.725 41.04 41.665V41.575L41.02 41.545C41.01 41.485 40.99 41.425 40.97 41.365V41.325L40.98 41.295C41.06 41.215 41.11 41.115 41.17 41.015L41.22 40.925C41.27 40.835 41.31 40.735 41.33 40.625V40.585L41.38 40.575C41.46 40.555 41.53 40.515 41.6 40.485H41.63C41.79 40.395 41.87 40.225 41.91 40.065V40.045L41.93 40.035C42.04 39.925 42.1 39.945 42.24 39.945H42.39C42.52 39.945 42.63 40.015 42.71 40.125L42.75 40.175L42.7 40.215C42.7 40.215 42.62 40.275 42.57 40.285C42.42 40.335 42.26 40.415 42.14 40.505L42.05 40.565L42.04 40.595ZM43.49 40.115L43.45 40.015C43.29 39.575 42.87 39.245 42.39 39.245H42.24C41.99 39.245 41.77 39.255 41.56 39.415L41.45 39.505V34.605L41.57 34.745C41.77 34.975 41.76 35.095 41.77 35.385L41.79 35.665L42.05 35.765C42.37 35.895 43.01 36.165 43.26 36.385C43.26 36.385 43.33 36.455 43.36 36.485C43.77 36.825 43.91 37.055 43.93 37.595V37.895L44.23 37.985C44.65 38.115 45.21 38.495 45.23 38.985V39.135C45.25 39.455 45.27 39.765 45.14 40.065C44.96 40.495 44.52 40.955 44.19 41.295C43.94 41.465 43.48 41.705 43.18 41.705C43.16 41.705 43.12 41.705 43.09 41.695C42.85 41.565 42.71 41.315 42.69 41.045V40.995L42.73 40.975C42.74 40.975 42.76 40.965 42.77 40.955C43.09 40.835 43.39 40.565 43.44 40.205V40.095L43.49 40.115ZM39.04 20.015L38.97 20.075C38.9 20.135 38.73 20.235 38.64 20.245H37.99L37.9 21.145L38.17 21.285C38.36 21.385 38.54 21.485 38.68 21.655L38.73 21.715L39.17 21.985L39.36 21.935C39.68 21.845 39.84 21.615 40.17 21.515L40.26 21.485V24.165L40.24 24.185C40.03 24.415 39.84 24.665 39.66 24.925C38.91 26.055 38.79 26.955 38.76 28.275C38.76 28.625 38.74 28.975 38.71 29.325V29.365V29.405C38.75 29.805 38.76 30.235 38.73 30.635V30.695H27.51V16.075H40.4V19.375L40.37 19.395C40.01 19.615 39.56 19.875 39.16 19.985L39.06 20.015H39.04ZM41.32 23.215V21.255H41.39C41.81 21.225 42.24 21.225 42.66 21.255C42.76 21.255 42.86 21.255 42.96 21.255C43.46 21.255 43.75 21.135 44.1 20.775C44.43 20.425 44.81 20.105 45.21 19.825C45.27 19.805 45.33 19.795 45.39 19.795H45.49L45.46 19.885C45.38 20.105 45.18 20.335 45 20.485C44.88 20.585 44.75 20.685 44.63 20.785C43.92 21.365 43.21 21.955 42.45 22.475C42.3 22.575 42.14 22.675 41.99 22.775C41.81 22.895 41.63 23.015 41.45 23.135L41.34 23.215H41.32ZM15.05 51.095L14.73 50.835C14.73 50.835 14.6 50.745 14.48 50.655C14.37 50.575 14.3 50.525 14.26 50.505C14.23 50.485 14.21 50.455 14.21 50.415C14.21 50.375 14.22 50.345 14.25 50.325L14.31 50.275C14.31 50.275 14.4 50.245 14.44 50.275C14.5 50.315 14.56 50.355 14.63 50.385C14.66 50.305 14.7 50.185 14.76 49.985C14.84 49.735 14.88 49.605 14.9 49.535C14.74 49.415 14.55 49.285 14.35 49.165C14.32 49.185 14.27 49.225 14.19 49.285C14.07 49.385 13.95 49.475 13.83 49.575C13.77 49.625 13.72 49.665 13.69 49.695C13.73 49.735 13.77 49.775 13.82 49.815C13.86 49.845 13.87 49.895 13.86 49.945L13.83 50.015C13.83 50.015 13.79 50.075 13.75 50.085C13.72 50.085 13.68 50.085 13.65 50.055C13.57 49.985 13.45 49.885 13.29 49.765C13 49.545 12.93 49.515 12.92 49.505C12.88 49.495 12.86 49.465 12.85 49.425C12.85 49.385 12.85 49.355 12.88 49.325L12.94 49.275C12.94 49.275 13.02 49.235 13.06 49.255C13.06 49.255 13.11 49.285 13.2 49.325C13.24 49.345 13.27 49.365 13.29 49.375C13.33 49.355 13.4 49.315 13.55 49.225C13.74 49.115 13.95 48.985 14.19 48.835C14.44 48.685 14.67 48.535 14.88 48.405C15.01 48.325 15.12 48.255 15.19 48.205C15.17 48.185 15.13 48.145 15.09 48.105C15.05 48.075 15.04 48.015 15.07 47.965L15.11 47.905C15.11 47.905 15.16 47.855 15.19 47.855L15.28 47.885C15.33 47.935 15.46 48.035 15.67 48.205C15.9 48.375 16.06 48.475 16.11 48.515L16.16 48.595L16.13 48.685L16.08 48.745C16.08 48.745 15.99 48.795 15.95 48.765C15.9 48.735 15.85 48.715 15.82 48.695C15.75 48.885 15.68 49.125 15.59 49.415C15.48 49.755 15.39 50.075 15.31 50.355C15.24 50.625 15.21 50.755 15.2 50.825L15.26 50.885C15.32 50.945 15.35 50.975 15.37 50.985C15.37 50.985 15.39 51.005 15.39 51.015C15.41 51.015 15.42 51.015 15.43 51.015C15.47 51.015 15.67 50.955 16.69 50.525C16.69 50.485 16.68 50.435 16.67 50.365C16.65 50.235 16.64 50.085 16.62 49.905C16.6 49.725 16.58 49.575 16.56 49.455C16.55 49.345 16.54 49.285 16.53 49.265L16.48 49.225C16.48 49.225 16.41 49.165 16.38 49.135C16.35 49.105 16.34 49.065 16.35 49.025L16.37 48.965L16.44 48.895C16.44 48.895 16.51 48.895 16.54 48.905L16.92 49.155L17.22 49.315C17.36 49.385 17.45 49.435 17.48 49.455C17.51 49.475 17.53 49.505 17.53 49.535C17.53 49.565 17.53 49.605 17.5 49.625L17.45 49.675C17.45 49.675 17.37 49.715 17.33 49.695C17.31 49.685 17.27 49.665 17.2 49.645C17.2 49.845 17.23 50.065 17.25 50.305C17.49 50.205 17.69 50.105 17.85 50.015C17.8 49.975 17.77 49.945 17.76 49.935C17.73 49.905 17.72 49.865 17.74 49.825L17.76 49.765L17.83 49.695H17.93C17.93 49.695 18.03 49.765 18.11 49.815C18.19 49.865 18.25 49.905 18.29 49.925L18.47 50.015C18.55 50.055 18.6 50.085 18.63 50.105L18.69 50.175L18.67 50.265L18.63 50.315C18.63 50.315 18.56 50.365 18.51 50.355C18.44 50.335 18.38 50.315 18.32 50.295C18.3 50.295 18.24 50.315 18.07 50.365C17.89 50.425 17.72 50.485 17.53 50.555C17.41 50.605 17.33 50.635 17.29 50.645C17.3 50.765 17.32 50.905 17.33 51.075C17.35 51.275 17.37 51.465 17.38 51.635L17.43 52.155C17.44 52.295 17.45 52.395 17.46 52.455V52.495C17.46 52.555 17.42 52.605 17.36 52.605H17.32L17.18 52.555L17.11 52.495C17.08 52.435 17.04 52.315 16.99 52.145C16.94 51.975 16.89 51.775 16.84 51.515C16.8 51.305 16.76 51.085 16.73 50.865C16.64 50.905 16.54 50.955 16.44 51.015C16.27 51.105 16.12 51.185 15.99 51.255L15.91 51.295C15.91 51.295 15.98 51.355 16.02 51.385C16.06 51.415 16.07 51.465 16.05 51.505L16.02 51.585L15.95 51.655H15.86C15.77 51.585 15.61 51.485 15.37 51.335C15.35 51.325 15.3 51.295 15.23 51.265C15.17 51.235 15.12 51.205 15.09 51.185C15.06 51.165 15.03 51.135 15.03 51.105C15.03 51.105 15.03 51.085 15.03 51.075L15.05 51.095ZM12.55 49.185L12.49 49.165C12.43 49.125 12.34 49.055 12.2 48.955C12.07 48.855 11.96 48.785 11.9 48.735C11.85 48.705 11.77 48.655 11.66 48.575C11.56 48.505 11.48 48.455 11.43 48.425C11.4 48.405 11.38 48.375 11.38 48.335C11.38 48.295 11.39 48.265 11.42 48.245L11.48 48.195C11.48 48.195 11.56 48.165 11.61 48.185C11.7 48.235 11.78 48.285 11.85 48.315C11.94 48.195 12.05 48.035 12.19 47.835C12.37 47.595 12.51 47.385 12.62 47.225C12.8 46.965 12.94 46.765 13.03 46.615C12.98 46.565 12.9 46.495 12.82 46.425C12.78 46.395 12.77 46.335 12.79 46.295L12.82 46.225L12.89 46.165L12.98 46.185L13.65 46.655C13.87 46.815 14.05 46.955 14.17 47.095C14.3 47.235 14.38 47.375 14.41 47.505C14.44 47.645 14.41 47.785 14.33 47.915C14.22 48.075 14.08 48.185 13.91 48.235C13.75 48.295 13.57 48.305 13.38 48.285C13.2 48.265 13.03 48.205 12.86 48.125C12.83 48.115 12.81 48.085 12.8 48.045V48.025L12.37 48.675C12.4 48.695 12.43 48.725 12.46 48.755C12.53 48.815 12.59 48.865 12.63 48.905C12.67 48.935 12.68 48.985 12.67 49.025L12.64 49.105C12.64 49.105 12.6 49.165 12.57 49.175H12.54L12.55 49.185ZM12.99 47.865H13.03C13.16 47.925 13.27 47.945 13.36 47.925C13.46 47.905 13.54 47.865 13.6 47.825C13.67 47.775 13.72 47.715 13.75 47.665C13.79 47.615 13.81 47.545 13.83 47.475C13.84 47.405 13.83 47.325 13.78 47.235C13.74 47.155 13.67 47.085 13.58 47.005L12.93 47.895L12.99 47.875V47.865ZM28.12 53.785H28.11C28.11 53.785 27.98 53.775 27.59 53.775C27.47 53.775 27.35 53.775 27.22 53.775C27.1 53.775 27.01 53.775 26.94 53.775L26.86 53.735V53.645V53.585C26.87 53.555 26.9 53.525 26.94 53.515C26.96 53.515 27.01 53.515 27.1 53.495H27.13C27.13 53.495 27.21 53.485 27.24 53.475C27.24 53.125 27.25 52.815 27.25 52.525C27.25 52.195 27.25 51.935 27.24 51.755C26.88 51.755 26.71 51.805 26.62 51.855C26.62 51.865 26.61 51.895 26.6 51.945C26.59 52.015 26.58 52.065 26.57 52.085C26.57 52.145 26.5 52.165 26.47 52.175H26.45H26.37C26.33 52.155 26.31 52.125 26.32 52.085C26.35 51.815 26.36 51.565 26.36 51.325L26.4 51.255L26.48 51.235H26.54C26.54 51.235 26.63 51.285 26.63 51.335C26.63 51.385 26.63 51.425 26.63 51.455C26.82 51.465 27.11 51.475 27.5 51.475C27.93 51.475 28.26 51.455 28.46 51.445V51.425C28.46 51.425 28.48 51.345 28.49 51.335C28.49 51.295 28.52 51.265 28.56 51.255H28.61L28.64 51.245L28.72 51.275L28.75 51.355C28.74 51.415 28.73 51.495 28.72 51.575L28.66 52.055C28.66 52.055 28.66 52.125 28.66 52.135L28.61 52.205H28.52H28.49C28.44 52.205 28.4 52.165 28.4 52.115C28.4 52.095 28.4 52.055 28.4 52.005C28.4 51.955 28.4 51.905 28.4 51.875C28.4 51.875 28.35 51.855 28.3 51.845C28.21 51.825 28.1 51.805 27.99 51.795C27.92 51.795 27.85 51.785 27.79 51.785V51.825C27.79 51.895 27.79 51.975 27.79 52.075V52.435C27.79 52.985 27.79 53.345 27.8 53.485C27.93 53.495 28.03 53.505 28.1 53.515C28.14 53.515 28.18 53.545 28.19 53.595V53.635L28.21 53.675C28.21 53.725 28.16 53.765 28.11 53.765L28.12 53.785ZM26.09 53.995H26.07L26.01 53.985C25.97 53.985 25.93 53.935 25.93 53.895V53.795H25.86C25.77 53.795 25.67 53.785 25.57 53.785C25.47 53.785 25.32 53.785 25.14 53.785C24.86 53.785 24.69 53.795 24.62 53.805L24.54 53.775L24.52 53.695L24.54 53.625C24.54 53.625 24.58 53.555 24.62 53.555C24.71 53.555 24.79 53.545 24.85 53.535V53.075C24.86 52.975 24.86 52.885 24.86 52.795C24.86 52.705 24.86 52.615 24.86 52.505C24.86 52.245 24.86 51.995 24.85 51.755C24.78 51.745 24.68 51.725 24.61 51.725C24.57 51.725 24.54 51.685 24.53 51.645V51.585V51.505L24.6 51.475C24.66 51.475 24.77 51.475 24.92 51.475C25.07 51.475 25.18 51.475 25.26 51.475C25.68 51.475 25.87 51.465 25.95 51.455V51.385C25.95 51.385 26 51.315 26.04 51.305H26.11L26.19 51.315L26.22 51.395C26.22 51.465 26.2 51.585 26.18 51.755C26.17 51.915 26.16 51.995 26.16 52.015L26.11 52.085H26.03L25.97 52.075C25.93 52.065 25.91 52.025 25.91 51.985V51.815L25.84 51.795C25.76 51.775 25.67 51.765 25.57 51.745C25.51 51.745 25.45 51.735 25.4 51.735C25.4 51.965 25.39 52.185 25.39 52.405C25.66 52.395 25.79 52.385 25.85 52.375V52.315C25.85 52.315 25.9 52.235 25.95 52.235H26.02L26.1 52.265L26.12 52.345C26.12 52.345 26.1 52.445 26.08 52.575L26.03 52.905L25.98 52.975H25.9L25.84 52.955C25.8 52.935 25.78 52.895 25.79 52.845C25.79 52.845 25.79 52.805 25.79 52.765V52.725C25.73 52.705 25.61 52.685 25.39 52.685V52.715L25.41 53.365C25.41 53.415 25.41 53.455 25.41 53.495C25.75 53.485 25.9 53.445 25.96 53.415C25.97 53.375 25.99 53.315 26.01 53.195C26.01 53.165 26.04 53.135 26.08 53.125L26.15 53.105L26.24 53.125L26.27 53.215C26.25 53.325 26.23 53.455 26.21 53.595C26.19 53.735 26.18 53.835 26.17 53.895L26.13 53.965L26.07 53.985L26.09 53.995ZM41.27 48.705H41.24C41.24 48.705 41.18 48.665 41.17 48.635L41.14 48.555C41.12 48.505 41.14 48.445 41.19 48.425C41.24 48.395 41.3 48.355 41.36 48.315L41.41 48.275C41.38 48.215 41.33 48.115 41.26 47.985C41.16 47.795 41.04 47.585 40.92 47.375C40.67 46.935 40.5 46.625 40.4 46.465C40.33 46.495 40.25 46.525 40.14 46.575C40.09 46.595 40.04 46.575 40.01 46.535L39.97 46.475L39.95 46.385L40 46.315C40.05 46.285 40.17 46.225 40.35 46.115C40.53 46.015 40.66 45.945 40.74 45.895L40.89 45.815C41.3 45.595 41.59 45.495 41.77 45.525C41.97 45.555 42.11 45.645 42.2 45.785C42.28 45.925 42.29 46.085 42.26 46.285C42.23 46.425 42.19 46.535 42.15 46.635C42.28 46.705 42.42 46.785 42.57 46.865C42.77 46.965 42.97 47.065 43.15 47.145C43.33 47.225 43.47 47.285 43.56 47.305C43.6 47.315 43.63 47.345 43.64 47.385C43.64 47.425 43.64 47.465 43.6 47.495L43.48 47.595L43.41 47.615C43.32 47.615 43.21 47.595 43.07 47.555C42.93 47.525 42.78 47.475 42.61 47.425C42.44 47.375 42.28 47.315 42.11 47.255L41.72 47.115C41.67 47.155 41.62 47.185 41.56 47.215C41.71 47.475 41.85 47.715 41.98 47.935C42.01 47.935 42.04 47.915 42.09 47.895L42.17 47.865C42.23 47.8384 42.2633 47.825 42.27 47.825C42.27 47.825 42.34 47.825 42.37 47.865L42.42 47.915C42.42 47.915 42.45 47.975 42.44 48.005C42.44 48.035 42.41 48.065 42.38 48.085C42.34 48.105 42.27 48.135 42.17 48.195L41.94 48.315C41.47 48.595 41.37 48.655 41.35 48.665L41.28 48.695L41.27 48.705ZM40.97 46.145C41 46.205 41.04 46.265 41.07 46.315C41.12 46.405 41.16 46.485 41.21 46.585C41.26 46.675 41.3 46.755 41.33 46.815C41.35 46.855 41.37 46.895 41.4 46.935C41.46 46.895 41.52 46.855 41.57 46.805C41.65 46.735 41.7 46.655 41.74 46.555C41.77 46.465 41.76 46.355 41.72 46.235C41.69 46.185 41.64 46.125 41.57 46.085C41.51 46.045 41.42 46.035 41.31 46.035C41.21 46.035 41.1 46.075 40.98 46.135L40.97 46.145ZM38.9 50.185C38.84 50.185 38.77 50.185 38.71 50.165C38.53 50.135 38.37 50.075 38.23 49.995C38.09 49.915 37.98 49.815 37.89 49.715L37.87 49.685C37.76 49.515 37.68 49.365 37.63 49.195C37.58 49.025 37.57 48.855 37.59 48.675C37.61 48.495 37.67 48.315 37.76 48.135C37.86 47.955 37.99 47.785 38.17 47.615C38.2 47.585 38.25 47.545 38.32 47.485C38.49 47.345 38.67 47.255 38.85 47.185C39.03 47.125 39.21 47.095 39.39 47.115C39.57 47.125 39.73 47.175 39.89 47.255C40.04 47.335 40.18 47.455 40.29 47.595C40.37 47.705 40.44 47.805 40.48 47.905C40.57 48.105 40.62 48.315 40.62 48.535C40.62 48.755 40.56 48.975 40.45 49.185C40.34 49.395 40.19 49.585 39.98 49.765C39.76 49.935 39.53 50.055 39.32 50.115C39.18 50.155 39.04 50.175 38.91 50.175L38.9 50.185ZM38.94 47.695H38.92C38.73 47.695 38.56 47.755 38.42 47.875C38.35 47.925 38.3 47.985 38.26 48.035C38.18 48.135 38.13 48.235 38.1 48.335C38.07 48.435 38.06 48.535 38.07 48.625C38.07 48.725 38.1 48.815 38.14 48.905C38.18 48.995 38.23 49.085 38.29 49.175C38.29 49.175 38.32 49.205 38.35 49.235L38.41 49.305C38.51 49.395 38.62 49.475 38.73 49.525C38.84 49.575 38.96 49.615 39.07 49.625C39.18 49.635 39.3 49.635 39.4 49.625C39.5 49.605 39.6 49.575 39.69 49.535L39.83 49.445C39.9 49.385 39.98 49.305 40.03 49.205C40.09 49.105 40.12 49.005 40.14 48.895C40.16 48.785 40.15 48.665 40.12 48.545C40.09 48.425 40.03 48.315 39.94 48.195C39.82 48.045 39.67 47.915 39.49 47.825C39.32 47.735 39.14 47.695 38.95 47.695H38.94ZM36.79 50.535C36.79 50.535 36.85 50.625 36.89 50.685C36.97 50.795 37.06 50.915 37.15 51.035C37.22 51.125 37.27 51.195 37.31 51.235C37.37 51.225 37.44 51.195 37.5 51.155C37.55 51.125 37.59 51.075 37.62 51.025C37.65 50.975 37.66 50.925 37.66 50.865C37.66 50.805 37.64 50.745 37.59 50.685C37.53 50.595 37.45 50.535 37.35 50.495C37.24 50.455 37.13 50.445 37.02 50.455C36.94 50.465 36.85 50.495 36.78 50.535H36.79ZM36.11 49.555L36.13 49.585L36.4 49.985C36.48 50.105 36.54 50.195 36.59 50.255C36.65 50.195 36.7 50.135 36.72 50.085C36.75 50.005 36.76 49.925 36.75 49.865C36.73 49.785 36.71 49.725 36.67 49.665C36.63 49.605 36.57 49.555 36.51 49.525C36.45 49.495 36.4 49.485 36.34 49.485V49.375L36.32 49.485C36.26 49.485 36.2 49.505 36.14 49.555L36.11 49.575V49.555ZM34.01 53.665H33.92C33.92 53.665 33.83 53.625 33.82 53.575C33.82 53.535 33.8 53.465 33.79 53.375C33.79 53.335 33.79 53.305 33.78 53.275L32.73 53.455C32.73 53.455 32.61 53.485 32.5 53.505C32.39 53.525 32.32 53.545 32.29 53.555L32.2 53.535C32.2 53.535 32.16 53.485 32.16 53.445V53.375C32.16 53.375 32.19 53.285 32.24 53.265C32.37 53.235 32.45 53.205 32.51 53.185C32.48 53.025 32.43 52.725 32.34 52.285L32.24 51.765C32.2 51.585 32.17 51.425 32.15 51.295C32.14 51.235 32.13 51.185 32.12 51.145H32.06L31.83 51.165C31.78 51.165 31.74 51.145 31.72 51.095L31.69 51.035V50.935C31.69 50.935 31.74 50.885 31.77 50.875C31.84 50.865 31.94 50.845 32.08 50.825C32.22 50.805 32.32 50.785 32.39 50.775C32.46 50.755 32.56 50.735 32.71 50.705C32.85 50.675 32.95 50.655 33.01 50.635C33.04 50.635 33.08 50.635 33.1 50.655C33.13 50.675 33.14 50.705 33.14 50.745V50.815C33.14 50.815 33.11 50.905 33.06 50.915C33.01 50.935 32.96 50.945 32.91 50.965H32.87C32.87 50.965 32.79 51.005 32.75 51.025L32.91 51.975C33.02 52.515 33.1 52.875 33.13 53.035C33.27 53.005 33.4 52.965 33.5 52.905C33.63 52.845 33.7 52.795 33.74 52.755C33.76 52.665 33.77 52.545 33.78 52.395C33.78 52.355 33.81 52.315 33.84 52.305L33.92 52.265C33.92 52.265 34 52.255 34.03 52.275C34.06 52.295 34.08 52.335 34.07 52.375C34.07 52.395 34.07 52.455 34.07 52.665C34.07 52.765 34.07 52.865 34.07 52.965L34.1 52.945C34.1 52.945 34.16 52.905 34.18 52.895C34.18 52.855 34.18 52.775 34.18 52.595C34.18 52.385 34.16 52.125 34.15 51.845C34.14 51.555 34.12 51.285 34.11 51.035C34.11 50.875 34.09 50.755 34.09 50.665C34.06 50.665 34.01 50.685 33.95 50.705C33.9 50.725 33.85 50.705 33.82 50.655L33.78 50.595V50.505L33.84 50.445C33.91 50.425 34.06 50.355 34.31 50.255C34.57 50.135 34.73 50.045 34.8 50.015H34.89L34.95 50.075L34.97 50.145C34.97 50.145 34.97 50.245 34.92 50.275C34.87 50.305 34.83 50.335 34.8 50.355C34.94 50.505 35.1 50.685 35.32 50.905C35.56 51.155 35.79 51.395 36.01 51.605C36.21 51.805 36.31 51.895 36.37 51.935C36.39 51.935 36.42 51.925 36.46 51.905L36.55 51.885C36.55 51.885 36.57 51.825 36.6 51.815C36.62 51.805 36.66 51.765 36.73 51.705L36.8 51.635C36.8 51.635 36.73 51.535 36.66 51.415C36.53 51.225 36.38 51.005 36.21 50.755C36.05 50.525 35.91 50.325 35.78 50.155C35.7 50.045 35.64 49.975 35.61 49.935C35.57 49.955 35.5 49.995 35.38 50.065C35.34 50.085 35.29 50.085 35.26 50.065L35.2 50.025C35.2 50.025 35.16 49.965 35.16 49.935C35.16 49.895 35.18 49.865 35.21 49.845C35.22 49.835 35.33 49.755 35.54 49.595C35.76 49.435 35.93 49.305 36.04 49.225C36.22 49.105 36.39 49.025 36.57 48.985C36.77 48.945 36.95 49.005 37.08 49.175C37.21 49.355 37.25 49.535 37.22 49.735C37.21 49.815 37.19 49.895 37.16 49.965C37.19 49.965 37.23 49.955 37.26 49.945C37.37 49.925 37.48 49.925 37.58 49.945C37.68 49.965 37.77 50.005 37.84 50.055C37.92 50.105 37.98 50.175 38.04 50.245C38.12 50.355 38.16 50.475 38.17 50.615C38.17 50.755 38.15 50.885 38.08 51.015C38.01 51.145 37.91 51.265 37.77 51.365C37.74 51.385 37.65 51.445 37.52 51.535C37.39 51.625 37.24 51.715 37.08 51.825C37.03 51.865 36.93 51.935 36.79 52.035V52.075C36.79 52.075 36.76 52.135 36.72 52.145L36.17 52.375C36.12 52.405 36.02 52.445 35.9 52.505C35.77 52.565 35.69 52.605 35.66 52.625H35.56C35.56 52.625 35.51 52.575 35.5 52.545V52.465C35.5 52.465 35.5 52.375 35.55 52.345C35.61 52.315 35.68 52.275 35.74 52.235C35.68 52.175 35.6 52.085 35.45 51.935C35.27 51.745 35.17 51.645 35.12 51.595C34.93 51.685 34.73 51.785 34.53 51.895C34.53 51.935 34.54 51.995 34.56 52.095C34.58 52.245 34.61 52.395 34.64 52.545C34.66 52.625 34.67 52.685 34.68 52.725C34.74 52.715 34.79 52.695 34.85 52.665C34.9 52.645 34.95 52.665 34.98 52.695L35.03 52.755C35.03 52.755 35.06 52.825 35.05 52.855C35.04 52.885 35.01 52.915 34.98 52.925C34.88 52.965 34.74 53.015 34.55 53.095C34.22 53.245 34.15 53.285 34.14 53.295L34.1 53.315C34.1 53.415 34.11 53.495 34.12 53.545L34.09 53.635L34.01 53.675V53.665ZM34.44 50.845C34.44 50.925 34.45 51.025 34.46 51.125C34.47 51.285 34.48 51.405 34.49 51.495C34.54 51.475 34.59 51.455 34.66 51.425L34.75 51.385C34.81 51.365 34.85 51.345 34.89 51.325L34.64 51.055C34.56 50.965 34.49 50.905 34.44 50.845ZM14.67 48.935C14.73 48.985 14.81 49.045 14.89 49.115L14.94 49.155L15.01 49.205L15.13 48.855C15.17 48.745 15.2 48.655 15.22 48.585C15.15 48.625 15.07 48.685 14.98 48.735C14.85 48.825 14.74 48.885 14.67 48.935ZM5.55 49.785L5.59 49.845C5.7 50.015 5.81 50.175 5.93 50.335L5.95 50.365V50.395C5.73 51.375 5.55 51.955 4.52 52.275C3.43 52.615 3.02 53.145 2.7 54.225L2.51 54.875C2.51 54.875 2.51 54.965 2.55 54.995C2.55 54.995 2.63 55.025 2.67 55.005L3.26 54.675C4.4 54.025 5.55 53.725 6.86 53.725C7.39 53.725 7.92 53.775 8.44 53.825C8.89 53.865 9.34 53.915 9.79 53.915C11.06 53.915 11.98 53.535 12.8 52.555L12.84 52.505L12.89 52.545C15.39 54.435 17.5 55.845 20.75 55.885H20.82L20.86 55.875C21.43 55.725 21.98 55.495 22.46 55.175L22.49 55.155H22.52C23.86 55.705 25.29 56.005 26.74 56.005C28.05 56.005 29.35 55.775 30.6 55.385H30.63H30.66C31.15 55.725 31.71 55.955 32.29 56.105H32.33L32.36 56.115H32.4C35.66 56.115 37.77 54.665 40.26 52.775L40.31 52.735L40.35 52.785C41.18 53.765 42.09 54.145 43.37 54.145C43.82 54.145 44.28 54.105 44.73 54.055C45.25 54.005 45.78 53.955 46.31 53.955C47.62 53.955 48.77 54.255 49.91 54.905L50.5 55.235C50.5 55.235 50.59 55.255 50.62 55.235C50.62 55.235 50.67 55.155 50.65 55.115L50.46 54.465C50.14 53.385 49.74 52.855 48.65 52.515C47.62 52.195 47.44 51.615 47.22 50.635V50.605L47.23 50.575C47.35 50.425 47.46 50.265 47.56 50.095L47.61 50.025L47.66 49.775C47.92 48.515 46.78 47.555 45.94 46.825H45.93V46.795C45.57 45.935 45.01 45.245 44.44 44.515C44.21 44.225 43.99 43.935 43.77 43.645L43.71 43.565L43.8 43.535C43.95 43.485 44.11 43.445 44.27 43.405C44.52 43.335 44.87 43.335 45.13 43.375L45.48 43.435L45.61 43.105C45.67 42.945 45.82 42.625 45.95 42.515C46.18 42.315 46.36 42.245 46.65 42.155L46.91 42.075L46.96 41.805C46.99 41.635 47.05 41.375 47.14 41.225C47.16 41.185 47.19 41.145 47.21 41.105C47.28 40.985 47.34 40.855 47.46 40.795L47.82 40.595L47.65 40.225C47.59 40.095 47.46 39.745 47.48 39.605C47.49 39.405 47.63 39.115 47.75 38.965L47.87 38.805L47.82 38.605C47.77 38.375 47.69 38.095 47.69 37.855C47.69 37.635 47.7 37.435 47.77 37.225L47.87 36.935L47.64 36.745C47.52 36.655 47.32 36.465 47.25 36.335C47.23 36.285 47.2 36.235 47.18 36.185C47.07 35.965 46.98 35.775 47.01 35.525L47.05 35.245L46.81 35.095C46.66 35.005 46.36 34.795 46.26 34.655C46.09 34.415 45.89 34.095 45.95 33.785L46 33.505L45.77 33.345C45.55 33.195 45.18 32.845 45.11 32.585C45.07 32.395 45.04 32.065 45.11 31.875L45.14 31.775L45.32 31.725C45.61 31.635 45.9 31.475 46.13 31.285C46.16 31.265 46.19 31.235 46.22 31.215C46.41 31.065 46.53 30.915 46.66 30.715V30.695C46.71 30.595 46.73 30.495 46.73 30.385V30.345L46.76 30.325C47.14 30.075 47.03 29.345 47 29.025V28.975L47.04 28.955C47.18 28.905 47.28 28.805 47.34 28.665C47.47 28.365 47.3 28.035 47.1 27.815C47 27.705 46.9 27.615 46.78 27.535C46.73 27.495 46.71 27.475 46.68 27.415C46.64 27.355 46.6 27.295 46.56 27.235C46.44 27.065 46.2 26.775 46.35 26.565C46.45 26.415 46.64 26.305 46.81 26.265L47.2 26.185L47.16 25.795C47.15 25.645 47.16 25.345 47.23 25.215C47.28 25.115 47.3 25.095 47.4 25.045C47.45 25.025 47.49 24.995 47.54 24.975L47.99 24.705L47.64 24.315C47.54 24.205 47.46 24.005 47.48 23.855C47.57 23.405 47.7 23.115 48.11 22.885L48.5 22.665L48.28 22.285C48.2 22.145 48.17 21.925 48.21 21.765C48.31 21.385 48.4 21.295 48.72 21.085L49.1 20.815L48.81 20.445C48.77 20.395 48.67 20.235 48.67 20.165C48.67 20.135 48.67 20.105 48.68 20.085V20.055L49.17 19.715L48.75 19.345C48.67 19.275 48.44 19.025 48.43 18.925C48.4 18.685 48.39 18.235 48.45 18.005L48.54 17.675L48.24 17.505C48.24 17.505 48.19 17.475 48.17 17.465H48.15L48.1 17.365C48.1 17.365 48.09 17.345 48.08 17.335V17.315L48.2 16.625L47.51 16.815C47.46 16.825 47.4 16.835 47.34 16.835C47.27 16.835 47.2 16.835 47.13 16.805H47.07V16.735C47.07 16.705 47.07 16.675 47.07 16.645V16.125L46.55 16.215C46.45 16.235 46.35 16.235 46.25 16.235C46.07 16.235 45.86 16.215 45.7 16.125C45.36 15.945 45.42 15.775 45.38 15.445L45.2 13.865L44.3 15.705H44.28C43.95 15.875 43.21 16.235 43.03 16.545C42.95 16.715 42.85 16.855 42.76 16.995C42.69 17.105 42.61 17.215 42.55 17.345H42.54L42.52 17.385H42.49C42.3 17.375 42.15 17.395 41.98 17.485C41.82 17.565 41.67 17.665 41.53 17.785L41.42 17.885V15.025H39.01L40.11 13.625L39.42 13.115C39.09 12.875 38.75 12.645 38.41 12.415L38.37 12.385L40.06 7.29503L36.88 5.67503L36.44 6.54503L36.05 6.27503L36.21 5.36503L33.45 4.55503L33.14 5.30503L32.14 5.11503L31.23 5.03503L31.26 4.00503L27.15 3.90503L27 4.84503L25.15 5.08503L25 4.06503L21.4 4.57503L21.57 5.30503L19.18 6.18503L18.67 5.35503L16.46 6.31503L16.79 7.45503L16.18 6.71503L15.7 6.91503L13.55 7.95503L15.06 10.435L16.12 12.175L16.06 12.215C15.57 12.525 15.09 12.845 14.63 13.195L13.86 13.765L15.09 14.995H12.22V17.855L12.11 17.755C11.98 17.635 11.83 17.535 11.67 17.455C11.5 17.365 11.35 17.345 11.16 17.355H11.13L11.1 17.325C11.03 17.205 10.96 17.095 10.89 16.975C10.8 16.825 10.7 16.685 10.62 16.535C10.44 16.215 9.7 15.845 9.37 15.695H9.35L8.45 13.845L8.27 15.425C8.23 15.755 8.29 15.915 7.95 16.105C7.79 16.195 7.58 16.215 7.4 16.215C7.3 16.215 7.2 16.215 7.1 16.195L6.58 16.105V16.625C6.58 16.625 6.58 16.685 6.58 16.715V16.775L6.53 16.785C6.46 16.805 6.39 16.815 6.32 16.815C6.27 16.815 6.21 16.815 6.15 16.795L5.46 16.605L5.6 17.305L5.58 17.325C5.58 17.325 5.57 17.345 5.56 17.355L5.51 17.435H5.5C5.5 17.435 5.45 17.475 5.43 17.495L5.13 17.665L5.22 17.995C5.28 18.225 5.26 18.665 5.24 18.915C5.22 19.015 5 19.265 4.92 19.335L4.51 19.705L4.97 20.025L4.99 20.045V20.075C4.99 20.075 5 20.125 5.01 20.155C5.01 20.225 4.91 20.385 4.87 20.435L4.58 20.805L4.96 21.075C5.27 21.295 5.37 21.385 5.47 21.755C5.51 21.915 5.47 22.125 5.4 22.275L5.18 22.655L5.57 22.875C5.98 23.105 6.11 23.395 6.2 23.845C6.23 23.995 6.14 24.195 6.05 24.305L5.7 24.695L6.15 24.965C6.15 24.965 6.24 25.015 6.29 25.035C6.39 25.085 6.41 25.105 6.46 25.205C6.53 25.335 6.54 25.635 6.53 25.785L6.49 26.175L6.88 26.255C7.05 26.295 7.25 26.405 7.34 26.555C7.49 26.765 7.25 27.055 7.13 27.225C7.09 27.285 7.05 27.345 7.01 27.405C6.98 27.455 6.97 27.485 6.91 27.525C6.79 27.605 6.69 27.705 6.59 27.805C6.39 28.025 6.22 28.355 6.35 28.655C6.41 28.785 6.51 28.885 6.65 28.945L6.69 28.965C6.67 29.315 6.55 30.065 6.93 30.315L6.96 30.335V30.375C6.96 30.485 6.98 30.595 7.03 30.685V30.705C7.16 30.905 7.28 31.055 7.47 31.205C7.5 31.235 7.53 31.255 7.56 31.275C7.79 31.465 8.08 31.625 8.37 31.715L8.55 31.765L8.58 31.865C8.64 32.055 8.61 32.375 8.58 32.575C8.51 32.835 8.14 33.185 7.92 33.335L7.69 33.495L7.74 33.775C7.8 34.085 7.59 34.395 7.43 34.645C7.33 34.785 7.03 34.995 6.88 35.085L6.64 35.235L6.68 35.515C6.71 35.765 6.62 35.965 6.51 36.175C6.49 36.225 6.46 36.275 6.44 36.325C6.37 36.455 6.16 36.635 6.05 36.735L5.82 36.925L5.92 37.215C5.99 37.425 6 37.625 6 37.845C6 38.085 5.93 38.365 5.87 38.595L5.82 38.795L5.94 38.955C6.05 39.105 6.19 39.385 6.21 39.575V39.595C6.23 39.735 6.1 40.085 6.04 40.215L5.87 40.585L6.23 40.785C6.35 40.855 6.42 40.985 6.48 41.095C6.5 41.135 6.52 41.175 6.55 41.215C6.64 41.365 6.7 41.625 6.73 41.795L6.78 42.065L7.04 42.145C7.33 42.225 7.51 42.305 7.74 42.505C7.87 42.615 8.02 42.935 8.08 43.095L8.21 43.425L8.56 43.365C8.78 43.335 9.05 43.325 9.27 43.365L9.39 43.385L9.32 43.475C9.12 43.745 8.91 44.005 8.7 44.275C8.13 45.005 7.58 45.695 7.21 46.555L7.2 46.585C6.37 47.315 5.21 48.285 5.48 49.535L5.54 49.785H5.55Z" fill="#231F20"/>
<path d="M184.47 38.8251H108.68V41.1951H184.47V38.8251Z" fill="#231F20"/>
<path d="M92.26 38.8251H72.85V41.1951H92.26V38.8251Z" fill="#231F20"/>
<path d="M108.68 38.8251H92.26V41.1951H108.68V38.8251Z" fill="#231F20"/>
<path d="M125.72 38.8251H108.68V41.1951H125.72V38.8251Z" fill="#231F20"/>
<path d="M157.49 9.64498H159.36L158.43 7.29498L157.5 9.64498H157.49ZM160.06 11.385L159.6 10.225H157.26L156.8 11.385H156.12L158.06 6.60498H158.81L160.76 11.385H160.06ZM150.12 7.20498V8.93498H151.44C151.69 8.93498 151.89 8.85498 152.05 8.68498C152.21 8.52498 152.29 8.31498 152.29 8.06498C152.29 7.81498 152.21 7.60498 152.05 7.44498C151.89 7.28498 151.69 7.19498 151.44 7.19498H150.12V7.20498ZM152.9 10.795H153.06V11.395H152.83C152.3 11.395 151.9 11.165 151.63 10.705L150.79 9.49498H150.13V11.395H149.49V6.61498H151.46C151.88 6.61498 152.24 6.75498 152.52 7.03498C152.8 7.31498 152.95 7.65498 152.95 8.07498C152.95 8.46498 152.82 8.79498 152.56 9.06498C152.3 9.33498 151.96 9.47498 151.56 9.50498L152.24 10.435C152.42 10.685 152.65 10.805 152.91 10.805L152.9 10.795ZM143.76 11.475C143.21 11.475 142.75 11.295 142.38 10.925C142.01 10.565 141.82 10.105 141.82 9.56498V6.61498H142.45V9.55498C142.45 9.92498 142.57 10.245 142.82 10.495C143.07 10.745 143.38 10.875 143.75 10.875C144.12 10.875 144.44 10.745 144.69 10.495C144.94 10.245 145.06 9.93498 145.06 9.55498V6.61498H145.69V9.56498C145.69 10.105 145.5 10.565 145.13 10.925C144.76 11.285 144.3 11.475 143.74 11.475H143.76ZM138.4 6.61498V7.21498H136.96V11.395H136.32V7.20498H134.88V6.60498H138.4V6.61498ZM130.72 11.385V6.61498H131.36V11.395H130.72V11.385ZM124.62 10.795H127.08V11.395H123.99V6.61498H127.05V7.21498H124.63V8.69498H126.82V9.29498H124.63V10.805L124.62 10.795ZM120.41 7.20498H118.09V8.72498H120.13V9.32498H118.09V11.385H117.45V6.61498H120.41V7.21498V7.20498ZM111.36 10.795H113.82V11.395H110.73V6.61498H113.79V7.21498H111.37V8.69498H113.56V9.29498H111.37V10.805L111.36 10.795ZM104.26 7.20498V8.93498H105.58C105.82 8.93498 106.03 8.85498 106.19 8.68498C106.35 8.52498 106.43 8.31498 106.43 8.06498C106.43 7.81498 106.35 7.60498 106.19 7.44498C106.03 7.28498 105.82 7.19498 105.58 7.19498H104.26V7.20498ZM107.04 10.795H107.2V11.395H106.97C106.44 11.395 106.04 11.165 105.77 10.705L104.93 9.49498H104.26V11.395H103.62V6.61498H105.59C106.01 6.61498 106.37 6.75498 106.65 7.03498C106.93 7.31498 107.08 7.65498 107.08 8.07498C107.08 8.46498 106.95 8.79498 106.69 9.06498C106.43 9.33498 106.09 9.47498 105.69 9.50498L106.37 10.435C106.55 10.685 106.78 10.805 107.04 10.805V10.795ZM98.54 9.01498C98.79 9.01498 99 8.92498 99.17 8.75498C99.34 8.58498 99.42 8.36498 99.42 8.11498C99.42 7.86498 99.34 7.64498 99.17 7.46498C99 7.29498 98.79 7.20498 98.54 7.20498H97.19V9.01498H98.54ZM98.55 6.61498C98.99 6.61498 99.35 6.75498 99.64 7.04498C99.93 7.33498 100.08 7.68498 100.08 8.11498C100.08 8.54498 99.93 8.89498 99.64 9.18498C99.35 9.47498 98.98 9.61498 98.55 9.61498H97.19V11.395H96.55V6.61498H98.54H98.55Z" fill="#231F20"/>
<path d="M174.29 52.945H178.09V53.865H173.31V46.485H178.04V47.405H174.3V49.695H177.69V50.615H174.3V52.945H174.29ZM168.21 52.945C168.99 52.945 169.65 52.685 170.17 52.155C170.69 51.625 170.96 50.965 170.96 50.175C170.96 49.385 170.7 48.725 170.17 48.195C169.65 47.665 168.99 47.405 168.21 47.405H166.36V52.945H168.21ZM168.22 46.485C169.29 46.485 170.18 46.835 170.89 47.535C171.6 48.235 171.96 49.115 171.96 50.175C171.96 51.235 171.6 52.105 170.89 52.815C170.18 53.515 169.29 53.865 168.22 53.865H165.38V46.485H168.22ZM159.35 51.175H162.24L160.8 47.545L159.36 51.175H159.35ZM163.32 53.865L162.6 52.075H158.98L158.26 53.865H157.21L160.22 46.485H161.39L164.4 53.865H163.32ZM153.24 52.945C154.02 52.945 154.68 52.685 155.2 52.155C155.72 51.625 155.99 50.965 155.99 50.175C155.99 49.385 155.73 48.725 155.2 48.195C154.68 47.665 154.02 47.405 153.24 47.405H151.39V52.945H153.24ZM153.25 46.485C154.32 46.485 155.21 46.835 155.92 47.535C156.63 48.235 156.99 49.115 156.99 50.175C156.99 51.235 156.63 52.105 155.92 52.815C155.21 53.515 154.32 53.865 153.25 53.865H150.4V46.485H153.25ZM147.69 53.865V46.485H148.67V53.865H147.69ZM142.72 53.995C141.62 53.995 140.7 53.625 139.97 52.895C139.23 52.165 138.86 51.255 138.86 50.175C138.86 49.095 139.23 48.185 139.97 47.455C140.71 46.725 141.63 46.355 142.72 46.355C143.61 46.355 144.39 46.605 145.07 47.105C145.74 47.605 146.19 48.255 146.42 49.055H145.38C145.17 48.525 144.82 48.095 144.34 47.775C143.86 47.455 143.32 47.295 142.71 47.295C141.9 47.295 141.22 47.565 140.67 48.115C140.12 48.665 139.85 49.345 139.85 50.165C139.85 50.985 140.12 51.665 140.67 52.215C141.22 52.765 141.9 53.035 142.71 53.035C143.32 53.035 143.86 52.875 144.34 52.555C144.82 52.235 145.16 51.805 145.38 51.275H146.42C146.19 52.075 145.74 52.725 145.07 53.225C144.4 53.725 143.61 53.975 142.72 53.975V53.995ZM130.57 51.175H133.46L132.02 47.545L130.58 51.175H130.57ZM134.53 53.865L133.81 52.075H130.19L129.47 53.865H128.42L131.43 46.485H132.6L135.61 53.865H134.53ZM128.55 46.485C128.66 47.065 128.53 47.815 128.15 48.755L126.03 53.865H125L121.96 46.485H123.05L125.52 52.615L127.2 48.495C127.53 47.685 127.63 47.015 127.51 46.485H128.54H128.55ZM115.78 52.225C116.33 52.775 117 53.045 117.82 53.045C118.64 53.045 119.31 52.775 119.86 52.225C120.41 51.675 120.68 50.995 120.68 50.175C120.68 49.355 120.41 48.675 119.86 48.125C119.31 47.575 118.64 47.305 117.82 47.305C117 47.305 116.33 47.575 115.78 48.125C115.23 48.675 114.96 49.355 114.96 50.175C114.96 50.995 115.23 51.675 115.78 52.225ZM120.57 52.895C119.83 53.625 118.91 53.995 117.82 53.995C116.73 53.995 115.8 53.625 115.07 52.895C114.33 52.165 113.96 51.255 113.96 50.175C113.96 49.095 114.33 48.185 115.07 47.455C115.81 46.725 116.73 46.355 117.82 46.355C118.91 46.355 119.84 46.725 120.57 47.455C121.31 48.185 121.68 49.095 121.68 50.175C121.68 51.255 121.31 52.165 120.57 52.895ZM111.63 46.485H112.6V53.865H111.59L107.42 48.125V53.865H106.44V46.485H107.46L111.63 52.245V46.485ZM97.76 51.175H100.65L99.21 47.545L97.77 51.175H97.76ZM101.73 53.865L101.01 52.075H97.39L96.67 53.865H95.62L98.63 46.485H99.8L102.81 53.865H101.73ZM93.38 46.485H94.64V53.865H93.67V48.105L91.08 53.865H90.36L87.78 48.105V53.865H86.8V46.485H88.09L90.73 52.395L93.37 46.485H93.38ZM82.22 53.995C81.37 53.995 80.66 53.715 80.09 53.145C79.52 52.585 79.23 51.875 79.23 51.035V46.475H80.2V51.005C80.2 51.585 80.39 52.065 80.78 52.455C81.17 52.845 81.65 53.035 82.22 53.035C82.79 53.035 83.29 52.845 83.67 52.455C84.05 52.065 84.25 51.585 84.25 51.005V46.475H85.22V51.035C85.22 51.875 84.93 52.575 84.36 53.145C83.79 53.705 83.07 53.995 82.22 53.995Z" fill="#231F20"/>
<path d="M74.48 14.145L72.46 19.325L77.91 34.965H83L75.19 14.145H74.48Z" fill="#231F20"/>
<path d="M95.8 27.735L96.61 28.815C97.31 29.865 98.37 30.575 99.68 30.575H100.38V34.965H99.06C95.99 34.965 93.53 33.645 92.21 30.925L90.32 27.855H94.23C94.77 27.855 95.29 27.815 95.79 27.735" fill="#231F20"/>
<path d="M114.35 14.145L112.68 19.325L115.32 26.885L118.13 34.965H123.22L115.41 14.145H114.35Z" fill="#231F20"/>
<path d="M116.72 30.925L116.67 30.945L116.62 30.965L116.57 30.985L116.52 31.005L116.47 31.025L116.42 31.045L116.37 31.065L116.32 31.085L116.27 31.105L116.22 31.125L116.17 31.145L116.12 31.165L116.07 31.185L116.02 31.205L115.97 31.225L115.92 31.245L115.87 31.265L115.81 31.275L115.75 31.285L115.69 31.305L115.63 31.315L115.57 31.325L115.51 31.335L115.45 31.345L115.39 31.355L115.33 31.365L115.27 31.375L115.21 31.385H115.15V31.395H115.09V31.405H115.03V31.415H114.97V31.425H114.91V31.435H114.85V31.445H114.79V31.455H114.73V31.465H114.66V31.475H114.59V31.485H114.52V31.495H114.45H114.38V31.505H114.31H114.24H114.17H114.1H114.03H113.96H113.89H113.82H113.75H113.68H113.61H113.53H113.45H113.37H113.29H113.21H113.13H113.05H112.97H112.89H112.81H112.73H112.65C111.33 31.505 109.93 31.155 108.96 30.805L108.57 30.655L110.05 26.585L110.08 26.605L110.12 26.625L110.16 26.645L110.2 26.665L110.24 26.685L110.28 26.705L110.32 26.725L110.36 26.745L110.4 26.765L110.44 26.785L110.48 26.805L110.52 26.825L110.56 26.845L110.6 26.865L110.64 26.885L110.68 26.905L110.72 26.925L110.76 26.945L110.8 26.965L110.84 26.985L110.88 27.005L110.92 27.025L110.96 27.045L111 27.065L111.04 27.085L111.08 27.105L111.12 27.125L111.16 27.145L111.2 27.165L111.24 27.185H111.28V27.195H111.32V27.205H111.36L111.4 27.235H111.44L111.48 27.265H111.52L111.56 27.295H111.6V27.305H111.64L111.68 27.325H111.72V27.335H111.76L111.8 27.355H111.84L111.88 27.375H111.92H111.96L112 27.395H112.04L112.08 27.415H112.12L112.16 27.425H112.2L112.24 27.435H112.28H112.32H112.36H112.4H112.44H112.48H112.52H112.56H112.6H112.65H112.7H112.75H112.8H112.85H112.9H112.95H113H113.05H113.1H113.15H113.2H113.25H113.3H113.35H113.4H113.45H113.49H113.53H113.57H113.61H113.65H113.69H113.73H113.77H113.81H113.85H113.89V27.425H113.93V27.415H113.97V27.405H114.01V27.395H114.05V27.385H114.09V27.375L114.16 27.355H114.2V27.345H114.24V27.335H114.28V27.325H114.32V27.315H114.36V27.305H114.4V27.295H114.44V27.285H114.48V27.275H114.52V27.265H114.56V27.255H114.6V27.245H114.64V27.235H114.68V27.225H114.72V27.215H114.75V27.205H114.78V27.195H114.81V27.185H114.84V27.175H114.87V27.165H114.9V27.155H114.93V27.145H114.96V27.135H114.99V27.125H115.02V27.115H115.05V27.105H115.08V27.095H115.11V27.085H115.14V27.075H115.17V27.065L116.57 31.105L116.72 30.925Z" fill="#231F20"/>
<path d="M114.7 14.145L112.68 19.325L109.99 26.705L108.51 30.775L107.85 32.595C106.53 35.665 105.48 34.965 102.05 34.965L109.95 14.155H114.69L114.7 14.145Z" fill="#231F20"/>
<path d="M74.48 14.145L72.46 19.325L67.63 32.585C66.31 35.655 65.26 34.955 61.83 34.955L69.65 14.145H74.48Z" fill="#231F20"/>
<path d="M132.69 18.415C134.45 18.415 136.12 19.435 137.17 20.375L140.95 17.385C138.84 15.425 135.77 14.145 132.69 14.145C126.28 14.145 121.8 18.755 121.8 24.725C121.8 26.065 122.03 27.325 122.45 28.465C122.45 23.095 127.44 18.305 132.69 18.405" fill="#231F20"/>
<path d="M132.69 34.9651C135.76 34.9651 138.84 34.0251 140.95 31.9751L137.17 28.7351C136.12 30.0151 134.45 30.6951 132.69 30.6951C129.35 30.6951 126.54 28.0551 126.54 24.7251C126.54 21.0551 129 18.7551 132.69 18.4151C127.44 18.3051 122.45 23.0951 122.45 28.4751C123.18 30.4751 124.61 32.2651 126.55 33.3751C128.32 34.3851 130.44 34.9651 132.69 34.9651Z" fill="#231F20"/>
<path d="M182.83 14.175V14.115H178.35V14.175H182.83ZM186.96 34.965C191.7 34.965 195.48 31.675 195.48 26.925V14.125H191V26.995V26.975C191.35 33.365 187.58 35.015 183.54 34.415L183.59 34.435L183.64 34.455L183.69 34.475L183.74 34.495L183.79 34.515L183.84 34.535L183.89 34.545L183.94 34.565L183.99 34.575H184.04V34.585H184.09V34.595H184.14V34.605H184.19V34.615H184.24V34.625H184.29V34.635H184.34V34.645H184.39V34.655H184.44L184.49 34.675L184.54 34.685L184.59 34.695L184.64 34.705L184.69 34.715H184.74V34.725H184.79V34.735H184.84V34.745H184.89V34.755H184.94H184.99L185.04 34.775H185.09H185.14H185.19H185.24H185.29H185.34H185.39H185.44H185.49H185.54L185.59 34.785H185.64H185.69H185.74H185.79H185.85H185.91H185.97H186.03H186.09H186.15H186.21H186.27H186.33H186.39H186.45H186.51H186.57H186.63H186.69H186.75H186.81H186.87H186.93L186.96 34.965Z" fill="#231F20"/>
<path d="M191 26.915V26.985C190.96 28.835 189.48 30.435 187.35 30.615H187.31H187.29H187.27H187.19H187.08C186.93 30.615 186.78 30.615 186.63 30.605H186.6H186.54H186.49H186.45C185.02 30.455 183.91 29.705 183.32 28.675V28.655L183.31 28.635V28.615L183.28 28.595L183.24 28.515V28.485C183.22 28.445 183.2 28.405 183.18 28.355V28.335H183.17V28.305L183.14 28.255L183.13 28.225L183.11 28.175V28.145V28.115L183.09 28.085V28.055L183.07 28.005V27.985V27.975L183.05 27.895L183.03 27.805L183.01 27.725L183 27.675V27.645V27.635V27.615V27.585V27.555V27.535V27.495V27.465V27.445V27.415V27.385V27.355V27.305L182.99 27.275V27.245V27.185V27.175V27.125V27.095V27.075V27.065V27.035V26.985V26.945V26.885V14.085H178.51V27.045C178.58 30.345 180.67 33.295 183.69 34.315C187.73 34.925 191.51 33.275 191.15 26.875" fill="#231F20"/>
<path d="M188.67 30.305C188.61 30.325 188.56 30.355 188.5 30.375L188.67 30.305ZM191 26.975V26.995V27.065V27.125V27.155V27.195V27.245V27.325V27.395V27.425V27.495L190.99 27.505L190.98 27.585V27.645H190.97V27.675L190.95 27.705V27.735L190.93 27.775L190.91 27.835L190.9 27.895V27.935L190.88 27.965L190.86 28.025L190.84 28.095V28.115L190.81 28.185V28.215L190.79 28.275L190.76 28.335V28.355H190.75C190.73 28.405 190.7 28.455 190.67 28.515L190.63 28.585C190.6 28.645 190.58 28.695 190.55 28.745C190.5 28.825 190.46 28.895 190.41 28.965L190.36 29.045L190.31 29.115V29.135C190.28 29.175 190.24 29.215 190.21 29.255L190.16 29.325C190.16 29.325 190.09 29.415 190.05 29.455L190.03 29.485L189.99 29.525C189.93 29.595 189.86 29.655 189.79 29.705C189.72 29.765 189.65 29.825 189.57 29.875C189.5 29.925 189.42 29.985 189.34 30.025C189.26 30.075 189.18 30.115 189.09 30.165C189.03 30.195 188.98 30.225 188.92 30.245H188.9L188.83 30.275L188.77 30.305L188.66 30.345H188.65L188.59 30.375H188.56V30.385H188.52L188.48 30.405H188.47L188.44 30.415H188.4L188.33 30.445L188.29 30.455H188.25L188.21 30.475C188.06 30.515 187.9 30.545 187.74 30.565H187.7L187.62 30.575H187.58H187.54H187.5H187.46H187.41H187.34H187.23C187.01 30.575 186.79 30.575 186.57 30.545H186.53H186.49H186.46H186.45H186.41L186.37 30.535H186.35L186.29 30.525C186.21 30.515 186.13 30.495 186.05 30.475H186.03L185.99 30.465H185.93L185.89 30.435H185.88L185.83 30.415L185.77 30.395H185.74L185.72 30.375L185.66 30.355H185.64L185.61 30.335L185.56 30.315L185.51 30.295L185.46 30.275H185.45L185.38 30.245H185.37L185.35 30.235L185.3 30.215H185.28L185.25 30.195L185.2 30.175H185.19L185.15 30.155L185.1 30.135L185.01 30.095H185L184.94 30.055L184.92 30.035L184.87 30.005L184.84 29.985H184.82L184.77 29.945L184.73 29.915L184.69 29.895L184.65 29.855L184.62 29.835H184.6L184.56 29.795H184.55V29.785L184.48 29.735L184.44 29.705L184.4 29.675L184.36 29.635L184.33 29.615H184.32L184.28 29.565H184.26V29.545L184.2 29.495L184.17 29.455L184.13 29.425L184.09 29.385L184.06 29.355H184.05L184.01 29.305L183.99 29.285L183.97 29.265L183.94 29.225L183.91 29.195L183.87 29.145L183.83 29.095L183.8 29.065L183.77 29.025L183.75 29.005V28.985L183.7 28.945L183.68 28.905L183.65 28.865L183.62 28.825L183.6 28.785L183.57 28.745L183.55 28.715V28.695L183.51 28.655V28.635V28.615C183.21 28.105 183.05 27.535 183.05 26.955V14.155H178.57V26.955C178.57 30.125 180.19 33.135 183.75 34.395C187.79 35.005 191.57 33.355 191.21 26.955L191 26.975Z" fill="#231F20"/>
<path d="M167.88 30.0051C167.74 29.8851 167.63 29.7451 167.53 29.5951V29.6151V29.6251V29.6351L167.88 30.0051ZM169.6 34.9651C171.94 34.9351 174.14 34.1351 175.54 32.1851L175.49 32.2451C175.49 32.2451 175.42 32.3151 175.44 32.3051C173.47 34.2051 169.25 33.5251 167.73 30.6451C167.46 30.1551 167.27 29.6051 167.19 28.9851C167.17 28.8451 167.17 28.6051 167.17 28.5551C167.17 28.5051 167.17 28.4551 167.16 28.4151V28.4051V28.3851V28.3651V28.3451V28.3351V28.3151H162.42C162.42 32.2951 165.49 34.9751 169.62 34.9751L169.6 34.9651Z" fill="#231F20"/>
<path d="M154.09 14.145L152.07 19.325L156.06 30.785L157.51 34.965H162.7L160.34 28.765L154.79 14.145H154.09Z" fill="#231F20"/>
<path d="M154.09 14.145L152.07 19.325L149.46 26.825L147.33 32.935C145.93 35.655 144.87 34.955 141.53 34.955L149.35 14.145H154.09Z" fill="#231F20"/>
<path d="M148.02 30.9451H148.03C148.12 30.9751 148.2 31.0051 148.29 31.0351C148.37 31.0651 148.46 31.0851 148.54 31.1051H148.59C148.67 31.1451 148.75 31.1651 148.83 31.1851H148.84C148.93 31.2051 149.01 31.2251 149.1 31.2451H149.13C149.21 31.2651 149.29 31.2851 149.37 31.3051H149.41C149.49 31.3251 149.57 31.3451 149.65 31.3551H149.67H149.68C149.76 31.3651 149.85 31.3851 149.93 31.3951H149.98L150.2 31.4251H150.27L150.49 31.4551H150.52H150.54C150.62 31.4551 150.71 31.4651 150.79 31.4751H150.86L151.08 31.4851H151.14C151.23 31.4851 151.31 31.4851 151.39 31.4851H151.41C151.49 31.4851 151.58 31.4851 151.66 31.4851H151.71C151.78 31.4851 151.85 31.4851 151.92 31.4851H152.03L152.22 31.4751H152.29L152.52 31.4551H152.54H152.56H152.6L152.81 31.4351H152.9L153.1 31.4051H153.19V31.3951L153.32 31.3751H153.38L153.54 31.3451H153.57L153.7 31.3251L153.81 31.3051H153.83L153.96 31.2751H153.98L154.09 31.2551L154.22 31.2351H154.25L154.43 31.1951H154.47L154.6 31.1551L154.73 31.1251L154.86 31.0951L155.09 31.0351H155.12L155.36 30.9651L155.49 30.9251L155.6 30.8951H155.62L155.75 30.8551L155.88 30.8151L156.01 30.7751C157.5 30.3051 158.95 29.6151 160.29 28.7551L160.32 28.7351H160.34L160.54 28.5951L160.63 28.5351L160.81 28.4151L160.88 28.3651H160.89L160.97 28.2951L161.05 28.2351L161.13 28.1851L161.3 28.0551L161.34 28.0251L161.39 27.9951L161.55 27.8751L161.59 27.8451L161.63 27.8151L161.79 27.6851L161.83 27.6551L161.87 27.6251L162.04 27.4851L162.1 27.4351L162.26 27.3051L162.3 27.2651L162.33 27.2351L162.51 27.0851L162.57 27.0351L162.76 26.8651C162.83 26.7951 162.91 26.7251 162.98 26.6651L163 26.6351L163.19 26.4551L163.21 26.4251L163.39 26.2451L163.41 26.2251L163.43 26.2051L163.61 26.0151H163.62L163.64 25.9851L163.82 25.7951H163.83L163.84 25.7651L164.02 25.5751V25.5551L164.05 25.5451L164.24 25.3351C164.3 25.2551 164.36 25.1751 164.43 25.1051C164.49 25.0251 164.55 24.9551 164.6 24.8851H164.61V24.8651H164.62L164.77 24.6551L164.79 24.6351L164.8 24.6151L164.97 24.3951L163.21 18.9551C161 23.8651 155.14 27.9051 149.41 26.6451L147.92 30.9251L148.02 30.9451Z" fill="#231F20"/>
<path d="M89.5 27.845V23.715V18.275H84.67V34.965H89.5V27.845Z" fill="#231F20"/>
<path d="M84.67 34.965H89.5V27.845V23.715V18.275V14.145H84.67V34.965Z" fill="#231F20"/>
<path d="M96.96 20.975C96.95 19.575 95.63 18.275 94.24 18.275H89.5V14.145H94.24C97.3 14.145 99.74 15.405 100.95 17.575C102.23 19.855 102.13 23.195 100.45 25.255C99.78 26.065 98.9 26.715 97.85 27.155H97.84L97.77 27.185C97.69 27.215 97.61 27.245 97.53 27.275L97.45 27.305H97.44L97.37 27.335L97.21 27.395L97.13 27.415L97.05 27.445L96.97 27.465H96.93L96.88 27.485L96.8 27.505L96.72 27.525L96.63 27.545H96.61L96.54 27.565H96.5L96.45 27.585H96.39L96.37 27.605L96.28 27.625L96.19 27.645H96.17L96.07 27.665H96.06L96.01 27.675H95.94L95.92 27.695H95.83C95.33 27.785 94.81 27.825 94.27 27.825H89.53V23.695H94.27C95.68 23.695 97 22.375 96.99 20.945" fill="#231F20"/>
<path d="M76.5 30.9251C75.45 31.2751 74.13 31.6251 72.37 31.6251C71.05 31.6251 69.65 31.2751 68.68 30.9251L68.29 30.7751L69.77 26.7051L69.8 26.7251L69.83 26.7451L69.86 26.7651L69.89 26.7851L69.93 26.8051L69.97 26.8251L70.01 26.8451L70.05 26.8651L70.09 26.8851L70.13 26.9051L70.17 26.9251L70.21 26.9451L70.25 26.9651L70.29 26.9851L70.33 27.0051L70.37 27.0251L70.41 27.0451L70.45 27.0651L70.49 27.0851L70.53 27.1051L70.57 27.1251L70.61 27.1451L70.65 27.1651L70.69 27.1851L70.73 27.2051L70.77 27.2251L70.81 27.2451L70.85 27.2651L70.89 27.2851L70.93 27.2951L70.97 27.3151L71.01 27.3251L71.05 27.3351L71.09 27.3451L71.13 27.3551L71.17 27.3651L71.21 27.3751L71.25 27.3851L71.29 27.3951L71.33 27.4051H71.37V27.4151H71.41V27.4251H71.45V27.4351H71.49V27.4451H71.53V27.4551H71.57V27.4651H71.61H71.65H71.69H71.73H71.77H71.81H71.85H71.89H71.93L71.97 27.4751H72.01H72.05H72.09H72.13H72.17H72.21H72.25H72.29C73.34 27.4751 74.31 27.1251 75.01 26.8651L76.41 30.9051L76.5 30.9251Z" fill="#231F20"/>
<path d="M176.56 29.775C176.64 29.395 176.68 28.995 176.7 28.605C176.7 28.505 176.7 28.405 176.7 28.295V14.115H172.31V28.295C172.31 29.595 170.9 30.625 169.59 30.625H169.57H169.55H169.54C168.95 30.585 168.54 30.375 168.19 30.125H168.17V30.105L168.13 30.075H168.12V30.055L168.1 30.035C167.94 29.905 167.81 29.755 167.69 29.575V29.555V29.535C167.5 29.235 167.39 28.895 167.35 28.545C167.35 28.535 167.35 28.825 167.37 28.985C167.93 33.275 173.49 34.585 175.74 32.175C176.23 31.485 176.58 30.675 176.77 29.775" fill="#231F20"/>
</g>
<defs>
<clipPath id="clip0_615_4558">
<rect width="192.96" height="52.21" fill="white" transform="translate(2.52 3.89502)"/>
</clipPath>
</defs>
</svg>
