<svg width="177" height="41" viewBox="0 0 177 41" fill="none" xmlns="http://www.w3.org/2000/svg">
<g clip-path="url(#clip0_617_6267)">
<path d="M24.714 8.50234C25.0125 8.50234 25.2907 8.61836 25.5023 8.83009L33.3826 16.7164C33.8174 17.1515 33.8174 17.8592 33.3826 18.2942L25.5023 26.1805C25.2907 26.3923 25.0125 26.5083 24.714 26.5083C24.4154 26.5083 24.1372 26.3923 23.9256 26.1805L16.0453 18.2942C15.6106 17.8592 15.6106 17.1515 16.0453 16.7164L23.9256 8.83009C24.1372 8.61836 24.4154 8.50234 24.714 8.50234ZM24.714 7.60901C24.201 7.60901 23.688 7.80624 23.2938 8.1978L15.4135 16.0841C14.631 16.8672 14.631 18.1405 15.4135 18.9236L23.2938 26.8099C23.6851 27.2015 24.1981 27.3987 24.714 27.3987C25.2299 27.3987 25.7399 27.2015 26.1341 26.8099L34.0144 18.9236C34.797 18.1405 34.797 16.8672 34.0144 16.0841L26.1341 8.1978C25.7428 7.80624 25.2299 7.60901 24.714 7.60901Z" fill="#231F20"/>
<path d="M27.6354 32.2395C27.5224 32.2395 27.4064 32.196 27.3195 32.109C26.8326 31.6217 26.5659 30.9749 26.5659 30.2875C26.5659 29.6001 26.8326 28.9533 27.3195 28.4661L35.6664 20.1099C36.1533 19.6226 36.7997 19.3558 37.4865 19.3558C38.1734 19.3558 38.8197 19.6226 39.3066 20.1099C39.4805 20.2839 39.4805 20.5682 39.3066 20.7422C39.1327 20.9162 38.8487 20.9162 38.6748 20.7422C38.356 20.4231 37.9358 20.2491 37.4865 20.2491C37.0373 20.2491 36.6171 20.4231 36.2983 20.7422L27.9513 29.0955C27.6325 29.4145 27.4586 29.8351 27.4586 30.2846C27.4586 30.7342 27.6325 31.1577 27.9513 31.4738C28.1252 31.6478 28.1252 31.9321 27.9513 32.1061C27.8644 32.1931 27.7513 32.2366 27.6354 32.2366" fill="#231F20"/>
<path d="M11.9385 15.649C11.2806 15.649 10.6198 15.3996 10.1184 14.8949C9.9445 14.7209 9.9445 14.4395 10.1184 14.2626C10.2923 14.0886 10.5734 14.0886 10.7502 14.2626C11.4052 14.9181 12.4718 14.9181 13.1268 14.2626L21.4737 5.90644C22.1287 5.25094 22.1287 4.18357 21.4737 3.52807C21.2998 3.35405 21.2998 3.06981 21.4737 2.89578C21.6476 2.72175 21.9287 2.72175 22.1055 2.89578C23.1083 3.89933 23.1083 5.53228 22.1055 6.53583L13.7557 14.892C13.2543 15.3938 12.5964 15.6461 11.9356 15.6461" fill="#231F20"/>
<path d="M37.4865 15.649C36.8286 15.649 36.1678 15.3996 35.6664 14.8949L27.3166 6.53873C26.8297 6.05146 26.563 5.40466 26.563 4.71726C26.563 4.02985 26.8297 3.38305 27.3166 2.89578C27.4905 2.72175 27.7745 2.72175 27.9484 2.89578C28.1223 3.06981 28.1223 3.35115 27.9484 3.52807C27.6325 3.84712 27.4557 4.26769 27.4557 4.71726C27.4557 5.16682 27.6296 5.59029 27.9484 5.90644L36.2983 14.2626C36.9533 14.9181 38.0198 14.9181 38.6748 14.2626C38.8487 14.0886 39.1327 14.0886 39.3066 14.2626C39.4805 14.4366 39.4805 14.7209 39.3066 14.8949C38.8052 15.3967 38.1473 15.649 37.4865 15.649Z" fill="#231F20"/>
<path d="M21.7896 32.2396C21.6766 32.2396 21.5607 32.1961 21.4737 32.109C21.2998 31.935 21.2998 31.6537 21.4737 31.4768C22.1287 30.8213 22.1287 29.7539 21.4737 29.0984L13.1268 20.7451C12.808 20.4261 12.3877 20.252 11.9385 20.252C11.4893 20.252 11.0661 20.4261 10.7502 20.7451C10.5763 20.9191 10.2923 20.9191 10.1184 20.7451C9.9445 20.5711 9.9445 20.2868 10.1184 20.1128C10.6053 19.6255 11.2516 19.3587 11.9385 19.3587C12.6254 19.3587 13.2717 19.6255 13.7586 20.1128L22.1084 28.469C23.1112 29.4725 23.1112 31.1055 22.1084 32.109C22.0215 32.1961 21.9085 32.2396 21.7925 32.2396" fill="#231F20"/>
<path d="M168.664 0.5H48.7056C47.4155 0.5 46.3697 1.54665 46.3697 2.83776V31.6769C46.3697 32.968 47.4155 34.0146 48.7056 34.0146H168.664C169.954 34.0146 171 32.968 171 31.6769V2.83776C171 1.54665 169.954 0.5 168.664 0.5Z" fill="#231F20"/>
<path d="M69.1383 11.484H59.8262L59.4552 13.9465H67.721L66.8429 20.0258H58.6118L58.2409 22.6246H67.721L66.8776 28.7039H50.9518L54.2239 5.40466H69.9817L69.1383 11.484Z" fill="white"/>
<path d="M91.5417 5.40466H99.7409L96.4687 28.7039H90.023L91.7098 16.7512L85.267 28.7039H80.9486L77.8765 16.7512L76.1897 28.7039H69.744L73.019 5.40466H81.3196L84.5917 18.4392L91.5417 5.40466Z" fill="white"/>
<path d="M117.185 26.3893C115.049 28.2021 112.574 29.107 109.763 29.107C106.952 29.107 104.735 28.2021 103.117 26.3893C101.497 24.5766 100.88 22.3084 101.262 19.5849L103.254 5.40173H109.699L107.743 19.4834C107.586 20.4521 107.781 21.2614 108.334 21.9139C108.885 22.5666 109.656 22.8943 110.644 22.8943C111.632 22.8943 112.467 22.5724 113.209 21.9314C113.951 21.2904 114.4 20.4753 114.56 19.4834L116.516 5.40173H122.962L120.97 19.5849C120.588 22.3084 119.327 24.5766 117.191 26.3893" fill="white"/>
<path d="M144.719 13.61C144.493 15.2314 143.864 16.6729 142.829 17.9317C141.794 19.1934 140.502 20.1273 138.948 20.7335L139.085 20.9713C139.737 22.0735 140.861 22.6246 142.458 22.6246H143.606L142.762 28.7039H140.908C136.566 28.7039 133.778 27.071 132.54 23.808L131.63 21.4789H130.651L129.639 28.7039H123.193L126.466 5.40466H137.262C139.713 5.40466 141.652 6.18778 143.081 7.75112C144.51 9.31736 145.055 11.2694 144.719 13.61ZM132.065 11.484L131.424 15.8724H135.676C136.282 15.8724 136.818 15.6635 137.279 15.2488C137.74 14.8311 138.015 14.309 138.105 13.6796C138.195 13.0502 138.064 12.5252 137.717 12.1105C137.369 11.6928 136.891 11.4869 136.282 11.4869H132.065V11.484Z" fill="white"/>
<path d="M166.345 11.4492C166.189 12.4614 165.832 13.4128 165.282 14.3032C164.731 15.1937 164.073 15.8637 163.308 16.3132C164.23 16.7628 164.934 17.5517 165.418 18.6771C165.902 19.8025 166.053 21.0293 165.873 22.3577C165.603 24.2256 164.748 25.7513 163.308 26.9317C161.868 28.1122 160.192 28.7039 158.28 28.7039H145.423L148.695 5.40466H160.81C162.61 5.40466 164.044 5.97895 165.111 7.12753C166.18 8.2761 166.589 9.71762 166.343 11.4492M158.738 22.4071C159.108 22.0822 159.329 21.6819 159.395 21.2092C159.462 20.7364 159.355 20.3361 159.074 20.0113C158.793 19.6864 158.416 19.5211 157.943 19.5211H152.95L152.477 22.8972H157.471C157.943 22.8972 158.367 22.7348 158.738 22.4071ZM159.024 13.6448C159.34 13.3751 159.52 13.0357 159.564 12.6326C159.607 12.2265 159.517 11.8901 159.294 11.6203C159.068 11.3506 158.755 11.2142 158.349 11.2142H154.132L153.726 14.0509H157.943C158.349 14.0509 158.709 13.9146 159.022 13.6448H159.024Z" fill="white"/>
<path d="M58.9219 36.8716H57.4554L57.3482 37.6489H58.6698L58.5973 38.1478H57.2786L57.1656 38.9425H58.6524L58.5858 39.4413H56.5657L56.9975 36.3727H58.9944L58.9219 36.8716Z" fill="#6D6E71"/>
<path d="M62.1738 36.3727H62.852L62.4201 39.4413H61.8927L62.1999 37.2602L60.942 39.4413H60.5682L59.9219 37.2602L59.6204 39.4413H59.0901L59.5219 36.3727H60.2117L60.8754 38.6263L62.1738 36.3727Z" fill="#6D6E71"/>
<path d="M64.8489 36.3727C65.1387 36.3727 65.3706 36.4684 65.5415 36.6569C65.7125 36.8455 65.7792 37.0862 65.7386 37.3733C65.6981 37.6576 65.5647 37.8954 65.3416 38.0839C65.1184 38.2725 64.8605 38.3682 64.5706 38.3682H63.7707L63.62 39.4413H63.0896L63.5215 36.3727H64.8518H64.8489ZM65.1909 37.3733C65.2111 37.2283 65.1822 37.1065 65.101 37.0137C65.0199 36.918 64.9097 36.8716 64.7706 36.8716H63.9794L63.8403 37.8722H64.6315C64.7706 37.8722 64.8952 37.8258 64.9996 37.7301C65.1068 37.6344 65.1706 37.5155 65.1909 37.3733Z" fill="#6D6E71"/>
<path d="M68.4949 37.3472C68.463 37.588 68.3586 37.7939 68.1848 37.965C68.0109 38.1361 67.7993 38.2435 67.5529 38.2841L67.8022 38.7075C67.9007 38.8642 68.0369 38.9425 68.2166 38.9425H68.3268L68.2601 39.4413H68.0862C67.6863 39.4413 67.4138 39.276 67.2689 38.9483L66.9269 38.2986H66.5791L66.4197 39.4413H65.8893L66.3212 36.3727H67.6225C67.9094 36.3727 68.1355 36.4655 68.3036 36.6511C68.4688 36.8368 68.5325 37.0688 68.4949 37.3472ZM67.9529 37.3501C67.9703 37.2109 67.9413 37.0949 67.863 37.005C67.7848 36.9151 67.6805 36.8687 67.5442 36.8687H66.7791L66.6458 37.8345H67.4109C67.5471 37.8345 67.666 37.7881 67.7674 37.6953C67.8688 37.6025 67.9297 37.4865 67.9529 37.3472V37.3501Z" fill="#6D6E71"/>
<path d="M71.0685 36.8716H69.602L69.4947 37.6489H70.8163L70.7439 38.1478H69.4252L69.3122 38.9425H70.799L70.7323 39.4413H68.7122L69.1441 36.3727H71.1409L71.0685 36.8716Z" fill="#6D6E71"/>
<path d="M72.1582 39.4965C71.8452 39.4965 71.5931 39.4065 71.4105 39.2238C71.225 39.044 71.1525 38.8177 71.1902 38.5509H71.7322C71.7148 38.6843 71.7525 38.7945 71.851 38.8845C71.9467 38.9744 72.0742 39.0179 72.2365 39.0179C72.3872 39.0179 72.5205 38.9773 72.6365 38.899C72.7524 38.8206 72.819 38.722 72.8364 38.6031C72.8538 38.4842 72.8074 38.3856 72.6973 38.3073C72.5872 38.229 72.4307 38.1651 72.2249 38.1187C71.9583 38.0578 71.7496 37.9505 71.6018 37.8026C71.454 37.6547 71.396 37.4574 71.4279 37.2167C71.4656 36.9528 71.596 36.7381 71.8162 36.5699C72.0365 36.4017 72.2974 36.3176 72.5959 36.3176C72.8944 36.3176 73.1321 36.4046 73.3088 36.5757C73.4856 36.7468 73.5552 36.9615 73.5146 37.2196H72.9726C72.99 37.0978 72.9553 36.9963 72.8712 36.9151C72.7843 36.8338 72.6683 36.7932 72.5234 36.7932C72.3785 36.7932 72.2626 36.828 72.1553 36.9006C72.051 36.9731 71.9901 37.063 71.9757 37.1761C71.9438 37.3965 72.1322 37.5532 72.5408 37.6489C73.1639 37.8026 73.4422 38.1042 73.3813 38.5567C73.3436 38.8323 73.2074 39.0585 72.9726 39.2325C72.7379 39.4065 72.4655 39.4965 72.1553 39.4965" fill="#6D6E71"/>
<path d="M75.8622 39.4413L75.7057 38.7858H74.3087L73.9667 39.4413H73.3987L75.0391 36.3727H75.6651L76.4418 39.4413H75.8593H75.8622ZM74.5638 38.2986H75.5898L75.2652 36.9499L74.5638 38.2986Z" fill="#6D6E71"/>
<path d="M80.9312 36.3727H81.6094L81.1805 39.4413H80.6501L80.9573 37.2602L79.6995 39.4413H79.3256L78.6793 37.2602L78.3779 39.4413H77.8504L78.2793 36.3727H78.9691L79.6328 38.6263L80.9312 36.3727Z" fill="#6D6E71"/>
<path d="M83.0325 39.4964C82.6731 39.4964 82.392 39.3775 82.1862 39.1426C81.9804 38.9076 81.9022 38.6118 81.9485 38.2608L82.2152 36.3755H82.7398L82.4818 38.2521C82.4499 38.4639 82.4934 38.6379 82.6122 38.7771C82.7311 38.9163 82.8963 38.9859 83.1078 38.9859C83.3194 38.9859 83.4991 38.9163 83.6556 38.7771C83.815 38.6379 83.9106 38.4639 83.9425 38.2521L84.2063 36.3755H84.7366L84.4729 38.2608C84.4236 38.6147 84.2613 38.9076 83.986 39.1426C83.7107 39.3775 83.3948 39.4964 83.0325 39.4964Z" fill="#6D6E71"/>
<path d="M87.4117 36.3727H87.9421L87.5102 39.4413H86.9712L85.7394 37.2718L85.438 39.4413H84.9105L85.3395 36.3727H85.8785L87.1103 38.548L87.4117 36.3727Z" fill="#6D6E71"/>
<path d="M88.1768 39.4413L88.6087 36.3727H89.1362L88.7072 39.4413H88.1768Z" fill="#6D6E71"/>
<path d="M90.8143 39.4964C90.3534 39.4964 89.9912 39.3456 89.7274 39.0411C89.4608 38.7365 89.3622 38.3595 89.426 37.9099C89.4869 37.4603 89.6955 37.0804 90.0462 36.7787C90.3969 36.4742 90.8027 36.3234 91.2635 36.3234C91.6432 36.3234 91.9591 36.4307 92.2141 36.6482C92.4663 36.8657 92.6141 37.1442 92.6575 37.4893H92.0924C92.0431 37.2892 91.9359 37.1326 91.7765 37.0137C91.6171 36.8948 91.4229 36.8367 91.1939 36.8367C90.8896 36.8367 90.6201 36.9412 90.3882 37.1471C90.1564 37.353 90.0172 37.6083 89.9767 37.9157C89.9332 38.2203 89.997 38.4784 90.1709 38.6843C90.3447 38.8903 90.5853 38.9947 90.8925 38.9947C91.1186 38.9947 91.3272 38.9367 91.5243 38.8177C91.7185 38.6988 91.8721 38.5393 91.9765 38.3421H92.5358C92.4025 38.6872 92.1793 38.9657 91.8634 39.1832C91.5475 39.4007 91.1997 39.5081 90.8172 39.5081" fill="#6D6E71"/>
<path d="M92.8575 39.4413L93.2893 36.3727H93.8197L93.3879 39.4413H92.8575Z" fill="#6D6E71"/>
<path d="M95.8108 36.3727C96.1006 36.3727 96.3325 36.4684 96.5035 36.6569C96.6745 36.8455 96.7412 37.0862 96.7006 37.3733C96.66 37.6576 96.5267 37.8954 96.3035 38.0839C96.0803 38.2725 95.8224 38.3682 95.5326 38.3682H94.7327L94.582 39.4413H94.0516L94.4834 36.3727H95.8137H95.8108ZM96.1528 37.3733C96.1731 37.2283 96.1441 37.1065 96.063 37.0137C95.9818 36.918 95.8717 36.8716 95.7326 36.8716H94.9413L94.8022 37.8722H95.5934C95.7326 37.8722 95.8572 37.8258 95.9615 37.7301C96.0688 37.6344 96.1325 37.5155 96.1528 37.3733Z" fill="#6D6E71"/>
<path d="M98.7351 39.4413L98.5786 38.7858H97.1817L96.8397 39.4413H96.2716L97.912 36.3727H98.5381L99.3148 39.4413H98.7322H98.7351ZM97.4367 38.2986H98.4627L98.1381 36.9499L97.4367 38.2986Z" fill="#6D6E71"/>
<path d="M100.274 38.9425H101.625L101.558 39.4413H99.6742L100.106 36.3727H100.634L100.274 38.9425Z" fill="#6D6E71"/>
<path d="M104.679 36.3727C105.126 36.3727 105.479 36.5177 105.734 36.8106C105.989 37.1036 106.088 37.469 106.027 37.907C105.966 38.345 105.763 38.7104 105.427 39.0034C105.088 39.2963 104.697 39.4413 104.248 39.4413H103.056L103.488 36.3727H104.679ZM105.485 37.907C105.526 37.6112 105.462 37.3646 105.294 37.1674C105.126 36.9702 104.894 36.8716 104.601 36.8716H103.946L103.656 38.9454H104.306C104.598 38.9454 104.856 38.8468 105.082 38.6495C105.305 38.4523 105.439 38.2058 105.485 37.9099V37.907Z" fill="#6D6E71"/>
<path d="M108.673 36.8716H107.207L107.099 37.6489H108.418L108.349 38.1478H107.027L106.917 38.9425H108.401L108.334 39.4413H106.317L106.749 36.3727H108.743L108.673 36.8716Z" fill="#6D6E71"/>
<path d="M112.551 39.0381C112.2 39.3427 111.795 39.4935 111.334 39.4935C110.873 39.4935 110.511 39.3427 110.247 39.0381C109.98 38.7336 109.882 38.3565 109.946 37.907C110.006 37.4574 110.215 37.0774 110.566 36.7758C110.916 36.4713 111.322 36.3204 111.783 36.3204C112.244 36.3204 112.603 36.4713 112.87 36.7758C113.134 37.0804 113.238 37.4574 113.174 37.907C113.11 38.3565 112.902 38.7365 112.548 39.0381M110.69 38.6756C110.864 38.8815 111.105 38.9859 111.412 38.9859C111.719 38.9859 111.986 38.8844 112.218 38.6785C112.45 38.4726 112.589 38.2173 112.632 37.9099C112.673 37.6053 112.606 37.3472 112.432 37.1413C112.258 36.9353 112.018 36.8309 111.713 36.8309C111.409 36.8309 111.14 36.9353 110.908 37.1413C110.676 37.3472 110.537 37.6024 110.496 37.9099C110.453 38.2144 110.517 38.4726 110.693 38.6785L110.69 38.6756Z" fill="#6D6E71"/>
<path d="M115.994 37.1471C115.974 37.2892 115.922 37.4197 115.838 37.5415C115.754 37.6604 115.652 37.7504 115.536 37.8113C115.69 37.8577 115.806 37.9563 115.884 38.1071C115.962 38.2579 115.988 38.4262 115.962 38.6118C115.93 38.8525 115.82 39.0498 115.635 39.2093C115.449 39.3659 115.235 39.4442 114.989 39.4442H113.464L113.896 36.3755H115.302C115.53 36.3755 115.71 36.4481 115.841 36.596C115.971 36.7439 116.023 36.9266 115.994 37.15M115.429 38.5219C115.446 38.3972 115.42 38.2927 115.348 38.2086C115.275 38.1245 115.18 38.081 115.055 38.081H114.165L114.041 38.9656H114.931C115.055 38.9656 115.165 38.9221 115.261 38.838C115.357 38.751 115.412 38.6466 115.429 38.5219ZM115.107 36.8483H114.342L114.232 37.6314H114.997C115.104 37.6314 115.2 37.5937 115.287 37.5183C115.374 37.4429 115.426 37.3501 115.441 37.2399C115.455 37.1268 115.432 37.0339 115.368 36.9585C115.304 36.8831 115.217 36.8483 115.107 36.8483Z" fill="#6D6E71"/>
<path d="M118.892 37.3472C118.861 37.588 118.756 37.7939 118.582 37.965C118.408 38.1361 118.197 38.2435 117.951 38.2841L118.2 38.7075C118.298 38.8642 118.435 38.9425 118.614 38.9425H118.724L118.658 39.4413H118.484C118.084 39.4413 117.811 39.276 117.666 38.9483L117.324 38.2986H116.977L116.817 39.4413H116.287L116.719 36.3727H118.02C118.307 36.3727 118.533 36.4655 118.701 36.6511C118.866 36.8368 118.93 37.0688 118.892 37.3472ZM118.35 37.3501C118.368 37.2109 118.339 37.0949 118.261 37.005C118.182 36.9151 118.078 36.8687 117.942 36.8687H117.177L117.043 37.8345H117.809C117.945 37.8345 118.064 37.7881 118.165 37.6953C118.266 37.6025 118.327 37.4865 118.35 37.3472V37.3501Z" fill="#6D6E71"/>
<path d="M121.286 39.4413L121.13 38.7858H119.733L119.391 39.4413H118.823L120.463 36.3727H121.089L121.866 39.4413H121.283H121.286ZM119.988 38.2986H121.014L120.689 36.9499L119.988 38.2986Z" fill="#6D6E71"/>
<path d="M123.101 39.4965C122.788 39.4965 122.536 39.4065 122.353 39.2238C122.167 39.044 122.095 38.8177 122.133 38.5509H122.675C122.657 38.6843 122.695 38.7945 122.793 38.8845C122.889 38.9744 123.017 39.0179 123.179 39.0179C123.33 39.0179 123.463 38.9773 123.579 38.899C123.695 38.8206 123.762 38.722 123.779 38.6031C123.796 38.4842 123.75 38.3856 123.64 38.3073C123.53 38.229 123.373 38.1651 123.167 38.1187C122.901 38.0578 122.692 37.9505 122.544 37.8026C122.396 37.6547 122.338 37.4574 122.37 37.2167C122.408 36.9528 122.538 36.7381 122.759 36.5699C122.979 36.4017 123.24 36.3176 123.538 36.3176C123.837 36.3176 124.075 36.4046 124.251 36.5757C124.428 36.7468 124.498 36.9615 124.457 37.2196H123.915C123.933 37.0978 123.898 36.9963 123.814 36.9151C123.727 36.8338 123.611 36.7932 123.466 36.7932C123.321 36.7932 123.205 36.828 123.098 36.9006C122.993 36.9731 122.933 37.063 122.918 37.1761C122.886 37.3965 123.075 37.5532 123.483 37.6489C124.106 37.8026 124.385 38.1042 124.324 38.5567C124.286 38.8323 124.15 39.0585 123.915 39.2325C123.68 39.4065 123.408 39.4965 123.098 39.4965" fill="#6D6E71"/>
<path d="M128.106 36.8716H126.639L126.532 37.6489H127.854L127.781 38.1478H126.46L126.35 38.9425H127.834L127.767 39.4413H125.75L126.182 36.3727H128.178L128.106 36.8716Z" fill="#6D6E71"/>
<path d="M130.512 39.4964C130.152 39.4964 129.871 39.3775 129.665 39.1426C129.459 38.9076 129.381 38.6118 129.428 38.2608L129.694 36.3755H130.219L129.961 38.2521C129.929 38.4639 129.972 38.6379 130.091 38.7771C130.21 38.9163 130.375 38.9859 130.587 38.9859C130.798 38.9859 130.978 38.9163 131.135 38.7771C131.294 38.6379 131.39 38.4639 131.422 38.2521L131.682 36.3755H132.213L131.949 38.2608C131.9 38.6147 131.737 38.9076 131.462 39.1426C131.187 39.3775 130.871 39.4964 130.509 39.4964" fill="#6D6E71"/>
<path d="M134.992 37.3472C134.96 37.588 134.856 37.7939 134.682 37.965C134.508 38.1361 134.297 38.2435 134.05 38.2841L134.3 38.7075C134.398 38.8642 134.534 38.9425 134.714 38.9425H134.824L134.757 39.4413H134.584C134.184 39.4413 133.911 39.276 133.766 38.9483L133.424 38.2986H133.076L132.917 39.4413H132.387L132.819 36.3727H134.12C134.407 36.3727 134.633 36.4655 134.801 36.6511C134.966 36.8368 135.03 37.0688 134.992 37.3472ZM134.45 37.3501C134.468 37.2109 134.439 37.0949 134.36 37.005C134.282 36.9151 134.178 36.8687 134.042 36.8687H133.276L133.143 37.8345H133.908C134.044 37.8345 134.163 37.7881 134.265 37.6953C134.366 37.6025 134.427 37.4865 134.45 37.3472V37.3501Z" fill="#6D6E71"/>
<path d="M137.74 37.1471C137.719 37.2892 137.667 37.4197 137.583 37.5415C137.499 37.6604 137.398 37.7504 137.282 37.8113C137.435 37.8577 137.551 37.9563 137.63 38.1071C137.708 38.2579 137.734 38.4262 137.708 38.6118C137.676 38.8525 137.566 39.0498 137.38 39.2093C137.195 39.3659 136.98 39.4442 136.734 39.4442H135.21L135.641 36.3755H137.047C137.276 36.3755 137.456 36.4481 137.586 36.596C137.717 36.7439 137.769 36.9266 137.74 37.15M137.175 38.5219C137.192 38.3972 137.166 38.2927 137.093 38.2086C137.021 38.1245 136.925 38.081 136.801 38.081H135.911L135.786 38.9656H136.676C136.801 38.9656 136.911 38.9221 137.006 38.838C137.102 38.751 137.157 38.6466 137.175 38.5219ZM136.85 36.8483H136.085L135.975 37.6314H136.74C136.847 37.6314 136.943 37.5937 137.03 37.5183C137.117 37.4429 137.169 37.3501 137.183 37.2399C137.198 37.1268 137.175 37.0339 137.111 36.9585C137.047 36.8831 136.96 36.8483 136.85 36.8483Z" fill="#6D6E71"/>
<path d="M140.154 39.4413L139.997 38.7858H138.601L138.259 39.4413H137.69L139.331 36.3727H139.957L140.734 39.4413H140.151H140.154ZM138.856 38.2986H139.882L139.557 36.9499L138.856 38.2986Z" fill="#6D6E71"/>
<path d="M143.594 36.3727H144.125L143.693 39.4413H143.157L141.925 37.2718L141.621 39.4413H141.093L141.525 36.3727H142.061L143.293 38.548L143.594 36.3727Z" fill="#6D6E71"/>
<path d="M144.359 39.4413L144.791 36.3727H145.322L144.89 39.4413H144.359Z" fill="#6D6E71"/>
<path d="M148.179 36.3727L148.127 36.7497L146.182 38.9425H147.846L147.779 39.4413H145.388L145.44 39.0643L147.382 36.8716H145.771L145.837 36.3727H148.179Z" fill="#6D6E71"/>
<path d="M150.434 39.4413L150.278 38.7858H148.881L148.539 39.4413H147.971L149.611 36.3727H150.237L151.014 39.4413H150.431H150.434ZM149.136 38.2986H150.162L149.837 36.9499L149.136 38.2986Z" fill="#6D6E71"/>
<path d="M152.741 38.983C152.967 38.983 153.176 38.925 153.373 38.8061C153.567 38.6872 153.721 38.5277 153.825 38.3304H154.384C154.263 38.6437 154.063 38.9076 153.779 39.1194C153.498 39.3311 153.182 39.4529 152.837 39.4877L152.738 39.5863C152.86 39.5892 152.956 39.6327 153.028 39.7198C153.1 39.8068 153.124 39.9112 153.103 40.0359C153.086 40.1664 153.022 40.2766 152.915 40.3666C152.808 40.4565 152.68 40.5029 152.538 40.5029C152.405 40.5029 152.298 40.4623 152.216 40.384C152.135 40.3027 152.098 40.2041 152.103 40.0852H152.411C152.416 40.1258 152.434 40.1606 152.466 40.1867C152.498 40.2128 152.535 40.2273 152.579 40.2273C152.631 40.2273 152.68 40.2099 152.724 40.1722C152.767 40.1345 152.793 40.091 152.802 40.0359C152.811 39.9837 152.799 39.9373 152.764 39.8996C152.729 39.8619 152.686 39.8445 152.634 39.8445C152.576 39.8445 152.524 39.8648 152.483 39.9054L152.219 39.7749L152.492 39.4848C152.08 39.4442 151.759 39.276 151.532 38.9801C151.304 38.6843 151.219 38.3275 151.28 37.907C151.341 37.4574 151.55 37.0774 151.901 36.7758C152.251 36.4713 152.657 36.3204 153.118 36.3204C153.497 36.3204 153.813 36.4278 154.066 36.6453C154.318 36.8628 154.466 37.1413 154.509 37.4864H153.944C153.895 37.2863 153.787 37.1297 153.628 37.0107C153.469 36.8918 153.274 36.8338 153.045 36.8338C152.741 36.8338 152.472 36.9382 152.24 37.1442C152.008 37.3501 151.869 37.6053 151.828 37.9128C151.785 38.2173 151.848 38.4755 152.025 38.6814C152.199 38.8873 152.44 38.9917 152.747 38.9917" fill="#6D6E71"/>
<path d="M156.712 39.4413L156.555 38.7858H155.158L154.816 39.4413H154.248L155.889 36.3727H156.515L157.291 39.4413H156.709H156.712ZM155.413 38.2986H156.439L156.115 36.9499L155.413 38.2986ZM156.036 35.868C155.984 35.868 155.935 35.8854 155.894 35.9231C155.854 35.9608 155.828 36.0043 155.819 36.0594H155.468C155.492 35.8883 155.552 35.7462 155.654 35.636C155.752 35.5258 155.88 35.4706 156.033 35.4706C156.126 35.4706 156.219 35.5054 156.315 35.5751C156.41 35.6447 156.486 35.6795 156.535 35.6795C156.587 35.6795 156.636 35.6621 156.677 35.6244C156.717 35.5867 156.741 35.5403 156.749 35.4851H157.106C157.083 35.6592 157.019 35.8013 156.92 35.9086C156.819 36.0159 156.694 36.071 156.544 36.071C156.448 36.071 156.352 36.0362 156.257 35.9695C156.161 35.8999 156.089 35.868 156.042 35.868H156.036Z" fill="#6D6E71"/>
<path d="M160.158 39.0381C159.807 39.3427 159.401 39.4935 158.94 39.4935C158.48 39.4935 158.117 39.3427 157.854 39.0381C157.587 38.7336 157.488 38.3565 157.552 37.907C157.613 37.4574 157.822 37.0774 158.172 36.7758C158.523 36.4713 158.929 36.3204 159.39 36.3204C159.85 36.3204 160.21 36.4713 160.476 36.7758C160.743 37.0804 160.845 37.4574 160.781 37.907C160.714 38.3565 160.508 38.7365 160.155 39.0381M158.297 38.6756C158.471 38.8815 158.711 38.9859 159.019 38.9859C159.326 38.9859 159.593 38.8844 159.824 38.6785C160.056 38.4726 160.195 38.2173 160.239 37.9099C160.279 37.6053 160.213 37.3472 160.039 37.1413C159.865 36.9353 159.624 36.8309 159.32 36.8309C159.016 36.8309 158.746 36.9353 158.514 37.1413C158.282 37.3472 158.143 37.6024 158.103 37.9099C158.059 38.2144 158.123 38.4726 158.3 38.6785L158.297 38.6756Z" fill="#6D6E71"/>
<path d="M7.28392 33.5447H42.1411C42.3788 33.5447 42.5701 33.3533 42.5701 33.1155V1.8922C42.5701 1.65436 42.3788 1.46293 42.1411 1.46293H7.28392C7.04627 1.46293 6.85498 1.65436 6.85498 1.8922V33.1155C6.85498 33.3533 7.04627 33.5447 7.28392 33.5447ZM42.999 34.4003H6.42894C6.19128 34.4003 6 34.2089 6 33.9711V1.03657C6 0.798729 6.19128 0.6073 6.42894 0.6073H42.999C43.2367 0.6073 43.4279 0.798729 43.4279 1.03657V33.974C43.4279 34.2118 43.2367 34.4033 42.999 34.4033V34.4003Z" fill="#231F20"/>
</g>
<defs>
<clipPath id="clip0_617_6267">
<rect width="165" height="40" fill="white" transform="translate(6 0.5)"/>
</clipPath>
</defs>
</svg>
