<svg width="194" height="113" viewBox="0 0 194 113" fill="none" xmlns="http://www.w3.org/2000/svg">
<g clip-path="url(#clip0_470_3002)">
<path d="M39.42 63.1504V82.7504C39.42 85.2804 39.25 87.6404 38.91 89.8404C36.62 104.79 26.54 112.26 8.65003 112.26H2.06003C1.42003 112.26 0.910034 111.75 0.910034 111.11V87.0404C0.910034 86.4004 1.42003 85.8904 2.06003 85.8904C7.67003 85.8904 12.21 81.3504 12.21 75.7404V42.7704C12.21 36.1804 13.3 30.3104 15.47 25.1504C18.34 40.7104 27.14 54.1804 39.42 63.1504Z" fill="#3F67B1"/>
<path d="M111.25 63.0303V109.19C111.25 110.89 109.88 112.26 108.18 112.26H85.82C84.12 112.26 82.75 110.89 82.75 109.19V74.3703C93.33 73.0703 103.07 69.0603 111.25 63.0303Z" fill="#36A852"/>
<path d="M181.65 38.5402C171.68 39.4502 162.41 42.7702 154.43 47.9102C153.93 42.7402 152.09 38.5202 148.92 35.2302C145.25 31.4302 140.31 29.4702 134.11 29.3802C135.39 24.4702 136.07 19.3202 136.07 14.0202C136.07 9.56023 135.59 5.21023 134.67 1.02023C136.32 0.830234 138 0.740234 139.7 0.740234C152.06 0.740234 163.26 5.63023 171.52 13.5602C171.71 13.7402 171.88 13.9402 172.03 14.1502L174.21 17.1502L174.16 17.1002C178.83 22.7102 181.11 30.0902 181.65 38.5402Z" fill="#FDB614"/>
<path d="M136.07 14.0202C136.07 19.3202 135.39 24.4702 134.11 29.3802C133.96 29.3702 133.8 29.3702 133.64 29.3702C126.95 29.3702 121.54 31.3902 117.42 35.4402C113.3 39.4902 111.25 44.7902 111.25 51.3502V63.0302C103.07 69.0602 93.33 73.0702 82.75 74.3702V51.3502C82.75 44.7902 80.7 39.4902 76.58 35.4402C72.47 31.3902 67.06 29.3702 60.36 29.3702C53.66 29.3702 48.84 31.3302 45.08 35.2302C41.31 39.1402 39.42 44.3702 39.42 50.9302V63.1502C27.14 54.1802 18.34 40.7102 15.47 25.1502C17.01 21.4802 19.09 18.1702 21.72 15.2302C21.69 15.2002 21.66 15.1602 21.62 15.1302C30.01 6.27024 41.87 0.740234 55.02 0.740234C60.78 0.740234 66.29 1.80023 71.37 3.74023C82.3 7.89023 91.22 16.0902 96.33 26.5002C96.75 27.3602 97.97 27.3602 98.39 26.5002C103.49 16.1102 112.38 7.92023 123.27 3.76023C123.28 3.76023 123.29 3.75023 123.3 3.76023C126.89 2.38023 130.71 1.45023 134.67 1.02023C135.59 5.21023 136.07 9.56023 136.07 14.0202Z" fill="#253D95"/>
<path d="M193.09 87.04V111.11C193.09 111.75 192.58 112.26 191.94 112.26H185.35C167.56 112.26 157.49 104.87 155.13 90.08C154.76 87.81 154.58 85.37 154.58 82.75V50.93C154.58 49.89 154.53 48.88 154.43 47.91C162.41 42.77 171.68 39.45 181.65 38.54C181.75 39.92 181.79 41.33 181.79 42.77V75.74C181.79 81.35 186.33 85.89 191.94 85.89C192.58 85.89 193.09 86.4 193.09 87.04Z" fill="#EA4535"/>
</g>
<defs>
<clipPath id="clip0_470_3002">
<rect width="192.18" height="111.52" fill="white" transform="translate(0.910034 0.740234)"/>
</clipPath>
</defs>
</svg>
