<svg width="584" height="131" viewBox="0 0 584 131" fill="none" xmlns="http://www.w3.org/2000/svg">
<g clip-path="url(#clip0_2_23147)">
<rect width="584" height="131" rx="12" fill="#E5E5EC"/>
<g clip-path="url(#clip1_2_23147)">
<path d="M101.024 68.1832H64.4129C64.2889 68.1832 64.17 68.1339 64.0823 68.0463C63.9946 67.9586 63.9453 67.8396 63.9453 67.7156C63.9453 67.5916 63.9946 67.4727 64.0823 67.385C64.17 67.2973 64.2889 67.248 64.4129 67.248H101.024C101.148 67.248 101.267 67.2973 101.355 67.385C101.443 67.4727 101.492 67.5916 101.492 67.7156C101.489 67.8389 101.439 67.9564 101.352 68.0436C101.265 68.1308 101.147 68.1808 101.024 68.1832Z" fill="#FBA176"/>
<path d="M146.248 68.1832H109.637C109.513 68.1832 109.394 68.1339 109.306 68.0463C109.218 67.9586 109.169 67.8396 109.169 67.7156C109.169 67.5916 109.218 67.4727 109.306 67.385C109.394 67.2973 109.513 67.248 109.637 67.248H146.248C146.372 67.248 146.491 67.2973 146.578 67.385C146.666 67.4727 146.715 67.5916 146.715 67.7156C146.713 67.8389 146.663 67.9564 146.576 68.0436C146.489 68.1308 146.371 68.1808 146.248 68.1832Z" fill="#FBA176"/>
<path d="M105.326 109.096C105.202 109.096 105.083 109.047 104.995 108.959C104.908 108.872 104.858 108.753 104.858 108.629V72.0174C104.861 71.8941 104.911 71.7766 104.998 71.6894C105.085 71.6022 105.203 71.5522 105.326 71.5498C105.45 71.5498 105.569 71.5991 105.657 71.6867C105.744 71.7744 105.794 71.8934 105.794 72.0174V108.629C105.794 108.753 105.744 108.872 105.657 108.959C105.569 109.047 105.45 109.096 105.326 109.096Z" fill="#FBA176"/>
<path d="M105.326 63.8727C105.202 63.8727 105.083 63.8234 104.995 63.7357C104.908 63.648 104.858 63.5291 104.858 63.4051V26.7937C104.858 26.6697 104.908 26.5508 104.995 26.4631C105.083 26.3754 105.202 26.3262 105.326 26.3262C105.45 26.3262 105.569 26.3754 105.657 26.4631C105.744 26.5508 105.794 26.6697 105.794 26.7937V63.4051C105.794 63.5291 105.744 63.648 105.657 63.7357C105.569 63.8234 105.45 63.8727 105.326 63.8727Z" fill="#FBA176"/>
<path d="M134.259 97.1173C134.198 97.1169 134.138 97.1043 134.081 97.0802C134.025 97.0561 133.974 97.021 133.932 96.977L108.047 71.1387C108.003 71.0952 107.968 71.0435 107.945 70.9865C107.921 70.9295 107.909 70.8684 107.909 70.8067C107.909 70.745 107.921 70.6838 107.945 70.6269C107.968 70.5699 108.003 70.5182 108.047 70.4747C108.089 70.43 108.14 70.3943 108.196 70.37C108.252 70.3456 108.313 70.333 108.374 70.333C108.436 70.333 108.496 70.3456 108.553 70.37C108.609 70.3943 108.66 70.43 108.701 70.4747L134.596 96.3598C134.682 96.4488 134.73 96.5678 134.73 96.6918C134.73 96.8157 134.682 96.9348 134.596 97.0237C134.5 97.0964 134.379 97.1298 134.259 97.1173Z" fill="#FBA176"/>
<path d="M102.287 65.1334C102.161 65.1331 102.04 65.0826 101.95 64.9931L76.0653 39.108C76.0215 39.0646 75.9867 39.0129 75.963 38.9559C75.9392 38.8989 75.927 38.8378 75.927 38.7761C75.927 38.7143 75.9392 38.6532 75.963 38.5962C75.9867 38.5393 76.0215 38.4875 76.0653 38.4441C76.1543 38.3578 76.2734 38.3096 76.3973 38.3096C76.5212 38.3096 76.6403 38.3578 76.7293 38.4441L102.614 64.3292C102.701 64.4182 102.749 64.5372 102.749 64.6612C102.749 64.7851 102.701 64.9042 102.614 64.9931C102.528 65.0812 102.41 65.1317 102.287 65.1334Z" fill="#FBA176"/>
<path d="M108.374 65.1338C108.313 65.1345 108.252 65.1224 108.196 65.0983C108.139 65.0741 108.089 65.0384 108.047 64.9935C108.003 64.95 107.968 64.8983 107.945 64.8414C107.921 64.7844 107.909 64.7233 107.909 64.6615C107.909 64.5998 107.921 64.5387 107.945 64.4817C107.968 64.4247 108.003 64.373 108.047 64.3296L133.932 38.407C134.02 38.319 134.139 38.2695 134.264 38.2695C134.388 38.2695 134.508 38.319 134.596 38.407C134.684 38.4951 134.733 38.6145 134.733 38.739C134.733 38.8635 134.684 38.983 134.596 39.071L108.701 64.9561C108.663 65.0079 108.614 65.0506 108.558 65.0813C108.501 65.112 108.438 65.1299 108.374 65.1338Z" fill="#FBA176"/>
<path d="M76.3926 97.1167C76.3315 97.1163 76.271 97.1037 76.2148 97.0797C76.1586 97.0556 76.1077 97.0205 76.0653 96.9764C76.0215 96.933 75.9867 96.8812 75.963 96.8243C75.9392 96.7673 75.927 96.7062 75.927 96.6444C75.927 96.5827 75.9392 96.5216 75.963 96.4646C75.9867 96.4077 76.0215 96.3559 76.0653 96.3125L101.95 70.4274C101.994 70.3835 102.046 70.3488 102.103 70.325C102.16 70.3013 102.221 70.2891 102.282 70.2891C102.344 70.2891 102.405 70.3013 102.462 70.325C102.519 70.3488 102.571 70.3835 102.614 70.4274C102.701 70.5164 102.749 70.6354 102.749 70.7594C102.749 70.8833 102.701 71.0023 102.614 71.0913L76.7293 96.9764C76.6401 97.0659 76.519 97.1164 76.3926 97.1167Z" fill="#FBA176"/>
<path d="M224.67 90.4765C222.332 90.0089 232.273 123.918 239.904 125.33C241.447 115.006 233.629 92.272 224.67 90.4765Z" fill="#383431"/>
<path d="M131.002 61.5786L131.343 60.6379C132.176 58.3413 130.989 55.8044 128.693 54.9717L117.334 50.8532C115.037 50.0205 112.501 51.2072 111.668 53.5038L111.327 54.4445C110.494 56.7411 111.681 59.2779 113.977 60.1107L125.336 64.2291C127.633 65.0619 130.169 63.8752 131.002 61.5786Z" fill="#DEB68E"/>
<path d="M105.46 63.3645C104.363 65.5471 105.242 68.206 107.425 69.3033C109.608 70.4005 112.267 69.5207 113.364 67.3381L120.467 53.2095C121.564 51.0269 120.684 48.368 118.501 47.2707C116.319 46.1735 113.66 47.0533 112.563 49.236L105.46 63.3645Z" fill="#DEB68E"/>
<path d="M100.801 61.0979C99.7033 63.2805 100.583 65.9394 102.766 67.0367C104.948 68.1339 107.607 67.2541 108.705 65.0714L115.807 50.9429C116.905 48.7603 116.025 46.1014 113.842 45.0041C111.66 43.9069 109.001 44.7867 107.903 46.9694L100.801 61.0979Z" fill="#F7E0C9"/>
<path d="M108.339 69.0015C105.557 68.2304 102.677 69.8608 101.906 72.643C101.135 75.4252 102.765 78.3057 105.547 79.0768L132.826 86.6368C135.608 87.4078 138.489 85.7774 139.26 82.9952C140.031 80.213 138.401 77.3325 135.618 76.5615L108.339 69.0015Z" fill="#F7E0C9"/>
<path d="M110.618 78.7784L105.587 77.385C104.671 77.129 103.894 76.5203 103.427 75.6924C103.195 75.2848 103.046 74.8351 102.99 74.3694C102.934 73.9037 102.971 73.4315 103.099 72.9804C103.353 72.0655 103.959 71.2885 104.785 70.8203C105.611 70.3521 106.589 70.231 107.504 70.4836L112.535 71.8769L110.618 78.7784ZM106.541 71.2971C106.085 71.2956 105.636 71.4149 105.241 71.6431C104.633 71.9879 104.185 72.5595 103.997 73.2329C103.903 73.568 103.877 73.9184 103.92 74.2637C103.964 74.609 104.076 74.9421 104.25 75.2435C104.419 75.5468 104.647 75.8136 104.92 76.0287C105.192 76.2437 105.505 76.4027 105.839 76.4966L109.963 77.6375L111.376 72.5409L107.252 71.3907C107.021 71.3237 106.781 71.289 106.541 71.2878V71.2971Z" fill="#383431"/>
<path d="M127.56 55.828L127.9 54.8874C128.731 52.5911 127.543 50.0562 125.247 49.2256L113.889 45.1176C111.593 44.287 109.058 45.4753 108.227 47.7716L107.887 48.7122C107.057 51.0085 108.245 53.5434 110.541 54.374L121.898 58.4819C124.195 59.3125 126.73 58.1243 127.56 55.828Z" fill="#F7E0C9"/>
<path d="M160.125 86.4744C160.125 86.4744 139.664 55.2963 133.071 51.8736C129.33 49.9285 131.201 51.5276 122.784 48.2452C118.595 46.6181 120.4 57.9147 120.736 58.0083C121.073 58.1018 128.751 63.5631 127.498 65.209C126.244 66.8548 123.102 71.755 119.296 72.0356C115.49 72.3161 128.956 85.5673 129.218 85.6327C137.12 87.4469 132.809 90.0093 141.871 92.4126C150.933 94.816 160.125 86.4744 160.125 86.4744Z" fill="#F7E0C9"/>
<path d="M127.452 65.2371C127.348 65.2377 127.247 65.2028 127.165 65.1382C127.084 65.0736 127.026 64.9832 127.003 64.8818C126.311 62.0763 123.075 59.6823 120.522 58.4386C118.839 57.625 113.425 55.7547 113.378 55.736C113.275 55.6865 113.193 55.601 113.149 55.4955C113.105 55.39 113.1 55.2719 113.137 55.1636C113.174 55.0553 113.249 54.9642 113.349 54.9077C113.448 54.8512 113.565 54.8331 113.677 54.8569C113.902 54.9317 119.195 56.7272 120.934 57.5969C123.665 58.9248 127.134 61.5713 127.91 64.6573C127.936 64.7774 127.914 64.9028 127.85 65.0073C127.785 65.1118 127.683 65.1874 127.564 65.2184L127.452 65.2371Z" fill="#383431"/>
<path d="M104.746 67.9867C103.912 67.9863 103.091 67.7724 102.363 67.3654C101.634 66.9583 101.022 66.3717 100.584 65.6612C100.147 64.9508 99.898 64.1401 99.8621 63.3064C99.8261 62.4727 100.004 61.6437 100.379 60.8982C100.406 60.8428 100.444 60.7934 100.49 60.7526C100.536 60.7118 100.589 60.6805 100.648 60.6605C100.706 60.6406 100.767 60.6323 100.829 60.6361C100.89 60.64 100.95 60.656 101.006 60.6831C101.061 60.7099 101.11 60.7475 101.151 60.7939C101.192 60.8402 101.222 60.8942 101.242 60.9527C101.261 61.0112 101.268 61.0729 101.263 61.1342C101.258 61.1956 101.24 61.2552 101.211 61.3096C100.74 62.2472 100.661 63.3335 100.99 64.3296C101.32 65.3257 102.032 66.1501 102.969 66.6213C103.907 67.0926 104.993 67.1721 105.989 66.8424C106.986 66.5127 107.81 65.8007 108.281 64.8632L114.004 53.3141C114.06 53.2039 114.158 53.1205 114.275 53.0819C114.393 53.0434 114.52 53.0529 114.631 53.1083C114.686 53.1351 114.736 53.1728 114.776 53.2191C114.817 53.2654 114.848 53.3194 114.867 53.3779C114.886 53.4364 114.893 53.4981 114.888 53.5595C114.883 53.6208 114.865 53.6805 114.837 53.7349L109.113 65.2841C108.705 66.0931 108.081 66.7737 107.311 67.2506C106.54 67.7275 105.653 67.9822 104.746 67.9867Z" fill="#383431"/>
<path d="M99.3217 63.8255L102.424 57.7865L106.092 59.671L104.874 62.0417C104.375 63.0146 103.509 63.7491 102.468 64.0836C101.426 64.4181 100.295 64.3253 99.3217 63.8255Z" fill="#F7E0C9"/>
<path d="M101.25 64.7702C100.52 64.7686 99.802 64.5922 99.1549 64.2559L98.7434 64.0501L102.269 57.1768L106.767 59.4866L105.336 62.292C104.947 63.0398 104.361 63.6664 103.64 64.1034C102.919 64.5404 102.092 64.7711 101.25 64.7702ZM100.015 63.6574C100.852 63.955 101.768 63.939 102.593 63.6122C103.419 63.2854 104.098 62.6701 104.504 61.8806L105.505 59.9355L102.699 58.4766L100.015 63.6574Z" fill="#383431"/>
<path d="M246.909 103.205C246.582 104.496 245.16 106.347 242.925 108.451C239.262 111.75 235.237 114.623 230.927 117.017C230.132 117.476 229.309 117.953 228.477 118.364L227.542 118.841C218.134 123.638 206.566 127.257 195.812 126.126C172.891 123.741 141.227 88.4858 124.871 84.1467C124.824 84.0625 146.38 67.0801 146.38 67.0801C146.38 67.0801 189.051 95.4433 196.757 99.0717C202.265 101.662 214.001 98.1366 225.952 92.2545L226.775 91.8523H226.822C227.439 91.5437 228.066 91.2351 228.692 90.9172C233.416 88.481 238.008 85.7965 242.448 82.8749C242.448 82.8749 248.499 96.9957 246.909 103.205Z" fill="#F7E0C9"/>
<path d="M242.925 108.45L228.701 90.8789C228.084 91.2062 227.457 91.5148 226.831 91.8141H226.784L225.961 92.2162C226.896 97.7523 227.382 113.36 227.532 118.803L228.467 118.326C228.308 112.855 227.841 99.4356 227.046 93.2168C227.981 98.276 230.459 111.359 230.917 116.979C235.228 114.598 239.256 111.736 242.925 108.45Z" fill="#DEB68E"/>
<path d="M270.98 10.8668C279.649 6.09756 297.482 8.44479 309.78 18.6286C320.889 27.8212 343.333 12.307 350.253 19.5638C357.173 26.8206 359.203 31.5057 350.73 33.1797C342.258 34.8536 323.872 35.9197 313.249 32.5812C313.249 32.5812 333.065 41.2968 347.504 43.3261C361.943 45.3554 344.642 63.3758 336.88 66.1252C329.119 68.8745 297.37 74.4855 283.642 70.3053C269.914 66.1252 239.194 28.3917 270.98 10.8668Z" fill="#383431"/>
<path d="M322.178 22.8457C319.299 22.9186 316.477 22.0338 314.155 20.3301C297.135 7.70555 283.743 4.86268 270.735 11.1189L270.333 10.2772C283.5 3.93688 297.612 6.89197 314.716 19.6288C317.128 21.3704 320.084 22.1899 323.048 21.9386V22.8738C322.749 22.8457 322.478 22.8457 322.178 22.8457Z" fill="#383431"/>
<path d="M331.961 36.5375C325.087 36.5375 318.139 35.9203 313.099 34.3398L313.388 33.4515C323.488 36.631 341.518 35.8361 350.636 34.0313C353.619 33.4421 355.311 32.4976 355.714 31.1323C356.349 29.1497 354.554 26.0918 349.916 21.2009L350.589 20.5557C355.564 25.7925 357.359 29.0375 356.611 31.4128C356.06 33.1335 354.171 34.2931 350.823 34.9477C344.596 36.0424 338.283 36.5744 331.961 36.5375Z" fill="#383431"/>
<path d="M298.706 73.2424C294.185 73.371 289.668 72.8674 285.287 71.7461L285.567 70.811C298.996 74.907 330.595 69.4457 338.516 66.6402C344.454 64.5455 354.946 54.212 354.413 48.5449C354.208 46.4782 352.478 45.1971 349.27 44.7389L349.401 43.8037C353.993 44.449 355.171 46.684 355.349 48.4795C356.013 55.0817 344.417 65.5835 338.862 67.5473C332.886 69.6608 313.734 73.2424 298.706 73.2424Z" fill="#383431"/>
<path d="M281.809 70.7739C272.457 67.9217 256.803 50.8083 255.157 35.079C254.081 24.7923 258.897 16.3198 269.184 10.6621L269.633 11.4757C259.58 17.0212 255.017 24.9326 256.064 34.9855C257.672 50.3688 272.953 67.0987 282.061 69.8761L281.809 70.7739Z" fill="#383431"/>
<path d="M278.142 71.1381C278.142 71.1381 310.536 59.4767 299.922 53.8657C290.888 49.0871 292.871 32.8809 292.871 32.8809C292.871 32.8809 268.229 40.0348 272.597 46.5715C272.803 46.8767 273.041 47.1588 273.307 47.4132C276.515 50.4805 277.805 55.6332 278.264 60.3464C278.385 61.5901 278.451 62.7965 278.469 63.928C278.469 64.2553 278.469 64.5639 278.469 64.8632C278.489 66.9595 278.38 69.0552 278.142 71.1381Z" fill="#F7E0C9"/>
<path d="M278.489 64.8806C289.187 57.044 291.983 38.6963 291.965 37.8359H291.217C291.217 38.0323 288.411 56.0715 278.47 63.9174C278.48 64.2634 278.48 64.5907 278.489 64.8806Z" fill="#DEB68E"/>
<path d="M272.596 46.5705C272.803 46.8756 273.041 47.1578 273.307 47.4122C276.515 50.4795 277.805 55.6322 278.263 60.3454L278.516 60.177C286.979 54.1546 292.188 36.209 292.188 36.209L272.69 45.7569C272.69 45.7569 272.653 46.0655 272.596 46.5705Z" fill="#DEB68E"/>
<path d="M276.543 47.7686C286.258 47.7686 294.133 39.3112 294.133 28.8784C294.133 18.4457 286.258 9.98828 276.543 9.98828C266.828 9.98828 258.953 18.4457 258.953 28.8784C258.953 39.3112 266.828 47.7686 276.543 47.7686Z" fill="#F7E0C9"/>
<path d="M263.32 15.4033C263.618 16.0449 263.952 16.6694 264.32 17.2736C266.267 20.7065 269.08 23.5691 272.478 25.5758C275.876 27.5826 279.741 28.6634 283.687 28.7106C287.309 28.712 290.872 27.8019 294.049 26.0641C294.049 25.6152 293.965 25.1851 293.899 24.7549C293.899 24.5024 293.815 24.2593 293.768 24.0161C292.132 15.4127 285.043 8.94141 276.543 8.94141C273.998 8.9705 271.492 9.56447 269.205 10.6804C266.919 11.7963 264.908 13.4063 263.32 15.394V15.4033Z" fill="#383431"/>
<path d="M259.824 21.9955C261.609 20.7396 263.136 19.1522 264.322 17.3198C265.315 15.7867 266.063 14.1082 266.538 12.3447C265.333 13.2291 264.251 14.2701 263.321 15.4401C261.734 17.3728 260.545 19.6009 259.824 21.9955Z" fill="#383431"/>
<path d="M269.184 43.1948C269.06 43.1948 268.942 43.1455 268.854 43.0578C268.766 42.9702 268.717 42.8512 268.717 42.7272C268.717 42.6032 268.766 42.4843 268.854 42.3966C268.942 42.3089 269.06 42.2596 269.184 42.2596C269.802 42.2886 270.412 42.1126 270.919 41.7592C271.427 41.4057 271.803 40.8946 271.99 40.3052C272.02 40.1812 272.098 40.074 272.206 40.0074C272.315 39.9408 272.446 39.92 272.57 39.9498C272.694 39.9796 272.801 40.0574 272.868 40.1661C272.934 40.2748 272.955 40.4056 272.925 40.5296C272.687 41.3265 272.189 42.0212 271.512 42.5039C270.835 42.9866 270.016 43.2297 269.184 43.1948Z" fill="#383431"/>
<path d="M264.209 37.996C263.952 38.0218 263.693 37.9964 263.445 37.9214C263.198 37.8463 262.969 37.723 262.77 37.5587C262.571 37.3944 262.406 37.1922 262.285 36.9639C262.165 36.7356 262.091 36.4857 262.067 36.2286C262.029 35.7276 262.174 35.2297 262.475 34.8273C262.776 34.4249 263.212 34.1453 263.704 34.0403V32.993C263.704 32.869 263.753 32.75 263.841 32.6623C263.928 32.5746 264.047 32.5254 264.171 32.5254C264.295 32.5254 264.414 32.5746 264.502 32.6623C264.59 32.75 264.639 32.869 264.639 32.993V34.4331C264.64 34.4933 264.63 34.5531 264.608 34.6092C264.586 34.6653 264.553 34.7165 264.511 34.7599C264.47 34.8033 264.42 34.8381 264.365 34.8623C264.31 34.8864 264.25 34.8995 264.19 34.9007C264.024 34.8985 263.859 34.9315 263.706 34.9976C263.554 35.0636 263.417 35.1613 263.305 35.2841C263.192 35.4069 263.107 35.552 263.055 35.71C263.003 35.8679 262.985 36.0351 263.002 36.2005C263.002 36.8832 263.788 37.0609 264.209 37.0609C264.321 37.0609 265.312 37.0609 265.312 36.2193C265.312 36.0952 265.362 35.9763 265.449 35.8886C265.537 35.8009 265.656 35.7517 265.78 35.7517C265.904 35.7517 266.023 35.8009 266.111 35.8886C266.198 35.9763 266.247 36.0952 266.247 36.2193C266.236 36.4709 266.173 36.7175 266.064 36.9445C265.955 37.1714 265.801 37.3739 265.611 37.5398C265.422 37.7058 265.201 37.8317 264.961 37.9101C264.722 37.9885 264.469 38.0177 264.218 37.996H264.209Z" fill="#383431"/>
<path d="M257.774 35.0788L261.964 34.6673C261.98 34.4082 262.05 34.1553 262.17 33.9248C262.289 33.6943 262.456 33.4913 262.658 33.3285C262.86 33.1658 263.094 33.0469 263.345 32.9796C263.596 32.9122 263.858 32.8978 264.114 32.9373C264.472 32.9884 264.807 33.1418 265.079 33.3791C265.351 33.6164 265.549 33.9274 265.648 34.2746C270.866 33.779 276.982 33.2459 280.48 33.1337C281.253 33.1094 282.001 32.8529 282.627 32.3976C283.252 31.9423 283.726 31.3092 283.987 30.5807L284.37 29.5427C284.445 29.3418 284.581 29.1691 284.759 29.0486C284.936 28.928 285.147 28.8654 285.361 28.8694L292.842 29.0564L294.9 26.5034C294.9 26.5034 269.239 18.218 257.092 21.9866C256.465 22.183 255.221 22.9686 255.221 23.6232C255.221 25.8582 255.951 30.8706 256.063 33.6106C256.068 33.8233 256.117 34.0325 256.208 34.2248C256.299 34.4171 256.43 34.588 256.591 34.7265C256.752 34.865 256.941 34.9679 257.145 35.0286C257.349 35.0894 257.563 35.1064 257.774 35.0788Z" fill="#7AC49F"/>
<path d="M279.909 32.2179C276.402 32.3301 270.296 32.8538 265.04 33.3588C265.337 33.5981 265.55 33.9256 265.648 34.2939C270.857 33.789 276.973 33.2653 280.47 33.1531C281.244 33.1269 281.993 32.8698 282.619 32.4148C283.246 31.9599 283.722 31.3278 283.987 30.6001L284.389 29.4966C284.459 29.3083 284.587 29.1475 284.756 29.038C284.924 28.9285 285.123 28.8762 285.324 28.8888L292.917 29.0664L292.534 28.0752L284.819 27.8788C284.618 27.8662 284.419 27.9185 284.251 28.028C284.082 28.1375 283.954 28.2983 283.884 28.4866L283.472 29.6182C283.206 30.3577 282.724 31.0005 282.089 31.4638C281.454 31.9271 280.695 32.1898 279.909 32.2179Z" fill="#46A07D"/>
<path d="M256.195 34.0872C256.305 34.408 256.523 34.6812 256.81 34.8615C257.098 35.0419 257.438 35.1184 257.775 35.0785L261.965 34.667C261.994 34.2867 262.138 33.9244 262.379 33.6285C262.619 33.3327 262.945 33.1175 263.311 33.0118C263.56 32.9374 263.821 32.9156 264.079 32.9478C264.337 32.98 264.585 33.0655 264.808 33.1988C264.648 32.796 264.357 32.459 263.982 32.2427C263.607 32.0263 263.17 31.9434 262.741 32.0074C262.313 32.0713 261.919 32.2785 261.623 32.595C261.328 32.9116 261.148 33.3189 261.114 33.7506L256.877 34.1901C256.645 34.2157 256.409 34.1802 256.195 34.0872Z" fill="#46A07D"/>
<path d="M263.841 24.2807L260.958 24.4707C260.499 24.5009 260.152 24.8972 260.182 25.3559L260.195 25.5612C260.226 26.0198 260.622 26.3672 261.081 26.3369L263.964 26.1469C264.423 26.1167 264.77 25.7204 264.74 25.2617L264.726 25.0564C264.696 24.5978 264.3 24.2504 263.841 24.2807Z" fill="white"/>
<path d="M292.665 37.866C295.883 37.866 298.491 35.1446 298.491 31.7875C298.491 28.4304 295.883 25.709 292.665 25.709C289.448 25.709 286.839 28.4304 286.839 31.7875C286.839 35.1446 289.448 37.866 292.665 37.866Z" fill="#F7E0C9"/>
<path d="M289.552 33.9091C289.469 33.9102 289.387 33.8892 289.314 33.8481C289.242 33.807 289.182 33.7473 289.14 33.6753C288.696 32.9038 288.511 32.0097 288.613 31.125C288.715 30.2404 289.099 29.412 289.708 28.7622C290.317 28.1124 291.118 27.6755 291.995 27.5162C292.871 27.3569 293.775 27.4835 294.574 27.8773C294.629 27.9043 294.678 27.942 294.719 27.9881C294.76 28.0342 294.791 28.0879 294.811 28.146C294.831 28.2042 294.839 28.2658 294.835 28.3272C294.832 28.3886 294.816 28.4486 294.789 28.5039C294.762 28.5591 294.724 28.6085 294.678 28.6493C294.632 28.69 294.578 28.7212 294.52 28.7412C294.462 28.7612 294.4 28.7695 294.339 28.7657C294.278 28.7619 294.217 28.746 294.162 28.719C293.784 28.5296 293.371 28.418 292.949 28.3907C292.526 28.3634 292.103 28.4209 291.703 28.56C291.248 28.7111 290.834 28.962 290.489 29.2942C290.145 29.6264 289.879 30.0316 289.711 30.4799C289.543 30.9283 289.478 31.4086 289.52 31.8854C289.562 32.3623 289.71 32.8237 289.954 33.2358C290.015 33.3426 290.032 33.4693 290.001 33.5883C289.969 33.7074 289.892 33.8092 289.786 33.8717C289.713 33.9053 289.632 33.9182 289.552 33.9091Z" fill="#383431"/>
<path d="M293.284 32.2541C293.173 32.2533 293.066 32.2135 292.983 32.1416C292.899 32.0697 292.843 31.9704 292.825 31.8614C292.825 31.7491 292.423 29.3271 290.515 29.3271H290.31C290.248 29.3326 290.186 29.326 290.128 29.3076C290.069 29.2892 290.014 29.2594 289.967 29.2199C289.919 29.1804 289.88 29.1319 289.852 29.0773C289.823 29.0227 289.806 28.963 289.8 28.9016C289.795 28.8402 289.801 28.7783 289.82 28.7195C289.838 28.6606 289.868 28.606 289.907 28.5586C289.947 28.5113 289.995 28.4722 290.05 28.4436C290.104 28.415 290.164 28.3975 290.226 28.3919C292.601 28.1862 293.573 30.468 293.751 31.7024C293.76 31.7639 293.757 31.8266 293.742 31.8868C293.727 31.9471 293.699 32.0037 293.662 32.0533C293.625 32.103 293.578 32.1447 293.524 32.1759C293.47 32.2072 293.411 32.2274 293.349 32.2354L293.284 32.2541Z" fill="#383431"/>
<path d="M378.391 152.395C378.391 152.395 356.742 161.307 330.95 174.044C305.158 186.781 283.519 175.633 283.519 175.633L282.144 168.049L280.171 157.22L269.51 98.5954L239.903 125.378C239.903 125.378 239.043 120.515 237.21 114.278C236.808 112.941 236.368 111.538 235.892 110.107L235.555 109.172C235.134 107.975 234.676 106.759 234.19 105.544L233.825 104.608C231.496 98.9975 228.466 93.6764 224.67 90.5156C224.67 90.5156 249.919 70.9709 259.401 67.8288C265.809 65.7428 272.105 63.3269 278.263 60.5907C282.088 63.4522 293.226 67.277 299.912 53.9043C299.912 53.9043 324.909 55.971 334.934 62.8163C344.959 69.6617 370.114 121.834 378.391 152.395Z" fill="#625958"/>
<path d="M340.237 75.3091C339.965 74.2087 339.503 73.1643 338.872 72.2231C331.391 61.7774 319.14 60.7487 312.136 72.9057C305.132 85.0627 310.125 137.113 280.191 157.219L282.164 168.048C283.45 168.075 284.735 167.997 286.008 167.815C312.753 163.288 325.013 141.714 327.921 135.758C329.701 135.588 331.436 135.104 333.046 134.327L333.28 133.392C335.571 128.688 347.447 102.438 340.237 75.3091ZM318.383 138.142C319.729 135.196 320.87 134.878 322.479 135.131C319.673 141.256 309.583 159.997 288.607 165.879C302.289 160.558 312.173 151.767 318.383 138.142ZM296.014 164.13C312.744 156.35 321.02 140.639 323.423 135.309C324.54 135.592 325.685 135.755 326.836 135.795C324.096 141.275 314.792 157.004 296.014 164.13ZM341.126 85.1656C343.192 103.457 337.806 120.15 334.467 128.351C336.777 118.607 340.901 98.8937 341.126 85.1656Z" fill="#4F4342"/>
<path d="M330.642 131.063C330.941 135.112 291.225 120.776 290.047 114.988C290.018 114.988 328.818 106.3 330.642 131.063Z" fill="#383431"/>
<path d="M323.525 113.154C322.497 118.363 319.682 125.414 315.969 132.568C315.034 134.439 314.015 136.243 312.958 138.058L312.416 138.993C306.15 149.569 298.482 159.173 292.357 161.867C268.547 172.331 215.346 191.259 206.126 190.856C201.656 190.632 190.312 184.984 186.375 181.645C186.226 181.514 186.085 181.393 185.964 181.271C185.842 181.15 185.674 180.981 185.552 180.85L185.506 180.794C185.479 180.777 185.457 180.755 185.44 180.729H185.618L200.655 179.102L201.338 179.027V178.952V178.868L188.479 174.781L187.853 174.585L187.077 174.332H186.965L186.282 174.108C185.322 173.827 184.492 173.218 183.935 172.387C183.561 171.848 183.314 171.232 183.212 170.584C183.11 169.937 183.156 169.274 183.345 168.647C183.507 168.099 183.776 167.588 184.135 167.144C184.494 166.7 184.938 166.331 185.44 166.058C185.942 165.786 186.492 165.615 187.061 165.555C187.629 165.495 188.203 165.548 188.751 165.71L201.375 169.619C213.327 171.321 216.805 166.374 217.067 163.737L202.572 163.578C201.89 163.572 201.217 163.427 200.594 163.149C199.971 162.872 199.412 162.47 198.952 161.967C198.491 161.464 198.139 160.872 197.917 160.227C197.695 159.583 197.609 158.899 197.663 158.22C197.787 156.942 198.391 155.758 199.352 154.907C200.312 154.055 201.56 153.598 202.843 153.628H218.947C243.139 154.451 263.152 144.482 275.215 138.927C280.704 136.393 289.093 125.386 295.658 115.904C295.714 115.82 295.779 115.735 295.826 115.651C295.873 115.567 296.069 115.305 296.191 115.137C297.126 113.716 298.061 112.331 298.996 111.041C302.737 105.43 305.346 101.241 305.542 101.147C307.899 100.034 322.786 94.4139 323.927 108.544C324 110.092 323.865 111.643 323.525 113.154Z" fill="#F7E0C9"/>
<path d="M298.987 110.976C298.117 112.275 297.191 113.65 296.181 115.072C296.06 115.24 295.948 115.418 295.817 115.586C295.686 115.754 295.704 115.754 295.648 115.838C301.007 119.514 308.909 132.849 312.378 138.993L312.921 138.058C309.601 132.185 303.887 122.684 298.987 117.55C304.766 121.477 313.379 128.772 315.932 132.568C319.672 125.414 322.478 118.363 323.488 113.154C316.783 112.537 304.205 111.406 298.987 110.976Z" fill="#DEB68E"/>
<path d="M290.019 114.987C298.782 115.305 326.49 122.309 330.614 131.063C330.614 131.063 343.987 81.2374 336.506 71.5305C329.024 61.8236 316.765 60.8698 309.76 72.1664C302.756 83.4631 290.019 114.987 290.019 114.987Z" fill="#625958"/>
<path d="M290.487 115.165L289.617 114.81C289.748 114.492 302.448 83.127 309.396 71.9238L310.191 72.4195C303.28 83.5572 290.609 114.847 290.487 115.165Z" fill="#4F4342"/>
<path d="M269.51 98.5943L239.903 125.377C239.903 125.377 239.043 120.514 237.21 114.277L255.539 91.8331L259.869 86.5401L261.627 84.3893L264.171 81.2752L266.041 79.0215L269.51 98.5943Z" fill="#4F4342"/>
<path d="M265.536 82.5384L255.54 91.8245L235.901 110.06L235.565 109.125L259.879 86.5596L264.76 82.0241L264.91 81.8838L265.536 82.5384Z" fill="#4F4342"/>
<path d="M266.294 80.8168L264.92 81.8735L264.751 81.9951L261.628 84.3797C251.828 91.861 240.288 100.698 234.191 105.467L233.826 104.532C241.56 98.4632 256.905 86.7644 264.172 81.2282L265.733 80.0312L266.294 80.8168Z" fill="#4F4342"/>
<path d="M105.325 69.5476C106.337 69.5476 107.158 68.727 107.158 67.7147C107.158 66.7024 106.337 65.8818 105.325 65.8818C104.313 65.8818 103.492 66.7024 103.492 67.7147C103.492 68.727 104.313 69.5476 105.325 69.5476Z" fill="#FBA176"/>
<path d="M461.058 66.332C460.957 66.3306 460.86 66.2972 460.779 66.2367C460.698 66.1762 460.639 66.0917 460.609 65.9954L452.997 40.9987L429.123 27.0742L390.781 40.2879C390.691 40.3187 390.593 40.3209 390.501 40.2941C390.409 40.2673 390.327 40.213 390.267 40.1383C390.208 40.0603 390.176 39.9651 390.176 39.8671C390.176 39.7692 390.208 39.674 390.267 39.5959L414.17 2.10556L412.757 -21.2733C412.754 -21.3347 412.762 -21.3963 412.782 -21.4545C412.802 -21.5127 412.833 -21.5663 412.874 -21.6124C412.915 -21.6584 412.965 -21.696 413.02 -21.7228C413.075 -21.7497 413.136 -21.7654 413.197 -21.769C413.259 -21.774 413.321 -21.7666 413.38 -21.747C413.438 -21.7275 413.492 -21.6962 413.539 -21.6551C413.585 -21.614 413.623 -21.564 413.649 -21.508C413.675 -21.4521 413.69 -21.3913 413.693 -21.3294L415.114 2.17102C415.117 2.26985 415.091 2.3674 415.039 2.45157L391.773 38.9226L429.029 26.0736C429.091 26.0463 429.158 26.0322 429.226 26.0322C429.293 26.0322 429.36 26.0463 429.422 26.0736L453.671 40.2786C453.774 40.3389 453.85 40.4356 453.886 40.5498L461.554 65.7148C461.589 65.8339 461.577 65.9621 461.519 66.0721C461.462 66.1821 461.363 66.2653 461.245 66.304L461.058 66.332Z" fill="#383431"/>
<path d="M391.324 44.5795L389.22 42.2603L386.115 42.6811L387.677 39.9598L386.312 37.1356L389.379 37.7809L391.652 35.6113L391.988 38.7254L394.747 40.2123L391.885 41.5028L391.324 44.5795Z" fill="#FBA176"/>
<path d="M429.946 28.9441L428.898 27.7845L427.355 27.9996L428.132 26.6436L427.449 25.2409L428.973 25.5588L430.105 24.4834L430.273 26.0264L431.648 26.7652L430.226 27.4104L429.946 28.9441Z" fill="#383431"/>
<path d="M454.026 44.4959L452.605 42.9249L450.5 43.2054L451.557 41.3631L450.631 39.4554L452.707 39.8856L454.241 38.4268L454.475 40.5309L456.345 41.5408L454.409 42.4105L454.026 44.4959Z" fill="#383431"/>
<path d="M461.882 70.0066L460.012 67.9399L457.253 68.3139L458.637 65.9012L457.431 63.395L460.161 63.9561L462.172 62.0391L462.471 64.8071L464.921 66.1257L462.387 67.2666L461.882 70.0066Z" fill="#FBA176"/>
<path d="M415.919 4.14317L414.797 2.91812L413.151 3.1332L413.974 1.69306L413.254 0.196812L414.881 0.533469L416.087 -0.607422L416.265 1.03845L417.724 1.83333L416.209 2.50665L415.919 4.14317Z" fill="#383431"/>
<path d="M459.254 146.316C469.656 146.316 478.088 137.883 478.088 127.481C478.088 117.08 469.656 108.647 459.254 108.647C448.853 108.647 440.42 117.08 440.42 127.481C440.42 137.883 448.853 146.316 459.254 146.316Z" fill="#625958"/>
<path d="M459.254 146.316C469.656 146.316 478.088 137.883 478.088 127.481C478.088 117.08 469.656 108.647 459.254 108.647C448.853 108.647 440.42 117.08 440.42 127.481C440.42 137.883 448.853 146.316 459.254 146.316Z" fill="#625958"/>
<path d="M478.088 127.481C478.104 131.421 476.882 135.268 474.595 138.477C472.308 141.687 469.072 144.098 465.342 145.37C461.613 146.643 457.577 146.713 453.806 145.57C450.034 144.428 446.716 142.13 444.32 139.002C447.946 141.796 452.466 143.174 457.034 142.879C461.603 142.585 465.908 140.637 469.145 137.4C472.382 134.162 474.33 129.857 474.625 125.289C474.92 120.72 473.542 116.201 470.747 112.574C473.029 114.332 474.878 116.59 476.15 119.174C477.423 121.758 478.086 124.6 478.088 127.481Z" fill="#4F4342"/>
<path d="M488.778 107.703C491.66 107.703 493.996 105.367 493.996 102.485C493.996 99.6029 491.66 97.2666 488.778 97.2666C485.896 97.2666 483.56 99.6029 483.56 102.485C483.56 105.367 485.896 107.703 488.778 107.703Z" fill="#7AC49F"/>
</g>
</g>
<defs>
<clipPath id="clip0_2_23147">
<rect width="584" height="131" rx="12" fill="white"/>
</clipPath>
<clipPath id="clip1_2_23147">
<rect width="600" height="600" fill="white" transform="translate(-8)"/>
</clipPath>
</defs>
</svg>
