<svg width="584" height="112" viewBox="0 0 584 112" fill="none" xmlns="http://www.w3.org/2000/svg">
<g clip-path="url(#clip0_2_22935)">
<rect width="584" height="112" rx="12" fill="#E5E5EC"/>
<g clip-path="url(#clip1_2_22935)">
<path d="M434.525 15.707V157.416H537.023V15.707H434.525ZM532.606 151.31H438.942V21.8019H532.606V151.31Z" fill="#B0F4F0"/>
<path d="M537.023 157.957H434.525C434.381 157.957 434.244 157.9 434.142 157.798C434.041 157.697 433.984 157.559 433.984 157.415V15.7063C433.984 15.5628 434.041 15.4251 434.142 15.3236C434.244 15.2221 434.381 15.165 434.525 15.165H537.023C537.167 15.165 537.304 15.2221 537.406 15.3236C537.507 15.4251 537.564 15.5628 537.564 15.7063V157.415C537.564 157.559 537.507 157.697 537.406 157.798C537.304 157.9 537.167 157.957 537.023 157.957ZM435.066 156.874H536.482V16.2476H435.066V156.874ZM532.606 151.851H438.942C438.798 151.851 438.66 151.794 438.559 151.692C438.457 151.591 438.4 151.453 438.4 151.31V21.8012C438.4 21.6577 438.457 21.52 438.559 21.4185C438.66 21.317 438.798 21.2599 438.942 21.2599H532.606C532.75 21.2599 532.887 21.317 532.989 21.4185C533.09 21.52 533.147 21.6577 533.147 21.8012V151.31C533.147 151.453 533.09 151.591 532.989 151.692C532.887 151.794 532.75 151.851 532.606 151.851ZM439.505 150.768H532.086V22.3425H439.483L439.505 150.768Z" fill="#383431"/>
<path d="M516.044 108.624L515.405 108.472C515.405 108.472 514.182 116.05 489.001 113.885C479.734 113.073 478.522 107.769 478.403 107.108V107.032C479.717 106.35 480.904 105.445 481.91 104.358C481.91 104.358 483.502 108.494 494.901 108.461C506.301 108.429 511.757 105.614 511.757 105.614C512.791 107.087 514.308 108.152 516.044 108.624Z" fill="#7AC49F"/>
<path d="M497.359 114.794C494.89 114.794 492.108 114.675 488.958 114.394C479.291 113.549 477.991 107.823 477.872 107.173V106.664L478.186 106.513C479.438 105.857 480.569 104.993 481.531 103.958L482.116 103.341L482.43 104.142C482.43 104.142 484.13 107.898 494.793 107.898H494.955C506.073 107.898 511.508 105.138 511.562 105.105L511.995 104.889L512.266 105.289C513.22 106.673 514.636 107.671 516.26 108.104L515.957 109.187H515.795C515.059 110.659 511.844 114.794 497.359 114.794ZM478.955 107.303C479.29 108.516 481.023 112.618 488.99 113.322C510.09 115.141 514.019 110.074 514.691 108.7C513.446 108.177 512.357 107.341 511.53 106.275C510.025 106.935 504.612 108.959 494.858 108.981H494.728C485.829 108.981 482.744 106.437 481.737 105.192C480.919 106.006 480.003 106.715 479.009 107.303H478.955Z" fill="#383431"/>
<path d="M511.768 105.593C511.768 105.593 506.355 108.418 494.912 108.44C483.469 108.462 481.921 104.337 481.921 104.337C482.095 104.164 482.268 103.969 482.441 103.763C482.614 103.558 482.917 103.179 483.145 102.865C484.167 101.448 484.903 99.8443 485.31 98.1449C485.494 97.3695 485.614 96.5801 485.667 95.7848C485.863 92.1735 485.754 88.5522 485.342 84.9591C488.088 86.2637 491.093 86.9334 494.133 86.9186C497.61 86.8868 501.028 86.0111 504.092 84.3667C507.156 82.7224 509.776 80.3586 511.725 77.4785C509.841 83.8765 508.65 95.4168 510.642 102.897C510.869 103.851 511.25 104.761 511.768 105.593Z" fill="#F7E0C9"/>
<path d="M494.782 108.981C483.253 108.981 481.478 104.705 481.402 104.532C481.365 104.432 481.358 104.324 481.381 104.22C481.404 104.117 481.456 104.022 481.532 103.947C481.694 103.785 481.856 103.601 482.019 103.406C482.181 103.211 482.473 102.843 482.69 102.54C483.67 101.182 484.373 99.6443 484.758 98.0147C484.94 97.2686 485.056 96.5078 485.104 95.7413C485.31 92.1301 485.202 88.5078 484.779 84.9155C484.768 84.8197 484.784 84.7227 484.824 84.6349C484.864 84.5472 484.927 84.472 485.007 84.4175C485.084 84.3615 485.175 84.327 485.27 84.3175C485.365 84.308 485.461 84.3239 485.548 84.3634C486.174 84.6658 486.817 84.9297 487.475 85.1537C489.61 85.8861 491.854 86.2522 494.111 86.2363C497.498 86.2254 500.83 85.3873 503.819 83.7949C506.807 82.2025 509.361 79.904 511.259 77.0993C511.334 76.9939 511.443 76.9185 511.568 76.8868C511.693 76.855 511.826 76.869 511.941 76.9261C512.057 76.9805 512.15 77.0752 512.202 77.1927C512.254 77.3101 512.261 77.4423 512.223 77.5648C510.22 84.3526 509.256 95.6114 511.14 102.691C511.355 103.608 511.721 104.482 512.223 105.279C512.262 105.343 512.289 105.414 512.3 105.489C512.311 105.563 512.307 105.639 512.288 105.712C512.271 105.786 512.238 105.856 512.192 105.916C512.145 105.976 512.085 106.024 512.017 106.058C511.79 106.177 506.323 108.949 494.912 108.97L494.782 108.981ZM482.582 104.413C483.21 105.268 485.83 107.899 494.782 107.899H494.956C504.103 107.899 509.419 106.015 511.032 105.344C510.627 104.595 510.317 103.799 510.112 102.973C508.423 96.5424 509.029 86.7342 510.577 79.7841C508.534 82.1401 506.013 84.0344 503.182 85.3409C500.35 86.6475 497.273 87.3365 494.155 87.3621C491.77 87.3611 489.403 86.9623 487.15 86.1821C486.76 86.0414 486.371 85.8898 485.992 85.7274C486.344 89.0642 486.423 92.4241 486.23 95.7737C486.175 96.598 486.052 97.4163 485.862 98.2204C485.439 99.988 484.678 101.657 483.621 103.135C483.383 103.46 483.134 103.774 482.885 104.066L482.582 104.413Z" fill="#383431"/>
<path d="M513.488 74.4366C512.96 75.4714 512.363 76.4696 511.702 77.4245C509.748 80.2987 507.128 82.6567 504.064 84.297C501 85.9372 497.585 86.8108 494.11 86.8429C491.787 86.8467 489.481 86.455 487.289 85.6846C486.616 85.457 485.958 85.1857 485.319 84.8726C480.626 82.5674 476.841 78.7558 474.569 74.0469C473.687 72.2336 473.036 70.317 472.631 68.3417C472.523 67.8004 472.426 67.2592 472.361 66.7179C472.285 66.2199 472.22 65.7111 472.177 65.2131C472.507 65.0191 472.77 64.7279 472.929 64.3791C473.088 64.0304 473.135 63.6411 473.065 63.2645C473.02 62.9907 472.915 62.7305 472.755 62.5035C472.596 62.2766 472.387 62.0889 472.144 61.9545C472.144 61.6947 472.144 61.4566 472.144 61.2184C472.255 59.8074 472.49 58.409 472.848 57.0396C474.138 57.132 475.394 57.5012 476.529 58.1222C476.73 58.2581 476.968 58.3299 477.211 58.3279C477.484 58.3301 477.75 58.2434 477.969 58.0808C478.188 57.9182 478.349 57.6886 478.426 57.4268C478.503 57.165 478.492 56.8852 478.396 56.6298C478.3 56.3744 478.123 56.1572 477.893 56.0112C476.563 55.2518 475.087 54.7832 473.562 54.6363C474.241 52.7626 475.15 50.9807 476.269 49.3317C476.92 49.4381 477.579 49.4888 478.239 49.4833C479.219 49.4915 480.197 49.3824 481.151 49.1585C483.509 48.634 485.946 48.5678 488.329 48.9636C498.429 50.5875 502.088 56.6607 502.673 59.9301C502.838 60.9832 503.084 62.022 503.409 63.0371C504.069 65.0399 505 65.9925 506.657 65.9925C506.747 66.0031 506.838 66.0031 506.927 65.9925C506.906 66.3025 506.906 66.6136 506.927 66.9236C506.918 68.2498 507.253 69.5558 507.9 70.7134C508.547 71.8711 509.484 72.8407 510.619 73.5273C511.482 74.0345 512.44 74.3588 513.434 74.4799L513.488 74.4366Z" fill="#F7E0C9"/>
<path d="M494.11 87.4059C491.728 87.4093 489.363 87.0065 487.116 86.2151C486.422 85.9775 485.743 85.6992 485.081 85.3815C481.237 83.5524 477.982 80.6835 475.684 77.0998C475.078 76.2011 474.542 75.2564 474.082 74.2743C473.186 72.4214 472.52 70.4653 472.101 68.45C471.993 67.8979 471.885 67.3675 471.82 66.7829C471.755 66.1983 471.69 65.7544 471.646 65.2456C471.634 65.1446 471.652 65.042 471.698 64.9513C471.745 64.8606 471.817 64.7859 471.906 64.7368C472.108 64.617 472.276 64.4467 472.392 64.2427C472.508 64.0386 472.569 63.8079 472.569 63.5731C472.569 63.3383 472.508 63.1075 472.392 62.9035C472.276 62.6994 472.108 62.5291 471.906 62.4093C471.82 62.3622 471.748 62.2913 471.7 62.2051C471.652 62.1188 471.63 62.0206 471.636 61.9221C471.636 61.6948 471.636 61.4674 471.636 61.2509C471.747 59.7895 471.986 58.3405 472.35 56.9206C472.381 56.7948 472.455 56.684 472.561 56.6085C472.666 56.533 472.795 56.4978 472.924 56.5092C474.281 56.5908 475.606 56.9598 476.81 57.5918C476.887 57.6537 476.975 57.6984 477.07 57.7228C477.166 57.7472 477.265 57.7508 477.361 57.7333C477.458 57.7158 477.55 57.6777 477.63 57.6215C477.711 57.5653 477.778 57.4924 477.828 57.4078C477.885 57.3311 477.924 57.2428 477.942 57.1492C477.961 57.0557 477.959 56.9591 477.936 56.8665C477.897 56.6817 477.789 56.5189 477.633 56.4118C476.378 55.7083 474.993 55.2664 473.563 55.1127C473.483 55.1033 473.407 55.0761 473.339 55.0329C473.272 54.9898 473.215 54.932 473.173 54.8637C473.138 54.7892 473.12 54.7079 473.12 54.6256C473.12 54.5433 473.138 54.462 473.173 54.3874C473.862 52.4724 474.794 50.6534 475.944 48.9745C476.002 48.8905 476.083 48.8245 476.177 48.7843C476.271 48.744 476.374 48.7312 476.475 48.7472C478.03 48.9853 479.616 48.9302 481.151 48.5848C483.575 48.0325 486.084 47.9626 488.535 48.3791C498.917 50.0355 502.716 56.3252 503.323 59.7895C503.486 60.8125 503.725 61.8221 504.037 62.8098C504.654 64.6719 505.434 65.3972 506.819 65.3972H507.003C507.087 65.3827 507.172 65.3879 507.253 65.4123C507.334 65.4368 507.408 65.4798 507.469 65.5379C507.529 65.5986 507.575 65.6718 507.603 65.7523C507.631 65.8329 507.641 65.9187 507.631 66.0034C507.609 66.2881 507.609 66.574 507.631 66.8587C507.622 68.0915 507.934 69.3055 508.535 70.3816C509.137 71.4577 510.008 72.3589 511.063 72.9969C511.636 73.3503 512.266 73.603 512.925 73.7438C513.167 73.8028 513.413 73.8462 513.661 73.8738C513.748 73.8824 513.831 73.9128 513.903 73.9619C513.975 74.0111 514.033 74.0776 514.073 74.1552C514.112 74.2322 514.133 74.3176 514.133 74.4042C514.133 74.4909 514.112 74.5763 514.073 74.6532C513.54 75.7212 512.925 76.7456 512.232 77.7169C510.236 80.6924 507.539 83.132 504.379 84.8215C501.22 86.5109 497.693 87.3984 494.11 87.4059ZM472.751 65.5054C472.751 65.8952 472.837 66.2849 472.891 66.6638C472.956 67.2376 473.054 67.7464 473.162 68.2768C473.561 70.2065 474.197 72.0792 475.057 73.8521C475.502 74.7852 476.012 75.6859 476.583 76.5477C478.787 79.946 481.89 82.6666 485.547 84.4072C486.172 84.7104 486.816 84.9743 487.474 85.1975C489.608 85.9318 491.852 86.2978 494.11 86.2801C497.5 86.2616 500.834 85.4157 503.822 83.8158C506.81 82.2159 509.363 79.9105 511.258 77.0998C511.767 76.3713 512.237 75.616 512.665 74.8372H512.579C511.815 74.6622 511.084 74.3662 510.414 73.9604C509.2 73.2236 508.199 72.1853 507.506 70.9464C506.814 69.7075 506.454 68.3104 506.462 66.8912C506.462 66.7612 506.462 66.6421 506.462 66.5231C504.297 66.3715 503.453 64.6827 502.965 63.2104C502.638 62.1686 502.385 61.1051 502.208 60.0276C501.655 56.8557 498.094 51.0639 488.318 49.505C486.008 49.1139 483.644 49.1764 481.357 49.689C479.798 50.0404 478.19 50.1174 476.605 49.9164C475.734 51.2804 475.008 52.7317 474.439 54.2467C475.78 54.4628 477.07 54.9174 478.25 55.5891C478.458 55.7189 478.637 55.8894 478.776 56.0904C478.916 56.2914 479.013 56.5186 479.062 56.7583C479.112 56.9897 479.114 57.2288 479.07 57.4613C479.025 57.6937 478.934 57.9149 478.802 58.1115C478.536 58.4983 478.131 58.7679 477.672 58.8646C477.213 58.9614 476.734 58.8777 476.334 58.6311C475.397 58.1041 474.368 57.7589 473.303 57.6135C473.017 58.8092 472.825 60.0254 472.729 61.2509C472.729 61.4025 472.729 61.5324 472.729 61.6623C473.015 61.8894 473.247 62.1782 473.406 62.5072C473.565 62.8362 473.647 63.1968 473.647 63.5622C473.647 63.9276 473.565 64.2883 473.406 64.6173C473.247 64.9463 473.015 65.2351 472.729 65.4621L472.751 65.5054Z" fill="#383431"/>
<path d="M488.991 77.6738C488.73 78.5439 488.185 79.3016 487.444 79.8256C486.702 80.3496 485.806 80.6097 484.898 80.5643L488.991 77.6738Z" fill="#F7E0C9"/>
<path d="M484.898 81.1055C484.755 81.1055 484.617 81.0484 484.516 80.9469C484.414 80.8454 484.357 80.7077 484.357 80.5642C484.36 80.4215 484.418 80.2854 484.519 80.1845C484.62 80.0836 484.756 80.0257 484.898 80.0229C485.685 80.066 486.463 79.8455 487.11 79.3965C487.757 78.9475 488.236 78.2956 488.471 77.5438C488.489 77.4748 488.52 77.4099 488.562 77.353C488.605 77.296 488.659 77.2481 488.72 77.2118C488.782 77.1756 488.849 77.1519 488.92 77.142C488.991 77.1321 489.062 77.1362 489.131 77.1541C489.267 77.1922 489.383 77.2807 489.455 77.4015C489.528 77.5222 489.551 77.6661 489.521 77.8036C489.23 78.791 488.616 79.6524 487.778 80.2508C486.941 80.8491 485.927 81.15 484.898 81.1055Z" fill="#383431"/>
<path d="M476.161 62.6902C475.409 61.9728 474.471 61.4813 473.454 61.272C473.03 61.2179 472.601 61.2179 472.177 61.272C471.572 61.3513 470.982 61.5153 470.423 61.7592C470.126 61.9433 469.872 62.1889 469.679 62.4792C469.485 62.7696 469.355 63.0981 469.299 63.4426C469.242 63.7872 469.26 64.1399 469.352 64.4769C469.443 64.8139 469.605 65.1275 469.827 65.3966C470.535 66.0716 471.409 66.5461 472.361 66.7715H472.534C473.568 66.9022 474.618 66.7409 475.565 66.306C475.858 66.1216 476.109 65.8771 476.301 65.5885C476.493 65.3 476.621 64.974 476.677 64.6322C476.733 64.2904 476.716 63.9405 476.627 63.6057C476.538 63.2709 476.379 62.9589 476.161 62.6902Z" fill="white"/>
<path d="M473.239 67.3564C472.974 67.3568 472.71 67.3351 472.449 67.2915H472.33H472.243C471.203 67.0432 470.247 66.524 469.472 65.7867C469.16 65.4674 468.934 65.0752 468.813 64.646C468.692 64.2168 468.68 63.7642 468.779 63.3293C468.824 62.8908 468.978 62.4707 469.228 62.1076C469.478 61.7444 469.815 61.4497 470.208 61.2507C470.816 60.9871 471.457 60.8086 472.113 60.7203C472.587 60.6544 473.068 60.6544 473.542 60.7203C474.661 60.9389 475.693 61.4722 476.519 62.2575C476.83 62.5796 477.057 62.9733 477.179 63.4037C477.302 63.8342 477.317 64.2882 477.223 64.7258C477.173 65.1641 477.015 65.5833 476.764 65.946C476.513 66.3087 476.176 66.6035 475.783 66.8043C474.98 67.1543 474.115 67.3419 473.239 67.3564ZM472.557 66.2089C473.508 66.3498 474.48 66.2067 475.35 65.7975C475.575 65.668 475.765 65.4862 475.904 65.2676C476.044 65.049 476.128 64.8 476.151 64.5417C476.216 64.2848 476.219 64.0161 476.158 63.758C476.098 63.4999 475.977 63.2601 475.805 63.0586C475.129 62.4101 474.285 61.9638 473.369 61.7704C473.009 61.7305 472.646 61.7305 472.286 61.7704C471.737 61.8452 471.201 61.9984 470.695 62.225C470.47 62.3563 470.279 62.5399 470.14 62.7604C470 62.9809 469.916 63.2317 469.894 63.4916C469.832 63.747 469.832 64.0133 469.892 64.269C469.952 64.5248 470.071 64.7628 470.24 64.9639C470.881 65.5695 471.668 65.9984 472.525 66.2089H472.557Z" fill="#383431"/>
<path d="M485.708 64.1735C485.509 64.3844 485.36 64.637 485.271 64.9128C485.182 65.1887 485.156 65.4809 485.195 65.7682C485.233 66.0555 485.335 66.3306 485.493 66.5735C485.651 66.8164 485.862 67.0209 486.109 67.1722C487.851 68.1478 489.846 68.5777 491.836 68.4064C493.805 68.0565 495.621 67.1164 497.043 65.7107C497.244 65.5008 497.395 65.2484 497.485 64.9722C497.575 64.696 497.601 64.4031 497.563 64.1152C497.524 63.8273 497.422 63.5517 497.262 63.3088C497.103 63.0659 496.891 62.862 496.642 62.712C494.934 61.6468 492.908 61.21 490.913 61.4767C488.917 61.7435 487.077 62.697 485.708 64.1735Z" fill="white"/>
<path d="M490.873 69.0023C489.121 68.9504 487.404 68.4908 485.861 67.6599C485.529 67.475 485.247 67.2133 485.038 66.8968C484.829 66.5803 484.699 66.2183 484.659 65.8412C484.597 65.4687 484.627 65.0868 484.746 64.7285C484.865 64.3701 485.069 64.0461 485.341 63.7843C486.795 62.2379 488.738 61.2398 490.841 60.9578C492.945 60.6759 495.082 61.1273 496.892 62.2362C497.216 62.4279 497.492 62.6905 497.7 63.0043C497.908 63.3181 498.042 63.675 498.092 64.048C498.142 64.421 498.106 64.8005 497.989 65.158C497.871 65.5154 497.674 65.8415 497.412 66.1118C495.903 67.5837 493.987 68.5681 491.912 68.9373C491.567 68.9805 491.22 69.0022 490.873 69.0023ZM486.077 64.5745C485.933 64.7263 485.825 64.9082 485.76 65.1071C485.696 65.3059 485.676 65.5167 485.703 65.724C485.73 65.9314 485.803 66.1302 485.916 66.3058C486.03 66.4815 486.181 66.6297 486.359 66.7397C488.007 67.6568 489.891 68.0637 491.771 67.9089C493.625 67.5677 495.334 66.6777 496.676 65.354C496.816 65.2145 496.92 65.0434 496.981 64.855C497.041 64.6665 497.055 64.4664 497.022 64.2714C497.007 64.0667 496.941 63.8689 496.832 63.6953C496.722 63.5217 496.572 63.3775 496.394 63.2754C494.783 62.2681 492.871 61.8543 490.988 62.1052C489.105 62.3562 487.368 63.2563 486.077 64.6503V64.5745Z" fill="#383431"/>
<path d="M487.864 67.6165C489.096 67.6165 490.094 66.618 490.094 65.3864C490.094 64.1547 489.096 63.1562 487.864 63.1562C486.633 63.1562 485.634 64.1547 485.634 65.3864C485.634 66.618 486.633 67.6165 487.864 67.6165Z" fill="#625958"/>
<path d="M487.865 68.157C487.316 68.1592 486.779 67.9984 486.322 67.6952C485.865 67.392 485.508 66.9599 485.296 66.4537C485.085 65.9475 485.029 65.3899 485.134 64.8516C485.24 64.3133 485.503 63.8185 485.89 63.4298C486.277 63.0411 486.771 62.7761 487.309 62.6683C487.847 62.5605 488.405 62.6147 488.912 62.8242C489.419 63.0336 489.852 63.3888 490.157 63.8448C490.462 64.3008 490.625 64.837 490.625 65.3856C490.625 66.1188 490.335 66.822 489.817 67.3415C489.3 67.8609 488.598 68.1542 487.865 68.157ZM487.865 63.6968C487.53 63.6947 487.203 63.7919 486.923 63.9761C486.644 64.1604 486.426 64.4234 486.297 64.7318C486.167 65.0402 486.132 65.3801 486.196 65.7084C486.26 66.0367 486.42 66.3386 486.656 66.5759C486.892 66.8132 487.192 66.9751 487.52 67.0412C487.848 67.1072 488.188 67.0744 488.498 66.9469C488.807 66.8194 489.071 66.6029 489.257 66.325C489.443 66.047 489.543 65.7201 489.543 65.3856C489.543 64.9396 489.366 64.5117 489.052 64.1953C488.737 63.8788 488.311 63.6997 487.865 63.6968Z" fill="#383431"/>
<path d="M479.117 68.4385V70.2464C478.839 70.2505 478.565 70.3102 478.311 70.4219C478.057 70.5337 477.827 70.6952 477.637 70.8971C477.446 71.0989 477.298 71.3369 477.2 71.597C477.103 71.8571 477.059 72.1341 477.071 72.4115C477.136 74.5767 481.163 74.6416 481.163 72.4115L479.117 68.4385Z" fill="#F7E0C9"/>
<path d="M479.159 74.5986C478.844 74.6299 478.527 74.5986 478.225 74.5065C477.922 74.4144 477.641 74.2634 477.398 74.0621C477.154 73.8608 476.953 73.6132 476.805 73.3337C476.658 73.0541 476.568 72.7482 476.539 72.4335C476.479 71.8085 476.655 71.1837 477.031 70.6812C477.407 70.1787 477.958 69.8346 478.574 69.7162V68.4387C478.574 68.2952 478.631 68.1575 478.733 68.056C478.834 67.9545 478.972 67.8975 479.116 67.8975C479.259 67.8975 479.397 67.9545 479.498 68.056C479.6 68.1575 479.657 68.2952 479.657 68.4387V70.2466C479.657 70.3865 479.603 70.521 479.506 70.6219C479.409 70.7228 479.277 70.7823 479.137 70.7879C478.924 70.7852 478.713 70.8276 478.518 70.9125C478.323 70.9974 478.147 71.1228 478.004 71.2804C477.861 71.4379 477.753 71.6242 477.687 71.8267C477.621 72.0292 477.599 72.2434 477.622 72.4551C477.622 73.2237 478.423 73.5377 479.159 73.5377C479.31 73.5377 480.588 73.5377 480.588 72.4551C480.591 72.3124 480.649 72.1763 480.749 72.0754C480.85 71.9745 480.986 71.9166 481.129 71.9138C481.273 71.9138 481.41 71.9708 481.512 72.0724C481.613 72.1739 481.67 72.3115 481.67 72.4551C481.657 72.7636 481.581 73.0661 481.447 73.3442C481.313 73.6224 481.124 73.8703 480.891 74.0729C480.658 74.2755 480.386 74.4285 480.092 74.5226C479.798 74.6167 479.488 74.6499 479.181 74.6203L479.159 74.5986Z" fill="#383431"/>
<path d="M521.565 66.8801C521.597 68.8492 520.849 70.7511 519.484 72.1707C518.119 73.5904 516.248 74.4127 514.279 74.4581C514.016 74.4746 513.752 74.4746 513.489 74.4581C511.664 74.2138 509.993 73.3061 508.795 71.9084C507.597 70.5106 506.956 68.7207 506.993 66.8801C506.972 66.5702 506.972 66.2591 506.993 65.9491C507.174 64.1431 508.011 62.4662 509.346 61.2369C510.681 60.0075 512.421 59.3113 514.236 59.2804C514.753 59.2767 515.269 59.3349 515.773 59.4537C516.176 59.5471 516.571 59.6739 516.953 59.8326C518.333 60.4193 519.507 61.4021 520.328 62.6566C521.149 63.9112 521.58 65.381 521.565 66.8801Z" fill="#F7E0C9"/>
<path d="M514.279 75.0213C513.993 75.0252 513.707 75.0071 513.424 74.9672C511.468 74.7167 509.674 73.7527 508.385 72.2602C507.096 70.7677 506.404 68.8519 506.441 66.8803C506.441 66.5473 506.463 66.2146 506.506 65.8844C506.698 63.9464 507.596 62.1468 509.03 60.8289C510.463 59.511 512.332 58.7672 514.279 58.7394C514.825 58.7363 515.37 58.7944 515.903 58.9126C516.337 59.0123 516.76 59.1499 517.17 59.324C518.641 59.9634 519.89 61.0244 520.759 62.3731C521.628 63.7219 522.078 65.2978 522.052 66.902C522.087 69.0063 521.29 71.0394 519.835 72.5597C518.38 74.08 516.383 74.9646 514.279 75.0213ZM514.279 59.8653C512.597 59.8947 510.984 60.542 509.748 61.684C508.512 62.826 507.74 64.3827 507.578 66.0576C507.557 66.3459 507.557 66.6354 507.578 66.9236C507.542 68.6304 508.138 70.2903 509.251 71.5849C510.364 72.8795 511.915 73.7177 513.608 73.9387C513.85 73.9549 514.092 73.9549 514.333 73.9387C516.162 73.8933 517.899 73.1251 519.163 71.8022C520.427 70.4794 521.116 68.7096 521.078 66.8803C521.098 65.4941 520.707 64.133 519.956 62.9678C519.205 61.8025 518.126 60.8852 516.856 60.3308C516.506 60.1848 516.144 60.0724 515.773 59.9952H515.719C515.249 59.866 514.766 59.7933 514.279 59.7786V59.8653Z" fill="#383431"/>
<path d="M517.222 59.7781L517.017 59.8755C516.634 59.7168 516.24 59.5901 515.836 59.4966L515.458 59.4208L514.884 59.345H514.299C512.485 59.3759 510.744 60.0721 509.409 61.3015C508.074 62.5308 507.237 64.2077 507.057 66.0137C506.967 66.0243 506.876 66.0243 506.786 66.0137C505.087 66.0137 504.156 65.061 503.538 63.0583C503.213 62.0431 502.967 61.0044 502.802 59.9513C502.218 56.7036 498.559 50.6086 488.458 48.9848C486.075 48.5889 483.639 48.6551 481.281 49.1797C480.326 49.4036 479.349 49.5126 478.369 49.5044C477.709 49.5099 477.05 49.4592 476.398 49.3529C476.187 49.3282 475.978 49.2921 475.77 49.2446C473.281 48.7466 470.455 46.4624 470.455 44.2972C470.455 41.4501 473.465 40.4433 476.745 42.3378C477.502 42.8619 478.393 43.1596 479.313 43.196C480.233 43.2324 481.145 43.0061 481.941 42.5435C485.665 39.8038 490.168 38.3281 494.791 38.3323C497.107 38.3118 499.419 38.5075 501.698 38.9168C504.22 35.6691 500.778 33.7963 500.442 33.623C506.938 35.4851 506.061 38.6354 505.617 39.5989C506.7 38.7869 508.594 38.3539 512.275 39.8912C511.993 39.8912 509.395 39.3282 508.378 41.3851C513.725 44.687 515.598 50.4138 516.919 57.2015C516.99 57.5051 517.044 57.8123 517.081 58.1217C517.092 58.6197 517.157 59.1718 517.222 59.7781Z" fill="#625958"/>
<path d="M506.764 66.5226C504.361 66.5226 503.517 64.7471 502.954 63.1991C502.627 62.1573 502.373 61.0937 502.196 60.0163C501.644 56.8443 498.082 51.0526 488.306 49.4937C485.996 49.1025 483.632 49.165 481.346 49.6777C479.672 50.0572 477.943 50.1196 476.247 49.8617C476.057 49.8398 475.869 49.8073 475.684 49.7643C475.613 49.7817 475.538 49.7817 475.467 49.7643C472.782 49.1689 469.827 46.7439 469.827 44.3514C469.797 43.7577 469.93 43.1672 470.213 42.6441C470.495 42.1211 470.916 41.6856 471.429 41.3852C472.858 40.5624 474.915 40.7573 476.929 41.9265C477.605 42.4031 478.404 42.6758 479.231 42.7123C480.058 42.7487 480.878 42.5474 481.594 42.1321C485.397 39.3307 489.993 37.8139 494.715 37.8018C496.95 37.7806 499.181 37.9581 501.384 38.3323C501.627 38.0324 501.803 37.6841 501.9 37.3106C501.997 36.9372 502.013 36.5473 501.947 36.1672C501.795 35.7208 501.557 35.309 501.244 34.9558C500.932 34.6027 500.553 34.3152 500.128 34.1103C500.005 34.0516 499.908 33.9485 499.858 33.8216C499.807 33.6947 499.806 33.5534 499.856 33.426C499.905 33.2986 500.001 33.1945 500.124 33.1347C500.246 33.0749 500.387 33.0637 500.518 33.1035C503.473 33.9479 505.335 35.182 506.061 36.7517C506.322 37.3163 506.431 37.9399 506.375 38.5596C507.869 38.0617 509.893 38.3431 512.405 39.3932C512.528 39.4461 512.629 39.5424 512.687 39.664C512.744 39.7856 512.756 39.9242 512.718 40.0536C512.676 40.1807 512.589 40.288 512.474 40.3558C512.358 40.4235 512.222 40.4469 512.091 40.4217C511.558 40.2852 511 40.2861 510.468 40.4243C509.936 40.5625 509.447 40.8336 509.049 41.212C514.028 44.5463 515.988 49.9917 517.374 57.0933C517.374 57.3207 517.471 57.5805 517.514 57.8403V58.0352C517.59 58.5873 517.666 59.1177 517.72 59.7023C517.734 59.8117 517.713 59.9227 517.66 60.0197C517.608 60.1167 517.527 60.195 517.428 60.2436H517.363L517.233 60.3086C517.161 60.3402 517.084 60.3565 517.006 60.3565C516.927 60.3565 516.85 60.3402 516.778 60.3086C516.428 60.1649 516.066 60.0525 515.696 59.973H515.62L515.317 59.9189C515.135 59.8784 514.95 59.8531 514.765 59.8431C514.584 59.8323 514.404 59.8323 514.223 59.8431C512.541 59.8725 510.928 60.5199 509.692 61.6618C508.457 62.8038 507.684 64.3606 507.522 66.0354C507.508 66.1516 507.458 66.2603 507.378 66.346C507.298 66.4316 507.193 66.4896 507.078 66.5117C506.974 66.5229 506.869 66.5266 506.764 66.5226ZM485.232 48.1188C486.32 48.1246 487.406 48.2151 488.48 48.3894C498.862 50.0458 502.661 56.3355 503.268 59.7998C503.431 60.8228 503.67 61.8324 503.982 62.8202C504.567 64.5956 505.303 65.3317 506.569 65.3967C506.856 63.5503 507.788 61.8651 509.199 60.6403C510.61 59.4155 512.409 58.7303 514.277 58.7064H514.905C515.116 58.7231 515.326 58.752 515.533 58.793C515.662 58.8036 515.789 58.829 515.912 58.8688L516.562 59.042L516.432 58.1218V57.9269C516.432 57.696 516.388 57.4686 516.302 57.2449C514.927 50.1757 513 44.8494 508.009 41.7533C507.896 41.6834 507.812 41.5741 507.774 41.4462C507.736 41.3183 507.747 41.1809 507.804 41.0604C508.14 40.3524 508.726 39.7934 509.449 39.4907C508.855 39.3025 508.227 39.2447 507.609 39.3213C506.991 39.3979 506.396 39.6071 505.866 39.9345C505.77 40.01 505.652 40.0511 505.53 40.0511C505.408 40.0511 505.29 40.01 505.195 39.9345C505.1 39.859 505.033 39.7545 505.004 39.6372C504.974 39.5198 504.984 39.3961 505.032 39.285C505.191 38.9461 505.273 38.5765 505.273 38.2024C505.273 37.8283 505.191 37.4587 505.032 37.1198C504.498 36.1515 503.656 35.3895 502.64 34.9547C502.785 35.2244 502.894 35.5119 502.965 35.8099C503.066 36.3999 503.034 37.0052 502.869 37.5807C502.704 38.1562 502.411 38.687 502.012 39.1334C501.951 39.2126 501.869 39.2729 501.775 39.3074C501.681 39.3418 501.579 39.3491 501.481 39.3283C499.234 38.9263 496.955 38.7342 494.672 38.7545C490.166 38.7496 485.776 40.1874 482.147 42.8575C481.263 43.3826 480.248 43.6452 479.22 43.6145C478.193 43.5839 477.195 43.2612 476.344 42.6843C474.688 41.7316 472.999 41.5259 471.927 42.143C471.573 42.3458 471.284 42.6445 471.092 43.0045C470.901 43.3646 470.815 43.7714 470.845 44.1782C470.845 46.0727 473.486 48.1296 475.684 48.5951H475.749C475.938 48.6426 476.129 48.6788 476.322 48.7034C477.888 48.9433 479.486 48.8882 481.032 48.541C482.405 48.2493 483.807 48.1185 485.21 48.1513L485.232 48.1188Z" fill="#383431"/>
<path d="M510.381 69.5212C510.285 69.5214 510.191 69.4966 510.107 69.4491C510.024 69.4016 509.954 69.3332 509.905 69.2505C509.36 68.2923 509.135 67.1848 509.265 66.0899C509.394 64.995 509.871 63.9702 510.624 63.1656C511.378 62.3611 512.37 61.8188 513.454 61.6183C514.538 61.4178 515.658 61.5696 516.649 62.0514C516.713 62.0827 516.771 62.1262 516.818 62.1796C516.865 62.233 516.901 62.2951 516.924 62.3625C516.947 62.4298 516.957 62.5011 516.952 62.5722C516.948 62.6432 516.93 62.7128 516.898 62.7767C516.867 62.8407 516.824 62.8979 516.77 62.945C516.717 62.9922 516.655 63.0283 516.587 63.0514C516.52 63.0746 516.449 63.0842 516.378 63.0798C516.307 63.0754 516.237 63.057 516.173 63.0257C515.39 62.6398 514.504 62.5158 513.645 62.6721C512.786 62.8283 512 63.2565 511.403 63.8934C510.807 64.5304 510.43 65.3423 510.33 66.2094C510.23 67.0765 510.411 67.9529 510.847 68.7092C510.883 68.7701 510.907 68.8377 510.917 68.908C510.927 68.9783 510.923 69.0499 510.905 69.1185C510.887 69.1872 510.855 69.2515 510.812 69.3076C510.768 69.3638 510.714 69.4106 510.652 69.4454C510.571 69.4955 510.477 69.5218 510.381 69.5212Z" fill="#383431"/>
<path d="M515.046 67.4214C514.917 67.4201 514.792 67.3724 514.695 67.287C514.597 67.2015 514.534 67.0841 514.516 66.9559C514.516 66.8151 513.953 63.5458 511.333 63.7731C511.261 63.7805 511.188 63.7735 511.119 63.7523C511.05 63.7311 510.986 63.6963 510.93 63.6499C510.875 63.6035 510.829 63.5464 510.796 63.482C510.763 63.4176 510.743 63.3473 510.738 63.2751C510.728 63.1321 510.775 62.9911 510.868 62.8821C510.961 62.773 511.093 62.7043 511.236 62.6905C514.213 62.4307 515.371 65.2671 515.566 66.8043C515.584 66.9448 515.547 67.0869 515.462 67.2003C515.377 67.3136 515.251 67.3891 515.111 67.4105L515.046 67.4214Z" fill="#383431"/>
<path d="M485.634 58.7494C485.336 58.7498 485.047 58.6441 484.82 58.4512C484.592 58.2583 484.441 57.9908 484.393 57.6965C484.345 57.4022 484.403 57.1004 484.557 56.845C484.711 56.5896 484.951 56.3974 485.233 56.3027C489.564 54.8521 490.928 54.9279 493.212 55.0361C493.764 55.0361 494.381 55.0361 495.128 55.1011C495.293 55.1011 495.457 55.134 495.61 55.1979C495.762 55.2618 495.9 55.3555 496.016 55.4734C496.132 55.5913 496.223 55.7311 496.285 55.8846C496.346 56.0382 496.376 56.2024 496.373 56.3677C496.367 56.7018 496.23 57.02 495.991 57.2532C495.751 57.4864 495.43 57.6156 495.096 57.6127C494.316 57.6127 493.667 57.6127 493.093 57.5369C490.928 57.4395 489.899 57.3853 486.034 58.6844C485.905 58.7278 485.77 58.7498 485.634 58.7494Z" fill="#625958"/>
<path d="M485.633 59.2911C485.209 59.2863 484.801 59.132 484.48 58.8555C484.159 58.579 483.946 58.198 483.879 57.7798C483.811 57.3616 483.894 56.933 484.112 56.5698C484.33 56.2065 484.669 55.9319 485.07 55.7944C489.465 54.3113 490.883 54.3762 493.221 54.4953C493.849 54.4953 494.434 54.4953 495.138 54.5602C495.373 54.5599 495.606 54.6077 495.822 54.7008C496.038 54.7939 496.232 54.9303 496.393 55.1015C496.561 55.2686 496.694 55.4679 496.783 55.6874C496.872 55.9068 496.917 56.1421 496.913 56.379C496.905 56.8528 496.71 57.3043 496.372 57.6364C496.034 57.9684 495.579 58.1545 495.105 58.1544C494.326 58.1544 493.698 58.1544 493.135 58.0894C490.97 57.9812 489.985 57.9379 486.206 59.172C486.024 59.245 485.829 59.2854 485.633 59.2911ZM491.684 55.5237C489.532 55.5846 487.407 56.0205 485.405 56.812C485.23 56.8777 485.084 57.0045 484.994 57.1692C484.957 57.2565 484.937 57.3504 484.937 57.4453C484.937 57.5402 484.957 57.6341 484.994 57.7214C485.056 57.8987 485.184 58.0452 485.351 58.13C485.519 58.2148 485.713 58.2313 485.892 58.176C489.865 56.8445 491.024 56.8986 493.146 56.996C493.774 56.996 494.391 57.061 495.138 57.0718C495.232 57.0732 495.326 57.0558 495.414 57.0206C495.502 56.9853 495.582 56.9329 495.65 56.8664C495.717 56.7999 495.771 56.7207 495.808 56.6333C495.844 56.5459 495.863 56.4521 495.863 56.3573C495.86 56.168 495.787 55.9864 495.657 55.8485C495.521 55.7159 495.338 55.6421 495.148 55.6428C494.445 55.6428 493.849 55.6428 493.308 55.5778C492.767 55.5129 492.193 55.5237 491.706 55.5237H491.684Z" fill="#383431"/>
<path d="M478.294 57.7434C478.178 57.9235 478.017 58.0708 477.828 58.1713C477.638 58.2717 477.426 58.322 477.212 58.3172C476.969 58.3191 476.731 58.2474 476.53 58.1115C475.395 57.4905 474.139 57.1213 472.849 57.0289H472.275C472.11 57.0232 471.948 56.9851 471.798 56.9168C471.648 56.8484 471.512 56.7511 471.4 56.6305C471.287 56.5099 471.199 56.3682 471.142 56.2137C471.084 56.0592 471.057 55.8947 471.063 55.7298C471.068 55.5649 471.106 55.4027 471.175 55.2526C471.243 55.1024 471.34 54.9671 471.461 54.8545C471.582 54.742 471.723 54.6542 471.878 54.5964C472.032 54.5385 472.197 54.5117 472.362 54.5173C472.795 54.5173 473.217 54.5173 473.596 54.6148C475.12 54.7616 476.596 55.2302 477.926 55.9897C478.065 56.0806 478.186 56.1981 478.279 56.3355C478.373 56.4728 478.439 56.6274 478.474 56.7903C478.508 56.9531 478.509 57.1211 478.479 57.2847C478.448 57.4482 478.385 57.6041 478.294 57.7434Z" fill="#625958"/>
<path d="M477.243 58.8579C476.896 58.8596 476.557 58.7578 476.269 58.5657C475.198 58.0161 474.027 57.6919 472.826 57.613H472.285C471.811 57.5933 471.364 57.3881 471.04 57.0419C470.716 56.6956 470.541 56.2359 470.553 55.7618C470.558 55.5254 470.61 55.2925 470.707 55.0767C470.803 54.861 470.943 54.6669 471.116 54.506C471.287 54.3402 471.491 54.2114 471.715 54.1276C471.938 54.0438 472.176 54.0068 472.415 54.0188C472.859 54.0188 473.292 54.0188 473.692 54.1163C475.272 54.2859 476.801 54.7759 478.185 55.5561C478.392 55.6859 478.571 55.8564 478.711 56.0574C478.85 56.2584 478.948 56.4856 478.997 56.7253C479.047 56.9549 479.05 57.1924 479.005 57.4232C478.96 57.654 478.869 57.8732 478.737 58.0677C478.575 58.3146 478.353 58.5165 478.092 58.6546C477.83 58.7928 477.539 58.8627 477.243 58.8579ZM472.339 55.0689C472.156 55.0742 471.982 55.1486 471.851 55.2771C471.721 55.4056 471.644 55.5788 471.635 55.7618C471.632 55.9505 471.703 56.133 471.832 56.2704C471.962 56.4079 472.14 56.4895 472.328 56.4979H472.924C474.281 56.5795 475.606 56.9485 476.81 57.5805C476.886 57.6424 476.975 57.687 477.07 57.7114C477.165 57.7359 477.264 57.7395 477.361 57.722C477.458 57.7045 477.549 57.6664 477.63 57.6102C477.711 57.554 477.778 57.4811 477.828 57.3965C477.881 57.3202 477.917 57.2334 477.934 57.1418C477.951 57.0503 477.948 56.9562 477.925 56.866C477.886 56.6812 477.778 56.5184 477.622 56.4113C476.367 55.7078 474.982 55.2659 473.551 55.1122C473.183 55.1122 472.783 55.0365 472.361 55.0256L472.339 55.0689Z" fill="#383431"/>
<path d="M471.148 65.7215C472.189 65.7215 473.032 64.8781 473.032 63.8378C473.032 62.7975 472.189 61.9541 471.148 61.9541C470.108 61.9541 469.265 62.7975 469.265 63.8378C469.265 64.8781 470.108 65.7215 471.148 65.7215Z" fill="#625958"/>
<path d="M471.138 66.2738C470.658 66.2738 470.189 66.1316 469.79 65.8651C469.392 65.5986 469.081 65.2199 468.897 64.7768C468.714 64.3337 468.666 63.8461 468.759 63.3757C468.853 62.9053 469.084 62.4732 469.423 62.1341C469.762 61.795 470.194 61.564 470.665 61.4704C471.135 61.3769 471.623 61.4249 472.066 61.6084C472.509 61.792 472.887 62.1028 473.154 62.5016C473.42 62.9003 473.563 63.3692 473.563 63.8488C473.563 64.4919 473.307 65.1087 472.852 65.5635C472.398 66.0183 471.781 66.2738 471.138 66.2738ZM471.138 62.5172C470.872 62.5172 470.612 62.5962 470.391 62.7442C470.17 62.8922 469.998 63.1025 469.896 63.3484C469.795 63.5944 469.769 63.8648 469.822 64.1255C469.875 64.3862 470.003 64.6254 470.192 64.8127C470.381 65 470.621 65.127 470.882 65.1775C471.144 65.2281 471.414 65.2 471.659 65.0967C471.904 64.9934 472.113 64.8197 472.259 64.5975C472.405 64.3754 472.482 64.1147 472.48 63.8488C472.48 63.4928 472.339 63.1513 472.087 62.8996C471.835 62.6478 471.494 62.5064 471.138 62.5064V62.5172Z" fill="#383431"/>
<path d="M532.606 112.338V151.31H438.942V116.668C441.718 114.404 444.864 112.635 448.241 111.439C457.367 108.733 463.397 110.01 478.402 107.055V107.12C478.521 107.78 479.733 113.095 489 113.897C514.181 116.062 515.404 108.484 515.404 108.484L516.043 108.635C517.768 109.127 519.517 109.531 521.283 109.848H521.521C524.801 110.66 528.85 111.526 532.606 112.338Z" fill="#7AC49F"/>
<path d="M533.147 151.851H438.401V116.364L438.617 116.202C441.438 113.885 444.644 112.083 448.09 110.876C452.48 109.669 456.988 108.943 461.535 108.711C467.161 108.303 472.757 107.559 478.293 106.48L478.943 106.351V107.011C479.04 107.552 480.177 112.543 489.043 113.312C513.196 115.401 514.852 108.44 514.863 108.375L514.971 107.834L515.523 107.942L516.108 108.083H516.259C517.519 108.457 518.799 108.765 520.092 109.003L521.445 109.274L521.683 109.328C524.931 110.064 528.99 110.973 532.725 111.774L533.147 111.872V151.851ZM439.483 150.769H532.065V112.824C528.46 112.034 524.617 111.168 521.51 110.475L521.228 110.41L519.886 110.14C518.575 109.899 517.277 109.588 515.999 109.209L515.75 109.154C514.939 110.952 510.673 116.31 488.946 114.437C480.502 113.701 478.445 109.241 477.99 107.682C472.584 108.717 467.122 109.44 461.633 109.847C457.153 110.083 452.714 110.809 448.393 112.012C445.16 113.15 442.146 114.835 439.483 116.992V150.769Z" fill="#383431"/>
<path d="M521.337 110.378H521.218L519.886 110.107C518.548 109.867 517.225 109.549 515.924 109.154C515.854 109.138 515.788 109.108 515.73 109.065C515.672 109.023 515.622 108.97 515.585 108.908C515.548 108.847 515.523 108.779 515.513 108.707C515.502 108.636 515.506 108.564 515.523 108.494C515.54 108.427 515.569 108.364 515.611 108.308C515.652 108.252 515.704 108.206 515.763 108.17C515.823 108.135 515.888 108.112 515.957 108.103C516.025 108.093 516.095 108.097 516.162 108.115L521.088 109.198L521.412 109.274C521.552 109.307 521.672 109.394 521.747 109.516C521.822 109.637 521.846 109.784 521.813 109.923C521.796 110.041 521.74 110.151 521.654 110.233C521.568 110.316 521.456 110.367 521.337 110.378Z" fill="#383431"/>
<path d="M434.525 98.7505H66.1576C66.0141 98.7505 65.8764 98.6935 65.7749 98.592C65.6734 98.4905 65.6163 98.3528 65.6163 98.2093C65.6163 98.0657 65.6734 97.928 65.7749 97.8265C65.8764 97.725 66.0141 97.668 66.1576 97.668H434.525C434.669 97.668 434.807 97.725 434.908 97.8265C435.01 97.928 435.067 98.0657 435.067 98.2093C435.067 98.3528 435.01 98.4905 434.908 98.592C434.807 98.6935 434.669 98.7505 434.525 98.7505Z" fill="#383431"/>
<path d="M66.158 109.75C72.5434 109.75 77.7199 104.573 77.7199 98.1879C77.7199 91.8024 72.5434 86.626 66.158 86.626C59.7725 86.626 54.5961 91.8024 54.5961 98.1879C54.5961 104.573 59.7725 109.75 66.158 109.75Z" fill="#625958"/>
<path d="M197.972 98.7506C197.828 98.7506 197.69 98.6936 197.589 98.5921C197.487 98.4906 197.43 98.3529 197.43 98.2094V15.7063C197.43 15.5628 197.487 15.4251 197.589 15.3236C197.69 15.2221 197.828 15.165 197.972 15.165H343.719C343.862 15.165 344 15.2221 344.101 15.3236C344.203 15.4251 344.26 15.5628 344.26 15.7063C344.257 15.849 344.199 15.9851 344.098 16.086C343.997 16.1869 343.861 16.2448 343.719 16.2476H198.513V98.1877C198.516 98.2606 198.504 98.3333 198.478 98.4015C198.452 98.4697 198.413 98.532 198.362 98.5845C198.312 98.6371 198.251 98.6789 198.184 98.7075C198.117 98.736 198.045 98.7507 197.972 98.7506Z" fill="#383431"/>
<path d="M343.719 36.0919H166.274C166.13 36.0919 165.993 36.0349 165.891 35.9334C165.79 35.8318 165.733 35.6942 165.733 35.5506V6.41851H96.2964C96.1529 6.41851 96.0152 6.36148 95.9137 6.25997C95.8122 6.15846 95.7551 6.02078 95.7551 5.87722C95.7551 5.73367 95.8122 5.59599 95.9137 5.49448C96.0152 5.39297 96.1529 5.33594 96.2964 5.33594H166.274C166.418 5.33594 166.555 5.39297 166.657 5.49448C166.758 5.59599 166.815 5.73367 166.815 5.87722V35.0093H343.719C343.862 35.0093 344 35.0663 344.102 35.1679C344.203 35.2694 344.26 35.407 344.26 35.5506C344.257 35.6933 344.199 35.8294 344.099 35.9303C343.998 36.0312 343.862 36.0891 343.719 36.0919Z" fill="#383431"/>
<path d="M343.72 -6.25879V64.7148H425.995V-6.25879H343.72ZM421.535 60.8608H348.169V-2.394H421.535V60.8608Z" fill="#625958"/>
<path d="M425.995 65.278H343.72C343.576 65.278 343.438 65.221 343.337 65.1195C343.235 65.018 343.178 64.8803 343.178 64.7367V-6.25852C343.178 -6.40208 343.235 -6.53975 343.337 -6.64127C343.438 -6.74278 343.576 -6.7998 343.72 -6.7998H425.995C426.138 -6.79703 426.274 -6.73912 426.375 -6.6382C426.476 -6.53728 426.534 -6.40121 426.537 -6.25852V64.7151C426.54 64.788 426.528 64.8607 426.502 64.9289C426.476 64.9971 426.437 65.0593 426.386 65.1119C426.335 65.1645 426.275 65.2063 426.208 65.2348C426.14 65.2634 426.068 65.2781 425.995 65.278ZM344.261 64.1954H425.454V-5.69558H344.261V64.1954ZM421.535 61.4457H348.169C348.025 61.4457 347.888 61.3887 347.786 61.2872C347.685 61.1857 347.628 61.048 347.628 60.9044V-2.39373C347.628 -2.53728 347.685 -2.67496 347.786 -2.77647C347.888 -2.87799 348.025 -2.93501 348.169 -2.93501H421.535C421.679 -2.93501 421.816 -2.87799 421.918 -2.77647C422.019 -2.67496 422.076 -2.53728 422.076 -2.39373V60.8611C422.082 60.9358 422.073 61.0108 422.048 61.0816C422.024 61.1523 421.985 61.2172 421.934 61.2722C421.883 61.3271 421.821 61.3709 421.753 61.4008C421.684 61.4307 421.61 61.4459 421.535 61.4457ZM348.71 60.3631H420.994V-1.85244H348.71V60.3631Z" fill="#383431"/>
<path d="M166.068 38.1158C167.485 38.1158 168.634 36.9671 168.634 35.5501C168.634 34.1331 167.485 32.9844 166.068 32.9844C164.651 32.9844 163.503 34.1331 163.503 35.5501C163.503 36.9671 164.651 38.1158 166.068 38.1158Z" fill="#383431"/>
<path d="M103.55 73.2779C104.967 73.2779 106.115 72.1292 106.115 70.7122C106.115 69.2952 104.967 68.1465 103.55 68.1465C102.133 68.1465 100.984 69.2952 100.984 70.7122C100.984 72.1292 102.133 73.2779 103.55 73.2779Z" fill="#383431"/>
<path d="M197.973 18.272C199.39 18.272 200.538 17.1233 200.538 15.7063C200.538 14.2893 199.39 13.1406 197.973 13.1406C196.556 13.1406 195.407 14.2893 195.407 15.7063C195.407 17.1233 196.556 18.272 197.973 18.272Z" fill="#383431"/>
<path d="M384.857 50.0784C396.361 50.0784 405.686 40.753 405.686 29.2496C405.686 17.7462 396.361 8.4209 384.857 8.4209C373.354 8.4209 364.029 17.7462 364.029 29.2496C364.029 40.753 373.354 50.0784 384.857 50.0784Z" fill="#FBA176"/>
<path d="M384.857 50.6308C380.626 50.6415 376.487 49.3966 372.963 47.0538C369.44 44.711 366.691 41.3755 365.065 37.4696C363.438 33.5637 363.007 29.2631 363.826 25.112C364.645 20.961 366.677 17.1462 369.665 14.1506C372.653 11.155 376.462 9.11334 380.611 8.28395C384.76 7.45457 389.062 7.87481 392.972 9.49148C396.882 11.1081 400.224 13.8485 402.576 17.3658C404.928 20.883 406.183 25.0189 406.183 29.2499C406.178 34.9094 403.931 40.3362 399.934 44.3431C395.937 48.35 390.516 50.6108 384.857 50.6308ZM384.857 8.96248C380.839 8.95177 376.909 10.1334 373.564 12.3578C370.218 14.5821 367.608 17.7492 366.064 21.4579C364.52 25.1666 364.11 29.2501 364.888 33.1914C365.666 37.1328 367.596 40.7546 370.434 43.5984C373.272 46.4422 376.89 48.3799 380.829 49.1663C384.769 49.9527 388.853 49.5523 392.565 48.0159C396.277 46.4796 399.45 43.8762 401.681 40.5356C403.913 37.195 405.103 33.2673 405.101 29.2499C405.092 23.8795 402.958 18.7308 399.165 14.9293C395.371 11.1277 390.227 8.9825 384.857 8.96248Z" fill="#383431"/>
<path d="M384.856 43.2257C381.84 43.2257 378.948 42.0284 376.814 39.897C374.681 37.7656 373.481 34.8744 373.478 31.8587C373.478 31.7151 373.535 31.5774 373.636 31.4759C373.738 31.3744 373.876 31.3174 374.019 31.3174C374.163 31.3174 374.3 31.3744 374.402 31.4759C374.503 31.5774 374.56 31.7151 374.56 31.8587C374.682 34.5046 375.818 37.002 377.734 38.8315C379.649 40.661 382.196 41.6819 384.845 41.6819C387.494 41.6819 390.04 40.661 391.956 38.8315C393.871 37.002 395.008 34.5046 395.129 31.8587C395.129 31.7151 395.186 31.5774 395.288 31.4759C395.389 31.3744 395.527 31.3174 395.671 31.3174C395.814 31.3174 395.952 31.3744 396.053 31.4759C396.155 31.5774 396.212 31.7151 396.212 31.8587C396.209 34.8706 395.012 37.7586 392.883 39.8894C390.754 42.0202 387.868 43.22 384.856 43.2257Z" fill="#383431"/>
<path d="M378.588 26.9005C377.985 26.9026 377.396 26.7257 376.894 26.3923C376.392 26.0589 376 25.5839 375.769 25.0276C375.537 24.4713 375.476 23.8587 375.593 23.2676C375.71 22.6765 376 22.1335 376.426 21.7074C376.852 21.2813 377.395 20.9914 377.986 20.8743C378.577 20.7573 379.19 20.8185 379.746 21.05C380.303 21.2816 380.778 21.6732 381.111 22.1751C381.444 22.677 381.621 23.2667 381.619 23.8693C381.619 24.6732 381.3 25.4442 380.731 26.0126C380.163 26.5811 379.392 26.9005 378.588 26.9005ZM378.588 21.9098C378.2 21.9077 377.82 22.0207 377.496 22.2347C377.173 22.4487 376.92 22.754 376.77 23.1119C376.62 23.4697 376.58 23.864 376.654 24.2448C376.728 24.6256 376.914 24.9758 377.188 25.2509C377.461 25.5261 377.811 25.7138 378.191 25.7902C378.571 25.8667 378.966 25.8286 379.325 25.6806C379.683 25.5326 379.99 25.2814 380.206 24.959C380.421 24.6365 380.537 24.2573 380.537 23.8693C380.539 23.611 380.491 23.3548 380.395 23.1153C380.298 22.8757 380.155 22.6576 379.974 22.4735C379.793 22.2894 379.577 22.1429 379.34 22.0425C379.102 21.942 378.846 21.8896 378.588 21.8881V21.9098Z" fill="#383431"/>
<path d="M391.114 26.9005C390.511 26.9026 389.921 26.7257 389.42 26.3923C388.918 26.0589 388.526 25.5839 388.294 25.0276C388.063 24.4713 388.002 23.8587 388.119 23.2676C388.236 22.6765 388.526 22.1335 388.952 21.7074C389.378 21.2813 389.921 20.9914 390.512 20.8743C391.103 20.7573 391.716 20.8185 392.272 21.05C392.828 21.2816 393.303 21.6732 393.637 22.1751C393.97 22.677 394.147 23.2667 394.145 23.8693C394.142 24.6723 393.822 25.4416 393.254 26.0095C392.686 26.5773 391.917 26.8976 391.114 26.9005ZM391.114 21.9098C390.726 21.9077 390.346 22.0207 390.022 22.2347C389.698 22.4487 389.446 22.754 389.296 23.1119C389.146 23.4697 389.105 23.864 389.18 24.2448C389.254 24.6256 389.44 24.9758 389.713 25.2509C389.987 25.5261 390.336 25.7138 390.717 25.7902C391.097 25.8667 391.491 25.8286 391.85 25.6806C392.209 25.5326 392.515 25.2814 392.731 24.959C392.947 24.6365 393.062 24.2573 393.062 23.8693C393.065 23.611 393.017 23.3548 392.92 23.1153C392.824 22.8757 392.681 22.6576 392.5 22.4735C392.319 22.2894 392.103 22.1429 391.865 22.0425C391.627 21.942 391.372 21.8896 391.114 21.8881V21.9098Z" fill="#383431"/>
<path d="M96.2862 17.4392C102.672 17.4392 107.848 12.2628 107.848 5.87733C107.848 -0.508132 102.672 -5.68457 96.2862 -5.68457C89.9007 -5.68457 84.7242 -0.508132 84.7242 5.87733C84.7242 12.2628 89.9007 17.4392 96.2862 17.4392Z" fill="#625958"/>
<path d="M103.549 98.7509C103.405 98.7509 103.268 98.6938 103.166 98.5923C103.064 98.4908 103.007 98.3531 103.007 98.2096V70.7122C103.01 70.5695 103.068 70.4334 103.169 70.3325C103.27 70.2316 103.406 70.1737 103.549 70.1709H197.971C198.114 70.1737 198.25 70.2316 198.351 70.3325C198.451 70.4334 198.509 70.5695 198.512 70.7122C198.512 70.8557 198.455 70.9934 198.354 71.0949C198.252 71.1964 198.114 71.2535 197.971 71.2535H104.144V98.1879C104.148 98.2656 104.134 98.3431 104.105 98.4152C104.076 98.4873 104.032 98.5522 103.975 98.6057C103.919 98.6591 103.851 98.6997 103.778 98.7248C103.704 98.7498 103.626 98.7587 103.549 98.7509Z" fill="#383431"/>
<path d="M456.175 48.6999L429.696 39.1876C427.468 38.3872 425.012 39.5446 424.212 41.7728L404.594 96.3821C403.794 98.6103 404.951 101.066 407.18 101.866L433.659 111.378C435.887 112.179 438.342 111.021 439.143 108.793L458.76 54.1838C459.561 51.9556 458.403 49.5004 456.175 48.6999Z" fill="#383431"/>
<path d="M453.762 49.0307L427.314 39.4644C425.089 38.6594 422.632 39.811 421.827 42.0366L402.098 96.5811C401.293 98.8066 402.445 101.263 404.67 102.068L431.118 111.635C433.344 112.44 435.801 111.288 436.606 109.062L456.335 54.5181C457.14 52.2925 455.988 49.8357 453.762 49.0307Z" fill="#625958"/>
<path d="M452.833 51.0197L427.535 41.9319C425.712 41.277 423.703 42.224 423.048 44.0471L406.187 90.9846C405.532 92.8077 406.479 94.8165 408.302 95.4714L433.599 104.559C435.422 105.214 437.431 104.267 438.086 102.444L454.948 55.5065C455.603 53.6834 454.656 51.6746 452.833 51.0197Z" fill="white"/>
<path d="M426.33 42.8365C426.61 42.8348 426.889 42.8825 427.152 42.9772L452.441 52.0709C452.74 52.171 453.015 52.3299 453.251 52.5382C453.488 52.7464 453.68 52.9998 453.816 53.2833C453.955 53.5699 454.035 53.8812 454.052 54.1991C454.068 54.517 454.021 54.835 453.914 55.1345L437.047 102.107C436.878 102.578 436.568 102.986 436.16 103.274C435.751 103.563 435.263 103.719 434.763 103.72C434.482 103.718 434.204 103.667 433.94 103.569L408.64 94.4861C408.036 94.2662 407.543 93.816 407.269 93.2339C406.995 92.6518 406.963 91.9851 407.179 91.3792L424.045 44.4387C424.215 43.9689 424.525 43.5629 424.934 43.2762C425.343 42.9894 425.83 42.8359 426.33 42.8365ZM426.33 41.7539C425.607 41.7518 424.902 41.9734 424.311 42.3882C423.72 42.803 423.272 43.3908 423.028 44.0706L406.183 91.0111C406.026 91.4447 405.957 91.9049 405.978 92.3654C405.999 92.826 406.111 93.2778 406.307 93.6951C406.503 94.1123 406.78 94.4868 407.121 94.7972C407.461 95.1076 407.86 95.3477 408.294 95.5038L433.594 104.587C434.027 104.746 434.488 104.818 434.949 104.798C435.411 104.778 435.864 104.667 436.282 104.471C436.7 104.274 437.074 103.997 437.384 103.654C437.694 103.312 437.933 102.911 438.086 102.476L454.899 55.5351C455.053 55.0987 455.119 54.6363 455.093 54.1744C455.067 53.7124 454.95 53.2601 454.749 52.8436C454.548 52.427 454.266 52.0543 453.92 51.7471C453.574 51.4398 453.171 51.204 452.734 51.0532L427.434 41.9596C427.055 41.8233 426.656 41.7537 426.254 41.7539H426.33Z" fill="white"/>
<path d="M442.99 46.3218H442.893L435.672 43.7236C435.604 43.699 435.549 43.6494 435.517 43.5849C435.484 43.5205 435.478 43.4461 435.499 43.3772C435.526 43.3089 435.578 43.2538 435.645 43.2235C435.711 43.1931 435.787 43.19 435.856 43.2148L443.077 45.813C443.111 45.8238 443.143 45.8416 443.17 45.8653C443.197 45.8889 443.219 45.918 443.234 45.9505C443.25 45.9831 443.258 46.0185 443.259 46.0544C443.26 46.0904 443.253 46.1261 443.239 46.1594C443.22 46.2087 443.185 46.2507 443.14 46.2797C443.096 46.3088 443.044 46.3235 442.99 46.3218Z" fill="white"/>
<path d="M445.816 47.3397H445.729L444.993 47.069C444.959 47.0582 444.927 47.0404 444.9 47.0167C444.873 46.9931 444.851 46.964 444.836 46.9315C444.821 46.8989 444.812 46.8635 444.811 46.8276C444.811 46.7916 444.817 46.7559 444.831 46.7226C444.857 46.6569 444.908 46.6036 444.972 46.5735C445.036 46.5434 445.11 46.5386 445.177 46.5602L445.913 46.82C445.979 46.8379 446.035 46.8797 446.071 46.9371C446.107 46.9945 446.121 47.0633 446.108 47.13C446.096 47.1967 446.059 47.2564 446.005 47.2972C445.951 47.338 445.883 47.357 445.816 47.3505V47.3397Z" fill="white"/>
<path d="M434.391 98.934L410.622 90.3953C410.126 90.2174 409.581 90.4747 409.403 90.9698C409.225 91.465 409.482 92.0106 409.977 92.1885L433.747 100.727C434.242 100.905 434.787 100.648 434.965 100.153C435.143 99.6575 434.886 99.1119 434.391 98.934Z" fill="#B0F4F0"/>
<path d="M455.798 60.7314L451.36 73.1053C451.624 73.1532 451.897 73.101 452.125 72.959C452.353 72.8169 452.52 72.5951 452.594 72.3366L456.264 62.1171C456.373 61.8698 456.386 61.5903 456.3 61.3339C456.214 61.0774 456.035 60.8625 455.798 60.7314Z" fill="#383431"/>
<path d="M455.517 60.7852L451.186 72.8883C451.554 73.0183 452.031 72.6394 452.269 72.0439L455.852 62.0951C455.982 61.4997 455.885 60.9151 455.517 60.7852Z" fill="#625958"/>
<path d="M450.872 74.4473L449.421 78.4853C449.897 78.6585 450.33 78.6368 450.406 78.4853L451.597 75.1509C451.651 74.9344 451.348 74.6205 450.872 74.4473Z" fill="#383431"/>
<path d="M450.623 74.4043L449.205 78.3557C449.573 78.4856 449.92 78.4423 449.995 78.2474L451.165 74.9997C451.229 74.8049 450.991 74.5342 450.623 74.4043Z" fill="#625958"/>
<path d="M419.943 106.048C419.349 106.047 418.771 105.857 418.293 105.505C417.815 105.153 417.461 104.658 417.283 104.092C417.105 103.525 417.113 102.917 417.304 102.355C417.495 101.793 417.861 101.307 418.347 100.966C418.833 100.626 419.416 100.45 420.009 100.463C420.603 100.476 421.177 100.677 421.648 101.039C422.119 101.4 422.463 101.902 422.629 102.472C422.796 103.041 422.776 103.65 422.574 104.208C422.379 104.749 422.022 105.216 421.551 105.546C421.079 105.875 420.518 106.051 419.943 106.048ZM419.943 101.555C419.517 101.557 419.108 101.718 418.796 102.007C418.483 102.296 418.291 102.691 418.256 103.115C418.221 103.539 418.346 103.961 418.607 104.297C418.868 104.633 419.245 104.859 419.665 104.931C420.084 105.002 420.515 104.913 420.873 104.682C421.23 104.451 421.487 104.094 421.594 103.682C421.702 103.271 421.65 102.834 421.451 102.458C421.251 102.082 420.918 101.795 420.517 101.653C420.336 101.589 420.146 101.556 419.954 101.555H419.943Z" fill="#383431"/>
<path d="M435.648 47.4979L426.876 44.3466C426.116 44.0738 425.279 44.4683 425.006 45.228L421.855 54.0001C421.582 54.7597 421.977 55.5967 422.736 55.8696L431.509 59.0208C432.268 59.2937 433.105 58.8992 433.378 58.1395L436.529 49.3674C436.802 48.6078 436.408 47.7708 435.648 47.4979Z" fill="#B0F4F0"/>
<path d="M430.459 61.9559L421.687 58.8046C420.928 58.5318 420.091 58.9263 419.818 59.686L416.666 68.4581C416.394 69.2177 416.788 70.0547 417.548 70.3276L426.32 73.4788C427.079 73.7517 427.917 73.3571 428.189 72.5975L431.341 63.8254C431.614 63.0658 431.219 62.2288 430.459 61.9559Z" fill="#B0F4F0"/>
<path d="M452.122 53.4153L440.782 49.3417C440.023 49.0689 439.186 49.4635 438.913 50.2231L430.572 73.4422C430.299 74.2018 430.693 75.0388 431.453 75.3117L442.793 79.3853C443.552 79.6582 444.389 79.2636 444.662 78.504L453.003 55.2848C453.276 54.5252 452.882 53.6882 452.122 53.4153Z" fill="#7AC49F"/>
<path d="M441.71 82.3802L416.473 73.3144C415.713 73.0415 414.876 73.4361 414.604 74.1957L410.559 85.4538C410.286 86.2134 410.681 87.0504 411.441 87.3233L436.677 96.3891C437.437 96.662 438.274 96.2674 438.547 95.5078L442.591 84.2497C442.864 83.4901 442.469 82.6531 441.71 82.3802Z" fill="#46A07D"/>
<path d="M432.034 59.9403C432.937 59.9403 433.669 59.2084 433.669 58.3056C433.669 57.4028 432.937 56.6709 432.034 56.6709C431.132 56.6709 430.4 57.4028 430.4 58.3056C430.4 59.2084 431.132 59.9403 432.034 59.9403Z" fill="#DEB68E"/>
<path d="M427.262 74.5448C428.165 74.5448 428.897 73.8129 428.897 72.9101C428.897 72.0073 428.165 71.2754 427.262 71.2754C426.359 71.2754 425.627 72.0073 425.627 72.9101C425.627 73.8129 426.359 74.5448 427.262 74.5448Z" fill="#DEB68E"/>
<path d="M443.585 80.9969C444.488 80.9969 445.22 80.265 445.22 79.3622C445.22 78.4594 444.488 77.7275 443.585 77.7275C442.683 77.7275 441.951 78.4594 441.951 79.3622C441.951 80.265 442.683 80.9969 443.585 80.9969Z" fill="#FBA176"/>
<path d="M436.971 97.6795C437.874 97.6795 438.606 96.9477 438.606 96.0448C438.606 95.142 437.874 94.4102 436.971 94.4102C436.069 94.4102 435.337 95.142 435.337 96.0448C435.337 96.9477 436.069 97.6795 436.971 97.6795Z" fill="#FBA176"/>
<path d="M414.324 66.9991C414.703 69.24 413.988 71.7841 412.754 74.5771C410.47 79.741 406.432 85.706 404.472 92.0823C403.855 94.0959 400.846 99.6604 404.267 100.83C411.942 103.525 426.059 108.7 426.059 108.7C426.059 108.7 423.049 113.528 418.86 120.121L416.088 124.451L415.558 125.263C408.088 136.955 398.789 151.245 395.292 155.575C389.1 163.272 378.761 175.289 354.793 157.535C354.317 157.178 353.829 156.809 353.364 156.452L352.444 155.749C350.939 154.569 349.499 153.378 348.113 152.198L347.323 151.505C346.782 151.029 346.241 150.552 345.743 150.076C340.006 144.803 335.004 138.784 330.868 132.181C328.579 128.631 326.736 124.814 325.379 120.814L342.971 100.494L351.632 109.219L358.885 116.559L358.95 116.624L359.513 117.198L359.632 117.317L377.581 135.559C377.581 135.559 389.587 113.907 397.002 98.9134C402.892 87.0051 402.989 58.9231 409.842 52.0812C416.694 45.2393 419.585 46.8524 424.998 46.0837C428.7 45.5641 429.491 52.9364 424.998 55.9352C420.505 58.9339 413.263 60.5902 414.324 66.9991Z" fill="#F7E0C9"/>
<path d="M281.936 72.1629C281.936 72.1629 280.431 92.7318 280.009 93.0133C279.587 93.2948 238.763 75.0317 238.763 75.0317C243.743 73.9492 248.235 73.7543 249.74 67.995C251.721 60.417 250.487 48.7468 248.571 42.3813C247.791 39.8048 247.163 38.1484 247.163 38.1484L247.661 38.2567L252.23 39.1336L268.62 42.2947L275.938 43.7129L275.852 44.1892C274.836 49.7103 274.444 55.328 274.683 60.9366C274.739 61.7322 274.863 62.5216 275.051 63.2966C275.451 64.9952 276.187 66.5964 277.216 68.0058C277.436 68.3223 277.675 68.6259 277.93 68.9152C279.039 70.2503 280.4 71.3538 281.936 72.1629Z" fill="#F7E0C9"/>
<path d="M277.194 68.006C267.375 66.9234 259.05 58.7717 253.074 48.9852C257.264 54.0625 266.065 63.2968 275.05 63.2968C274.862 62.5217 274.739 61.7323 274.682 60.9368C274.444 55.3282 274.836 49.7104 275.852 44.1894L268.62 42.2949L252.739 38.127L252.23 39.1121L250.768 44.893C249.61 42.7279 248.603 40.4545 247.661 38.2352L247.163 38.127C247.163 38.127 247.791 39.7833 248.571 42.3598C254.774 55.4698 265.112 68.006 277.908 68.8937C277.654 68.6114 277.415 68.315 277.194 68.006Z" fill="#DEB68E"/>
<path d="M359.633 117.339L358.983 116.678L351.665 109.263C345.538 116.04 336.119 126.486 330.944 132.224C335.08 138.827 340.083 144.846 345.819 150.119C346.674 142.14 351.405 132.04 355.335 124.819C352.152 132.549 348.071 143.689 347.4 151.548L348.19 152.241C348.753 143.494 354.09 129.853 357.392 122.135C355.086 130.503 351.503 145.561 352.477 155.792L353.397 156.495C351.86 143.894 358.074 122.438 359.633 117.339Z" fill="#DEB68E"/>
<path d="M358.886 116.57C358.886 116.57 348.558 128.391 342.431 140.939C342.225 141.35 342.03 141.75 341.846 142.162C341.662 142.573 341.586 142.714 341.467 142.995C338.923 148.679 337.602 154.103 338.977 157.978L314.911 125.274C319.372 159.916 317.802 207.127 325.434 224.762C307.691 221.417 283.842 223.387 259.538 226.581C258.942 226.646 258.358 226.733 257.762 226.819C255.597 227.101 253.407 227.4 251.191 227.718L249.492 227.945L243.245 228.844C233.967 230.186 224.841 231.572 216.083 232.784L227.829 213.623C227.829 213.623 223.401 200.794 222.611 190.704C217.978 176.425 221.063 147.824 217.978 124.159L216.505 116.31L214.838 107.519L209.425 82.6202C209.425 82.6202 215.488 80.0762 218.162 79.654C224.051 78.7121 245.735 73.1585 245.735 73.1585C245.735 73.1585 246.796 79.2642 271.944 77.0991C281.817 76.233 280.929 71.5996 280.929 71.5996C295.977 74.555 302.917 74.0571 312.053 76.7635C323.009 80.0112 340.06 96.0442 358.886 116.57Z" fill="#7AC49F"/>
<path d="M261.432 82.4153C254.417 82.4153 249.004 81.4843 245.28 79.633C240.885 77.4679 240.539 74.7398 240.528 74.6316C240.519 74.5605 240.525 74.4884 240.544 74.4195C240.564 74.3505 240.596 74.2861 240.641 74.2298C240.685 74.1735 240.74 74.1265 240.802 74.0914C240.864 74.0563 240.933 74.0338 241.004 74.0253C241.075 74.0168 241.147 74.0223 241.216 74.0417C241.285 74.061 241.35 74.0937 241.406 74.1379C241.462 74.1822 241.509 74.237 241.544 74.2994C241.58 74.3619 241.602 74.4306 241.611 74.5017C241.611 74.6424 243.288 83.92 273.362 80.5965C284.924 79.3299 285.108 73.3216 285.108 73.0726C285.111 72.93 285.169 72.7939 285.27 72.693C285.371 72.592 285.507 72.5341 285.65 72.5314C285.72 72.5299 285.79 72.5426 285.856 72.5686C285.922 72.5946 285.981 72.6335 286.032 72.6829C286.082 72.7323 286.122 72.7912 286.15 72.8563C286.177 72.9214 286.191 72.9912 286.191 73.0618C286.191 73.3649 286.072 80.2934 273.482 81.7224C269.481 82.1715 265.458 82.4028 261.432 82.4153Z" fill="#46A07D"/>
<path d="M227.83 213.623V237.321C227.83 243.719 213.193 248.146 212.674 237.537C212.165 227.794 212.002 217.044 209.686 211.729C204.836 200.6 164.553 171.522 153.219 154.049C144.829 141.112 150.934 132.809 156.932 126.53C159.53 123.813 164.055 118.811 168.342 114.015L168.916 113.366L171.547 110.421L173.3 108.462C176.656 104.673 186.767 96.0771 186.767 96.0771L205.171 109.22L198.026 129.334L186.594 145.486C200.235 159.386 205.42 165.189 217.253 185.541C220.966 191.939 227.256 191.16 230.244 196.075C240.084 212.162 227.83 213.623 227.83 213.623Z" fill="#F7E0C9"/>
<path d="M197.973 129.345L186.227 113.908L173.236 108.43L171.482 110.389C175.152 117.079 182.903 131.705 185.555 140.701C181.864 134.206 172.846 119.775 168.83 113.366L168.256 114.016C173.073 121.735 184.765 140.506 186.259 143.743C186.369 144.32 186.449 144.901 186.497 145.486L197.973 129.345Z" fill="#DEB68E"/>
<path d="M218.119 125.264C214.07 128.338 204.446 144.696 200.202 148.42C200.202 148.42 198.567 144.804 197.788 143.007C197.36 142.05 196.879 141.118 196.348 140.214C196.099 139.781 195.828 139.315 195.514 138.817L195.016 138.038C194.497 137.259 193.934 136.392 193.252 135.451C193.089 135.223 192.916 134.985 192.732 134.747C188.716 129.204 182.675 121.897 171.081 110.292C184.635 96.0666 201.555 85.3924 209.458 82.6318L212.998 97.9178L214.405 105.355L214.589 106.351V106.481L214.795 107.564L218.119 125.264Z" fill="#7AC49F"/>
<path d="M199.347 148.051C199.347 148.051 198.069 145.02 197.29 143.19C196.872 142.25 196.398 141.335 195.872 140.451C195.634 140.018 195.363 139.564 195.06 139.076L194.562 138.308C194.053 137.528 193.479 136.662 192.808 135.731L192.602 135.439C192.505 135.309 192.407 135.168 192.299 135.038C188.878 130.329 183.379 123.336 171.005 110.94C170.906 110.839 170.85 110.703 170.85 110.561C170.85 110.42 170.906 110.284 171.005 110.183C171.055 110.132 171.115 110.092 171.181 110.064C171.247 110.037 171.318 110.022 171.389 110.022C171.461 110.022 171.531 110.037 171.597 110.064C171.663 110.092 171.723 110.132 171.774 110.183C184.191 122.621 189.733 129.669 193.176 134.389L193.479 134.811L193.685 135.103C194.367 136.056 194.951 136.922 195.471 137.712L195.969 138.503C196.294 139.001 196.565 139.477 196.814 139.921C197.363 140.839 197.854 141.79 198.286 142.768C199.065 144.587 200.354 147.64 200.354 147.64L199.347 148.051Z" fill="#383431"/>
<path d="M341.468 142.996C341.587 142.714 341.717 142.444 341.847 142.162C336.434 135.775 332.482 130.33 328.022 124.127C324.774 119.58 314.501 102.638 313.418 100.256C314.836 105.929 315.269 114.481 314.912 125.263L338.978 157.979C337.895 154.958 338.469 150.996 339.974 146.709C338.209 145.302 327.156 128.652 318.495 112.543C321.949 117.133 324.774 121.052 327.34 124.625C331.876 130.936 335.817 136.457 341.468 142.996Z" fill="#46A07D"/>
<path d="M448.825 97.0946C448.761 95.8203 448.193 94.6236 447.248 93.7671C446.302 92.9106 445.055 92.4643 443.78 92.5262L434.514 93.0025C433.864 93.0084 433.222 93.1458 432.626 93.4063C432.031 93.6669 431.494 94.0452 431.049 94.5185C430.604 94.9919 430.259 95.5504 430.035 96.1606C429.811 96.7708 429.713 97.4199 429.746 98.069C429.78 98.718 429.945 99.3536 430.23 99.9374C430.516 100.521 430.917 101.041 431.409 101.466C431.901 101.891 432.473 102.212 433.093 102.409C433.712 102.607 434.365 102.677 435.012 102.616L444.268 102.139C444.899 102.109 445.517 101.954 446.088 101.684C446.659 101.413 447.171 101.033 447.595 100.564C448.018 100.095 448.345 99.5476 448.556 98.9522C448.767 98.3568 448.859 97.7255 448.825 97.0946Z" fill="#F7E0C9"/>
<path d="M434.515 93.6525C434.377 93.6499 434.245 93.5946 434.147 93.498C434.048 93.4015 433.99 93.2708 433.985 93.1329C433.98 93.0624 433.99 92.9916 434.013 92.9249C434.037 92.8582 434.073 92.7968 434.12 92.7443C434.168 92.6919 434.225 92.6495 434.289 92.6195C434.353 92.5896 434.423 92.5727 434.493 92.57L443.749 92.0937C443.821 92.0861 443.894 92.0936 443.962 92.1157C444.031 92.1377 444.094 92.1738 444.148 92.2217C444.202 92.2695 444.246 92.3281 444.276 92.3937C444.306 92.4592 444.322 92.5303 444.323 92.6025C444.329 92.7471 444.278 92.8883 444.181 92.9957C444.084 93.103 443.948 93.1678 443.804 93.1762L434.547 93.6525H434.515Z" fill="#383431"/>
<path d="M450.742 83.5948L440.739 80.7043C440.048 80.4792 439.32 80.3952 438.597 80.4574C437.873 80.5196 437.17 80.7267 436.528 81.0663C435.886 81.406 435.319 81.8713 434.861 82.4345C434.403 82.9977 434.063 83.6474 433.861 84.3448C433.659 85.0422 433.599 85.7731 433.686 86.494C433.772 87.2149 434.003 87.911 434.363 88.541C434.724 89.171 435.208 89.722 435.787 90.1611C436.365 90.6002 437.025 90.9185 437.729 91.097L447.743 93.9875C448.435 94.2182 449.166 94.3067 449.894 94.2476C450.621 94.1885 451.328 93.983 451.974 93.6435C452.619 93.3041 453.19 92.8376 453.651 92.2722C454.112 91.7067 454.453 91.054 454.656 90.3531C454.858 89.6523 454.916 88.9177 454.828 88.1937C454.739 87.4697 454.505 86.771 454.139 86.1398C453.773 85.5086 453.284 84.9577 452.7 84.5204C452.116 84.083 451.45 83.7682 450.742 83.5948Z" fill="#F7E0C9"/>
<path d="M460.312 65.9053L450.342 61.8457C448.969 61.2858 447.431 61.294 446.064 61.8686C444.698 62.4431 443.616 63.5369 443.056 64.9094C442.496 66.2818 442.504 67.8204 443.079 69.1867C443.654 70.5531 444.747 71.6352 446.12 72.1951L456.09 76.2547C456.77 76.5323 457.497 76.6733 458.231 76.6695C458.965 76.6658 459.691 76.5174 460.368 76.2328C461.045 75.9483 461.659 75.5332 462.175 75.0113C462.691 74.4894 463.099 73.8708 463.376 73.1911C463.654 72.5115 463.795 71.784 463.791 71.05C463.787 70.316 463.639 69.5899 463.354 68.9133C463.07 68.2366 462.655 67.6227 462.133 67.1066C461.611 66.5905 460.992 66.1823 460.312 65.9053Z" fill="#F7E0C9"/>
<path d="M454.823 73.8518L444.387 69.5973C443.676 69.3072 442.915 69.1601 442.148 69.1641C441.38 69.1682 440.621 69.3235 439.913 69.621C439.205 69.9186 438.563 70.3526 438.023 70.8984C437.483 71.4441 437.056 72.0909 436.766 72.8017C436.476 73.5125 436.329 74.2735 436.333 75.0412C436.337 75.8089 436.492 76.5683 436.79 77.276C437.087 77.9837 437.521 78.6259 438.067 79.1658C438.613 79.7058 439.259 80.133 439.97 80.423L450.406 84.6667C451.842 85.2524 453.451 85.2439 454.881 84.6429C456.31 84.042 457.442 82.8979 458.028 81.4623C458.613 80.0267 458.605 78.4172 458.004 76.988C457.403 75.5587 456.259 74.4267 454.823 73.841V73.8518Z" fill="#F7E0C9"/>
<path d="M453.091 85.7599H452.994C448.413 84.6568 443.969 83.0483 439.743 80.9641C439.678 80.935 439.62 80.8933 439.572 80.8413C439.524 80.7894 439.486 80.7283 439.462 80.6617C439.438 80.5951 439.427 80.5243 439.431 80.4536C439.434 80.3828 439.452 80.3134 439.483 80.2496C439.542 80.1192 439.65 80.0175 439.784 79.9667C439.918 79.916 440.067 79.9204 440.198 79.979C444.344 82.0025 448.7 83.5636 453.188 84.6341C453.258 84.6456 453.325 84.6713 453.385 84.7096C453.444 84.7479 453.496 84.798 453.535 84.8568C453.575 84.9156 453.602 84.9819 453.615 85.0516C453.628 85.1213 453.626 85.1928 453.611 85.2619C453.602 85.3951 453.544 85.5203 453.448 85.6126C453.352 85.7048 453.224 85.7575 453.091 85.7599Z" fill="#383431"/>
<path d="M457.8 76.8293C457.683 76.8246 457.571 76.7871 457.475 76.7211C454.411 74.4477 449.269 72.2176 444.181 70.139C444.115 70.1129 444.055 70.0738 444.004 70.024C443.953 69.9742 443.913 69.9147 443.886 69.8491C443.859 69.7834 443.845 69.713 443.845 69.6419C443.846 69.5709 443.86 69.5006 443.889 69.4353C443.915 69.3692 443.954 69.309 444.004 69.2583C444.053 69.2076 444.113 69.1675 444.179 69.1402C444.244 69.1129 444.315 69.0991 444.386 69.0996C444.457 69.1001 444.527 69.1149 444.592 69.143C449.745 71.2432 454.953 73.4734 458.124 75.8442C458.239 75.9303 458.315 76.0586 458.336 76.2007C458.356 76.3428 458.319 76.4871 458.233 76.602C458.184 76.6718 458.119 76.729 458.044 76.7685C457.969 76.8081 457.885 76.829 457.8 76.8293Z" fill="#383431"/>
<path d="M437.579 95.4058L437.665 99.7361L434.721 99.8011C434.158 99.8013 433.617 99.5821 433.212 99.19C432.808 98.7979 432.572 98.2638 432.556 97.7009C432.555 97.1359 432.776 96.5932 433.171 96.1887C433.565 95.7842 434.102 95.5498 434.667 95.5357L437.568 95.4708L437.579 95.4058ZM438.661 94.3232L434.677 94.4099C433.816 94.4199 432.994 94.7717 432.392 95.3879C431.79 96.004 431.458 96.8341 431.468 97.6955C431.478 98.5568 431.829 99.3789 432.446 99.9808C433.062 100.583 433.892 100.915 434.753 100.905H434.818L438.813 100.819L438.661 94.3232Z" fill="#383431"/>
<path d="M447.755 64.3358C448.074 64.3382 448.39 64.4006 448.686 64.5198L451.674 65.7756L449.801 70.2466L446.813 69.0017C446.219 68.7511 445.749 68.2765 445.503 67.6809C445.352 67.312 445.294 66.9114 445.334 66.5147C445.375 66.118 445.512 65.7374 445.735 65.4066C445.958 65.0758 446.258 64.805 446.611 64.6182C446.963 64.4314 447.356 64.3344 447.755 64.3358ZM447.755 63.2532C446.943 63.2502 446.155 63.5288 445.526 64.0417C444.897 64.5545 444.465 65.2697 444.304 66.0654C444.143 66.8611 444.263 67.688 444.643 68.405C445.024 69.1221 445.642 69.685 446.391 69.9976L450.385 71.6648L453.092 65.1693L449.108 63.4913C448.679 63.3135 448.219 63.2216 447.755 63.2207V63.2532Z" fill="#383431"/>
<path d="M439.202 83.4654C439.502 83.4648 439.799 83.5199 440.079 83.6278L443.11 84.797L441.356 89.3221L438.336 88.1529C438.038 88.0416 437.765 87.871 437.534 87.6515C437.303 87.4319 437.119 87.168 436.993 86.8755C436.87 86.5806 436.807 86.2641 436.807 85.9445C436.807 85.6248 436.87 85.3084 436.993 85.0135C437.175 84.5607 437.487 84.172 437.89 83.8964C438.293 83.6209 438.768 83.4709 439.256 83.4654H439.202ZM439.202 82.3828C438.385 82.3862 437.595 82.6746 436.968 83.1983C436.341 83.722 435.917 84.448 435.768 85.2512C435.619 86.0545 435.755 86.8844 436.153 87.598C436.55 88.3115 437.185 88.8639 437.946 89.1597L441.973 90.7295L444.507 84.1799L440.469 82.621C440.065 82.4628 439.635 82.382 439.202 82.3828Z" fill="#383431"/>
<path d="M442.027 72.7691C442.323 72.7694 442.617 72.8244 442.893 72.9315L445.924 74.1007L444.17 78.6258L441.15 77.4566C440.852 77.3429 440.579 77.1711 440.348 76.9513C440.117 76.7315 439.931 76.4679 439.802 76.176C439.673 75.884 439.604 75.5694 439.597 75.2504C439.591 74.9313 439.647 74.6141 439.764 74.3172C439.944 73.8627 440.255 73.4724 440.658 73.1965C441.062 72.9206 441.538 72.7717 442.027 72.7691ZM442.027 71.6865C441.209 71.6874 440.417 71.974 439.788 72.4969C439.16 73.0197 438.733 73.7458 438.583 74.5497C438.433 75.3535 438.568 76.1847 438.966 76.8993C439.363 77.614 439.998 78.1672 440.76 78.4634L444.798 80.0332L447.321 73.5377L443.283 71.9788C442.883 71.8217 442.457 71.741 442.027 71.7407V71.6865Z" fill="#383431"/>
<path d="M424.068 46.993C423.967 48.0349 423.52 49.0129 422.798 49.7705C422.076 50.5281 421.12 51.0215 420.084 51.1718L417.919 51.4749L417.41 47.9457L424.036 46.993H424.068ZM425.151 45.748L416.263 47.0255L417.075 52.6982L420.322 52.2435C421.828 52.0265 423.186 51.2203 424.098 50.0022C425.009 48.7842 425.4 47.2539 425.183 45.748H425.151Z" fill="#383431"/>
<path d="M426.059 108.668C426.059 108.668 423.05 113.496 418.86 120.089C413.004 111.428 401.323 101.685 400.208 98.881C398.724 95.0379 405.252 85.5004 409.269 80.4773C410.73 78.6477 411.943 75.3892 412.755 74.5664C410.47 79.7303 406.183 88.0878 403.65 94.2584C402.232 97.7119 403.499 100.548 405.285 101.176C413.209 103.947 426.059 108.668 426.059 108.668Z" fill="#DEB68E"/>
<path d="M416.088 124.451L415.558 125.263C410.784 115.671 400.402 99.0756 400.283 98.859C400.225 98.7653 400.207 98.6529 400.231 98.5458C400.255 98.4387 400.32 98.3452 400.412 98.2853C400.458 98.254 400.51 98.2324 400.564 98.222C400.618 98.2116 400.674 98.2125 400.728 98.2247C400.782 98.2369 400.832 98.2602 400.877 98.2929C400.921 98.3257 400.959 98.3673 400.986 98.4152C401.517 99.2596 411.26 114.859 416.088 124.451Z" fill="#DEB68E"/>
<path d="M218.119 125.263C214.07 128.338 204.344 144.776 200.1 148.5C200.1 148.5 199.79 146.23 199 144.4C209.653 129.45 215.24 123.748 213.464 100.256C216.138 107.336 217.914 118.237 218.119 125.263Z" fill="#46A07D"/>
<path d="M198.259 141.702C198.144 141.704 198.032 141.668 197.94 141.6C197.848 141.531 197.781 141.434 197.75 141.324C197.62 140.934 197.696 140.804 199.807 138.076C204.505 131.894 214.297 119.147 213.842 107.585C213.84 107.514 213.851 107.443 213.875 107.376C213.9 107.31 213.937 107.248 213.986 107.196C214.034 107.144 214.092 107.102 214.157 107.072C214.221 107.042 214.291 107.025 214.362 107.022C214.434 107.016 214.506 107.025 214.574 107.049C214.642 107.072 214.705 107.109 214.758 107.158C214.811 107.207 214.853 107.267 214.882 107.333C214.911 107.399 214.925 107.47 214.925 107.542C215.391 119.45 205.88 131.884 200.673 138.725C199.785 139.884 198.952 140.988 198.8 141.291C198.783 141.391 198.738 141.484 198.671 141.561C198.605 141.637 198.518 141.694 198.421 141.724L198.259 141.702Z" fill="#46A07D"/>
<path d="M266.218 52.0162C278.367 52.0162 288.216 41.4355 288.216 28.3836C288.216 15.3317 278.367 4.75098 266.218 4.75098C254.069 4.75098 244.22 15.3317 244.22 28.3836C244.22 41.4355 254.069 52.0162 266.218 52.0162Z" fill="#F7E0C9"/>
<path d="M289.957 9.42785C289.957 6.56985 286.948 5.56305 283.667 7.45755C282.91 7.98165 282.019 8.27933 281.099 8.31575C280.179 8.35218 279.267 8.12585 278.471 7.66324C274.74 4.93296 270.233 3.4686 265.61 3.4845C249.047 3.4845 245.583 11.593 243.482 22.3538C243.417 22.6569 243.374 22.96 243.32 23.274C243.233 23.8153 243.168 25.32 243.114 25.883C245.593 27.1929 248.267 27.1821 251.082 27.7234C251.342 29.1307 251.981 31.1659 253.561 31.1659C255.142 31.1659 256.192 30.2133 256.863 28.2213C257.178 27.2004 257.42 26.1585 257.588 25.1035C258.173 21.8558 261.832 15.7609 271.932 14.137C274.316 13.7447 276.753 13.8146 279.11 14.3427C280.066 14.5575 281.043 14.6628 282.022 14.6567C282.898 14.6595 283.772 14.5761 284.631 14.4077C287.099 13.8664 289.957 11.5822 289.957 9.42785Z" fill="#383431"/>
<path d="M249.35 29.9423H249.209C248.408 29.7907 247.726 29.6933 247.044 29.6067C245.367 29.4743 243.737 28.9912 242.259 28.1885C242.178 28.1428 242.109 28.077 242.06 27.9975C242.011 27.918 241.982 27.8272 241.978 27.7338C241.599 18.402 242.995 12.5778 246.492 8.97279C249.989 5.36782 255.153 3.89551 263.813 3.89551C263.957 3.89551 264.095 3.95254 264.196 4.05405C264.298 4.15556 264.355 4.29324 264.355 4.4368C264.355 4.58035 264.298 4.71803 264.196 4.81954C264.095 4.92105 263.957 4.97808 263.813 4.97808C255.553 4.97808 250.465 6.43956 247.315 9.71976C244.165 13 242.768 18.5536 243.093 27.3766C244.382 28.0296 245.787 28.4232 247.228 28.5349C247.878 28.6215 248.581 28.719 249.393 28.8813C249.464 28.8942 249.531 28.9211 249.59 28.9605C249.65 28.9999 249.701 29.051 249.741 29.1107C249.78 29.1703 249.807 29.2374 249.82 29.3077C249.833 29.3781 249.831 29.4503 249.816 29.5201C249.793 29.6309 249.736 29.7316 249.652 29.8075C249.568 29.8835 249.463 29.9307 249.35 29.9423Z" fill="#383431"/>
<path d="M246.059 39.632C250.089 39.632 253.356 36.2295 253.356 32.0323C253.356 27.8351 250.089 24.4326 246.059 24.4326C242.029 24.4326 238.763 27.8351 238.763 32.0323C238.763 36.2295 242.029 39.632 246.059 39.632Z" fill="#F7E0C9"/>
<path d="M275.431 46.2568C274.41 46.3027 273.402 46.0089 272.566 45.4213C271.729 44.8337 271.111 43.9853 270.808 43.0091C270.779 42.8701 270.804 42.725 270.878 42.604C270.953 42.483 271.071 42.3954 271.209 42.3595C271.277 42.3402 271.349 42.335 271.419 42.3444C271.489 42.3537 271.557 42.3774 271.618 42.4139C271.679 42.4504 271.731 42.499 271.773 42.5567C271.814 42.6144 271.843 42.6799 271.858 42.7493C272.092 43.502 272.57 44.1551 273.217 44.6044C273.865 45.0537 274.644 45.2733 275.431 45.2284C275.573 45.2311 275.71 45.2891 275.81 45.39C275.911 45.4909 275.969 45.627 275.972 45.7697C275.959 45.9036 275.896 46.0278 275.796 46.1179C275.695 46.2079 275.565 46.2575 275.431 46.2568Z" fill="#383431"/>
<path d="M249.946 34.6406C249.851 34.6413 249.757 34.615 249.676 34.5648C249.553 34.4925 249.463 34.3747 249.427 34.2368C249.39 34.099 249.41 33.9523 249.481 33.8287C249.917 33.0724 250.098 32.196 249.998 31.3289C249.897 30.4617 249.521 29.6498 248.924 29.0129C248.327 28.3759 247.541 27.9478 246.683 27.7915C245.824 27.6353 244.938 27.7593 244.155 28.1452C244.091 28.187 244.018 28.2149 243.943 28.2268C243.867 28.2387 243.79 28.2345 243.716 28.2143C243.642 28.1942 243.573 28.1586 243.514 28.1099C243.455 28.0612 243.407 28.0006 243.373 27.932C243.339 27.8634 243.32 27.7883 243.317 27.7118C243.315 27.6353 243.328 27.5591 243.357 27.4882C243.386 27.4173 243.429 27.3533 243.485 27.3005C243.54 27.2476 243.606 27.2071 243.678 27.1817C244.669 26.6943 245.79 26.538 246.876 26.7356C247.962 26.9333 248.956 27.4745 249.711 28.2795C250.466 29.0846 250.943 30.1109 251.071 31.2074C251.2 32.3038 250.972 33.4125 250.423 34.37C250.375 34.4534 250.305 34.5224 250.221 34.57C250.138 34.6176 250.043 34.6419 249.946 34.6406Z" fill="#383431"/>
<path d="M245.28 32.5728H245.193C245.052 32.5488 244.926 32.4711 244.842 32.356C244.757 32.2409 244.72 32.0975 244.739 31.9558C244.966 30.4185 246.146 27.6255 249.069 27.842C249.214 27.8557 249.347 27.9259 249.44 28.0374C249.534 28.1489 249.579 28.2926 249.567 28.4374C249.553 28.5792 249.484 28.7098 249.375 28.801C249.265 28.8922 249.124 28.9366 248.982 28.9245C246.33 28.6864 245.81 31.9666 245.789 32.1073C245.771 32.232 245.711 32.3466 245.618 32.4316C245.525 32.5165 245.406 32.5665 245.28 32.5728Z" fill="#383431"/>
<path d="M280.659 39.7618C280.351 39.7931 280.04 39.7611 279.744 39.6677C279.449 39.5743 279.176 39.4215 278.942 39.2188C278.707 39.016 278.517 38.7676 278.382 38.4886C278.248 38.2097 278.171 37.9062 278.158 37.5967C278.161 37.454 278.219 37.3179 278.32 37.217C278.421 37.1161 278.557 37.0582 278.7 37.0554C278.843 37.0554 278.981 37.1124 279.082 37.214C279.184 37.3155 279.241 37.4531 279.241 37.5967C279.241 38.6793 280.529 38.6793 280.67 38.6793C281.341 38.7334 282.229 38.3978 282.25 37.5967C282.273 37.385 282.251 37.1708 282.185 36.9683C282.119 36.7658 282.011 36.5795 281.868 36.422C281.725 36.2644 281.55 36.139 281.354 36.0541C281.159 35.9692 280.948 35.9268 280.735 35.9295C280.594 35.924 280.461 35.8649 280.362 35.7643C280.263 35.6636 280.207 35.5291 280.204 35.3882V33.5803C280.207 33.4377 280.265 33.3016 280.366 33.2007C280.467 33.0997 280.603 33.0418 280.746 33.0391C280.889 33.0391 281.027 33.0961 281.128 33.1976C281.23 33.2991 281.287 33.4368 281.287 33.5803V34.8794C281.904 34.9977 282.456 35.3414 282.834 35.8436C283.212 36.3458 283.39 36.9706 283.333 37.5967C283.303 37.9159 283.21 38.2261 283.059 38.5088C282.908 38.7915 282.702 39.041 282.452 39.2428C282.203 39.4446 281.916 39.5944 281.608 39.6836C281.3 39.7727 280.977 39.7993 280.659 39.7618Z" fill="#383431"/>
<path d="M249.643 3.0079C249.56 3.02247 249.485 3.06573 249.431 3.13007C249.377 3.19442 249.347 3.27574 249.347 3.35974C249.347 3.44375 249.377 3.52507 249.431 3.58941C249.485 3.65376 249.56 3.69701 249.643 3.71158C250.801 3.98222 252.014 4.84828 251.949 7.3382C251.851 11.6685 254.947 6.40719 255.424 5.57361C255.45 5.50013 255.45 5.41974 255.424 5.34627C255.348 4.67507 254.558 1.67633 249.643 3.0079Z" fill="#383431"/>
<path d="M257.156 -0.164095C257.271 -0.221266 257.401 -0.24165 257.528 -0.222489C257.656 -0.203328 257.774 -0.145546 257.867 -0.0569629C257.961 0.0316199 258.024 0.146727 258.05 0.272785C258.076 0.398843 258.062 0.529764 258.011 0.647836C257.6 1.5572 257.611 2.81299 258.866 4.27447C261.887 7.89027 254.947 5.01062 254.947 5.01062C254.947 5.01062 252.977 2.07683 257.156 -0.164095Z" fill="#383431"/>
<path d="M274.695 23.9022C274.558 23.9026 274.423 23.8806 274.294 23.8372C270.429 22.549 269.368 22.5923 267.246 22.7005C266.662 22.7005 266.012 22.7547 265.233 22.7655C264.9 22.7655 264.58 22.6332 264.345 22.3977C264.109 22.1622 263.977 21.8427 263.977 21.5097C263.977 21.1766 264.109 20.8572 264.345 20.6217C264.58 20.3862 264.9 20.2539 265.233 20.2539C265.98 20.2539 266.597 20.2539 267.16 20.1889C269.433 20.0807 270.808 20.0158 275.128 21.4556C275.41 21.5502 275.65 21.7424 275.804 21.9978C275.958 22.2532 276.016 22.555 275.968 22.8493C275.92 23.1436 275.769 23.4111 275.541 23.604C275.314 23.797 275.025 23.9026 274.727 23.9022H274.695Z" fill="#383431"/>
<path d="M283.095 23.4685C282.881 23.4722 282.669 23.4215 282.48 23.3212C282.291 23.2208 282.13 23.0741 282.013 22.8947C281.833 22.6159 281.77 22.2773 281.839 21.9527C281.908 21.6282 282.103 21.3441 282.381 21.1626C284.07 20.2086 285.973 19.6983 287.913 19.6795C288.078 19.6738 288.242 19.7006 288.397 19.7585C288.551 19.8163 288.693 19.904 288.813 20.0166C288.934 20.1292 289.031 20.2645 289.1 20.4147C289.168 20.5648 289.206 20.727 289.212 20.8919C289.217 21.0568 289.191 21.2213 289.133 21.3758C289.075 21.5303 288.987 21.672 288.875 21.7926C288.762 21.9132 288.627 22.0105 288.477 22.0789C288.326 22.1472 288.164 22.1853 287.999 22.191C286.515 22.2063 285.056 22.5776 283.745 23.2736C283.55 23.3964 283.325 23.4638 283.095 23.4685Z" fill="#383431"/>
<path d="M288.811 11.7332C288.699 11.7327 288.59 11.6988 288.497 11.6358C288.383 11.5496 288.307 11.4223 288.284 11.281C288.262 11.1396 288.296 10.9951 288.378 10.878C288.952 10.0877 289.948 8.25818 289.601 6.98074C289.527 6.71383 289.39 6.46854 289.201 6.2652C289.013 6.06187 288.779 5.90635 288.519 5.81156C286.602 4.97798 285.163 5.88734 283.766 6.76423C282.738 7.40295 281.763 8.02002 280.746 7.68442C280.164 7.45803 279.597 7.19776 279.046 6.90497C275.993 5.38936 270.31 2.57466 264.107 4.01449C256.983 5.67083 256.529 7.53285 256.529 7.5545C256.523 7.62425 256.504 7.69223 256.472 7.75453C256.44 7.81682 256.396 7.87221 256.343 7.91749C256.29 7.96276 256.228 7.99704 256.161 8.01835C256.095 8.03966 256.025 8.0476 255.955 8.04167C255.81 8.02536 255.677 7.9548 255.583 7.84427C255.489 7.73375 255.44 7.5915 255.446 7.44625C255.446 7.02405 255.998 4.79394 263.879 2.95357C270.461 1.42714 276.599 4.46917 279.544 5.94147C280.237 6.27707 280.778 6.54771 281.103 6.65597C281.644 6.82918 282.37 6.3745 283.214 5.84404C284.611 4.96715 286.538 3.75467 288.973 4.82642C289.387 4.97992 289.758 5.22994 290.055 5.55569C290.353 5.88143 290.568 6.2735 290.684 6.69928C291.247 8.75617 289.493 11.2353 289.298 11.5167C289.242 11.591 289.168 11.6498 289.082 11.6877C288.997 11.7255 288.904 11.7412 288.811 11.7332Z" fill="#383431"/>
<path d="M259.689 5.30331C259.575 5.30511 259.464 5.2668 259.375 5.19505C259.049 4.97447 258.775 4.68613 258.572 4.3498C258.368 4.01346 258.24 3.63707 258.195 3.24642C257.989 1.39521 259.646 -0.510113 259.711 -0.596719C259.761 -0.647453 259.821 -0.687728 259.887 -0.715209C259.953 -0.742689 260.023 -0.756836 260.095 -0.756836C260.166 -0.756836 260.237 -0.742689 260.303 -0.715209C260.369 -0.687728 260.429 -0.647453 260.479 -0.596719C260.578 -0.495537 260.634 -0.359503 260.634 -0.21782C260.634 -0.0761364 260.578 0.0598975 260.479 0.16108C259.738 0.997135 259.296 2.0559 259.223 3.17064C259.251 3.41219 259.333 3.64444 259.462 3.85045C259.592 4.05646 259.765 4.23104 259.97 4.36147C260.085 4.4476 260.161 4.57584 260.181 4.71795C260.202 4.86007 260.165 5.00443 260.079 5.11927C260.031 5.17605 259.971 5.22186 259.904 5.25361C259.836 5.28535 259.763 5.3023 259.689 5.30331Z" fill="#383431"/>
<path d="M276.102 30.2026C276.102 30.2026 272.951 33.3312 269.206 33.2013C265.46 33.0714 262.537 29.7262 262.537 29.7262C262.537 29.7262 265.687 26.6084 269.433 26.7383C273.179 26.8682 276.102 30.2026 276.102 30.2026Z" fill="white"/>
<path d="M276.101 30.7441C276.025 30.7433 275.95 30.7264 275.881 30.6947C275.812 30.663 275.75 30.6171 275.7 30.5601C275.7 30.5601 272.875 27.399 269.411 27.3124C265.946 27.2258 262.915 30.1162 262.915 30.1487C262.813 30.2506 262.675 30.3079 262.531 30.3079C262.387 30.3079 262.248 30.2506 262.147 30.1487C262.045 30.0468 261.987 29.9085 261.987 29.7644C261.987 29.6202 262.045 29.482 262.147 29.3801C262.287 29.2393 265.47 26.1324 269.454 26.2298C273.438 26.3272 276.382 29.7373 276.512 29.8781C276.605 29.988 276.652 30.1298 276.641 30.2734C276.631 30.417 276.566 30.5509 276.458 30.6467C276.354 30.7202 276.228 30.7546 276.101 30.7441Z" fill="#383431"/>
<path d="M272.604 32.1188C273.746 32.1188 274.671 31.1931 274.671 30.0511C274.671 28.9091 273.746 27.9834 272.604 27.9834C271.462 27.9834 270.536 28.9091 270.536 30.0511C270.536 31.1931 271.462 32.1188 272.604 32.1188Z" fill="#383431"/>
<path d="M291.345 28.3184C291.345 28.3184 289.721 31.2197 287.199 31.6419C284.676 32.0641 282.186 29.8557 282.186 29.8557C282.186 29.8557 283.81 26.9544 286.343 26.5322C288.877 26.11 291.345 28.3184 291.345 28.3184Z" fill="white"/>
<path d="M282.186 30.3977C282.094 30.3994 282.003 30.3729 281.926 30.3219C281.863 30.2881 281.808 30.2419 281.763 30.1862C281.719 30.1305 281.686 30.0663 281.667 29.9976C281.647 29.9289 281.642 29.857 281.652 29.7862C281.661 29.7154 281.684 29.6473 281.72 29.5858C281.785 29.4667 283.496 26.4571 286.256 26.0024C289.017 25.5478 291.604 27.8212 291.669 27.9186C291.723 27.9662 291.766 28.0239 291.797 28.0883C291.828 28.1527 291.846 28.2226 291.85 28.2939C291.854 28.3653 291.844 28.4368 291.82 28.5043C291.797 28.5717 291.76 28.6339 291.713 28.6872C291.665 28.7405 291.607 28.7839 291.543 28.815C291.478 28.846 291.409 28.864 291.337 28.8681C291.266 28.8721 291.194 28.862 291.127 28.8384C291.059 28.8148 290.997 28.7782 290.944 28.7305C290.944 28.7305 288.627 26.6845 286.386 27.0634C284.145 27.4423 282.63 30.0946 282.619 30.1162C282.577 30.1961 282.515 30.2639 282.439 30.3132C282.363 30.3625 282.276 30.3915 282.186 30.3977Z" fill="#383431"/>
<path d="M288.42 30.4517C289.383 30.4517 290.163 29.6714 290.163 28.7088C290.163 27.7462 289.383 26.9658 288.42 26.9658C287.458 26.9658 286.677 27.7462 286.677 28.7088C286.677 29.6714 287.458 30.4517 288.42 30.4517Z" fill="#383431"/>
</g>
</g>
<defs>
<clipPath id="clip0_2_22935">
<rect width="584" height="112" rx="12" fill="white"/>
</clipPath>
<clipPath id="clip1_2_22935">
<rect width="600" height="600" fill="white" transform="translate(-8)"/>
</clipPath>
</defs>
</svg>
